<?xml version="1.0" encoding="utf-8"?>
<!-- Generator: Adobe Illustrator 26.2.1, SVG Export Plug-In . SVG Version: 6.00 Build 0)  -->
<svg version="1.1" id="Layer_1" xmlns="http://www.w3.org/2000/svg" xmlns:xlink="http://www.w3.org/1999/xlink" x="0px" y="0px"
	 viewBox="0 0 500 500" style="enable-background:new 0 0 500 500;" xml:space="preserve">
<style type="text/css">
	.st0{fill:#590A01;}
	.st1{fill:#5E5354;}
	.st2{fill:#4F4244;}
	.st3{fill:#A49193;}
</style>
<g>
	<path class="st0" d="M195.06,2.16c0.96-0.8,1.92-1.6,2.88-2.4C196.98,0.57,196.02,1.37,195.06,2.16z"/>
	<path class="st0" d="M221.99,1.91c0.92-0.73,1.84-1.45,2.76-2.18C223.83,0.45,222.91,1.18,221.99,1.91z"/>
	<path class="st1" d="M345.08,464.1c-0.48,0-0.64-0.15-0.72-0.61c-0.8-4.6-33.9-154.48-34.76-159.08c-0.99-5.3-1.99-10.6-3.02-15.91
		c-2.44-12.31-5.12-24.56-8.28-36.7c-1.9-7.29-3.7-14.62-5.8-21.85c-2.44-8.43-9.62-68.56-12.19-76.95
		c-2.4-7.27-4.3-14.69-5.67-22.22c-0.6-3.77-1.01-7.58-1.32-11.38c-0.13-2.58-0.11-5.16,0.05-7.74c0.15-3.98,0.76-7.93,1.81-11.77
		c1.29-4.16,2.93-8.2,4.9-12.07c1.53-3.23,3.02-6.5,4.37-9.8c1.21-2.79,1.89-5.77,2.01-8.8c0.11-3.99-0.97-7.92-3.11-11.3
		c-2.94-5.1-8.43-8.19-14.32-8.05c-2.64,0.08-5.22,0.77-7.55,2.01c-0.67,0.33-1.21,0.89-1.51,1.57c-1.61,3.15-3.52,6.14-5.7,8.92
		c-0.37,0.64-1.19,0.86-1.83,0.49c-0.02-0.01-0.05-0.03-0.07-0.05c-0.68-0.4-0.9-1.28-0.5-1.96c0.01-0.02,0.02-0.04,0.03-0.05
		c2.05-3.85,3.81-7.85,5.27-11.95c1.46-3.33,1.71-7.07,0.7-10.56c-2.09-8.09-9.94-13.3-18.2-12.07c-4.42,0.42-8.53,2.47-11.52,5.76
		c-0.74,0.7-1.35,1.53-1.82,2.43c-1.11,2.69-1.86,5.53-2.21,8.42c-0.4,2.87-0.74,5.74-1.13,8.6c-0.1,0.75-0.5,1.13-1.1,1.11
		c-0.65-0.02-1.18-0.55-1.18-1.21c0-1.79-0.05-3.59,0-5.39c0.1-3.2,0.57-6.38,1.41-9.47c0.06-0.26,0.06-0.53,0-0.78
		c-0.25-1.13-0.54-2.24-0.83-3.37c-0.21-0.75-0.71-1.4-1.39-1.79c-3.97-2.7-8.85-3.71-13.56-2.8c-4.57,0.85-8.71,3.24-11.73,6.77
		c-2.19,2.39-3.65,5.35-4.2,8.54c0,0.94-0.28,1.85-0.81,2.63c-0.09,0.09-0.08,0.29-0.09,0.44c-0.21,2.42-0.12,4.86,0.27,7.25
		c0.44,2.63,1.01,5.23,1.59,7.84c0.21,0.59-0.05,1.25-0.6,1.54c-0.58,0.3-1.29,0.12-1.66-0.41c-0.1-0.12-0.19-0.25-0.27-0.38
		c-2.04-3.29-3.15-7.07-3.2-10.95c0-1.77,0.07-3.54,0.11-5.38c-0.18,0-0.43-0.13-0.69-0.19c-3.96-0.94-8.06-1.08-12.07-0.4
		c-6.41,1.15-11.55,4.18-14.88,9.96c-3.67,6.38-5.23,13.08-3.58,20.37c0.77,3.4,1.71,6.77,2.57,10.15
		c0.94,3.73,19.84,71.44,18.6,75.11c-1.57,4.73-3.02,9.49-4.24,14.32c-2.67,10.86,4.81,49.02,2.39,59.94
		c-2.28,10.33,5.87,41.51,3.81,51.9c-1.58,8.05,5.9,19.75,4.46,27.83c-0.84,4.66,2.42,6.46,1.67,11.13
		c-1.01,6.43,6.5,5.21,5.53,11.65c-0.77,5.12-1.51,10.24-2.17,15.38c-0.83,6.3-7.69,140.08-8.43,146.38"/>
	<path class="st2" d="M178.16,267.85c2.01-10.38-6.66-22.64-4.38-32.97c2.41-10.92-5.03-49.08-2.39-59.94
		c1.18-4.83,2.67-9.59,4.24-14.32c1.24-3.71-17.67-71.38-18.6-75.11c-0.86-3.38-1.79-6.75-2.57-10.15c-1.65-7.27-0.09-14,3.58-20.37
		c3.33-5.79,8.47-8.81,14.88-9.96c4.01-0.68,8.12-0.54,12.07,0.4c0.26,0.06,0.51,0.14,0.69,0.19c0,1.84-0.15,3.61-0.11,5.38
		c0.05,3.87,1.16,7.66,3.2,10.95c0.08,0.13,0.17,0.26,0.27,0.38c0.37,0.53,1.08,0.71,1.66,0.41c0.55-0.29,0.81-0.95,0.6-1.54
		c-0.54-2.61-1.15-5.21-1.59-7.84c-0.39-2.4-0.48-4.83-0.27-7.25c0-0.15,0-0.35,0.09-0.44c0.56-0.77,0.87-1.69,0.89-2.65
		c0.57-3.2,2.06-6.17,4.28-8.54c3.02-3.53,7.16-5.93,11.73-6.77c4.71-0.91,9.59,0.1,13.56,2.8c0.68,0.39,1.18,1.04,1.39,1.79
		c0.28,1.13,0.57,2.24,0.83,3.37c0.06,0.26,0.06,0.53,0,0.78c-0.83,3.09-1.31,6.27-1.41,9.47c-0.05,1.8,0,3.6,0,5.39
		c0,0.66,0.52,1.19,1.18,1.21c0.59,0,1.01-0.35,1.1-1.11c0.38-2.87,0.72-5.74,1.13-8.6c0.36-2.89,1.1-5.73,2.21-8.42
		c0.44-0.9,1.03-1.72,1.74-2.43c2.99-3.24,7.07-5.27,11.46-5.67c8.27-1.23,16.13,3.97,18.22,12.06c1,3.5,0.75,7.23-0.7,10.56
		c-1.48,4.11-3.27,8.1-5.33,11.95c-0.43,0.66-0.25,1.55,0.41,1.98c0.02,0.01,0.04,0.02,0.05,0.03c0.61,0.41,1.45,0.25,1.86-0.37
		c0.02-0.02,0.03-0.05,0.05-0.07c2.18-2.79,4.09-5.78,5.7-8.92c0.3-0.68,0.84-1.24,1.51-1.57c2.33-1.24,4.91-1.93,7.55-2.01
		c5.89-0.14,11.38,2.95,14.32,8.05c2.13,3.37,3.22,7.31,3.11,11.3c-0.12,3.03-0.8,6.02-2.01,8.8c-1.37,3.3-2.84,6.57-4.37,9.8
		c-1.97,3.88-3.61,7.92-4.9,12.07c-1.05,3.84-1.66,7.79-1.81,11.77c-0.16,2.58-0.18,5.16-0.05,7.74c0.28,3.8,0.71,7.61,1.32,11.38
		c1.23,7.57,0.39,15.65,2.65,22.96c2.58,8.39,12.78,67.77,15.22,76.21c2.09,7.23,3.89,14.56,5.8,21.85
		c3.23,12.07,5.93,24.33,8.35,36.66c1.05,5.29,2.05,10.59,3.02,15.91c0.9,4.57,33.99,154.45,34.8,159.05
		c0.08,0.46,0.24,0.61,0.72,0.61c1.75,0,3.51,0,5.32,0c-0.57-2.89-1.14-5.71-1.72-8.54c-2.39-11.67-37.34-168.57-40.33-180.1
		c-3.15-12.19-6.37-24.35-9.66-36.48c-3.31-12.16-10.86-65.85-14.22-78c-1.91-6.9-3.96-24.07-4.9-31.19
		c-0.44-3.34-0.69-6.7-0.91-10.06c-0.45-8.17,0.77-16.35,3.6-24.04c1.31-3.67,2.9-7.26,4.35-10.9c1.64-3.89,2.78-7.97,3.4-12.14
		c0.9-5.92-0.24-11.97-3.22-17.16c-0.17-0.34-0.23-0.73-0.16-1.11c0.51-3.02,1.11-6.04,1.6-9.12c0.11-0.8,0.09-1.6-0.06-2.39
		c-0.41-2.46-2.15-3.58-4.61-3.02c-2.07,0.62-4.01,1.62-5.7,2.95c-1.11,0.74-2.14,1.59-3.24,2.34c-0.26,0.17-0.58,0.24-0.9,0.18
		c-3.29-0.89-6.74-0.97-10.06-0.22c-0.13,0-0.26,0-0.56,0.07c0-1.13,0.09-2.21,0-3.29c-0.33-5.81-2.8-11.3-6.93-15.39
		c-0.66-0.62-1.36-1.21-2.08-1.76c-0.32-0.24-0.52-0.61-0.55-1.01c-0.46-3.07-0.92-6.15-1.48-9.2c-0.22-0.83-0.56-1.63-1.01-2.36
		c-0.52-0.79-1.35-1.33-2.28-1.49h-1.2c-2.91,0.94-4.51,3.35-6.23,5.6c-1.01,1.35-1.91,2.79-2.91,4.15
		c-0.23,0.31-0.55,0.53-0.93,0.63c-4.49,0.84-8.61,3.05-11.8,6.32c-0.36,0.36-0.68,0.75-1.08,1.19l-1.5-1.07
		c-2.96-2.08-6.28-3.57-9.8-4.39c-0.31-0.1-0.57-0.29-0.75-0.55c-1.88-2.53-3.69-5.12-5.64-7.6c-0.73-0.89-1.61-1.65-2.59-2.26
		c-1.51-1-3.54-0.59-4.55,0.92c-1.03,1.54-1.67,3.31-1.85,5.16c-0.34,2.14-0.54,4.32-0.85,6.47c-0.06,0.31-0.22,0.59-0.47,0.78
		c-3.03,1.98-5.55,4.64-7.37,7.77c-1.16,2.18-2.01,4.51-2.54,6.92c-0.06,0.24-0.12,0.47-0.18,0.73c-1.36-0.29-2.67-0.61-4.02-0.86
		c-2.96-0.51-5.97-0.63-8.96-0.34c-0.31-0.02-0.6-0.16-0.81-0.39c-2.15-2.17-4.24-4.44-6.45-6.55c-0.89-0.8-1.91-1.44-3.02-1.88
		c-1.53-0.64-3.29,0-4.05,1.46c-0.71,1.19-1.08,2.56-1.08,3.94c-0.05,3.31,0,6.62,0,9.92c0,0.23-0.08,0.46-0.23,0.63
		c-4.72,5.05-7.56,11.56-8.05,18.45c-0.32,4.86,0.12,9.75,1.31,14.48c0.56,2.58,1.06,5.18,1.46,7.79
		c0.36,2.43,13.82,71.57,13.23,73.98c-3.7,15.31,3.8,45.8,0.56,61.22c-1.59,7.57,0.55,3.9,1.11,17.27
		c1.67,18.93,5.57,41.19,10.06,55.66c0.56,11.14,7.4,38.8,5.86,48.97c-1.3,8.62-8.45,144.76-9.61,153.41c0,0.24-0.09,0.48-0.14,0.71
		v0.4c1.43,0,2.85,0,4.28,0c0.42,0,0.61-0.08,0.67-0.56c0.74-6.31,7.61-140.09,8.43-146.38c0.66-5.14,1.4-10.26,2.17-15.38
		c1.01-6.44-6.57-34.21-5.53-40.6"/>
	<path class="st2" d="M170.02,40.85c-3.57,0.81-6.94,2.36-9.88,4.55c-0.53-3.43-0.37-6.92,0.48-10.28c0.55-1.91,1.52-2.22,3.02-0.93
		c1.02,0.89,1.99,1.84,2.9,2.85C167.72,38.26,168.83,39.52,170.02,40.85z"/>
	<path class="st2" d="M199.21,24.6c-0.02-0.17-0.02-0.34,0-0.51c0.28-1.86,0.49-3.73,0.91-5.56c0.29-1.16,0.72-2.29,1.29-3.34
		c0.51-1.01,1.27-1.07,2.14-0.36c0.4,0.33,0.76,0.72,1.07,1.14c1.5,2.06,3.02,4.16,4.45,6.24c0.08,0.13,0.14,0.28,0.18,0.42
		C205.79,22.48,202.35,23.16,199.21,24.6z"/>
	<path class="st2" d="M240.74,20.69c0.03-0.11,0.07-0.22,0.12-0.33c1.45-2.56,3.35-4.84,5.6-6.73c1.6-1.31,2.62-1.01,3.09,1.01
		c0.35,1.53,0.54,3.1,0.76,4.66c0.15,1.07,0.22,2.14,0.35,3.35C247.57,21.19,244.16,20.52,240.74,20.69z"/>
	<path class="st2" d="M284.54,51.91l-0.27,0.07c-2.13-2.45-4.77-4.39-7.75-5.68c0-0.11,0-0.16,0.06-0.19
		c2.13-1.81,4.6-3.2,7.25-4.08c1.46-0.46,2.38,0.29,2.15,1.81C285.58,46.52,285.01,49.21,284.54,51.91z"/>
	<path class="st3" d="M160.14,46.91c0.33,0,0.65-0.11,0.92-0.3c2.77-2.07,5.95-3.53,9.32-4.29c0.81-0.2,1.31-1.01,1.11-1.82
		c-0.06-0.24-0.18-0.47-0.34-0.65l-1.08-1.21c-0.81-0.91-1.6-1.78-2.4-2.64c-0.95-1.04-1.96-2.03-3.02-2.96
		c-0.69-0.68-1.6-1.09-2.57-1.15c-1.01,0-2.23,0.48-2.91,2.8c-0.9,3.55-1.08,7.24-0.53,10.87c0.08,0.77,0.73,1.35,1.5,1.35
		L160.14,46.91z"/>
	<path class="st2" d="M162.09,33.41c-0.65,0-1.13,0.57-1.46,1.71c-0.85,3.36-1.01,6.86-0.48,10.28c2.94-2.19,6.31-3.74,9.88-4.55
		c-1.2-1.33-2.3-2.6-3.46-3.81c-0.91-1-1.88-1.95-2.9-2.85C163.24,33.76,162.69,33.48,162.09,33.41 M162.09,30.39L162.09,30.39
		c1.33,0.05,2.59,0.59,3.54,1.51c1.1,0.95,2.14,1.96,3.13,3.02c0.84,0.88,1.61,1.75,2.43,2.68l1.07,1.19
		c1.12,1.24,1.02,3.14-0.21,4.26c-0.37,0.34-0.83,0.58-1.32,0.7c-3.17,0.72-6.15,2.09-8.76,4.02c-0.52,0.4-1.16,0.61-1.82,0.61
		c-0.41,0-0.82-0.08-1.2-0.25c-0.99-0.43-1.68-1.36-1.8-2.43c-0.57-3.82-0.37-7.72,0.58-11.46c1.01-3.5,3.39-3.88,4.36-3.88V30.39z"
		/>
	<path class="st3" d="M199.21,26.11c0.22,0,0.43-0.05,0.62-0.14c2.73-1.25,5.7-1.88,8.7-1.85h0.74c0.83,0,1.51-0.68,1.51-1.51
		c0-0.2-0.04-0.4-0.12-0.58v-0.12c-0.08-0.21-0.17-0.41-0.29-0.59l-0.76-1.07c-1.23-1.73-2.44-3.46-3.69-5.18
		c-0.4-0.53-0.87-1.01-1.39-1.42c-0.55-0.5-1.27-0.78-2.01-0.8c-1.06,0.02-2.02,0.67-2.42,1.65c-0.63,1.17-1.11,2.41-1.42,3.69
		c-0.31,1.38-0.51,2.77-0.7,4.13c-0.07,0.51-0.15,1.01-0.23,1.54c-0.03,0.24-0.03,0.49,0,0.73v0.16c0.04,0.49,0.31,0.93,0.73,1.18
		C198.7,26.04,198.96,26.11,199.21,26.11z"/>
	<path class="st2" d="M202.44,14.36c-0.49,0.04-0.92,0.36-1.09,0.83c-0.57,1.06-1,2.18-1.29,3.34c-0.41,1.83-0.62,3.7-0.91,5.56
		c-0.02,0.17-0.02,0.34,0,0.51c2.91-1.35,6.08-2.03,9.29-2.01h0.74c-0.04-0.15-0.1-0.29-0.18-0.42c-1.48-2.08-2.95-4.18-4.45-6.24
		c-0.31-0.4-0.66-0.76-1.06-1.08c-0.29-0.27-0.66-0.44-1.06-0.46 M202.45,11.37L202.45,11.37c1.09,0.02,2.13,0.42,2.96,1.14
		c0.63,0.5,1.18,1.07,1.66,1.71c1.24,1.64,2.48,3.44,3.67,5.13l0.81,1.1c0.2,0.3,0.36,0.61,0.48,0.95v0.06
		c0.64,1.54-0.08,3.31-1.62,3.95c-0.37,0.16-0.77,0.24-1.17,0.23h-0.71c-2.78-0.03-5.52,0.56-8.05,1.71
		c-0.39,0.19-0.82,0.28-1.26,0.28c-1.55,0.01-2.86-1.16-3.02-2.71v-0.09c-0.07-0.4-0.07-0.8,0-1.2c0.08-0.5,0.15-1.01,0.23-1.53
		c0.19-1.38,0.4-2.8,0.72-4.24c0.34-1.4,0.86-2.76,1.55-4.02c0.67-1.48,2.14-2.44,3.76-2.47L202.45,11.37z"/>
	<path class="st3" d="M250.71,24.16c0.31,0,0.62-0.1,0.88-0.28c0.44-0.31,0.68-0.84,0.62-1.38c0-0.37-0.07-0.74-0.11-1.1
		c-0.07-0.8-0.14-1.56-0.24-2.31l-0.1-0.66c-0.18-1.35-0.37-2.75-0.69-4.13c-0.6-2.59-2.08-2.97-2.92-2.97
		c-0.97,0.06-1.89,0.46-2.6,1.13c-2.4,2-4.41,4.42-5.95,7.13c-0.08,0.14-0.15,0.29-0.2,0.45v0.13c-0.28,0.79,0.13,1.65,0.92,1.93
		c0.16,0.06,0.33,0.09,0.5,0.09h0.07h0.95c2.86,0,5.69,0.63,8.28,1.85C250.3,24.12,250.5,24.16,250.71,24.16z"/>
	<path class="st2" d="M248.14,12.84c-0.62,0.07-1.19,0.35-1.64,0.78c-2.26,1.89-4.15,4.17-5.6,6.73c-0.05,0.11-0.09,0.22-0.12,0.33
		h1.01c3.08,0.01,6.13,0.7,8.91,2.01c-0.13-1.21-0.2-2.28-0.35-3.35c-0.22-1.56-0.41-3.13-0.76-4.66c-0.28-1.21-0.76-1.8-1.45-1.8
		 M248.13,9.87L248.13,9.87c0.8,0,3.5,0.3,4.39,4.14c0.29,1.4,0.54,2.86,0.73,4.21l0.09,0.66c0.12,0.8,0.19,1.57,0.26,2.38
		c0,0.35,0.06,0.71,0.1,1.09c0.17,1.66-1.04,3.14-2.7,3.31c-0.11,0.01-0.21,0.02-0.32,0.02c-0.43,0-0.86-0.09-1.26-0.27
		c-2.4-1.12-5.01-1.7-7.66-1.71h-0.89h-0.15c-1.67,0-3.01-1.36-3.01-3.03c0-0.34,0.06-0.68,0.17-1v-0.08
		c0.08-0.26,0.19-0.51,0.32-0.74c1.63-2.87,3.77-5.42,6.3-7.54c0.99-0.91,2.28-1.44,3.62-1.48L248.13,9.87z"/>
	<path class="st3" d="M284.27,53.49c0.12,0.01,0.24,0.01,0.36,0l0.26-0.07c0.59-0.15,1.03-0.64,1.12-1.24
		c0.15-0.79,0.29-1.58,0.44-2.37c0.36-1.88,0.72-3.83,1.01-5.78c0.2-0.96-0.04-1.96-0.66-2.72c-0.54-0.65-1.35-1.02-2.2-1.01
		c-0.42,0.01-0.83,0.07-1.23,0.2c-2.85,0.95-5.48,2.44-7.76,4.39c-0.28,0.24-0.48,0.57-0.56,0.94c-0.21,0.73,0.15,1.51,0.86,1.81
		c2.76,1.21,5.22,3.02,7.2,5.29C283.39,53.29,283.82,53.49,284.27,53.49z"/>
	<path class="st2" d="M284.63,41.86c-0.27,0.01-0.53,0.05-0.78,0.14c-2.66,0.89-5.12,2.29-7.25,4.11c0,0,0,0.08-0.06,0.19
		c2.97,1.3,5.62,3.24,7.75,5.68l0.27-0.07c0.49-2.7,1.01-5.39,1.45-8.05c0.19-1.23-0.38-1.95-1.37-1.95 M284.63,38.89L284.63,38.89
		c1.28-0.02,2.51,0.52,3.35,1.49c0.9,1.1,1.27,2.53,1.01,3.92c-0.3,2.01-0.67,3.93-1.01,5.84c-0.15,0.78-0.3,1.58-0.44,2.36
		c-0.21,1.17-1.1,2.11-2.25,2.39l-0.27,0.06c-0.23,0.06-0.47,0.09-0.71,0.09c-0.86,0-1.69-0.36-2.26-1.01
		c-1.84-2.13-4.13-3.83-6.7-4.98c-1.37-0.6-2.09-2.1-1.71-3.54c0.14-0.69,0.52-1.31,1.07-1.75c2.42-2.08,5.23-3.66,8.26-4.66
		c0.54-0.18,1.11-0.27,1.68-0.27V38.89z"/>
	<path class="st2" d="M274.28,124.22l2.23,22.27l0,0c-9.26-1.85-18.33-4.54-27.1-8.05l-8.24-3.29l0,0
		c9.37-0.97,18.5-3.62,26.92-7.84L274.28,124.22z"/>
	<path class="st2" d="M336.94,417.19l4.83,30.92l0,0c-17.86,0.13-35.7-1.02-53.4-3.43l-16.25-2.21l0,0
		c18.32-4.13,36.04-10.55,52.74-19.12L336.94,417.19z"/>
	<path class="st2" d="M172.32,225.79l0.65,22.37l0,0c8.94-3.03,17.59-6.87,25.84-11.47l7.74-4.33l0,0
		c-9.42,0.25-18.8-1.21-27.7-4.31L172.32,225.79z"/>
	<path class="st2" d="M300.28,246.78l6.36,21.72l0,0c-17,4.64-34.24,8.36-51.64,11.16l-15.78,2.52l0,0
		c17.38-7.73,34.03-17,49.75-27.69L300.28,246.78z"/>
	<path class="st2" d="M188.55,323.59l-2.23,22.29l0,0c9.26-1.85,18.33-4.55,27.1-8.05l8.21-3.31l0,0
		c-9.37-0.96-18.5-3.62-26.92-7.84L188.55,323.59z"/>
</g>
</svg>
