<?xml version="1.0" encoding="utf-8"?>
<!-- Generator: Adobe Illustrator 26.2.1, SVG Export Plug-In . SVG Version: 6.00 Build 0)  -->
<svg version="1.1" xmlns="http://www.w3.org/2000/svg" xmlns:xlink="http://www.w3.org/1999/xlink" x="0px" y="0px"
	 viewBox="0 0 500 500" style="enable-background:new 0 0 500 500;" xml:space="preserve">
<style type="text/css">
	.st0{fill:#590A01;}
	.st1{fill:#5E5354;}
	.st2{fill:#4F4244;}
	.st3{fill:#A49193;}
</style>
<g id="typewriter">
</g>
<g id="cat-paw-left">
	<g>
		<path class="st0" d="M87.41,291.1c0.96-0.8,1.93-1.6,2.89-2.41C89.34,289.49,88.37,290.29,87.41,291.1z"/>
		<path class="st0" d="M114.47,290.84c0.92-0.73,1.85-1.46,2.77-2.19C116.32,289.38,115.4,290.11,114.47,290.84z"/>
		<path class="st1" d="M238.17,755.29c-0.49,0-0.65-0.15-0.73-0.62c-0.81-4.62-34.06-155.24-34.93-159.86
			c-0.99-5.33-2-10.65-3.03-15.99c-2.46-12.37-5.15-24.68-8.32-36.88c-1.91-7.33-3.72-14.69-5.82-21.96
			c-2.46-8.47-9.67-68.89-12.25-77.33c-2.41-7.3-4.32-14.76-5.7-22.32c-0.61-3.79-1.01-7.61-1.32-11.44
			c-0.13-2.59-0.11-5.19,0.05-7.78c0.16-4,0.77-7.97,1.82-11.83c1.29-4.18,2.94-8.24,4.92-12.13c1.54-3.25,3.03-6.53,4.39-9.85
			c1.21-2.8,1.9-5.8,2.02-8.85c0.11-4.01-0.98-7.96-3.12-11.35c-2.96-5.12-8.47-8.23-14.39-8.09c-2.65,0.08-5.25,0.77-7.58,2.02
			c-0.68,0.33-1.21,0.89-1.52,1.58c-1.62,3.16-3.54,6.17-5.73,8.97c-0.37,0.64-1.19,0.86-1.84,0.49c-0.03-0.01-0.05-0.03-0.07-0.05
			c-0.68-0.41-0.9-1.29-0.5-1.97c0.01-0.02,0.02-0.04,0.03-0.05c2.06-3.87,3.83-7.88,5.3-12.01c1.47-3.35,1.72-7.1,0.71-10.62
			c-2.1-8.13-9.99-13.36-18.29-12.13c-4.44,0.42-8.57,2.48-11.58,5.78c-0.74,0.71-1.36,1.54-1.83,2.45
			c-1.12,2.71-1.87,5.55-2.22,8.46c-0.4,2.88-0.75,5.76-1.13,8.64c-0.1,0.76-0.51,1.13-1.1,1.11c-0.66-0.02-1.18-0.55-1.18-1.21
			c0-1.8-0.05-3.61,0-5.42c0.1-3.22,0.58-6.41,1.42-9.51c0.07-0.26,0.07-0.53,0-0.79c-0.25-1.13-0.55-2.25-0.83-3.39
			c-0.21-0.76-0.71-1.4-1.4-1.8c-3.99-2.71-8.89-3.72-13.63-2.81c-4.59,0.85-8.76,3.25-11.79,6.8c-2.2,2.4-3.66,5.38-4.22,8.58
			c0,0.94-0.28,1.86-0.82,2.64c-0.09,0.09-0.08,0.29-0.09,0.44c-0.21,2.43-0.12,4.88,0.27,7.29c0.44,2.64,1.01,5.26,1.6,7.88
			c0.21,0.59-0.05,1.25-0.61,1.55c-0.58,0.3-1.29,0.12-1.67-0.41c-0.1-0.12-0.19-0.25-0.27-0.38c-2.05-3.31-3.16-7.11-3.22-11
			c0-1.78,0.07-3.56,0.11-5.41c-0.18,0-0.43-0.13-0.7-0.19c-3.98-0.95-8.1-1.09-12.13-0.4c-6.44,1.15-11.61,4.2-14.95,10.01
			c-3.69,6.41-5.26,13.14-3.6,20.47c0.78,3.42,1.72,6.8,2.58,10.2c0.94,3.75,19.94,71.79,18.69,75.48
			c-1.58,4.75-3.03,9.53-4.26,14.39c-2.68,10.91,4.83,49.26,2.41,60.23c-2.3,10.38,5.89,41.72,3.83,52.15
			c-1.59,8.09,5.92,19.85,4.48,27.97c-0.84,4.68,2.44,6.49,1.68,11.18c-1.01,6.46,6.53,5.24,5.56,11.71
			c-0.78,5.15-1.52,10.29-2.18,15.46c-0.83,6.33-7.72,140.76-8.47,147.1"/>
		<path class="st2" d="M70.43,558.08c2.02-10.43-6.69-22.75-4.4-33.13c2.43-10.97-5.06-49.32-2.41-60.23
			c1.18-4.85,2.68-9.64,4.26-14.39c1.24-3.73-17.75-71.73-18.69-75.48c-0.86-3.4-1.8-6.78-2.58-10.2
			c-1.66-7.31-0.09-14.06,3.6-20.47c3.35-5.81,8.51-8.86,14.95-10.01c4.03-0.68,8.16-0.54,12.13,0.4c0.26,0.06,0.52,0.14,0.7,0.19
			c0,1.85-0.15,3.63-0.11,5.41c0.05,3.89,1.16,7.69,3.22,11c0.08,0.13,0.17,0.26,0.27,0.38c0.37,0.54,1.09,0.71,1.67,0.41
			c0.56-0.29,0.81-0.95,0.61-1.55c-0.55-2.62-1.15-5.24-1.6-7.88c-0.39-2.41-0.48-4.86-0.27-7.29c0-0.15,0-0.35,0.09-0.44
			c0.56-0.77,0.87-1.7,0.89-2.66c0.58-3.22,2.07-6.2,4.3-8.58c3.03-3.55,7.2-5.95,11.79-6.8c4.74-0.91,9.64,0.1,13.63,2.81
			c0.68,0.4,1.18,1.04,1.4,1.8c0.28,1.13,0.58,2.25,0.83,3.39c0.07,0.26,0.07,0.53,0,0.79c-0.84,3.11-1.31,6.3-1.42,9.51
			c-0.05,1.81,0,3.62,0,5.42c0,0.66,0.52,1.2,1.18,1.21c0.6,0,1.01-0.35,1.1-1.11c0.38-2.88,0.73-5.76,1.13-8.64
			c0.36-2.91,1.11-5.75,2.22-8.46c0.45-0.91,1.04-1.73,1.75-2.45c3-3.26,7.1-5.29,11.52-5.7c8.31-1.24,16.21,3.99,18.31,12.12
			c1.01,3.51,0.76,7.27-0.71,10.62c-1.49,4.13-3.28,8.14-5.36,12.01c-0.44,0.66-0.25,1.55,0.41,1.99c0.02,0.01,0.04,0.02,0.05,0.03
			c0.62,0.41,1.45,0.25,1.87-0.37c0.02-0.02,0.03-0.05,0.05-0.07c2.19-2.8,4.11-5.8,5.73-8.97c0.3-0.69,0.84-1.25,1.52-1.58
			c2.34-1.25,4.93-1.94,7.58-2.02c5.91-0.14,11.43,2.96,14.39,8.09c2.14,3.39,3.23,7.34,3.12,11.35c-0.12,3.05-0.81,6.05-2.02,8.85
			c-1.38,3.32-2.85,6.6-4.39,9.85c-1.98,3.9-3.63,7.96-4.92,12.13c-1.05,3.86-1.66,7.83-1.82,11.83c-0.16,2.59-0.18,5.18-0.05,7.78
			c0.28,3.82,0.72,7.64,1.32,11.44c1.23,7.6,0.39,15.72,2.66,23.07c2.59,8.43,12.84,68.11,15.3,76.58
			c2.1,7.27,3.91,14.63,5.82,21.96c3.25,12.13,5.96,24.45,8.39,36.84c1.05,5.32,2.06,10.65,3.03,15.99
			c0.9,4.59,34.15,155.21,34.97,159.83c0.08,0.47,0.24,0.62,0.73,0.62c1.76,0,3.53,0,5.35,0c-0.58-2.9-1.14-5.74-1.73-8.58
			c-2.41-11.73-37.52-169.4-40.52-180.98c-3.17-12.25-6.4-24.47-9.71-36.66c-3.33-12.22-10.91-66.17-14.29-78.38
			c-1.92-6.94-3.98-24.18-4.92-31.34c-0.44-3.36-0.7-6.73-0.91-10.11c-0.45-8.21,0.78-16.43,3.62-24.15
			c1.31-3.69,2.91-7.3,4.37-10.95c1.65-3.91,2.8-8.01,3.42-12.2c0.9-5.95-0.24-12.03-3.24-17.25c-0.17-0.34-0.23-0.73-0.16-1.11
			c0.52-3.03,1.11-6.07,1.61-9.16c0.11-0.8,0.09-1.61-0.06-2.41c-0.41-2.47-2.16-3.6-4.63-3.03c-2.08,0.62-4.02,1.62-5.73,2.96
			c-1.11,0.75-2.15,1.6-3.26,2.36c-0.27,0.17-0.59,0.24-0.9,0.18c-3.3-0.9-6.77-0.97-10.11-0.22c-0.13,0-0.26,0-0.57,0.07
			c0-1.13,0.09-2.22,0-3.31c-0.33-5.84-2.81-11.35-6.97-15.47c-0.66-0.63-1.36-1.22-2.09-1.77c-0.32-0.24-0.53-0.61-0.56-1.01
			c-0.47-3.08-0.92-6.18-1.49-9.24c-0.22-0.84-0.56-1.64-1.01-2.38c-0.52-0.8-1.35-1.34-2.3-1.5h-1.2
			c-2.92,0.94-4.53,3.37-6.26,5.63c-1.01,1.35-1.92,2.8-2.92,4.17c-0.23,0.31-0.56,0.54-0.93,0.64c-4.51,0.85-8.65,3.06-11.86,6.35
			c-0.36,0.36-0.69,0.76-1.08,1.19l-1.51-1.07c-2.97-2.09-6.31-3.58-9.85-4.41c-0.31-0.1-0.57-0.29-0.76-0.56
			c-1.89-2.54-3.71-5.15-5.67-7.63c-0.74-0.89-1.62-1.66-2.6-2.27c-1.52-1-3.56-0.59-4.57,0.92c-1.04,1.55-1.68,3.33-1.86,5.19
			c-0.34,2.15-0.55,4.34-0.85,6.5c-0.06,0.31-0.22,0.59-0.48,0.79c-3.05,1.99-5.58,4.66-7.4,7.81c-1.16,2.19-2.02,4.53-2.55,6.96
			c-0.06,0.24-0.12,0.48-0.18,0.74c-1.36-0.29-2.68-0.62-4.04-0.86c-2.97-0.51-6-0.63-9.01-0.34c-0.31-0.02-0.61-0.16-0.82-0.39
			c-2.16-2.18-4.26-4.46-6.48-6.58c-0.89-0.8-1.92-1.44-3.03-1.89c-1.53-0.64-3.3-0.01-4.07,1.47c-0.71,1.2-1.08,2.57-1.08,3.96
			c-0.05,3.33,0,6.65,0,9.97c0,0.23-0.08,0.46-0.23,0.64c-4.74,5.07-7.59,11.62-8.09,18.54c-0.32,4.89,0.12,9.8,1.31,14.55
			c0.57,2.59,1.06,5.21,1.47,7.83c0.36,2.45,13.89,71.92,13.3,74.34c-3.72,15.39,3.82,46.02,0.57,61.52
			c-1.6,7.6,0.56,3.92,1.11,17.35c1.68,19.02,5.6,41.39,10.11,55.93c0.57,11.19,7.43,38.99,5.88,49.21
			c-1.3,8.66-8.49,145.47-9.66,154.16c0,0.24-0.09,0.49-0.14,0.72v0.4c1.44,0,2.86,0,4.3,0c0.42,0,0.62-0.08,0.68-0.57
			c0.75-6.34,7.64-140.77,8.47-147.1c0.67-5.17,1.41-10.31,2.18-15.46c1.01-6.47-6.6-34.38-5.56-40.8"/>
		<path class="st2" d="M62.25,329.97c-3.59,0.81-6.97,2.37-9.93,4.57c-0.53-3.44-0.37-6.96,0.49-10.33
			c0.56-1.92,1.53-2.23,3.03-0.93c1.02,0.9,2,1.85,2.91,2.86C59.94,327.37,61.05,328.64,62.25,329.97z"/>
		<path class="st2" d="M91.58,313.64c-0.02-0.17-0.02-0.34,0-0.52c0.28-1.87,0.5-3.75,0.91-5.59c0.29-1.17,0.72-2.3,1.29-3.36
			c0.52-1.01,1.27-1.07,2.15-0.36c0.4,0.33,0.76,0.72,1.07,1.14c1.51,2.07,3.03,4.18,4.47,6.27c0.08,0.13,0.14,0.28,0.18,0.42
			C98.19,311.51,94.74,312.2,91.58,313.64z"/>
		<path class="st2" d="M133.31,309.71c0.03-0.11,0.07-0.23,0.12-0.33c1.46-2.57,3.36-4.87,5.63-6.76c1.61-1.31,2.63-1.01,3.1,1.01
			c0.35,1.54,0.55,3.11,0.77,4.68c0.15,1.07,0.22,2.15,0.35,3.37C140.17,310.22,136.75,309.54,133.31,309.71z"/>
		<path class="st2" d="M177.33,341.09l-0.27,0.07c-2.14-2.46-4.8-4.41-7.79-5.71c0-0.11,0-0.16,0.06-0.19
			c2.15-1.82,4.62-3.22,7.29-4.1c1.47-0.47,2.4,0.29,2.16,1.82C178.37,335.67,177.8,338.38,177.33,341.09z"/>
		<path class="st3" d="M52.32,336.06c0.33,0,0.65-0.11,0.92-0.3c2.78-2.08,5.97-3.54,9.36-4.31c0.81-0.2,1.31-1.02,1.11-1.83
			c-0.06-0.24-0.18-0.47-0.35-0.65l-1.08-1.21c-0.82-0.91-1.61-1.79-2.42-2.65c-0.96-1.04-1.97-2.04-3.03-2.97
			c-0.69-0.68-1.61-1.09-2.58-1.15c-1.01,0-2.24,0.49-2.92,2.81c-0.9,3.57-1.08,7.28-0.54,10.92c0.08,0.77,0.73,1.36,1.51,1.35
			H52.32z"/>
		<path class="st2" d="M54.27,322.49c-0.66,0-1.13,0.58-1.47,1.72c-0.85,3.38-1.02,6.89-0.49,10.33c2.95-2.2,6.34-3.76,9.93-4.57
			c-1.2-1.33-2.32-2.61-3.48-3.83c-0.91-1.01-1.89-1.96-2.91-2.86C55.44,322.84,54.88,322.57,54.27,322.49 M54.27,319.46
			L54.27,319.46c1.33,0.05,2.6,0.59,3.56,1.52c1.1,0.95,2.15,1.97,3.14,3.03c0.84,0.88,1.62,1.76,2.45,2.69l1.07,1.19
			c1.12,1.24,1.03,3.16-0.21,4.28c-0.38,0.34-0.83,0.58-1.32,0.7c-3.18,0.72-6.18,2.1-8.81,4.04c-0.53,0.4-1.17,0.62-1.83,0.62
			c-0.41,0-0.82-0.09-1.2-0.25c-1-0.43-1.69-1.37-1.81-2.45c-0.57-3.84-0.37-7.75,0.59-11.52c1.01-3.52,3.41-3.9,4.38-3.9V319.46z"
			/>
		<path class="st3" d="M91.58,315.16c0.22,0,0.43-0.05,0.63-0.14c2.74-1.26,5.73-1.89,8.75-1.86h0.75c0.84,0,1.52-0.68,1.51-1.52
			c0-0.2-0.04-0.4-0.12-0.58v-0.12c-0.08-0.21-0.17-0.41-0.29-0.6l-0.77-1.07c-1.23-1.74-2.46-3.48-3.71-5.21
			c-0.4-0.53-0.87-1.01-1.4-1.43c-0.56-0.5-1.27-0.79-2.02-0.81c-1.07,0.02-2.03,0.67-2.44,1.66c-0.63,1.17-1.11,2.42-1.43,3.71
			c-0.31,1.39-0.52,2.78-0.71,4.15c-0.07,0.52-0.15,1.01-0.23,1.55c-0.03,0.24-0.03,0.49,0,0.74v0.16c0.04,0.49,0.32,0.93,0.74,1.18
			C91.07,315.09,91.32,315.16,91.58,315.16z"/>
		<path class="st2" d="M94.83,303.35c-0.5,0.04-0.92,0.36-1.09,0.83c-0.57,1.06-1,2.19-1.29,3.36c-0.41,1.84-0.63,3.72-0.91,5.59
			c-0.02,0.17-0.02,0.34,0,0.52c2.92-1.35,6.11-2.04,9.33-2.02h0.75c-0.04-0.15-0.11-0.29-0.18-0.42c-1.49-2.09-2.96-4.2-4.47-6.27
			c-0.31-0.4-0.67-0.77-1.06-1.08c-0.29-0.27-0.66-0.44-1.06-0.47 M94.84,300.35L94.84,300.35c1.09,0.02,2.15,0.43,2.97,1.14
			c0.63,0.5,1.19,1.08,1.67,1.72c1.24,1.65,2.49,3.46,3.69,5.16l0.82,1.1c0.2,0.3,0.36,0.62,0.49,0.95v0.06
			c0.65,1.54-0.08,3.32-1.62,3.97c-0.37,0.16-0.77,0.24-1.18,0.24h-0.72c-2.79-0.03-5.55,0.56-8.09,1.72
			c-0.4,0.19-0.83,0.28-1.26,0.28c-1.56,0.01-2.87-1.17-3.03-2.72v-0.09c-0.07-0.4-0.07-0.8,0-1.2c0.08-0.51,0.15-1.01,0.23-1.54
			c0.19-1.39,0.4-2.81,0.73-4.26c0.34-1.41,0.86-2.77,1.56-4.04c0.67-1.49,2.15-2.45,3.78-2.48L94.84,300.35z"/>
		<path class="st3" d="M143.33,313.2c0.32,0,0.62-0.1,0.88-0.28c0.44-0.31,0.68-0.84,0.63-1.39c0-0.37-0.07-0.75-0.11-1.1
			c-0.07-0.81-0.14-1.57-0.24-2.33l-0.1-0.67c-0.18-1.35-0.37-2.76-0.7-4.15c-0.61-2.6-2.09-2.98-2.93-2.98
			c-0.97,0.06-1.9,0.46-2.61,1.13c-2.41,2.01-4.43,4.44-5.98,7.17c-0.08,0.14-0.15,0.3-0.2,0.45v0.13
			c-0.28,0.79,0.13,1.66,0.92,1.94c0.16,0.06,0.33,0.09,0.5,0.09h0.07h0.95c2.88,0,5.72,0.64,8.32,1.86
			C142.92,313.16,143.12,313.2,143.33,313.2z"/>
		<path class="st2" d="M140.75,301.83c-0.62,0.07-1.2,0.35-1.65,0.79c-2.27,1.9-4.18,4.19-5.63,6.76c-0.05,0.11-0.09,0.22-0.12,0.33
			h1.01c3.1,0.01,6.16,0.7,8.96,2.02c-0.13-1.21-0.2-2.3-0.35-3.37c-0.22-1.57-0.41-3.14-0.77-4.68c-0.28-1.21-0.77-1.81-1.46-1.81
			 M140.74,298.84L140.74,298.84c0.81,0,3.52,0.3,4.41,4.16c0.29,1.41,0.55,2.87,0.74,4.23l0.09,0.67c0.12,0.81,0.19,1.58,0.26,2.4
			c0,0.35,0.06,0.72,0.1,1.09c0.17,1.67-1.05,3.15-2.71,3.32c-0.11,0.01-0.21,0.02-0.32,0.02c-0.44,0-0.87-0.09-1.26-0.27
			c-2.41-1.13-5.04-1.71-7.69-1.72h-0.89h-0.15c-1.68,0-3.03-1.37-3.02-3.04c0-0.34,0.06-0.68,0.17-1v-0.08
			c0.08-0.26,0.19-0.51,0.32-0.75c1.64-2.88,3.78-5.45,6.33-7.57c1-0.92,2.29-1.44,3.64-1.49L140.74,298.84z"/>
		<path class="st3" d="M177.06,342.67c0.12,0.01,0.24,0.01,0.36,0l0.26-0.07c0.59-0.15,1.03-0.64,1.12-1.24
			c0.15-0.8,0.29-1.59,0.44-2.39c0.36-1.89,0.73-3.85,1.01-5.8c0.2-0.96-0.04-1.97-0.67-2.73c-0.55-0.65-1.36-1.03-2.21-1.01
			c-0.42,0.01-0.83,0.07-1.23,0.2c-2.86,0.95-5.51,2.45-7.8,4.41c-0.28,0.24-0.48,0.57-0.57,0.94c-0.22,0.74,0.15,1.52,0.86,1.82
			c2.78,1.22,5.25,3.03,7.24,5.32C176.17,342.47,176.6,342.67,177.06,342.67z"/>
		<path class="st2" d="M177.41,330.98c-0.27,0.01-0.53,0.05-0.79,0.14c-2.67,0.9-5.15,2.3-7.29,4.13c0,0,0,0.08-0.06,0.19
			c2.99,1.3,5.65,3.25,7.79,5.71l0.27-0.07c0.5-2.71,1.01-5.42,1.46-8.09c0.19-1.23-0.38-1.96-1.38-1.96 M177.41,328L177.41,328
			c1.29-0.02,2.52,0.53,3.37,1.5c0.9,1.1,1.27,2.54,1.01,3.94c-0.3,2.02-0.68,3.95-1.01,5.86c-0.15,0.79-0.3,1.59-0.44,2.38
			c-0.21,1.18-1.1,2.12-2.26,2.41l-0.27,0.06c-0.23,0.06-0.48,0.09-0.72,0.09c-0.87,0-1.7-0.36-2.27-1.01
			c-1.85-2.14-4.15-3.85-6.73-5c-1.37-0.6-2.1-2.11-1.72-3.56c0.14-0.69,0.52-1.32,1.07-1.76c2.43-2.09,5.25-3.68,8.3-4.68
			c0.55-0.18,1.12-0.27,1.69-0.27V328z"/>
		<path class="st2" d="M167.02,413.75l2.24,22.38l0,0c-9.31-1.85-18.42-4.56-27.23-8.09l-8.28-3.31l0,0
			c9.42-0.97,18.59-3.64,27.06-7.88L167.02,413.75z"/>
		<path class="st2" d="M229.98,708.16l4.85,31.07l0,0c-17.95,0.13-35.88-1.03-53.66-3.45l-16.33-2.22l0,0
			c18.41-4.15,36.21-10.6,53-19.21L229.98,708.16z"/>
		<path class="st2" d="M64.56,515.82l0.66,22.48l0,0c8.99-3.04,17.68-6.9,25.96-11.53l7.78-4.35l0,0
			c-9.46,0.25-18.89-1.21-27.83-4.33L64.56,515.82z"/>
		<path class="st2" d="M193.15,536.91l6.39,21.83l0,0c-17.08,4.66-34.4,8.4-51.89,11.21l-15.85,2.53l0,0
			c17.46-7.77,34.19-17.08,50-27.82L193.15,536.91z"/>
		<path class="st2" d="M80.87,614.1l-2.24,22.4l0,0c9.3-1.86,18.42-4.57,27.23-8.09l8.25-3.33l0,0c-9.42-0.97-18.59-3.64-27.06-7.88
			L80.87,614.1z"/>
	</g>
</g>
<g id="cat-paw-right">
</g>
</svg>
