<?xml version="1.0" encoding="utf-8"?>
<!-- Generator: Adobe Illustrator 26.2.1, SVG Export Plug-In . SVG Version: 6.00 Build 0)  -->
<svg version="1.1" xmlns="http://www.w3.org/2000/svg" xmlns:xlink="http://www.w3.org/1999/xlink" x="0px" y="0px"
	 viewBox="0 0 500 500" style="enable-background:new 0 0 500 500;" xml:space="preserve">
<style type="text/css">
	.st0{fill:#D65778;}
	.st1{fill:#F5B6C6;}
	.st2{fill:#FCECE3;}
	.st3{fill:#F596B4;}
	.st4{fill:#DA869C;}
	.st5{fill:#57352E;}
	.st6{fill:#BF3D55;}
	.st7{fill:#BD8AAB;}
	.st8{fill:#F7EEF2;}
	.st9{fill:#FFD4E5;}
	.st10{fill:#590A01;}
	.st11{fill:#5E5354;}
	.st12{fill:#4F4244;}
	.st13{fill:#A49193;}
</style>
<g id="typewriter">
	<g>
		<path class="st0" d="M470.62,441.03c-95.65,0.08-191.3,0.2-286.95,0.22c-41.17,0.01-82.34-0.16-123.51-0.24
			c-0.57-6.88,2.1-12.98,4.56-19.15c6.72-16.89,13.83-33.65,19.91-50.77c4.19-11.78,8.02-23.23,21.54-27.42
			c-0.46,7.41,4.93,7.55,9.91,7.62c5.22,0.07,10.33-0.59,9.59-7.95c2.57,0.11,5.13,0.22,7.7,0.32c-0.34,7.26,4.86,7.7,9.93,7.64
			c5.07-0.06,10.38-0.48,9.58-7.93c2.57,0.04,5.13,0.07,7.7,0.11c-0.61,7.46,4.81,7.86,9.84,7.84c5.01-0.02,10.5-0.32,9.76-7.86
			c2.57,0.01,5.15,0.03,7.72,0.04c2.85,7.29,8.81,10.01,15.58,7.06c5.57-2.43,4.63-5.76,1.25-9.4c4.49,0.67,8.97,0.91,13.45-0.09
			c-1.91,2.6-5.18,5.41-0.9,8.25c4.84,3.2,10.31,3.17,15.26,0.12c4.37-2.69,1.58-5.55-0.49-8.18c4.52,0.41,9.05,0.96,13.54-0.25
			c-3.15,3.43-4.97,6.8,0.73,9.5c6.44,3.05,12.64,0.34,15.81-6.83c2.57-0.08,5.14-0.17,7.7-0.25c-0.65,7.28,4.43,8.03,9.6,7.92
			c4.92-0.11,10.44-0.19,9.88-7.67c2.51,0.03,5.02,0.06,7.53,0.09c-0.61,7.43,4.87,7.57,9.73,7.56c4.83-0.01,10.45,0.08,9.92-7.46
			c2.48-0.04,4.96-0.07,7.44-0.11c0.01,8.04,5.95,7.61,11.24,7.54c4.96-0.07,9.1-1.58,8.18-7.97c2.62,0.1,5.23,0.19,7.85,0.29
			c3.93,9.46,8.25,10.3,20.18,3.92c3.26,0.33,4.42-3.08,7.01-3.95c3.04,7.21,9.18,9.97,15.73,6.96c5.62-2.58,4.23-5.94,0.95-9.46
			c4.49,0.91,8.97,0.81,13.46,0.04c-3.27,3.62-4.43,6.97,1.22,9.42c6.74,2.91,12.75,0.16,15.54-7.1
			c7.42,5.56,16.26,9.58,18.94,19.85c4.49,17.21,13.69,32.59,19.65,49.25C467.22,421.8,472.23,430.63,470.62,441.03z M266.63,433.24
			c46.71,0,93.42,0,140.13,0c6.26,0,12.51,0.04,18.77-0.04c2.4-0.03,5.31,0.6,6.58-2.25c1.46-3.28-1.08-5.43-2.86-7.64
			c-3.53-4.38-8.44-4.69-13.6-4.68c-99.67,0.05-199.35,0.03-299.02,0.05c-2.5,0-5.14-0.28-7.46,0.41
			c-5.55,1.65-10.72,5.4-9.77,11.23c0.86,5.31,7.07,2.8,10.85,2.81C162.37,433.28,214.5,433.23,266.63,433.24z M148.48,407.78
			c4.49-0.91,10.49-0.5,10.68-6.17c0.15-4.77-5.03-5.76-9.28-5.8c-4.5-0.04-10.36-0.2-10.96,5.24
			C138.26,407.08,144.58,406.56,148.48,407.78z M412.39,395.68c-4.54,0.27-10.44,0.17-10.8,5.63c-0.39,5.9,5.84,6.05,10.09,6.15
			c4.37,0.1,10.23-0.46,10.19-6.16C421.84,396.49,416.57,395.96,412.39,395.68z M163.72,390.1c3.95-1.36,10.36-0.64,9.96-6.62
			c-0.37-5.65-6.28-5.46-10.76-5.41c-4.13,0.05-9.4,0.46-9.49,5.5C153.32,389.62,159.48,388.88,163.72,390.1z M90.14,407.64
			c4.27-0.83,10.51-0.43,10.67-5.9c0.17-5.62-5.78-5.95-10.32-5.9c-4.49,0.05-10.21,0.23-10.04,6.13
			C80.59,406.85,86.1,406.88,90.14,407.64z M382.45,395.69c-4.45,0.34-9.85,0.67-9.9,5.7c-0.07,6.07,6.07,6.05,10.4,6.07
			c4.02,0.02,9.78-0.62,9.79-5.59C392.74,395.96,386.76,396.16,382.45,395.69z M353.92,407.8c3.27-1.39,9.32-0.59,9.58-5.58
			c0.31-5.86-5.46-6.47-10.08-6.44c-4.55,0.03-10.39,0.3-10,6.4C343.72,407.16,349.4,406.87,353.92,407.8z M322.45,407.66
			c4.74-0.53,10.92,0.03,12.08-5.85c0.81-4.11-4.11-5.61-7.89-5.89c-4.9-0.36-11.07-0.92-12.56,4.84
			C312.68,406.18,318.81,406.08,322.45,407.66z M235.99,395.64c-3.82,0.47-9.61,0.55-9.63,6.19c-0.02,4.8,5.64,5.49,9.6,5.59
			c4.41,0.11,10.54-0.35,10.86-5.56C247.16,396.23,241.19,396.05,235.99,395.64z M425.6,390.13c3.72-1.35,10.21,0.1,10.94-6.4
			c0.49-4.38-4.28-5.51-8.05-5.62c-4.79-0.14-11.04-1.03-12.22,5.09C415.26,388.47,421.14,388.55,425.6,390.13z M207.52,407.83
			c3.88-1.37,10.16-0.3,9.97-6.48c-0.15-4.92-5.3-5.54-9.51-5.57c-4.57-0.03-10.43,0.14-10.77,5.58
			C196.84,407.3,203.32,406.44,207.52,407.83z M177.57,395.71c-3.99,0.43-9.48,0.49-9.48,5.67c0.01,6.06,6.1,6.09,10.46,6.05
			c3.98-0.03,9.79-0.49,9.72-5.61C188.19,395.96,182.37,395.96,177.57,395.71z M396.82,377.96c-4.28,0.26-9.57,0.38-9.84,5.35
			c-0.33,6.07,5.81,6.37,9.95,6.42c4.17,0.05,10.45-0.2,10.3-6.07C407.09,377.81,401.12,378.32,396.82,377.96z M339.03,390.02
			c4.05-1.3,10.5-0.72,9.96-6.69c-0.5-5.48-6.43-5.37-10.97-5.25c-4.12,0.1-9.5,0.36-9.43,5.53
			C328.67,389.48,334.72,388.97,339.03,390.02z M308.94,390.07c4.44-0.87,10.35-0.63,10.73-6.19c0.35-5.11-4.93-5.74-9.11-5.8
			c-4.47-0.07-10.39-0.45-11.14,4.99C298.58,389.14,305.04,388.62,308.94,390.07z M250.81,390.04c4.25-0.79,10.15-0.67,10.59-6.05
			c0.41-4.97-4.88-5.83-9.08-5.88c-4.85-0.06-11.14-0.55-11.25,6.09C241.01,388.96,246.77,389.06,250.81,390.04z M221.77,390.03
			c4.18-1.17,10.34-0.54,10.43-6.41c0.08-5.11-5.3-5.54-9.46-5.56c-4.48-0.02-10.48-0.37-10.99,5.26
			C211.2,389.41,217.64,388.74,221.77,390.03z M134.89,390.03c3.98-0.99,9.76-1.17,9.64-5.9c-0.17-6.59-6.57-6.04-11.37-6.06
			c-4.21-0.01-9.45,0.94-9,5.97C124.65,389.55,130.6,389.2,134.89,390.03z M440.41,407.69c4.2-0.87,10.22-0.23,10.29-6.26
			c0.06-5.22-5.3-5.52-9.44-5.58c-4.58-0.06-10.32,0.11-10.45,5.9C430.69,406.82,436.37,406.76,440.41,407.69z M295.55,407.73
			c3.99-1.09,9.75-0.85,9.52-6.1c-0.26-5.88-6.06-5.85-10.61-5.81c-4.2,0.04-9.55,0.57-9.39,5.76
			C285.26,407.57,291.41,406.72,295.55,407.73z M266.01,395.68c-4.36,0.52-10.32,0.18-10.35,6.12c-0.02,5.02,5.68,5.6,9.66,5.61
			c4.32,0.01,10.35,0,10.34-6.04C275.65,396.19,270.23,396.13,266.01,395.68z M120.17,407.62c4.12-0.84,9.81-0.84,9.77-5.81
			c-0.05-5.78-5.81-6.02-10.42-5.98c-4.18,0.04-9.5,0.38-9.54,5.54C109.93,407.53,116.04,406.69,120.17,407.62z M368.42,390.12
			c3.61-1.19,9.32-0.8,9.51-5.92c0.22-6.24-5.66-6.08-10.13-6.13c-4.1-0.05-9.47,0.06-9.69,5.32
			C357.84,389.65,363.92,389,368.42,390.12z M280.38,378c-4.23,0.44-10.18-0.16-10,6.14c0.14,5.03,5.64,5.71,9.7,5.64
			c4.37-0.07,10.33-0.18,10.17-6.32C290.12,378.21,284.78,378.28,280.38,378z M101.85,368.34c4.37-0.08,9.51-0.36,9.96-5.12
			c0.52-5.48-5.04-5.66-8.94-5.74c-3.93-0.08-9.48-0.19-9.83,4.92C92.68,367.59,97.91,367.94,101.85,368.34z M374.8,368.36
			c4.18-0.47,9.68-0.77,9.38-5.92c-0.29-5.01-5.96-5.21-10.05-5.06c-3.59,0.13-8.72,0.4-8.73,5.12
			C365.39,367.94,370.61,367.97,374.8,368.36z M105.45,389.39c4.05-0.88,9.83,0.21,9.69-5.51c-0.15-6.17-6.02-5.77-10.45-5.8
			c-4.11-0.03-9.48,0.26-9.45,5.55C95.27,390.18,101.63,388.32,105.45,389.39z M192.75,389.65c3.85-1.11,10.1,0.18,9.8-6.27
			c-0.24-5.16-5.53-5.31-9.62-5.25c-4.41,0.07-10.26-0.27-10.04,6.01C183.08,389.3,188.6,388.88,192.75,389.65z M266.76,368.41
			c2.99-0.86,8.56-0.25,8.32-6.01c-0.2-4.82-5.25-4.69-8.84-4.76c-4.05-0.08-9.68-0.16-9.84,5.04
			C256.25,367.76,261.56,368.22,266.76,368.41z M321.66,368.41c3-0.9,8.62-0.6,7.99-6.07c-0.56-4.91-5.95-4.85-9.96-4.63
			c-3.82,0.21-9.44-0.14-8.74,5.63C311.54,368.17,316.73,368.14,321.66,368.41z M346.9,368.35c4.2-0.18,9.33-0.13,9.91-5.27
			c0.56-4.98-4.52-5.41-8.08-5.37c-4.2,0.05-10.39-1.17-10.45,5.45C338.23,367.65,343.11,368.02,346.9,368.35z M429.02,368.39
			c3.8-0.45,9.21-0.18,9.3-5.56c0.09-5.63-5.62-5.14-9.51-5.34c-3.68-0.19-8.65,0.23-8.99,4.65
			C419.39,367.58,424.59,367.82,429.02,368.39z M129.87,368.33c4.22-0.44,9.66-0.9,9.17-6.04c-0.47-4.88-6.12-4.81-10.18-4.63
			c-3.53,0.16-8.61,0.03-8.43,5.05C120.63,368.13,125.73,368.05,129.87,368.33z M156.37,368.31c4.25-0.15,9.55-0.3,9.88-5.27
			c0.37-5.64-5.33-5.33-9.24-5.35c-3.92-0.03-9.38-0.41-9.22,5.42C147.92,367.71,152.65,367.91,156.37,368.31z M211.63,368.35
			c3.95-0.56,9.2-0.58,8.8-6.14c-0.33-4.61-5.27-4.56-8.92-4.53c-4,0.03-9.56-0.21-9.56,5.11
			C201.96,367.91,207.35,368.01,211.63,368.35z M237.87,357.53c-3.53,0.5-8.83,0.47-8.75,4.79c0.11,5.87,5.84,6.04,10.47,5.88
			c3.76-0.13,8.49-0.71,8.18-5.5C247.4,357.05,241.93,358.16,237.87,357.53z M292.81,368.41c4.28-0.36,9.72-0.53,9.49-5.79
			c-0.22-5.24-5.83-5.03-9.9-4.96c-3.66,0.06-8.72,0.2-8.83,4.83C283.45,367.95,288.74,367.96,292.81,368.41z M401.83,368.35
			c4.19-0.33,9.41-0.51,9.49-5.79c0.08-4.71-4.97-4.91-8.63-4.89c-4.01,0.01-9.69-0.6-10.1,4.71
			C392.19,367.76,397.6,367.97,401.83,368.35z M183.58,357.22c-2.94,1.53-8.84-0.21-8.53,5.88c0.23,4.55,4.74,5.08,8.44,5.14
			c4.07,0.07,9.24,0,9.6-5.16C193.49,357.25,187.75,358.37,183.58,357.22z"/>
		<path class="st1" d="M447.2,321.12c15.99,40.09,32.01,80.17,47.95,120.28c5.62,14.14,9.07,28.07-5.39,39.51
			c-0.48,0.3-0.92,0.65-1.32,1.05c-5.7,1.81-11.57,1.09-17.37,1.1c-136.59,0.04-273.17,0.02-409.76,0.05
			c-5.4,0-10.81,0.29-16.21,0.44c-1.03-0.75-2.07-1.49-3.1-2.24l-0.33-0.16c-12.88-11.46-10.56-25.24-5.28-38.92
			c11.04-28.63,22.61-57.06,33.9-85.59c1.06-2.67,1.68-5.51,2.5-8.27c5.82-8.41,7.11-18.88,12.56-27.45
			C205.96,320.98,326.58,321.05,447.2,321.12z M60.16,441.01c41.17,0.09,82.34,0.25,123.51,0.24c95.65-0.03,191.3-0.14,286.95-0.22
			c8.49,1.12,11.59-1.12,7.89-10.21c-12.54-30.82-24.92-61.71-36.59-92.86c-2.94-7.86-7.2-9.73-14.79-9.63
			c-26.25,0.33-52.5,0.12-78.76,0.12c-80.84,0-161.69,0.01-242.53-0.04c-6.76,0-12.51-0.44-15.72,8.2
			c-11.87,31.96-24.35,63.71-37.24,95.28C49.15,441.03,52.84,441.86,60.16,441.01z"/>
		<path class="st2" d="M112.4,164.97c-0.05-39.52-0.2-79.05-0.11-118.57c0.06-26.52,0.21-26.75,19.33-26.77
			c85.35-0.1,170.69-0.46,256.03,0.44c11.29,0.12,22.66-8.18,33.89,0.03c-0.1,48.7-0.2,97.4-0.3,146.1
			c-0.23,16.2-1.98,32.46,0.88,48.55c-0.9,6.95-1.81,13.9-2.71,20.85c-8.13-3.72-16.51-1.87-24.76-1.9
			c-91.52-0.28-183.05-0.34-274.57-0.46c-2.18-1.12-4.36-2.23-6.55-3.35c-0.51-3.98-1.02-7.97-1.52-11.95
			C114.14,200.31,113.03,182.63,112.4,164.97z"/>
		<path class="st3" d="M447.2,321.12c-120.62-0.07-241.23-0.14-361.85-0.21c-0.26-21.81-0.53-43.62-0.79-65.43
			c0.66-11.38,1.09-22.76-0.22-34.12c2.5-14.03,5.36-16.85,18.29-18.05c0.05,16.66,0.1,33.33,0.14,49.99
			c-0.02,4.16-0.11,8.31-0.03,12.47c0.34,18.85,6.68,25.08,25.46,25.08c91.49,0,182.98,0.02,274.47-0.01
			c21.82-0.01,32.36-15.66,25.39-37.5c0.07-16.72,0.13-33.44,0.2-50.16c9.36-0.67,15.38,3.2,17.3,12.68
			c0.36,0.71,0.81,1.35,1.35,1.92c0.47,0.91,0.95,1.81,1.42,2.72c-0.46,2.01-0.93,4.02-1.39,6.03l-0.32,0.58l0.36,0.56
			C448.62,258.81,448.24,289.96,447.2,321.12z"/>
		<path class="st4" d="M266.66,310.7c51.29,0,102.57,0.05,153.86-0.1c3.76-0.01,10.54,2.2,10.63-2.46
			c0.09-5.07-6.63-2.66-10.24-2.67c-103.41-0.15-206.82-0.14-310.22-0.03c-3.78,0-10.63-1.91-10.67,2.33
			c-0.05,5.39,6.65,2.81,10.29,2.82C162.41,310.76,214.53,310.7,266.66,310.7z"/>
		<path class="st1" d="M428.24,203.18c-0.07,16.72-0.13,33.44-0.2,50.16c-108.43-0.01-216.86-0.03-325.28-0.04
			c-0.05-16.66-0.1-33.33-0.14-49.99c20.95-0.13,41.89-0.26,62.84-0.39c0.41,8.17,1.12,16.35-0.25,24.51
			c-9.51,0.22-19.03,0.42-28.54,0.68c-2.56,0.07-5.47,0.47-5.51,3.61c-0.05,3.18,2.86,3.58,5.42,3.63
			c9.52,0.16,19.04,0.26,28.57,0.39c1.77-0.41,3.53-0.81,5.3-1.22c59.32,0.05,118.63,0.08,177.95,0.21
			c5.35,0.01,10.78-0.84,16.05,0.88c9.46-0.07,18.93-0.12,28.39-0.22c2.85-0.03,6.57,0.36,7.06-3.25c0.59-4.31-3.17-5.36-6.58-5.5
			c-9.03-0.37-18.08-0.47-27.12-0.68c-1.86-7.45-0.72-14.97-0.57-22.46c12.61-1.52,25.38,1.13,37.94-1.54
			C411.78,202.35,420.01,202.76,428.24,203.18z"/>
		<path class="st5" d="M84.56,255.48c-3.42,0.14-7.5,0.14-8.79-3.29c-3.5-9.26-11.06-8.67-18.57-8.69
			c-4.16-0.01-8.32,0.01-12.47,0.01c-7.03-0.01-14.3-1.17-16.26,8.95c-0.69,3.58-4.84,5.37-9,5.45c-4.15,0.08-8.29,0.42-12.43,0.65
			c-5.83-5.04-8.78-16.08-5.93-21.78c2.18-4.35,6.23-3.39,9.76-3.42c16.11-0.13,32.22-0.04,48.33-0.11
			c6.6-0.03,13.27,0.61,15.5-8.42c1.09-4.4,5.97-3.45,9.64-3.47C85.65,232.72,85.21,244.1,84.56,255.48z"/>
		<path class="st6" d="M446.89,217.78c-0.54-0.57-0.99-1.21-1.35-1.92C445.99,216.5,446.44,217.14,446.89,217.78z"/>
		<path class="st6" d="M446.96,227.67l-0.36-0.56l0.32-0.58C447.3,226.9,447.32,227.28,446.96,227.67z"/>
		<path class="st5" d="M366.18,225.94c9.04,0.21,18.08,0.31,27.12,0.68c3.42,0.14,7.17,1.19,6.58,5.5
			c-0.49,3.61-4.22,3.21-7.06,3.25c-9.46,0.1-18.93,0.15-28.39,0.22C365.01,232.37,365.6,229.16,366.18,225.94z"/>
		<path class="st5" d="M165.13,235.72c-9.52-0.12-19.04-0.22-28.57-0.39c-2.55-0.04-5.46-0.45-5.42-3.63
			c0.05-3.14,2.95-3.54,5.51-3.61c9.51-0.25,19.02-0.46,28.54-0.68c0.33,1.84,0.66,3.69,0.99,5.53
			C165.84,233.87,165.49,234.8,165.13,235.72z"/>
		<path class="st7" d="M165.13,235.72c0.35-0.92,0.7-1.85,1.06-2.77c1.41,0.52,2.83,1.03,4.24,1.55
			C168.67,234.91,166.9,235.31,165.13,235.72z"/>
		<path class="st8" d="M102.76,253.29c108.43,0.01,216.86,0.03,325.28,0.04c6.97,21.84-3.57,37.49-25.39,37.5
			c-91.49,0.03-182.98,0.02-274.47,0.01c-18.77,0-25.11-6.24-25.46-25.08C102.65,261.61,102.75,257.45,102.76,253.29z"/>
		<path class="st9" d="M266.66,310.7c-52.12,0-104.24,0.06-156.36-0.12c-3.64-0.01-10.34,2.57-10.29-2.82
			c0.04-4.24,6.9-2.32,10.67-2.33c103.41-0.11,206.82-0.11,310.22,0.03c3.62,0.01,10.34-2.4,10.24,2.67
			c-0.08,4.66-6.87,2.45-10.63,2.46C369.23,310.75,317.94,310.7,266.66,310.7z"/>
		<g>
			<path class="st0" d="M470.62,441.03c1.61-10.4-3.4-19.22-6.71-28.48c-5.96-16.66-15.16-32.04-19.65-49.25
				c-2.68-10.28-11.52-14.3-18.94-19.85c-2.46-1.08-4.92-2.16-7.38-3.25c-0.32-2.23-1.27-4.05-3.8-3.94
				c-2.54,0.11-3.29,2.05-3.48,4.27c-0.61,0.53-1.31,0.73-2.1,0.61c-4.49,0.77-8.98,0.87-13.46-0.04
				c-5.77-0.56-11.54-1.15-16.68,2.49c-2.59,0.86-3.75,4.27-7.01,3.95c-0.17-3.93-3.23-5.41-6.04-7.1
				c-3.41-6.49-6.66-6.48-9.75,0.23c-1.46,0.99-2.93,1.97-4.39,2.96c-2.62-0.1-5.23-0.19-7.85-0.29c-1.01-0.76-2.02-1.52-3.03-2.28
				c-4.36-7.17-7.51-7.25-12.28-0.29c-1.37,1-2.74,2.01-4.11,3.01c-2.48,0.04-4.96,0.07-7.44,0.11c-6.53-4.5-13.08-4.56-19.65-0.1
				c-2.51-0.03-5.02-0.06-7.53-0.09c-6.44-4.04-12.93-4.3-19.48-0.25c-2.57,0.08-5.14,0.17-7.7,0.25c-2.29-1.14-4.58-2.28-6.88-3.41
				c-0.28-2.22-1.17-4.07-3.69-4.03c-2.52,0.04-3.35,1.93-3.59,4.14c-0.8,0.21-1.59,0.42-2.39,0.62c-4.49,1.21-9.02,0.66-13.54,0.25
				c-1.44-0.36-2.88-0.72-4.32-1.07c-0.32-2.22-1.25-4.03-3.77-3.94c-2.52,0.09-3.29,2-3.51,4.2c-0.68,0.51-1.44,0.72-2.28,0.62
				c-4.48,1-8.96,0.76-13.45,0.09c-0.78,0.11-1.46-0.1-2.04-0.64c-3.23-7.25-6.48-7.25-9.75-0.03c-0.58,0.54-1.27,0.74-2.05,0.59
				c-1,0.8-1.99,1.61-2.99,2.41c0,0,0,0.02,0,0.02c-2.57-0.01-5.15-0.03-7.72-0.04l0.06,0.04c-0.98-0.82-1.96-1.63-2.94-2.45
				c-0.8,0.14-1.51-0.04-2.14-0.56c-3.29-6.57-6.55-6.57-9.76,0.06c-1.61,0.97-3.22,1.95-4.83,2.92c-2.57-0.04-5.13-0.07-7.7-0.11
				l-0.12-0.13c-0.94-0.74-1.88-1.48-2.82-2.23c-0.8-0.21-1.59-0.42-2.39-0.63c-3.33-4.03-6.68-8.52-9.68,0.25
				c-1.5,1.01-3.01,2.02-4.51,3.02c-2.57-0.11-5.13-0.22-7.7-0.32c-6.57-3.7-13.07-3.89-19.5,0.34
				c-13.52,4.19-17.35,15.64-21.54,27.42c-6.09,17.12-13.2,33.87-19.91,50.77c-2.45,6.17-5.13,12.27-4.56,19.15
				c-7.32,0.85-11.01,0.02-7.27-9.14c12.89-31.57,25.37-63.31,37.24-95.28c3.21-8.63,8.95-8.2,15.72-8.2
				c80.84,0.05,161.69,0.04,242.53,0.04c26.25,0,52.51,0.22,78.76-0.12c7.59-0.1,11.85,1.78,14.79,9.63
				c11.67,31.15,24.05,62.05,36.59,92.86C482.21,439.91,479.1,442.15,470.62,441.03z"/>
			<g>
				<path class="st0" d="M340.33,341.04c-4.09-0.1-8.19-0.2-12.28-0.29C332.82,333.79,335.97,333.87,340.33,341.04z"/>
				<path class="st0" d="M175.16,340.5c-3.25,0.02-6.51,0.04-9.76,0.06C168.62,333.94,171.87,333.93,175.16,340.5z"/>
				<path class="st0" d="M202.69,340.52c-3.25-0.01-6.5-0.02-9.75-0.03C196.21,333.26,199.46,333.26,202.69,340.52z"/>
				<path class="st0" d="M365.35,340.43c-3.25,0.08-6.5,0.15-9.75,0.23C358.69,333.95,361.94,333.94,365.35,340.43z"/>
				<path class="st0" d="M147.55,340.39c-3.23,0.08-6.45,0.17-9.68,0.25C140.87,331.87,144.22,336.37,147.55,340.39z"/>
				<path class="st0" d="M227.73,340.18c-2.42,0.09-4.85,0.18-7.27,0.27c0.21-2.2,0.99-4.11,3.51-4.2
					C226.48,336.15,227.42,337.96,227.73,340.18z"/>
				<path class="st0" d="M255.26,340.27c-2.43,0.04-4.86,0.08-7.28,0.11c0.24-2.21,1.07-4.1,3.59-4.14
					C254.1,336.2,254.98,338.05,255.26,340.27z"/>
				<path class="st0" d="M417.94,340.2c-2.43,0.11-4.86,0.22-7.29,0.32c0.2-2.22,0.95-4.16,3.48-4.27
					C416.67,336.15,417.61,337.97,417.94,340.2z"/>
			</g>
		</g>
		<g>
			<path class="st8" d="M266.63,433.24c-52.13-0.01-104.26,0.05-156.39-0.11c-3.78-0.01-9.98,2.5-10.85-2.81
				c-0.95-5.84,4.23-9.58,9.77-11.23c2.32-0.69,4.96-0.41,7.46-0.41c99.67-0.01,199.35,0,299.02-0.05c5.16,0,10.07,0.3,13.6,4.68
				c1.78,2.21,4.32,4.36,2.86,7.64c-1.27,2.85-4.18,2.22-6.58,2.25c-6.25,0.09-12.51,0.04-18.77,0.04
				C360.05,433.24,313.34,433.24,266.63,433.24z"/>
			<g>
				<path class="st8" d="M202.69,340.52c0.58,0.54,1.26,0.75,2.04,0.64c3.38,3.64,4.32,6.98-1.25,9.4
					c-6.77,2.95-12.73,0.24-15.58-7.06l0-0.02c1-0.8,1.99-1.61,2.99-2.41c0.78,0.15,1.46-0.05,2.05-0.59
					C196.19,340.49,199.44,340.5,202.69,340.52z"/>
				<g>
					<path class="st8" d="M148.48,407.78c-3.91-1.22-10.22-0.7-9.56-6.73c0.6-5.44,6.45-5.28,10.96-5.24
						c4.25,0.04,9.43,1.03,9.28,5.8C158.98,407.28,152.97,406.87,148.48,407.78z"/>
					<path class="st8" d="M412.39,395.68c4.18,0.28,9.45,0.82,9.49,5.63c0.04,5.7-5.83,6.26-10.19,6.16
						c-4.25-0.1-10.48-0.25-10.09-6.15C401.95,395.85,407.85,395.95,412.39,395.68z"/>
					<path class="st8" d="M163.72,390.1c-4.24-1.23-10.39-0.48-10.29-6.53c0.09-5.04,5.35-5.45,9.49-5.5
						c4.49-0.05,10.39-0.24,10.76,5.41C174.07,389.46,167.67,388.75,163.72,390.1z"/>
					<path class="st8" d="M90.14,407.64c-4.04-0.76-9.55-0.79-9.7-5.67c-0.17-5.9,5.55-6.08,10.04-6.13
						c4.55-0.06,10.49,0.27,10.32,5.9C100.65,407.2,94.41,406.81,90.14,407.64z"/>
					<path class="st8" d="M382.45,395.69c4.31,0.47,10.29,0.26,10.29,6.17c-0.01,4.97-5.77,5.61-9.79,5.59
						c-4.34-0.02-10.47,0.01-10.4-6.07C372.6,396.36,378,396.03,382.45,395.69z"/>
					<path class="st8" d="M353.92,407.8c-4.52-0.93-10.2-0.64-10.51-5.62c-0.38-6.11,5.45-6.37,10-6.4
						c4.63-0.03,10.39,0.58,10.08,6.44C363.24,407.21,357.19,406.41,353.92,407.8z"/>
					<path class="st8" d="M322.45,407.66c-3.64-1.58-9.77-1.49-8.37-6.9c1.49-5.75,7.66-5.2,12.56-4.84
						c3.78,0.28,8.7,1.77,7.89,5.89C333.37,407.69,327.18,407.13,322.45,407.66z"/>
					<path class="st8" d="M235.99,395.64c5.21,0.41,11.18,0.59,10.83,6.22c-0.32,5.21-6.45,5.67-10.86,5.56
						c-3.97-0.1-9.62-0.79-9.6-5.59C226.38,396.19,232.17,396.11,235.99,395.64z"/>
					<path class="st8" d="M425.6,390.13c-4.46-1.58-10.34-1.66-9.33-6.93c1.17-6.12,7.43-5.22,12.22-5.09
						c3.77,0.11,8.55,1.24,8.05,5.62C435.81,390.23,429.32,388.78,425.6,390.13z"/>
					<path class="st8" d="M207.52,407.83c-4.2-1.38-10.68-0.52-10.3-6.48c0.34-5.44,6.2-5.61,10.77-5.58
						c4.2,0.03,9.36,0.65,9.51,5.57C217.68,407.53,211.4,406.45,207.52,407.83z"/>
					<path class="st8" d="M177.57,395.71c4.8,0.25,10.63,0.24,10.7,6.12c0.07,5.12-5.74,5.58-9.72,5.61
						c-4.36,0.04-10.46,0.01-10.46-6.05C168.09,396.2,173.57,396.14,177.57,395.71z"/>
					<path class="st8" d="M396.82,377.96c4.3,0.37,10.27-0.14,10.41,5.7c0.15,5.87-6.14,6.11-10.3,6.07
						c-4.14-0.05-10.28-0.35-9.95-6.42C387.26,378.33,392.54,378.22,396.82,377.96z"/>
					<path class="st8" d="M339.03,390.02c-4.31-1.04-10.36-0.54-10.44-6.41c-0.07-5.17,5.3-5.43,9.43-5.53
						c4.54-0.11,10.48-0.22,10.97,5.25C349.52,389.3,343.07,388.71,339.03,390.02z"/>
					<path class="st8" d="M308.94,390.07c-3.9-1.44-10.36-0.93-9.52-7c0.75-5.44,6.67-5.05,11.14-4.99c4.17,0.06,9.45,0.69,9.11,5.8
						C319.29,389.43,313.39,389.2,308.94,390.07z"/>
					<path class="st8" d="M250.81,390.04c-4.04-0.97-9.81-1.08-9.73-5.84c0.1-6.64,6.4-6.15,11.25-6.09
						c4.2,0.05,9.48,0.91,9.08,5.88C260.96,389.37,255.06,389.25,250.81,390.04z"/>
					<path class="st8" d="M221.77,390.03c-4.14-1.28-10.58-0.62-10.03-6.7c0.51-5.63,6.51-5.29,10.99-5.26
						c4.16,0.02,9.54,0.45,9.46,5.56C232.11,389.48,225.95,388.86,221.77,390.03z"/>
					<path class="st8" d="M134.89,390.03c-4.29-0.83-10.23-0.48-10.72-5.98c-0.45-5.04,4.79-5.99,9-5.97
						c4.8,0.02,11.19-0.53,11.37,6.06C144.65,388.86,138.86,389.04,134.89,390.03z"/>
					<path class="st8" d="M440.41,407.69c-4.04-0.93-9.73-0.87-9.61-5.94c0.14-5.79,5.88-5.97,10.45-5.9
						c4.14,0.06,9.5,0.36,9.44,5.58C450.64,407.46,444.62,406.82,440.41,407.69z"/>
					<path class="st8" d="M295.55,407.73c-4.14-1.01-10.29-0.16-10.48-6.15c-0.16-5.19,5.19-5.72,9.39-5.76
						c4.55-0.04,10.36-0.07,10.61,5.81C305.3,406.88,299.54,406.64,295.55,407.73z"/>
					<path class="st8" d="M266.01,395.68c4.23,0.45,9.64,0.5,9.65,5.68c0.01,6.04-6.02,6.05-10.34,6.04
						c-3.98-0.01-9.68-0.59-9.66-5.61C255.68,395.86,261.64,396.21,266.01,395.68z"/>
					<path class="st8" d="M120.17,407.62c-4.12-0.93-10.24-0.09-10.19-6.26c0.04-5.16,5.35-5.5,9.54-5.54
						c4.61-0.04,10.37,0.2,10.42,5.98C129.98,406.79,124.29,406.79,120.17,407.62z"/>
					<path class="st8" d="M368.42,390.12c-4.5-1.12-10.58-0.47-10.31-6.73c0.22-5.26,5.59-5.36,9.69-5.32
						c4.46,0.05,10.35-0.12,10.13,6.13C377.75,389.32,372.03,388.93,368.42,390.12z"/>
					<path class="st8" d="M280.38,378c4.4,0.27,9.74,0.21,9.88,5.46c0.16,6.13-5.8,6.25-10.17,6.32c-4.06,0.06-9.56-0.61-9.7-5.64
						C270.2,377.84,276.15,378.44,280.38,378z"/>
					<path class="st8" d="M296.86,343.77c6.57-4.46,13.12-4.4,19.65,0.1c0.53,7.54-5.09,7.45-9.92,7.46
						C301.73,351.34,296.25,351.21,296.86,343.77z"/>
					<path class="st8" d="M101.85,368.34c-3.94-0.39-9.17-0.74-8.81-5.94c0.35-5.11,5.91-5,9.83-4.92c3.89,0.08,9.46,0.26,8.94,5.74
						C111.35,367.98,106.22,368.26,101.85,368.34z"/>
					<path class="st8" d="M374.8,368.36c-4.18-0.4-9.41-0.42-9.4-5.86c0.01-4.72,5.14-4.98,8.73-5.12
						c4.09-0.15,9.76,0.05,10.05,5.06C384.47,367.59,378.98,367.9,374.8,368.36z"/>
					<path class="st8" d="M269.84,343.43c6.55-4.04,13.04-3.79,19.48,0.25c0.56,7.48-4.97,7.57-9.88,7.67
						C274.27,351.46,269.19,350.71,269.84,343.43z"/>
					<path class="st8" d="M105.45,389.39c-3.82-1.07-10.18,0.78-10.21-5.76c-0.03-5.29,5.34-5.58,9.45-5.55
						c4.42,0.03,10.3-0.37,10.45,5.8C115.28,389.6,109.5,388.51,105.45,389.39z"/>
					<path class="st8" d="M192.75,389.65c-4.15-0.76-9.67-0.34-9.86-5.51c-0.23-6.28,5.63-5.93,10.04-6.01
						c4.09-0.07,9.38,0.09,9.62,5.25C202.85,389.82,196.6,388.54,192.75,389.65z"/>
					<path class="st8" d="M351.21,343.61c1.46-0.99,2.93-1.97,4.39-2.96c3.25-0.08,6.5-0.15,9.75-0.23c2.8,1.7,5.87,3.17,6.04,7.1
						C359.46,353.91,355.14,353.08,351.21,343.61z"/>
					<path class="st8" d="M266.76,368.41c-5.21-0.19-10.51-0.64-10.36-5.73c0.15-5.19,5.79-5.11,9.84-5.04
						c3.59,0.07,8.65-0.06,8.84,4.76C275.32,368.16,269.75,367.55,266.76,368.41z"/>
					<path class="st8" d="M321.66,368.41c-4.93-0.27-10.12-0.24-10.71-5.08c-0.7-5.77,4.92-5.43,8.74-5.63
						c4-0.22,9.39-0.28,9.96,4.63C330.28,367.81,324.66,367.51,321.66,368.41z"/>
					<path class="st8" d="M346.9,368.35c-3.79-0.33-8.67-0.69-8.62-5.19c0.07-6.62,6.25-5.4,10.45-5.45
						c3.56-0.04,8.63,0.39,8.08,5.37C356.24,368.22,351.1,368.16,346.9,368.35z"/>
					<path class="st8" d="M323.94,343.76c1.37-1,2.74-2.01,4.11-3.01c4.09,0.1,8.19,0.2,12.28,0.29c1.01,0.76,2.02,1.52,3.03,2.28
						c0.93,6.39-3.22,7.9-8.18,7.97C329.89,351.37,323.96,351.8,323.94,343.76z"/>
					<path class="st8" d="M106.17,343.68c6.43-4.23,12.93-4.03,19.5-0.34c0.74,7.37-4.37,8.03-9.59,7.95
						C111.1,351.22,105.7,351.08,106.17,343.68z"/>
					<path class="st8" d="M429.02,368.39c-4.43-0.57-9.62-0.8-9.2-6.24c0.34-4.42,5.31-4.84,8.99-4.65c3.89,0.2,9.6-0.29,9.51,5.34
						C438.23,368.2,432.82,367.93,429.02,368.39z"/>
					<path class="st8" d="M129.87,368.33c-4.14-0.28-9.25-0.2-9.44-5.62c-0.18-5.02,4.9-4.89,8.43-5.05
						c4.06-0.18,9.71-0.26,10.18,4.63C139.53,367.43,134.1,367.9,129.87,368.33z"/>
					<path class="st8" d="M156.37,368.31c-3.71-0.4-8.45-0.6-8.57-5.2c-0.16-5.83,5.29-5.45,9.22-5.42c3.9,0.03,9.61-0.29,9.24,5.35
						C165.92,368.01,160.61,368.16,156.37,368.31z"/>
					<path class="st8" d="M211.63,368.35c-4.29-0.34-9.67-0.44-9.67-5.57c0-5.32,5.56-5.08,9.56-5.11c3.65-0.03,8.59-0.08,8.92,4.53
						C220.83,367.77,215.58,367.79,211.63,368.35z"/>
					<path class="st8" d="M237.87,357.53c4.06,0.63,9.53-0.48,9.9,5.18c0.31,4.79-4.42,5.37-8.18,5.5
						c-4.63,0.16-10.36-0.02-10.47-5.88C229.04,357.99,234.34,358.03,237.87,357.53z"/>
					<path class="st8" d="M292.81,368.41c-4.07-0.45-9.36-0.46-9.23-5.92c0.11-4.63,5.16-4.77,8.83-4.83
						c4.07-0.07,9.68-0.29,9.9,4.96C302.53,367.88,297.09,368.05,292.81,368.41z"/>
					<path class="st8" d="M401.83,368.35c-4.23-0.38-9.65-0.59-9.24-5.97c0.4-5.31,6.09-4.69,10.1-4.71
						c3.66-0.01,8.71,0.18,8.63,4.89C411.24,367.84,406.03,368.02,401.83,368.35z"/>
					<path class="st8" d="M417.94,340.2c2.46,1.08,4.92,2.16,7.38,3.25c-2.8,7.26-8.8,10.02-15.54,7.1
						c-5.65-2.44-4.49-5.8-1.22-9.42c0.79,0.12,1.5-0.08,2.1-0.61C413.08,340.42,415.51,340.31,417.94,340.2z"/>
					<path class="st8" d="M378.4,343.58c5.14-3.65,10.91-3.05,16.68-2.49c3.27,3.52,4.67,6.88-0.95,9.46
						C387.58,353.55,381.44,350.79,378.4,343.58z"/>
					<path class="st8" d="M255.26,340.27c2.29,1.14,4.58,2.28,6.88,3.41c-3.17,7.17-9.38,9.88-15.81,6.83
						c-5.71-2.7-3.88-6.07-0.73-9.5c0.8-0.21,1.59-0.42,2.39-0.62C250.41,340.34,252.84,340.3,255.26,340.27z"/>
					<path class="st8" d="M227.73,340.18c1.44,0.36,2.88,0.72,4.32,1.07c2.07,2.63,4.85,5.49,0.49,8.18
						c-4.95,3.05-10.42,3.08-15.26-0.12c-4.28-2.84-1.02-5.65,0.9-8.25c0.84,0.1,1.61-0.1,2.28-0.62
						C222.89,340.35,225.31,340.27,227.73,340.18z"/>
					<path class="st8" d="M160.57,343.48c1.61-0.97,3.22-1.95,4.83-2.92c3.25-0.02,6.51-0.04,9.76-0.06
						c0.63,0.52,1.34,0.7,2.14,0.56c0.98,0.82,1.96,1.63,2.94,2.45l-0.06-0.04c0.74,7.54-4.76,7.85-9.76,7.86
						C165.39,351.34,159.97,350.94,160.57,343.48z"/>
					<path class="st8" d="M133.36,343.66c1.5-1.01,3.01-2.02,4.51-3.02c3.23-0.08,6.45-0.17,9.68-0.25c0.8,0.21,1.59,0.42,2.39,0.63
						c0.94,0.74,1.88,1.48,2.82,2.23l0.12,0.13c0.8,7.44-4.51,7.87-9.58,7.93C138.23,351.36,133.03,350.93,133.36,343.66z"/>
					<path class="st8" d="M183.58,357.22c4.17,1.15,9.92,0.04,9.51,5.86c-0.36,5.16-5.52,5.23-9.6,5.16
						c-3.7-0.06-8.2-0.59-8.44-5.14C174.74,357.01,180.64,358.74,183.58,357.22z"/>
					<path class="st8" d="M190.89,341.07c-1,0.8-1.99,1.61-2.99,2.41C188.9,342.68,189.89,341.88,190.89,341.07z"/>
				</g>
			</g>
		</g>
	</g>
</g>
<g id="cat-paw-left">
	<g>
		<path class="st10" d="M87.41,291.1c0.96-0.8,1.93-1.6,2.89-2.41C89.34,289.49,88.37,290.29,87.41,291.1z"/>
		<path class="st10" d="M114.47,290.84c0.92-0.73,1.85-1.46,2.77-2.19C116.32,289.38,115.4,290.11,114.47,290.84z"/>
		<path class="st11" d="M238.17,755.29c-0.49,0-0.65-0.15-0.73-0.62c-0.81-4.62-34.06-155.24-34.93-159.86
			c-0.99-5.33-2-10.65-3.03-15.99c-2.46-12.37-5.15-24.68-8.32-36.88c-1.91-7.33-3.72-14.69-5.82-21.96
			c-2.46-8.47-9.67-68.89-12.25-77.33c-2.41-7.3-4.32-14.76-5.7-22.32c-0.61-3.79-1.01-7.61-1.32-11.44
			c-0.13-2.59-0.11-5.19,0.05-7.78c0.16-4,0.77-7.97,1.82-11.83c1.29-4.18,2.94-8.24,4.92-12.13c1.54-3.25,3.03-6.53,4.39-9.85
			c1.21-2.8,1.9-5.8,2.02-8.85c0.11-4.01-0.98-7.96-3.12-11.35c-2.96-5.12-8.47-8.23-14.39-8.09c-2.65,0.08-5.25,0.77-7.58,2.02
			c-0.68,0.33-1.21,0.89-1.52,1.58c-1.62,3.16-3.54,6.17-5.73,8.97c-0.37,0.64-1.19,0.86-1.84,0.49c-0.03-0.01-0.05-0.03-0.07-0.05
			c-0.68-0.41-0.9-1.29-0.5-1.97c0.01-0.02,0.02-0.04,0.03-0.05c2.06-3.87,3.83-7.88,5.3-12.01c1.47-3.35,1.72-7.1,0.71-10.62
			c-2.1-8.13-9.99-13.36-18.29-12.13c-4.44,0.42-8.57,2.48-11.58,5.78c-0.74,0.71-1.36,1.54-1.83,2.45
			c-1.12,2.71-1.87,5.55-2.22,8.46c-0.4,2.88-0.75,5.76-1.13,8.64c-0.1,0.76-0.51,1.13-1.1,1.11c-0.66-0.02-1.18-0.55-1.18-1.21
			c0-1.8-0.05-3.61,0-5.42c0.1-3.22,0.58-6.41,1.42-9.51c0.07-0.26,0.07-0.53,0-0.79c-0.25-1.13-0.55-2.25-0.83-3.39
			c-0.21-0.76-0.71-1.4-1.4-1.8c-3.99-2.71-8.89-3.72-13.63-2.81c-4.59,0.85-8.76,3.25-11.79,6.8c-2.2,2.4-3.66,5.38-4.22,8.58
			c0,0.94-0.28,1.86-0.82,2.64c-0.09,0.09-0.08,0.29-0.09,0.44c-0.21,2.43-0.12,4.88,0.27,7.29c0.44,2.64,1.01,5.26,1.6,7.88
			c0.21,0.59-0.05,1.25-0.61,1.55c-0.58,0.3-1.29,0.12-1.67-0.41c-0.1-0.12-0.19-0.25-0.27-0.38c-2.05-3.31-3.16-7.11-3.22-11
			c0-1.78,0.07-3.56,0.11-5.41c-0.18,0-0.43-0.13-0.7-0.19c-3.98-0.95-8.1-1.09-12.13-0.4c-6.44,1.15-11.61,4.2-14.95,10.01
			c-3.69,6.41-5.26,13.14-3.6,20.47c0.78,3.42,1.72,6.8,2.58,10.2c0.94,3.75,19.94,71.79,18.69,75.48
			c-1.58,4.75-3.03,9.53-4.26,14.39c-2.68,10.91,4.83,49.26,2.41,60.23c-2.3,10.38,5.89,41.72,3.83,52.15
			c-1.59,8.09,5.92,19.85,4.48,27.97c-0.84,4.68,2.44,6.49,1.68,11.18c-1.01,6.46,6.53,5.24,5.56,11.71
			c-0.78,5.15-1.52,10.29-2.18,15.46c-0.83,6.33-7.72,140.76-8.47,147.1"/>
		<path class="st12" d="M70.43,558.08c2.02-10.43-6.69-22.75-4.4-33.13c2.43-10.97-5.06-49.32-2.41-60.23
			c1.18-4.85,2.68-9.64,4.26-14.39c1.24-3.73-17.75-71.73-18.69-75.48c-0.86-3.4-1.8-6.78-2.58-10.2
			c-1.66-7.31-0.09-14.06,3.6-20.47c3.35-5.81,8.51-8.86,14.95-10.01c4.03-0.68,8.16-0.54,12.13,0.4c0.26,0.06,0.52,0.14,0.7,0.19
			c0,1.85-0.15,3.63-0.11,5.41c0.05,3.89,1.16,7.69,3.22,11c0.08,0.13,0.17,0.26,0.27,0.38c0.37,0.54,1.09,0.71,1.67,0.41
			c0.56-0.29,0.81-0.95,0.61-1.55c-0.55-2.62-1.15-5.24-1.6-7.88c-0.39-2.41-0.48-4.86-0.27-7.29c0-0.15,0-0.35,0.09-0.44
			c0.56-0.77,0.87-1.7,0.89-2.66c0.58-3.22,2.07-6.2,4.3-8.58c3.03-3.55,7.2-5.95,11.79-6.8c4.74-0.91,9.64,0.1,13.63,2.81
			c0.68,0.4,1.18,1.04,1.4,1.8c0.28,1.13,0.58,2.25,0.83,3.39c0.07,0.26,0.07,0.53,0,0.79c-0.84,3.11-1.31,6.3-1.42,9.51
			c-0.05,1.81,0,3.62,0,5.42c0,0.66,0.52,1.2,1.18,1.21c0.6,0,1.01-0.35,1.1-1.11c0.38-2.88,0.73-5.76,1.13-8.64
			c0.36-2.91,1.11-5.75,2.22-8.46c0.45-0.91,1.04-1.73,1.75-2.45c3-3.26,7.1-5.29,11.52-5.7c8.31-1.24,16.21,3.99,18.31,12.12
			c1.01,3.51,0.76,7.27-0.71,10.62c-1.49,4.13-3.28,8.14-5.36,12.01c-0.44,0.66-0.25,1.55,0.41,1.99c0.02,0.01,0.04,0.02,0.05,0.03
			c0.62,0.41,1.45,0.25,1.87-0.37c0.02-0.02,0.03-0.05,0.05-0.07c2.19-2.8,4.11-5.8,5.73-8.97c0.3-0.69,0.84-1.25,1.52-1.58
			c2.34-1.25,4.93-1.94,7.58-2.02c5.91-0.14,11.43,2.96,14.39,8.09c2.14,3.39,3.23,7.34,3.12,11.35c-0.12,3.05-0.81,6.05-2.02,8.85
			c-1.38,3.32-2.85,6.6-4.39,9.85c-1.98,3.9-3.63,7.96-4.92,12.13c-1.05,3.86-1.66,7.83-1.82,11.83c-0.16,2.59-0.18,5.18-0.05,7.78
			c0.28,3.82,0.72,7.64,1.32,11.44c1.23,7.6,0.39,15.72,2.66,23.07c2.59,8.43,12.84,68.11,15.3,76.58
			c2.1,7.27,3.91,14.63,5.82,21.96c3.25,12.13,5.96,24.45,8.39,36.84c1.05,5.32,2.06,10.65,3.03,15.99
			c0.9,4.59,34.15,155.21,34.97,159.83c0.08,0.47,0.24,0.62,0.73,0.62c1.76,0,3.53,0,5.35,0c-0.58-2.9-1.14-5.74-1.73-8.58
			c-2.41-11.73-37.52-169.4-40.52-180.98c-3.17-12.25-6.4-24.47-9.71-36.66c-3.33-12.22-10.91-66.17-14.29-78.38
			c-1.92-6.94-3.98-24.18-4.92-31.34c-0.44-3.36-0.7-6.73-0.91-10.11c-0.45-8.21,0.78-16.43,3.62-24.15
			c1.31-3.69,2.91-7.3,4.37-10.95c1.65-3.91,2.8-8.01,3.42-12.2c0.9-5.95-0.24-12.03-3.24-17.25c-0.17-0.34-0.23-0.73-0.16-1.11
			c0.52-3.03,1.11-6.07,1.61-9.16c0.11-0.8,0.09-1.61-0.06-2.41c-0.41-2.47-2.16-3.6-4.63-3.03c-2.08,0.62-4.02,1.62-5.73,2.96
			c-1.11,0.75-2.15,1.6-3.26,2.36c-0.27,0.17-0.59,0.24-0.9,0.18c-3.3-0.9-6.77-0.97-10.11-0.22c-0.13,0-0.26,0-0.57,0.07
			c0-1.13,0.09-2.22,0-3.31c-0.33-5.84-2.81-11.35-6.97-15.47c-0.66-0.63-1.36-1.22-2.09-1.77c-0.32-0.24-0.53-0.61-0.56-1.01
			c-0.47-3.08-0.92-6.18-1.49-9.24c-0.22-0.84-0.56-1.64-1.01-2.38c-0.52-0.8-1.35-1.34-2.3-1.5h-1.2
			c-2.92,0.94-4.53,3.37-6.26,5.63c-1.01,1.35-1.92,2.8-2.92,4.17c-0.23,0.31-0.56,0.54-0.93,0.64c-4.51,0.85-8.65,3.06-11.86,6.35
			c-0.36,0.36-0.69,0.76-1.08,1.19l-1.51-1.07c-2.97-2.09-6.31-3.58-9.85-4.41c-0.31-0.1-0.57-0.29-0.76-0.56
			c-1.89-2.54-3.71-5.15-5.67-7.63c-0.74-0.89-1.62-1.66-2.6-2.27c-1.52-1-3.56-0.59-4.57,0.92c-1.04,1.55-1.68,3.33-1.86,5.19
			c-0.34,2.15-0.55,4.34-0.85,6.5c-0.06,0.31-0.22,0.59-0.48,0.79c-3.05,1.99-5.58,4.66-7.4,7.81c-1.16,2.19-2.02,4.53-2.55,6.96
			c-0.06,0.24-0.12,0.48-0.18,0.74c-1.36-0.29-2.68-0.62-4.04-0.86c-2.97-0.51-6-0.63-9.01-0.34c-0.31-0.02-0.61-0.16-0.82-0.39
			c-2.16-2.18-4.26-4.46-6.48-6.58c-0.89-0.8-1.92-1.44-3.03-1.89c-1.53-0.64-3.3-0.01-4.07,1.47c-0.71,1.2-1.08,2.57-1.08,3.96
			c-0.05,3.33,0,6.65,0,9.97c0,0.23-0.08,0.46-0.23,0.64c-4.74,5.07-7.59,11.62-8.09,18.54c-0.32,4.89,0.12,9.8,1.31,14.55
			c0.57,2.59,1.06,5.21,1.47,7.83c0.36,2.45,13.89,71.92,13.3,74.34c-3.72,15.39,3.82,46.02,0.57,61.52
			c-1.6,7.6,0.56,3.92,1.11,17.35c1.68,19.02,5.6,41.39,10.11,55.93c0.57,11.19,7.43,38.99,5.88,49.21
			c-1.3,8.66-8.49,145.47-9.66,154.16c0,0.24-0.09,0.49-0.14,0.72v0.4c1.44,0,2.86,0,4.3,0c0.42,0,0.62-0.08,0.68-0.57
			c0.75-6.34,7.64-140.77,8.47-147.1c0.67-5.17,1.41-10.31,2.18-15.46c1.01-6.47-6.6-34.38-5.56-40.8"/>
		<path class="st12" d="M62.25,329.97c-3.59,0.81-6.97,2.37-9.93,4.57c-0.53-3.44-0.37-6.96,0.49-10.33
			c0.56-1.92,1.53-2.23,3.03-0.93c1.02,0.9,2,1.85,2.91,2.86C59.94,327.37,61.05,328.64,62.25,329.97z"/>
		<path class="st12" d="M91.58,313.64c-0.02-0.17-0.02-0.34,0-0.52c0.28-1.87,0.5-3.75,0.91-5.59c0.29-1.17,0.72-2.3,1.29-3.36
			c0.52-1.01,1.27-1.07,2.15-0.36c0.4,0.33,0.76,0.72,1.07,1.14c1.51,2.07,3.03,4.18,4.47,6.27c0.08,0.13,0.14,0.28,0.18,0.42
			C98.19,311.51,94.74,312.2,91.58,313.64z"/>
		<path class="st12" d="M133.31,309.71c0.03-0.11,0.07-0.23,0.12-0.33c1.46-2.57,3.36-4.87,5.63-6.76c1.61-1.31,2.63-1.01,3.1,1.01
			c0.35,1.54,0.55,3.11,0.77,4.68c0.15,1.07,0.22,2.15,0.35,3.37C140.17,310.22,136.75,309.54,133.31,309.71z"/>
		<path class="st12" d="M177.33,341.09l-0.27,0.07c-2.14-2.46-4.8-4.41-7.79-5.71c0-0.11,0-0.16,0.06-0.19
			c2.15-1.82,4.62-3.22,7.29-4.1c1.47-0.47,2.4,0.29,2.16,1.82C178.37,335.67,177.8,338.38,177.33,341.09z"/>
		<path class="st13" d="M52.32,336.06c0.33,0,0.65-0.11,0.92-0.3c2.78-2.08,5.97-3.54,9.36-4.31c0.81-0.2,1.31-1.02,1.11-1.83
			c-0.06-0.24-0.18-0.47-0.35-0.65l-1.08-1.21c-0.82-0.91-1.61-1.79-2.42-2.65c-0.96-1.04-1.97-2.04-3.03-2.97
			c-0.69-0.68-1.61-1.09-2.58-1.15c-1.01,0-2.24,0.49-2.92,2.81c-0.9,3.57-1.08,7.28-0.54,10.92c0.08,0.77,0.73,1.36,1.51,1.35
			H52.32z"/>
		<path class="st12" d="M54.27,322.49c-0.66,0-1.13,0.58-1.47,1.72c-0.85,3.38-1.02,6.89-0.49,10.33c2.95-2.2,6.34-3.76,9.93-4.57
			c-1.2-1.33-2.32-2.61-3.48-3.83c-0.91-1.01-1.89-1.96-2.91-2.86C55.44,322.84,54.88,322.57,54.27,322.49 M54.27,319.46
			L54.27,319.46c1.33,0.05,2.6,0.59,3.56,1.52c1.1,0.95,2.15,1.97,3.14,3.03c0.84,0.88,1.62,1.76,2.45,2.69l1.07,1.19
			c1.12,1.24,1.03,3.16-0.21,4.28c-0.38,0.34-0.83,0.58-1.32,0.7c-3.18,0.72-6.18,2.1-8.81,4.04c-0.53,0.4-1.17,0.62-1.83,0.62
			c-0.41,0-0.82-0.09-1.2-0.25c-1-0.43-1.69-1.37-1.81-2.45c-0.57-3.84-0.37-7.75,0.59-11.52c1.01-3.52,3.41-3.9,4.38-3.9V319.46z"
			/>
		<path class="st13" d="M91.58,315.16c0.22,0,0.43-0.05,0.63-0.14c2.74-1.26,5.73-1.89,8.75-1.86h0.75c0.84,0,1.52-0.68,1.51-1.52
			c0-0.2-0.04-0.4-0.12-0.58v-0.12c-0.08-0.21-0.17-0.41-0.29-0.6l-0.77-1.07c-1.23-1.74-2.46-3.48-3.71-5.21
			c-0.4-0.53-0.87-1.01-1.4-1.43c-0.56-0.5-1.27-0.79-2.02-0.81c-1.07,0.02-2.03,0.67-2.44,1.66c-0.63,1.17-1.11,2.42-1.43,3.71
			c-0.31,1.39-0.52,2.78-0.71,4.15c-0.07,0.52-0.15,1.01-0.23,1.55c-0.03,0.24-0.03,0.49,0,0.74v0.16c0.04,0.49,0.32,0.93,0.74,1.18
			C91.07,315.09,91.32,315.16,91.58,315.16z"/>
		<path class="st12" d="M94.83,303.35c-0.5,0.04-0.92,0.36-1.09,0.83c-0.57,1.06-1,2.19-1.29,3.36c-0.41,1.84-0.63,3.72-0.91,5.59
			c-0.02,0.17-0.02,0.34,0,0.52c2.92-1.35,6.11-2.04,9.33-2.02h0.75c-0.04-0.15-0.11-0.29-0.18-0.42c-1.49-2.09-2.96-4.2-4.47-6.27
			c-0.31-0.4-0.67-0.77-1.06-1.08c-0.29-0.27-0.66-0.44-1.06-0.47 M94.84,300.35L94.84,300.35c1.09,0.02,2.15,0.43,2.97,1.14
			c0.63,0.5,1.19,1.08,1.67,1.72c1.24,1.65,2.49,3.46,3.69,5.16l0.82,1.1c0.2,0.3,0.36,0.62,0.49,0.95v0.06
			c0.65,1.54-0.08,3.32-1.62,3.97c-0.37,0.16-0.77,0.24-1.18,0.24h-0.72c-2.79-0.03-5.55,0.56-8.09,1.72
			c-0.4,0.19-0.83,0.28-1.26,0.28c-1.56,0.01-2.87-1.17-3.03-2.72v-0.09c-0.07-0.4-0.07-0.8,0-1.2c0.08-0.51,0.15-1.01,0.23-1.54
			c0.19-1.39,0.4-2.81,0.73-4.26c0.34-1.41,0.86-2.77,1.56-4.04c0.67-1.49,2.15-2.45,3.78-2.48L94.84,300.35z"/>
		<path class="st13" d="M143.33,313.2c0.32,0,0.62-0.1,0.88-0.28c0.44-0.31,0.68-0.84,0.63-1.39c0-0.37-0.07-0.75-0.11-1.1
			c-0.07-0.81-0.14-1.57-0.24-2.33l-0.1-0.67c-0.18-1.35-0.37-2.76-0.7-4.15c-0.61-2.6-2.09-2.98-2.93-2.98
			c-0.97,0.06-1.9,0.46-2.61,1.13c-2.41,2.01-4.43,4.44-5.98,7.17c-0.08,0.14-0.15,0.3-0.2,0.45v0.13
			c-0.28,0.79,0.13,1.66,0.92,1.94c0.16,0.06,0.33,0.09,0.5,0.09h0.07h0.95c2.88,0,5.72,0.64,8.32,1.86
			C142.92,313.16,143.12,313.2,143.33,313.2z"/>
		<path class="st12" d="M140.75,301.83c-0.62,0.07-1.2,0.35-1.65,0.79c-2.27,1.9-4.18,4.19-5.63,6.76
			c-0.05,0.11-0.09,0.22-0.12,0.33h1.01c3.1,0.01,6.16,0.7,8.96,2.02c-0.13-1.21-0.2-2.3-0.35-3.37c-0.22-1.57-0.41-3.14-0.77-4.68
			c-0.28-1.21-0.77-1.81-1.46-1.81 M140.74,298.84L140.74,298.84c0.81,0,3.52,0.3,4.41,4.16c0.29,1.41,0.55,2.87,0.74,4.23
			l0.09,0.67c0.12,0.81,0.19,1.58,0.26,2.4c0,0.35,0.06,0.72,0.1,1.09c0.17,1.67-1.05,3.15-2.71,3.32
			c-0.11,0.01-0.21,0.02-0.32,0.02c-0.44,0-0.87-0.09-1.26-0.27c-2.41-1.13-5.04-1.71-7.69-1.72h-0.89h-0.15
			c-1.68,0-3.03-1.37-3.02-3.04c0-0.34,0.06-0.68,0.17-1v-0.08c0.08-0.26,0.19-0.51,0.32-0.75c1.64-2.88,3.78-5.45,6.33-7.57
			c1-0.92,2.29-1.44,3.64-1.49L140.74,298.84z"/>
		<path class="st13" d="M177.06,342.67c0.12,0.01,0.24,0.01,0.36,0l0.26-0.07c0.59-0.15,1.03-0.64,1.12-1.24
			c0.15-0.8,0.29-1.59,0.44-2.39c0.36-1.89,0.73-3.85,1.01-5.8c0.2-0.96-0.04-1.97-0.67-2.73c-0.55-0.65-1.36-1.03-2.21-1.01
			c-0.42,0.01-0.83,0.07-1.23,0.2c-2.86,0.95-5.51,2.45-7.8,4.41c-0.28,0.24-0.48,0.57-0.57,0.94c-0.22,0.74,0.15,1.52,0.86,1.82
			c2.78,1.22,5.25,3.03,7.24,5.32C176.17,342.47,176.6,342.67,177.06,342.67z"/>
		<path class="st12" d="M177.41,330.98c-0.27,0.01-0.53,0.05-0.79,0.14c-2.67,0.9-5.15,2.3-7.29,4.13c0,0,0,0.08-0.06,0.19
			c2.99,1.3,5.65,3.25,7.79,5.71l0.27-0.07c0.5-2.71,1.01-5.42,1.46-8.09c0.19-1.23-0.38-1.96-1.38-1.96 M177.41,328L177.41,328
			c1.29-0.02,2.52,0.53,3.37,1.5c0.9,1.1,1.27,2.54,1.01,3.94c-0.3,2.02-0.68,3.95-1.01,5.86c-0.15,0.79-0.3,1.59-0.44,2.38
			c-0.21,1.18-1.1,2.12-2.26,2.41l-0.27,0.06c-0.23,0.06-0.48,0.09-0.72,0.09c-0.87,0-1.7-0.36-2.27-1.01
			c-1.85-2.14-4.15-3.85-6.73-5c-1.37-0.6-2.1-2.11-1.72-3.56c0.14-0.69,0.52-1.32,1.07-1.76c2.43-2.09,5.25-3.68,8.3-4.68
			c0.55-0.18,1.12-0.27,1.69-0.27V328z"/>
		<path class="st12" d="M167.02,413.75l2.24,22.38l0,0c-9.31-1.85-18.42-4.56-27.23-8.09l-8.28-3.31l0,0
			c9.42-0.97,18.59-3.64,27.06-7.88L167.02,413.75z"/>
		<path class="st12" d="M229.98,708.16l4.85,31.07l0,0c-17.95,0.13-35.88-1.03-53.66-3.45l-16.33-2.22l0,0
			c18.41-4.15,36.21-10.6,53-19.21L229.98,708.16z"/>
		<path class="st12" d="M64.56,515.82l0.66,22.48l0,0c8.99-3.04,17.68-6.9,25.96-11.53l7.78-4.35l0,0
			c-9.46,0.25-18.89-1.21-27.83-4.33L64.56,515.82z"/>
		<path class="st12" d="M193.15,536.91l6.39,21.83l0,0c-17.08,4.66-34.4,8.4-51.89,11.21l-15.85,2.53l0,0
			c17.46-7.77,34.19-17.08,50-27.82L193.15,536.91z"/>
		<path class="st12" d="M80.87,614.1l-2.24,22.4l0,0c9.3-1.86,18.42-4.57,27.23-8.09l8.25-3.33l0,0
			c-9.42-0.97-18.59-3.64-27.06-7.88L80.87,614.1z"/>
	</g>
</g>
<g id="cat-paw-right">
	<g>
		<path class="st10" d="M420.5,292.42c-0.96-0.8-1.93-1.6-2.89-2.41C418.57,290.82,419.53,291.62,420.5,292.42z"/>
		<path class="st10" d="M393.44,292.17c-0.92-0.73-1.85-1.46-2.77-2.19C391.59,290.7,392.51,291.43,393.44,292.17z"/>
		<path class="st11" d="M269.74,756.62c0.49,0,0.65-0.15,0.73-0.62c0.81-4.62,34.06-155.24,34.93-159.86
			c0.99-5.32,2-10.65,3.03-15.99c2.46-12.37,5.15-24.68,8.32-36.88c1.91-7.33,3.72-14.69,5.82-21.96
			c2.46-8.47,9.67-68.89,12.25-77.33c2.41-7.3,4.32-14.76,5.7-22.32c0.61-3.79,1.01-7.61,1.32-11.44c0.13-2.59,0.11-5.19-0.05-7.78
			c-0.16-4-0.77-7.97-1.82-11.83c-1.29-4.18-2.94-8.24-4.92-12.13c-1.54-3.25-3.03-6.53-4.39-9.85c-1.21-2.8-1.9-5.8-2.02-8.85
			c-0.11-4.01,0.98-7.96,3.12-11.35c2.96-5.12,8.47-8.23,14.39-8.09c2.65,0.08,5.25,0.77,7.58,2.02c0.68,0.33,1.21,0.89,1.52,1.58
			c1.62,3.16,3.54,6.17,5.73,8.97c0.37,0.64,1.19,0.86,1.84,0.49c0.03-0.01,0.05-0.03,0.07-0.05c0.68-0.41,0.9-1.29,0.5-1.97
			c-0.01-0.02-0.02-0.04-0.03-0.05c-2.06-3.87-3.83-7.88-5.3-12.01c-1.47-3.35-1.72-7.1-0.71-10.62c2.1-8.13,9.99-13.36,18.29-12.13
			c4.44,0.42,8.57,2.48,11.58,5.78c0.74,0.71,1.36,1.54,1.83,2.45c1.12,2.71,1.87,5.55,2.22,8.46c0.4,2.88,0.75,5.76,1.13,8.64
			c0.1,0.76,0.51,1.13,1.1,1.11c0.66-0.02,1.18-0.55,1.18-1.21c0-1.8,0.05-3.61,0-5.42c-0.1-3.22-0.58-6.41-1.42-9.51
			c-0.07-0.26-0.07-0.53,0-0.79c0.25-1.13,0.55-2.25,0.83-3.39c0.21-0.76,0.71-1.4,1.4-1.8c3.99-2.71,8.89-3.72,13.63-2.81
			c4.59,0.85,8.76,3.25,11.79,6.8c2.2,2.4,3.66,5.38,4.22,8.58c0,0.94,0.28,1.86,0.82,2.64c0.09,0.09,0.08,0.29,0.09,0.44
			c0.21,2.43,0.12,4.88-0.27,7.29c-0.44,2.64-1.01,5.26-1.6,7.88c-0.21,0.59,0.05,1.25,0.61,1.55c0.58,0.3,1.29,0.12,1.67-0.41
			c0.1-0.12,0.19-0.25,0.27-0.38c2.05-3.31,3.16-7.11,3.22-11c0-1.78-0.07-3.56-0.11-5.41c0.18,0,0.43-0.13,0.7-0.19
			c3.98-0.95,8.1-1.09,12.13-0.4c6.44,1.15,11.61,4.2,14.95,10.01c3.69,6.41,5.26,13.14,3.6,20.47c-0.78,3.42-1.72,6.8-2.58,10.2
			c-0.94,3.75-19.94,71.79-18.69,75.48c1.58,4.75,3.03,9.53,4.26,14.39c2.68,10.91-4.83,49.26-2.41,60.23
			c2.3,10.38-5.89,41.72-3.83,52.15c1.59,8.09-5.92,19.85-4.48,27.97c0.84,4.68-2.44,6.49-1.68,11.18
			c1.01,6.46-6.53,5.24-5.56,11.71c0.78,5.15,1.52,10.29,2.18,15.46c0.83,6.33,7.72,140.76,8.47,147.1"/>
		<path class="st12" d="M437.48,559.41c-2.02-10.43,6.69-22.75,4.4-33.13c-2.43-10.97,5.06-49.32,2.41-60.23
			c-1.18-4.85-2.68-9.64-4.26-14.39c-1.24-3.73,17.75-71.73,18.69-75.48c0.86-3.4,1.8-6.78,2.58-10.2
			c1.66-7.31,0.09-14.06-3.6-20.47c-3.35-5.81-8.51-8.86-14.95-10.01c-4.03-0.68-8.16-0.54-12.13,0.4c-0.26,0.06-0.52,0.14-0.7,0.19
			c0,1.85,0.15,3.63,0.11,5.41c-0.05,3.89-1.16,7.69-3.22,11c-0.08,0.13-0.17,0.26-0.27,0.38c-0.37,0.54-1.09,0.71-1.67,0.41
			c-0.56-0.29-0.81-0.95-0.61-1.55c0.55-2.62,1.15-5.24,1.6-7.88c0.39-2.41,0.48-4.86,0.27-7.29c0-0.15,0-0.35-0.09-0.44
			c-0.56-0.77-0.87-1.7-0.89-2.66c-0.58-3.22-2.07-6.2-4.3-8.58c-3.03-3.55-7.2-5.95-11.79-6.8c-4.74-0.91-9.64,0.1-13.63,2.81
			c-0.68,0.4-1.18,1.04-1.4,1.8c-0.28,1.13-0.58,2.25-0.83,3.39c-0.07,0.26-0.07,0.53,0,0.79c0.84,3.11,1.31,6.3,1.42,9.51
			c0.05,1.81,0,3.62,0,5.42c0,0.66-0.52,1.2-1.18,1.21c-0.6,0-1.01-0.35-1.1-1.11c-0.38-2.88-0.73-5.76-1.13-8.64
			c-0.36-2.91-1.11-5.75-2.22-8.46c-0.45-0.91-1.04-1.73-1.75-2.45c-3-3.26-7.1-5.29-11.52-5.7c-8.31-1.24-16.21,3.99-18.31,12.12
			c-1.01,3.51-0.76,7.27,0.71,10.62c1.49,4.13,3.28,8.14,5.36,12.01c0.44,0.66,0.25,1.55-0.41,1.99c-0.02,0.01-0.04,0.02-0.05,0.03
			c-0.62,0.41-1.45,0.25-1.87-0.37c-0.02-0.02-0.03-0.05-0.05-0.07c-2.19-2.8-4.11-5.8-5.73-8.97c-0.3-0.69-0.84-1.25-1.52-1.58
			c-2.34-1.25-4.93-1.94-7.58-2.02c-5.91-0.14-11.43,2.96-14.39,8.09c-2.14,3.39-3.23,7.34-3.12,11.35
			c0.12,3.05,0.81,6.05,2.02,8.85c1.38,3.32,2.85,6.6,4.39,9.85c1.98,3.9,3.63,7.96,4.92,12.13c1.05,3.86,1.66,7.83,1.82,11.83
			c0.16,2.59,0.18,5.18,0.05,7.78c-0.28,3.82-0.72,7.64-1.32,11.44c-1.23,7.6-0.39,15.72-2.66,23.07
			c-2.59,8.43-12.84,68.11-15.3,76.58c-2.1,7.27-3.91,14.63-5.82,21.96c-3.25,12.13-5.96,24.45-8.39,36.84
			c-1.05,5.32-2.06,10.65-3.03,15.99c-0.9,4.59-34.15,155.21-34.97,159.83c-0.08,0.47-0.24,0.62-0.73,0.62c-1.76,0-3.53,0-5.35,0
			c0.58-2.9,1.14-5.74,1.73-8.58c2.41-11.73,37.52-169.4,40.52-180.98c3.17-12.25,6.4-24.47,9.71-36.66
			c3.33-12.22,10.91-66.17,14.29-78.38c1.92-6.94,3.98-24.18,4.92-31.34c0.44-3.36,0.7-6.73,0.91-10.11
			c0.45-8.21-0.78-16.43-3.62-24.15c-1.31-3.69-2.91-7.3-4.37-10.95c-1.65-3.91-2.8-8.01-3.42-12.2c-0.9-5.95,0.24-12.03,3.24-17.25
			c0.17-0.34,0.23-0.73,0.16-1.11c-0.52-3.03-1.11-6.07-1.61-9.16c-0.11-0.8-0.09-1.61,0.06-2.41c0.41-2.47,2.16-3.6,4.63-3.03
			c2.08,0.62,4.02,1.62,5.73,2.96c1.11,0.75,2.15,1.6,3.26,2.36c0.27,0.17,0.59,0.24,0.9,0.18c3.3-0.9,6.77-0.97,10.11-0.22
			c0.13,0,0.26,0,0.57,0.07c0-1.13-0.09-2.22,0-3.31c0.33-5.84,2.81-11.35,6.97-15.47c0.66-0.63,1.36-1.22,2.09-1.77
			c0.32-0.24,0.53-0.61,0.56-1.01c0.47-3.08,0.92-6.18,1.49-9.24c0.22-0.84,0.56-1.64,1.01-2.38c0.52-0.8,1.35-1.34,2.3-1.5h1.2
			c2.92,0.94,4.53,3.37,6.26,5.63c1.01,1.35,1.92,2.8,2.92,4.17c0.23,0.31,0.56,0.54,0.93,0.64c4.51,0.85,8.65,3.06,11.86,6.35
			c0.36,0.36,0.69,0.76,1.08,1.19l1.51-1.07c2.97-2.09,6.31-3.58,9.85-4.41c0.31-0.1,0.57-0.29,0.76-0.56
			c1.89-2.54,3.71-5.15,5.67-7.63c0.74-0.89,1.62-1.66,2.6-2.27c1.52-1,3.56-0.59,4.57,0.92c1.04,1.55,1.68,3.33,1.86,5.19
			c0.34,2.15,0.55,4.34,0.85,6.5c0.06,0.31,0.22,0.59,0.48,0.79c3.05,1.99,5.58,4.66,7.4,7.81c1.16,2.19,2.02,4.53,2.55,6.96
			c0.06,0.24,0.12,0.48,0.18,0.74c1.36-0.29,2.68-0.62,4.04-0.86c2.97-0.51,6-0.63,9.01-0.34c0.31-0.02,0.61-0.16,0.82-0.39
			c2.16-2.18,4.26-4.46,6.48-6.58c0.89-0.8,1.92-1.44,3.03-1.89c1.53-0.64,3.3,0,4.07,1.47c0.71,1.2,1.08,2.57,1.08,3.96
			c0.05,3.33,0,6.65,0,9.97c0,0.23,0.08,0.46,0.23,0.64c4.74,5.07,7.59,11.62,8.09,18.54c0.32,4.89-0.12,9.8-1.31,14.55
			c-0.57,2.59-1.06,5.21-1.47,7.83c-0.36,2.45-13.89,71.92-13.3,74.34c3.72,15.39-3.82,46.02-0.57,61.52
			c1.6,7.6-0.56,3.92-1.11,17.35c-1.68,19.02-5.6,41.39-10.11,55.93c-0.57,11.19-7.43,38.99-5.88,49.21
			c1.3,8.66,8.49,145.47,9.66,154.16c0,0.24,0.09,0.49,0.14,0.72v0.4c-1.44,0-2.86,0-4.3,0c-0.42,0-0.62-0.08-0.68-0.57
			c-0.75-6.34-7.64-140.77-8.47-147.1c-0.67-5.17-1.41-10.31-2.18-15.46c-1.01-6.47,6.6-34.38,5.56-40.8"/>
		<path class="st12" d="M445.66,331.3c3.59,0.81,6.97,2.37,9.93,4.57c0.53-3.44,0.37-6.96-0.49-10.33
			c-0.56-1.92-1.53-2.23-3.03-0.93c-1.02,0.9-2,1.85-2.91,2.86C447.97,328.69,446.86,329.96,445.66,331.3z"/>
		<path class="st12" d="M416.33,314.97c0.02-0.17,0.02-0.34,0-0.52c-0.28-1.87-0.5-3.75-0.91-5.59c-0.29-1.17-0.72-2.3-1.29-3.36
			c-0.52-1.01-1.27-1.07-2.15-0.36c-0.4,0.33-0.76,0.72-1.07,1.14c-1.51,2.07-3.03,4.18-4.47,6.27c-0.08,0.13-0.14,0.28-0.18,0.42
			C409.71,312.84,413.17,313.52,416.33,314.97z"/>
		<path class="st12" d="M374.6,311.04c-0.03-0.11-0.07-0.23-0.12-0.33c-1.46-2.57-3.36-4.87-5.63-6.76
			c-1.61-1.31-2.63-1.01-3.1,1.01c-0.35,1.54-0.55,3.11-0.77,4.68c-0.15,1.07-0.22,2.15-0.35,3.37
			C367.74,311.54,371.16,310.87,374.6,311.04z"/>
		<path class="st12" d="M330.58,342.41l0.27,0.07c2.14-2.46,4.8-4.41,7.79-5.71c0-0.11,0-0.16-0.06-0.19
			c-2.15-1.82-4.62-3.22-7.29-4.1c-1.47-0.47-2.4,0.29-2.16,1.82C329.53,336.99,330.11,339.7,330.58,342.41z"/>
		<path class="st13" d="M455.59,337.39c-0.33,0-0.65-0.11-0.92-0.3c-2.78-2.08-5.97-3.54-9.36-4.31c-0.81-0.2-1.31-1.02-1.11-1.83
			c0.06-0.24,0.18-0.47,0.35-0.65l1.08-1.21c0.82-0.91,1.61-1.79,2.42-2.65c0.96-1.04,1.97-2.04,3.03-2.97
			c0.69-0.68,1.61-1.09,2.58-1.15c1.01,0,2.24,0.49,2.92,2.81c0.9,3.57,1.08,7.28,0.54,10.92c-0.08,0.77-0.73,1.36-1.51,1.35H455.59
			z"/>
		<path class="st12" d="M453.63,323.82c0.66,0,1.13,0.58,1.47,1.72c0.85,3.38,1.02,6.89,0.49,10.33c-2.95-2.2-6.34-3.76-9.93-4.57
			c1.2-1.33,2.32-2.61,3.48-3.83c0.91-1.01,1.89-1.96,2.91-2.86C452.47,324.17,453.03,323.89,453.63,323.82 M453.63,320.78
			L453.63,320.78c-1.33,0.05-2.6,0.59-3.56,1.52c-1.1,0.95-2.15,1.97-3.14,3.03c-0.84,0.88-1.62,1.76-2.45,2.69l-1.07,1.19
			c-1.12,1.24-1.03,3.16,0.21,4.28c0.38,0.34,0.83,0.58,1.32,0.7c3.18,0.72,6.18,2.1,8.81,4.04c0.53,0.4,1.17,0.62,1.83,0.62
			c0.41,0,0.82-0.08,1.2-0.25c1-0.43,1.69-1.37,1.81-2.45c0.57-3.84,0.37-7.75-0.59-11.52c-1.01-3.52-3.41-3.9-4.38-3.9V320.78z"/>
		<path class="st13" d="M416.33,316.49c-0.22,0-0.43-0.05-0.63-0.14c-2.74-1.26-5.73-1.89-8.75-1.86h-0.75
			c-0.84,0-1.52-0.68-1.51-1.52c0-0.2,0.04-0.4,0.12-0.58v-0.12c0.08-0.21,0.17-0.41,0.29-0.6l0.77-1.07
			c1.23-1.74,2.46-3.48,3.71-5.21c0.4-0.53,0.87-1.01,1.4-1.43c0.56-0.5,1.27-0.79,2.02-0.81c1.07,0.02,2.03,0.67,2.44,1.66
			c0.63,1.17,1.11,2.42,1.43,3.71c0.31,1.39,0.52,2.78,0.71,4.15c0.07,0.52,0.15,1.01,0.23,1.55c0.03,0.24,0.03,0.49,0,0.74v0.16
			c-0.04,0.49-0.32,0.93-0.74,1.18C416.84,316.42,416.58,316.49,416.33,316.49z"/>
		<path class="st12" d="M413.08,304.68c0.5,0.04,0.92,0.36,1.09,0.83c0.57,1.06,1,2.19,1.29,3.36c0.41,1.84,0.63,3.72,0.91,5.59
			c0.02,0.17,0.02,0.34,0,0.52c-2.92-1.35-6.11-2.04-9.33-2.02h-0.75c0.04-0.15,0.11-0.29,0.18-0.42c1.49-2.09,2.96-4.2,4.47-6.27
			c0.31-0.4,0.67-0.77,1.06-1.08c0.29-0.27,0.66-0.44,1.06-0.47 M413.07,301.68L413.07,301.68c-1.09,0.02-2.15,0.43-2.97,1.14
			c-0.63,0.5-1.19,1.08-1.67,1.72c-1.24,1.65-2.49,3.46-3.69,5.16l-0.82,1.1c-0.2,0.3-0.36,0.62-0.49,0.95v0.06
			c-0.65,1.54,0.08,3.32,1.62,3.97c0.37,0.16,0.77,0.24,1.18,0.24h0.72c2.79-0.03,5.55,0.56,8.09,1.72c0.4,0.19,0.83,0.28,1.26,0.28
			c1.56,0.01,2.87-1.17,3.03-2.72v-0.09c0.07-0.4,0.07-0.8,0-1.2c-0.08-0.51-0.15-1.01-0.23-1.54c-0.19-1.39-0.4-2.81-0.73-4.26
			c-0.34-1.41-0.86-2.77-1.56-4.04c-0.67-1.49-2.15-2.45-3.78-2.48L413.07,301.68z"/>
		<path class="st13" d="M364.58,314.53c-0.32,0-0.62-0.1-0.88-0.28c-0.44-0.31-0.68-0.84-0.63-1.39c0-0.37,0.07-0.75,0.11-1.1
			c0.07-0.81,0.14-1.57,0.24-2.33l0.1-0.67c0.18-1.35,0.37-2.76,0.7-4.15c0.61-2.6,2.09-2.98,2.93-2.98
			c0.97,0.06,1.9,0.46,2.61,1.13c2.41,2.01,4.43,4.44,5.98,7.17c0.08,0.14,0.15,0.3,0.2,0.45v0.13c0.28,0.79-0.13,1.66-0.92,1.94
			c-0.16,0.06-0.33,0.09-0.5,0.09h-0.07h-0.95c-2.88,0-5.72,0.64-8.32,1.86C364.99,314.48,364.78,314.53,364.58,314.53z"/>
		<path class="st12" d="M367.16,303.15c0.62,0.07,1.2,0.35,1.65,0.79c2.27,1.9,4.18,4.19,5.63,6.76c0.05,0.11,0.09,0.22,0.12,0.33
			h-1.01c-3.1,0.01-6.16,0.7-8.96,2.02c0.13-1.21,0.2-2.3,0.35-3.37c0.22-1.57,0.41-3.14,0.77-4.68c0.28-1.21,0.77-1.81,1.46-1.81
			 M367.17,300.17L367.17,300.17c-0.81,0-3.52,0.3-4.41,4.16c-0.29,1.41-0.55,2.87-0.74,4.23l-0.09,0.67
			c-0.12,0.81-0.19,1.58-0.26,2.4c0,0.35-0.06,0.72-0.1,1.09c-0.17,1.67,1.05,3.15,2.71,3.32c0.11,0.01,0.21,0.02,0.32,0.02
			c0.44,0,0.87-0.09,1.26-0.27c2.41-1.13,5.04-1.71,7.69-1.72h0.89h0.15c1.68,0,3.03-1.37,3.02-3.04c0-0.34-0.06-0.68-0.17-1v-0.08
			c-0.08-0.26-0.19-0.51-0.32-0.75c-1.64-2.88-3.78-5.45-6.33-7.57c-1-0.92-2.29-1.44-3.64-1.49L367.17,300.17z"/>
		<path class="st13" d="M330.85,344c-0.12,0.01-0.24,0.01-0.36,0l-0.26-0.07c-0.59-0.15-1.03-0.64-1.12-1.24
			c-0.15-0.8-0.29-1.59-0.44-2.39c-0.36-1.89-0.73-3.85-1.01-5.8c-0.2-0.96,0.04-1.97,0.67-2.73c0.55-0.65,1.36-1.03,2.21-1.01
			c0.42,0.01,0.83,0.07,1.23,0.2c2.86,0.95,5.51,2.45,7.8,4.41c0.28,0.24,0.48,0.57,0.57,0.94c0.22,0.74-0.15,1.52-0.86,1.82
			c-2.78,1.22-5.25,3.03-7.24,5.32C331.73,343.79,331.3,344,330.85,344z"/>
		<path class="st12" d="M330.49,332.31c0.27,0.01,0.53,0.05,0.79,0.14c2.67,0.9,5.15,2.3,7.29,4.13c0,0,0,0.08,0.06,0.19
			c-2.99,1.3-5.65,3.25-7.79,5.71l-0.27-0.07c-0.5-2.71-1.01-5.42-1.46-8.09c-0.19-1.23,0.38-1.96,1.38-1.96 M330.49,329.33
			L330.49,329.33c-1.29-0.02-2.52,0.53-3.37,1.5c-0.9,1.1-1.27,2.54-1.01,3.94c0.3,2.02,0.68,3.95,1.01,5.86
			c0.15,0.79,0.3,1.59,0.44,2.38c0.21,1.18,1.1,2.12,2.26,2.41l0.27,0.06c0.23,0.06,0.48,0.09,0.72,0.09c0.87,0,1.7-0.36,2.27-1.01
			c1.85-2.14,4.15-3.85,6.73-5c1.37-0.6,2.1-2.11,1.72-3.56c-0.14-0.69-0.52-1.32-1.07-1.76c-2.43-2.09-5.25-3.68-8.3-4.68
			c-0.55-0.18-1.12-0.27-1.69-0.27V329.33z"/>
		<path class="st12" d="M340.89,415.08l-2.24,22.38l0,0c9.31-1.85,18.42-4.56,27.23-8.09l8.28-3.31l0,0
			c-9.42-0.97-18.59-3.64-27.06-7.88L340.89,415.08z"/>
		<path class="st12" d="M277.93,709.48l-4.85,31.07l0,0c17.95,0.13,35.88-1.03,53.66-3.45l16.33-2.22l0,0
			c-18.41-4.15-36.21-10.6-53-19.21L277.93,709.48z"/>
		<path class="st12" d="M443.35,517.15l-0.66,22.48l0,0c-8.99-3.04-17.68-6.9-25.96-11.53l-7.78-4.35l0,0
			c9.46,0.25,18.89-1.21,27.83-4.33L443.35,517.15z"/>
		<path class="st12" d="M314.76,538.24l-6.39,21.83l0,0c17.08,4.66,34.4,8.4,51.89,11.21l15.85,2.53l0,0
			c-17.46-7.77-34.19-17.08-50-27.82L314.76,538.24z"/>
		<path class="st12" d="M427.04,615.42l2.24,22.4l0,0c-9.3-1.86-18.42-4.57-27.23-8.09l-8.25-3.33l0,0
			c9.42-0.97,18.59-3.64,27.06-7.88L427.04,615.42z"/>
	</g>
</g>
</svg>
