<svg id="Layer_1" data-name="Layer 1" xmlns="http://www.w3.org/2000/svg" viewBox="0 0 497.29 500"><g id="LdK0jy.tif"><path d="M210.44,0c7.15,1.43,10.43,7.33,14.33,12.46,14.65,19.26,31,36.79,50.83,50.9a144.25,144.25,0,0,0,65.57,26,187.6,187.6,0,0,0,45.24.17,335.35,335.35,0,0,0,38.41-6.84C435.67,80.17,445.7,87,447,97.83c.63,5.28-1.59,9.71-5.27,13.38a123.06,123.06,0,0,1-30.52,22.08,143.52,143.52,0,0,1-52.15,15.23c-23.62,2.4-46.49-.89-68.84-8.8A157.47,157.47,0,0,1,238.8,110a147.38,147.38,0,0,1-36.75-47.83A131.47,131.47,0,0,1,190,18.87c-.82-7.79,4.76-16.78,12.52-18.43A7.13,7.13,0,0,0,203.61,0Z" style="fill:#ed1c24"/><path d="M0,288.08c2-7.79,8.38-11.66,14.15-16.13C31,258.9,46.5,244.45,59.37,227.38c15.37-20.4,25.47-43,28.62-68.54a202.39,202.39,0,0,0-.43-50.1,304,304,0,0,0-6.52-34c-1.84-7.56-.43-14.19,5.86-19.32a16.51,16.51,0,0,1,22.21,1.21c21.37,21.69,33,48,37,77.94a154.67,154.67,0,0,1-4.24,61.64,159.44,159.44,0,0,1-24.6,51.73,153.56,153.56,0,0,1-35.37,35.72c-19.29,13.82-40.56,22.6-64.34,24.85A16.08,16.08,0,0,1,.92,297.92L0,295.4Z" style="fill:#ed1c24"/><path d="M153.2,351.05q57.3,1,101.82,37.14a143.64,143.64,0,0,1,37.14,45.39,120.13,120.13,0,0,1,13.62,45.53c.28,3.17.77,6.28-.26,9.41-3.48,10.65-15,14.71-24.47,8.66a25.84,25.84,0,0,1-6.76-6.59,276.23,276.23,0,0,0-29.38-33.88c-15.66-15.18-33-27.93-53.37-36.22a148.45,148.45,0,0,0-45.73-10.36c-21.27-1.53-42.21.84-63,5.32-3.57.78-7.13,1.63-10.71,2.4-10.75,2.3-20.72-4.47-22.07-15.12-.64-5.1,1.35-9.45,4.84-13.05a118.43,118.43,0,0,1,28-21c17.79-9.84,37-15.09,57.11-17A82.66,82.66,0,0,1,153.2,351.05Z" style="fill:#ed1c24"/><path d="M349.58,341.9A160.76,160.76,0,0,1,372,263.2a151.48,151.48,0,0,1,54.81-55.08,123.64,123.64,0,0,1,52-17c6.7-.59,12.44,2,15.92,8s3.43,12.23-.27,18.28c-1.66,2.7-4.09,4.6-6.57,6.45a274.38,274.38,0,0,0-35.38,31c-16.88,17.79-30.44,37.69-38,61.25a141.49,141.49,0,0,0-6.26,32.76c-1.94,25.59,1.48,50.63,7.68,75.38,1.47,5.86,1.25,11.45-2.4,16.56a16.87,16.87,0,0,1-25.33,2.32A112.38,112.38,0,0,1,370,420.19a138.41,138.41,0,0,1-18.66-52A161.21,161.21,0,0,1,349.58,341.9Z" style="fill:#ed1c24"/></g></svg>