<svg id="Layer_1" data-name="Layer 1" xmlns="http://www.w3.org/2000/svg" viewBox="0 0 199.43 486.91"><path d="M5.29,451.5c.48,0,.64-.15.72-.61.8-4.57,33.69-153.54,34.55-158.11q1.47-7.9,3-15.81c2.43-12.23,5.09-24.41,8.23-36.48,1.89-7.25,3.68-14.53,5.76-21.72,2.43-8.38,9.56-68.14,12.12-76.48a165,165,0,0,0,5.64-22.08c.6-3.75,1-7.53,1.31-11.31a68,68,0,0,0-.05-7.69,52.1,52.1,0,0,0-1.8-11.7,76.11,76.11,0,0,0-4.87-12c-1.52-3.21-3-6.46-4.34-9.74a24.44,24.44,0,0,1-2-8.75,20,20,0,0,1,3.09-11.23,16,16,0,0,1,14.23-8,17,17,0,0,1,7.5,2,3.16,3.16,0,0,1,1.5,1.56,55.36,55.36,0,0,0,5.67,8.87,1.33,1.33,0,0,0,1.89.44,1.42,1.42,0,0,0,.46-2,89.1,89.1,0,0,1-5.24-11.88,15.51,15.51,0,0,1-.7-10.5,16.23,16.23,0,0,1,18.09-12A17.72,17.72,0,0,1,121.5,22a9.12,9.12,0,0,1,1.81,2.42,32.2,32.2,0,0,1,2.2,8.37c.4,2.85.74,5.7,1.12,8.55.1.75.5,1.12,1.09,1.1a1.2,1.2,0,0,0,1.17-1.2c0-1.78.05-3.57,0-5.36a41.09,41.09,0,0,0-1.4-9.41,1.6,1.6,0,0,1,0-.78c.25-1.12.54-2.23.82-3.35a3,3,0,0,1,1.38-1.78,17.93,17.93,0,0,1,13.48-2.78,20.16,20.16,0,0,1,11.66,6.73A16.77,16.77,0,0,1,159,33a4.6,4.6,0,0,0,.81,2.61c.09.09.08.29.09.44a29.47,29.47,0,0,1-.27,7.21c-.44,2.61-1,5.2-1.58,7.79a1.26,1.26,0,0,0,.6,1.53,1.29,1.29,0,0,0,1.65-.41,3.28,3.28,0,0,0,.27-.38,21.15,21.15,0,0,0,3.18-10.88c0-1.76-.07-3.52-.11-5.35.18,0,.43-.13.69-.19a30.1,30.1,0,0,1,12-.4c6.37,1.14,11.48,4.15,14.79,9.9,3.65,6.34,5.2,13,3.56,20.25-.77,3.38-1.7,6.73-2.55,10.09-.93,3.71-19.72,71-18.49,74.65,1.56,4.7,3,9.43,4.21,14.23,2.65,10.79-4.78,48.72-2.38,59.57,2.27,10.27-5.83,41.26-3.79,51.58,1.57,8-5.86,19.63-4.43,27.66.83,4.63-2.41,6.42-1.66,11.06,1,6.39-6.46,5.18-5.5,11.58.77,5.09,1.5,10.18,2.16,15.29.82,6.26,7.64,139.22,8.38,145.49" style="fill:#fbb03b"/><path d="M171.19,256.45c-2-10.32,6.62-22.5,4.35-32.77-2.4-10.85,5-48.78,2.38-59.57-1.17-4.8-2.65-9.53-4.21-14.23-1.23-3.69,17.56-70.94,18.49-74.65.85-3.36,1.78-6.71,2.55-10.09,1.64-7.23.09-13.91-3.56-20.25-3.31-5.75-8.42-8.76-14.79-9.9a30.1,30.1,0,0,0-12,.4c-.26.06-.51.14-.69.19,0,1.83.15,3.59.11,5.35a21.15,21.15,0,0,1-3.18,10.88,3.28,3.28,0,0,1-.27.38,1.29,1.29,0,0,1-1.65.41,1.26,1.26,0,0,1-.6-1.53c.54-2.59,1.14-5.18,1.58-7.79a29.47,29.47,0,0,0,.27-7.21c0-.15,0-.35-.09-.44A4.6,4.6,0,0,1,159,33a16.77,16.77,0,0,0-4.25-8.49,20.16,20.16,0,0,0-11.66-6.73,17.93,17.93,0,0,0-13.48,2.78,3,3,0,0,0-1.38,1.78c-.28,1.12-.57,2.23-.82,3.35a1.6,1.6,0,0,0,0,.78,41.09,41.09,0,0,1,1.4,9.41c.05,1.79,0,3.58,0,5.36a1.2,1.2,0,0,1-1.17,1.2c-.59,0-1-.35-1.09-1.1-.38-2.85-.72-5.7-1.12-8.55a32.2,32.2,0,0,0-2.2-8.37A9.12,9.12,0,0,0,121.5,22a17.72,17.72,0,0,0-11.39-5.64A16.23,16.23,0,0,0,92,28.35a15.51,15.51,0,0,0,.7,10.5A89.1,89.1,0,0,0,98,50.73a1.42,1.42,0,0,1-.46,2,1.33,1.33,0,0,1-1.89-.44,55.36,55.36,0,0,1-5.67-8.87,3.16,3.16,0,0,0-1.5-1.56,17,17,0,0,0-7.5-2,16,16,0,0,0-14.23,8,20,20,0,0,0-3.09,11.23,24.44,24.44,0,0,0,2,8.75c1.36,3.28,2.82,6.53,4.34,9.74a76.11,76.11,0,0,1,4.87,12,52.1,52.1,0,0,1,1.8,11.7,68,68,0,0,1,.05,7.69c-.28,3.78-.71,7.56-1.31,11.31-1.22,7.52-.39,15.55-2.63,22.82-2.56,8.34-12.7,67.36-15.13,75.74-2.08,7.19-3.87,14.47-5.76,21.72C48.68,252.56,46,264.74,43.59,277q-1.56,7.89-3,15.81C39.7,297.35,6.81,446.32,6,450.89c-.08.46-.24.61-.72.61-1.74,0-3.49,0-5.29,0,.57-2.87,1.13-5.68,1.71-8.49,2.38-11.6,37.11-167.54,40.08-179q4.7-18.17,9.6-36.26c3.29-12.09,10.79-65.45,14.13-77.52,1.9-6.86,3.94-23.92,4.87-31,.44-3.32.69-6.66.9-10A59.61,59.61,0,0,0,67.7,85.34c-1.3-3.65-2.88-7.22-4.32-10.83A49.69,49.69,0,0,1,60,62.44,26.32,26.32,0,0,1,63.2,45.38a1.8,1.8,0,0,0,.16-1.1c-.51-3-1.1-6-1.59-9.06a7.61,7.61,0,0,1,.06-2.38c.41-2.44,2.14-3.56,4.58-3a17.11,17.11,0,0,1,5.67,2.93c1.1.74,2.13,1.58,3.22,2.33a1.24,1.24,0,0,0,.89.18,20.76,20.76,0,0,1,10-.22c.13,0,.26,0,.56.07,0-1.12-.09-2.2,0-3.27a23.37,23.37,0,0,1,6.89-15.3,24.55,24.55,0,0,1,2.07-1.75,1.37,1.37,0,0,0,.55-1c.46-3.05.91-6.11,1.47-9.14a8.78,8.78,0,0,1,1-2.35A3.37,3.37,0,0,1,101,.84h1.19c2.89.93,4.48,3.33,6.19,5.57,1,1.34,1.9,2.77,2.89,4.12a1.67,1.67,0,0,0,.92.63,22.06,22.06,0,0,1,11.73,6.28c.36.36.68.75,1.07,1.18l1.49-1.06a28,28,0,0,1,9.74-4.36,1.45,1.45,0,0,0,.75-.55c1.87-2.51,3.67-5.09,5.61-7.55a10.67,10.67,0,0,1,2.57-2.25,3.27,3.27,0,0,1,4.52.91,11.15,11.15,0,0,1,1.84,5.13c.34,2.13.54,4.29.84,6.43a1.27,1.27,0,0,0,.47.78,22.91,22.91,0,0,1,7.32,7.72,27,27,0,0,1,2.52,6.88c.06.24.12.47.18.73,1.35-.29,2.65-.61,4-.85a33.65,33.65,0,0,1,8.91-.34,1.2,1.2,0,0,0,.81-.39c2.14-2.16,4.21-4.41,6.41-6.51a10.15,10.15,0,0,1,3-1.87A3.17,3.17,0,0,1,190,22.92a7.71,7.71,0,0,1,1.07,3.92c.05,3.29,0,6.58,0,9.86a1,1,0,0,0,.23.63,30,30,0,0,1,8,18.34A46.54,46.54,0,0,1,198,70.06c-.56,2.56-1.05,5.15-1.45,7.74-.36,2.42-13.74,71.13-13.15,73.53,3.68,15.22-3.78,45.52-.56,60.85,1.58,7.52-.55,3.88-1.1,17.16-1.66,18.81-5.54,40.94-10,55.32-.56,11.07-7.35,38.56-5.82,48.67,1.29,8.57,8.4,143.88,9.55,152.47,0,.24.09.48.14.71v.4c-1.42,0-2.83,0-4.25,0-.42,0-.61-.08-.67-.56-.74-6.27-7.56-139.23-8.38-145.49-.66-5.11-1.39-10.2-2.16-15.29-1-6.4,6.53-34,5.5-40.35" style="fill:#f7931e"/><path d="M179.28,30.84a26.1,26.1,0,0,1,9.82,4.52,25.71,25.71,0,0,0-.48-10.22c-.55-1.9-1.51-2.21-3-.92a35,35,0,0,0-2.88,2.83C181.57,28.26,180.47,29.52,179.28,30.84Z" style="fill:#f7931e"/><path d="M150.27,14.69a2.28,2.28,0,0,0,0-.51c-.28-1.85-.49-3.71-.9-5.53a14.25,14.25,0,0,0-1.28-3.32c-.51-1-1.26-1.06-2.13-.36A6.25,6.25,0,0,0,144.9,6.1c-1.49,2.05-3,4.13-4.42,6.2a2,2,0,0,0-.18.42A21.84,21.84,0,0,1,150.27,14.69Z" style="fill:#f7931e"/><path d="M109,10.8a2.07,2.07,0,0,0-.12-.33,24.4,24.4,0,0,0-5.57-6.69c-1.59-1.3-2.6-1-3.07,1-.35,1.52-.54,3.08-.76,4.63-.15,1.06-.22,2.13-.35,3.33A20.93,20.93,0,0,1,109,10.8Z" style="fill:#f7931e"/><path d="M65.46,41.83l.27.07a21.67,21.67,0,0,1,7.7-5.65c0-.11,0-.16-.06-.19A21.77,21.77,0,0,0,66.16,32c-1.45-.46-2.37.29-2.14,1.8C64.43,36.47,65,39.15,65.46,41.83Z" style="fill:#f7931e"/><path d="M189.1,36.86a1.53,1.53,0,0,1-.91-.3,24.5,24.5,0,0,0-9.26-4.26,1.5,1.5,0,0,1-.76-2.46l1.07-1.2c.81-.9,1.59-1.77,2.39-2.62a39.61,39.61,0,0,1,3-2.94,4,4,0,0,1,2.55-1.14c1,0,2.22.48,2.89,2.78a27.43,27.43,0,0,1,.53,10.8,1.49,1.49,0,0,1-1.49,1.34Z" style="fill:#c69c6d"/><path d="M187.17,23.44c.65,0,1.12.57,1.45,1.7a25.71,25.71,0,0,1,.48,10.22,26.1,26.1,0,0,0-9.82-4.52c1.19-1.32,2.29-2.58,3.44-3.79a35,35,0,0,1,2.88-2.83,2.63,2.63,0,0,1,1.57-.78m0-3h0a5.38,5.38,0,0,0-3.52,1.5,39.13,39.13,0,0,0-3.11,3c-.83.87-1.6,1.74-2.42,2.66l-1.06,1.18a3,3,0,0,0,1.52,4.93,23.25,23.25,0,0,1,8.71,4,3,3,0,0,0,1.81.61,2.92,2.92,0,0,0,1.19-.25,3,3,0,0,0,1.79-2.42,28.82,28.82,0,0,0-.58-11.39c-1-3.48-3.37-3.86-4.33-3.86Z" style="fill:#754c24"/><path d="M150.27,16.19a1.51,1.51,0,0,1-.62-.14A20.24,20.24,0,0,0,141,14.21h-.74a1.5,1.5,0,0,1-1.38-2.08l0-.12a3.13,3.13,0,0,1,.29-.59l.76-1.06c1.22-1.72,2.43-3.44,3.67-5.15a7.6,7.6,0,0,1,1.38-1.41,3.14,3.14,0,0,1,2-.8,2.66,2.66,0,0,1,2.41,1.64,15.41,15.41,0,0,1,1.41,3.67c.31,1.37.51,2.75.7,4.1.07.51.15,1,.23,1.53a2.74,2.74,0,0,1,0,.73l0,.16A1.51,1.51,0,0,1,151,16,1.53,1.53,0,0,1,150.27,16.19Z" style="fill:#c69c6d"/><path d="M147.06,4.51a1.25,1.25,0,0,1,1.08.82,14.25,14.25,0,0,1,1.28,3.32c.41,1.82.62,3.68.9,5.53a2.28,2.28,0,0,1,0,.51,21.63,21.63,0,0,0-9.23-2h-.74a2,2,0,0,1,.18-.42c1.47-2.07,2.93-4.15,4.42-6.2A6.25,6.25,0,0,1,146,5a1.69,1.69,0,0,1,1.05-.46m0-3h0a4.64,4.64,0,0,0-2.94,1.13,9.06,9.06,0,0,0-1.65,1.7C141.23,6,140,7.79,138.81,9.47L138,10.56a4.59,4.59,0,0,0-.48.94l0,.06a3,3,0,0,0,2.77,4.16H141a18.84,18.84,0,0,1,8,1.7,2.92,2.92,0,0,0,1.25.28,3,3,0,0,0,3-2.69v-.09a3.65,3.65,0,0,0,0-1.19c-.08-.5-.15-1-.23-1.52-.19-1.37-.4-2.78-.72-4.21a16.51,16.51,0,0,0-1.54-4,4.17,4.17,0,0,0-3.74-2.45Z" style="fill:#754c24"/><path d="M99.09,14.25a1.48,1.48,0,0,1-.87-.28,1.49,1.49,0,0,1-.62-1.37c0-.37.07-.74.11-1.09.07-.8.14-1.55.24-2.3l.1-.66c.18-1.34.37-2.73.69-4.1.6-2.57,2.07-2.95,2.9-2.95a4.17,4.17,0,0,1,2.58,1.12,25.65,25.65,0,0,1,5.91,7.09,2.24,2.24,0,0,1,.2.45l0,.13a1.5,1.5,0,0,1-1.41,2h-.07l-.94,0a19.37,19.37,0,0,0-8.23,1.84A1.51,1.51,0,0,1,99.09,14.25Z" style="fill:#c69c6d"/><path d="M101.64,3a2.81,2.81,0,0,1,1.63.78,24.4,24.4,0,0,1,5.57,6.69,2.07,2.07,0,0,1,.12.33l-1,0a21,21,0,0,0-8.86,2c.13-1.2.2-2.27.35-3.33.22-1.55.41-3.11.76-4.63.28-1.2.76-1.79,1.44-1.79m0-3h0c-.8,0-3.48.3-4.36,4.11C97,5.55,96.75,7,96.56,8.34L96.47,9c-.12.8-.19,1.56-.26,2.37,0,.35-.06.71-.1,1.08a3,3,0,0,0,3,3.3,3,3,0,0,0,1.25-.27,18.08,18.08,0,0,1,7.61-1.7l.88,0H109a3,3,0,0,0,2.82-4l0-.08a4,4,0,0,0-.32-.74,27.44,27.44,0,0,0-6.26-7.49A5.58,5.58,0,0,0,101.64,0Z" style="fill:#754c24"/><path d="M65.73,43.4a1.47,1.47,0,0,1-.36,0l-.26-.07A1.49,1.49,0,0,1,64,42.1c-.15-.79-.29-1.57-.44-2.36-.36-1.87-.72-3.81-1-5.74a3.21,3.21,0,0,1,.66-2.7,2.79,2.79,0,0,1,2.19-1,4.15,4.15,0,0,1,1.22.2,23,23,0,0,1,7.71,4.36,1.73,1.73,0,0,1,.56.93,1.5,1.5,0,0,1-.85,1.8,20.28,20.28,0,0,0-7.16,5.26A1.5,1.5,0,0,1,65.73,43.4Z" style="fill:#c69c6d"/><path d="M65.38,31.84a2.63,2.63,0,0,1,.78.14,21.77,21.77,0,0,1,7.21,4.08s0,.08.06.19a21.67,21.67,0,0,0-7.7,5.65l-.27-.07c-.49-2.68-1-5.36-1.44-8-.19-1.22.38-1.94,1.36-1.94m0-3h0a4.32,4.32,0,0,0-3.33,1.48,4.77,4.77,0,0,0-1,3.9c.3,2,.67,3.91,1,5.8.15.78.3,1.57.44,2.35a3,3,0,0,0,2.24,2.38l.27.06a2.82,2.82,0,0,0,.71.09,3,3,0,0,0,2.25-1A19,19,0,0,1,74.62,39a3,3,0,0,0,1.7-3.52,3,3,0,0,0-1.06-1.74,24.29,24.29,0,0,0-8.21-4.63,5.55,5.55,0,0,0-1.67-.27Z" style="fill:#754c24"/><path d="M75.66,113.7l-2.22,22.13h0a152.91,152.91,0,0,0,26.93-8l8.19-3.27h0a77.6,77.6,0,0,1-26.76-7.79Z" style="fill:#f7931e"/><path d="M13.39,404.88l-4.8,30.73h0a373.84,373.84,0,0,0,53.07-3.41L77.81,430h0A221.5,221.5,0,0,1,25.39,411Z" style="fill:#f7931e"/><path d="M177,214.65l-.65,22.23h0a154.22,154.22,0,0,1-25.68-11.4l-7.69-4.3h0a77.4,77.4,0,0,0,27.53-4.28Z" style="fill:#f7931e"/><path d="M49.82,235.51,43.5,257.1h0a490.94,490.94,0,0,0,51.32,11.09l15.68,2.5h0a317.33,317.33,0,0,1-49.45-27.52Z" style="fill:#f7931e"/><path d="M160.87,311.85,163.09,334h0a154,154,0,0,1-26.93-8L128,322.71h0a77.54,77.54,0,0,0,26.76-7.79Z" style="fill:#f7931e"/></svg>