<svg id="Layer_1" data-name="Layer 1" xmlns="http://www.w3.org/2000/svg" viewBox="0 0 500 339.84"><path d="M342.79,339.55a271.09,271.09,0,0,1-47.33-1.78c-13.64-1.86-27.1-4.86-38.88-12.67-1-.69-1.95-.41-2.94-.28-26.82,3.47-53.71,5-80.69,2.15a160,160,0,0,1-21.48-3.79c-11.86-2.94-23.35-6.51-34.17-12.22a49.77,49.77,0,0,1-16.54-14.46,5.11,5.11,0,0,0-3.38-2.14A126.36,126.36,0,0,1,47.71,273c-22.3-16-35.67-38-43-64-1.09-3.89-3.17-7.66-3.5-11.59-.82-10-1.35-20-1.21-30,.4-28.38,6.07-55.57,19.77-80.7,4.15-7.63,8.76-15.06,15-21.26C42,58.2,50,57.68,58.21,63.87,68,71.23,74,81.52,79.8,91.9c1.37,2.44,2.55,3.21,5.36,2.51a120.88,120.88,0,0,1,21.91-3.28A3.78,3.78,0,0,0,110,89.34a288.07,288.07,0,0,1,36.59-38.62A194,194,0,0,1,226,9.29a295.08,295.08,0,0,1,40-7.82,222.07,222.07,0,0,1,57.13.79c22.41,3.23,44.17,8.89,64.81,18.43,31,14.36,57.39,34.55,77.22,62.64a177.57,177.57,0,0,1,32.06,83,230.63,230.63,0,0,1,1.09,36.06c-.58,13.91-2.65,27.56-4.86,41.23a6.22,6.22,0,0,0,.47,3.76c13.56,30.09,4.3,57-25,72.85a135.31,135.31,0,0,1-36.57,13.07c-20.52,4.33-41.39,5.5-62.28,6.16C361,339.79,351.87,339.55,342.79,339.55Zm100.09-82.76c-6.6,2.41-12.85,5.55-19.82,7.19a213.1,213.1,0,0,1-44,5.29c-24.43.59-48.9-.85-73.32,1.09-14,1.13-28.07,2.59-40.41,10.26s-20.24,23.61-5.91,35.17a41.23,41.23,0,0,0,7.05,4.56c12.1,6.22,25.45,7.36,38.61,8.95,21.55,2.61,43.19,2.23,64.82,1.12,23.29-1.19,46.48-3.11,69.23-8.79,13.84-3.45,26.85-8.81,37.61-18.11,15.53-13.43,19-32.88,10.25-52.47a15.53,15.53,0,0,1-1-9.55,239.75,239.75,0,0,0,4.14-35.95c1.05-32.29-3.73-63.46-18.24-92.65-5-10.13-11.71-19.21-18.66-28.19a206,206,0,0,0-17.2-20.08A160.79,160.79,0,0,0,393.58,34c-11.19-5.53-22.46-10.85-34.19-14.92-19.95-6.92-40.73-9.81-61.8-10.48-41-1.3-79.73,7.41-115.82,27.09C157.44,49,137,66.93,119.62,88.4a11.4,11.4,0,0,0-.93,1.64,8.06,8.06,0,0,0,1.77.4,227.52,227.52,0,0,1,43.78,4.61,3.13,3.13,0,0,0,3.84-1.61c6-9.28,12.42-18.21,20.32-26,12.51-12.33,21.67-11.86,32.94,1.52,10.2,12.1,15.71,26.66,21.19,41.11,2.77,7.3,4,15.22,5.54,22.93,5,25.1,6.83,50.33.83,75.5-7,29.34-22.48,52.8-49.06,68.16a14.9,14.9,0,0,1-6,2.17,3,3,0,0,1-3-1.09c-.76-1.18.1-2.17.79-3,2.84-3.55,6.59-6.1,10.11-8.87q37.67-29.61,41.15-77.35a198,198,0,0,0-13.75-88.59c-4-10-8.91-19.63-15.88-28-5.57-6.66-10.91-6.75-16.73-1C188,79.31,179.75,87.77,174,98.34c-2.36,4.32-6,5.1-10.72,4.29-17.58-3-35.29-4.64-53.14-3.2-9.13.74-18.22,2.07-27.34,3-4.53.47-7.62-1.23-9.83-5.65C68.71,88.32,63.47,80.46,56.35,74c-9.11-8.23-12.59-7.8-20,2C22.59,94.3,16,115.49,11.76,137.53a167.57,167.57,0,0,0-2.28,50.62c3.21,29,15.21,53.64,37.59,72.67,13.47,11.46,29.28,18.64,46.37,23s34.68,4.34,52.21,3.85c2.3-.07,4.58,0,4.93,2.89s-1.91,3.42-4.12,3.9c-11.3,2.45-22.73,2.79-35.66,2,1.49,1,2,1.24,2.38,1.59,12,10.42,26.55,15.09,41.84,17.78,30.32,5.33,60.8,4.4,91.32,2.22,2.1-.15,1.75-.69.82-2.09-4.79-7.22-6.07-15-3.21-23.29,4.86-14.06,15.91-21.28,29.16-25.78,17-5.79,34.79-6,52.48-6.58,22.47-.7,45,1,67.43-.77,14.37-1.12,28.58-3.21,42.15-8.62,2.82-1.13,5-4.71,8.83-3C447.8,251.47,445.17,254.11,442.88,256.79Z" style="fill:#f7931e"/><path d="M444,248c-3.82-1.75-6,1.83-8.83,3-13.57,5.41-27.78,7.5-42.15,8.62-22.45,1.75-45,.07-67.43.77-17.69.54-35.47.79-52.48,6.58-13.25,4.5-24.3,11.72-29.16,25.78-2.86,8.28-1.58,16.07,3.21,23.29.93,1.4,1.28,1.94-.82,2.09-30.52,2.18-61,3.11-91.32-2.22-15.29-2.69-29.8-7.36-41.84-17.78-.4-.35-.89-.6-2.38-1.59,12.93.77,24.36.43,35.66-2,2.21-.48,4.48-1,4.12-3.9s-2.63-3-4.93-2.89c-17.53.49-35,.57-52.21-3.85s-32.9-11.58-46.37-23c-22.38-19-34.38-43.63-37.59-72.67a167.57,167.57,0,0,1,2.28-50.62C16,115.49,22.59,94.3,36.38,76c7.38-9.79,10.86-10.22,20-2C63.47,80.46,68.71,88.32,73,96.78c2.21,4.42,5.3,6.12,9.83,5.65,9.12-.93,18.21-2.26,27.34-3,17.85-1.44,35.56.2,53.14,3.2,4.75.81,8.36,0,10.72-4.29,5.76-10.57,14-19,22.49-27.39,5.82-5.76,11.16-5.67,16.73,1,7,8.34,11.88,18,15.88,28a198,198,0,0,1,13.75,88.59q-3.39,47.75-41.15,77.35c-3.52,2.77-7.27,5.32-10.11,8.87-.69.85-1.55,1.84-.79,3a3,3,0,0,0,3,1.09,14.9,14.9,0,0,0,6-2.17c26.58-15.36,42.06-38.82,49.06-68.16,6-25.17,4.16-50.4-.83-75.5-1.54-7.71-2.77-15.63-5.54-22.93-5.48-14.45-11-29-21.19-41.11-11.27-13.38-20.43-13.85-32.94-1.52-7.9,7.79-14.34,16.72-20.32,26a3.13,3.13,0,0,1-3.84,1.61,227.52,227.52,0,0,0-43.78-4.61,8.06,8.06,0,0,1-1.77-.4,11.4,11.4,0,0,1,.93-1.64C137,66.93,157.44,49,181.77,35.69,217.86,16,256.59,7.3,297.59,8.6c21.07.67,41.85,3.56,61.8,10.48,11.73,4.07,23,9.39,34.19,14.92a160.79,160.79,0,0,1,42.49,30.63,206,206,0,0,1,17.2,20.08c7,9,13.62,18.06,18.66,28.19,14.51,29.19,19.29,60.36,18.24,92.65A239.75,239.75,0,0,1,486,241.5a15.53,15.53,0,0,0,1,9.55c8.72,19.59,5.28,39-10.25,52.47-10.76,9.3-23.77,14.66-37.61,18.11-22.75,5.68-45.94,7.6-69.23,8.79-21.63,1.11-43.27,1.49-64.82-1.12-13.16-1.59-26.51-2.73-38.61-8.95a41.23,41.23,0,0,1-7.05-4.56c-14.33-11.56-6.29-27.58,5.91-35.17s26.36-9.13,40.41-10.26c24.42-1.94,48.89-.5,73.32-1.09a213.1,213.1,0,0,0,44-5.29c7-1.64,13.22-4.78,19.82-7.19a11.64,11.64,0,0,0,3.05,1.16,26.09,26.09,0,0,1,13.22,4.84c12.51,8.84,18.43,20.94,17,36.41-.07.77-.47,1.89.44,2.29s1.47-.64,1.92-1.26c2.06-2.75,4.78-4.86,6.42-8.09,2.69-5.29,4.83-10.69,5.21-16.6.61-9.56-2.27-18.47-5.61-27.27-.74-2-2.18-2.85-3.9-3.69-6.36-3.1-13.19-2.79-19.83-2.12A40.7,40.7,0,0,0,444,248ZM206.32,25.53a83.44,83.44,0,0,1,20.79,2.35c22.8,6,37,20.9,44.85,42.47,3.3,9.1,5.78,18.48,8.9,27.64,3.78,11.12,13.18,15.44,21.86,9.9,6.14-3.92,7.24-10.71,7.4-17.25.33-13.62-3.1-26.63-8.45-39-5.23-12.08-12.56-22.88-23.27-30.95-8.83-6.66-18.21-10.49-29.69-7-7.33,2.2-15,3.15-22.4,5.45C219.68,21.15,213.1,23.58,206.32,25.53ZM309.88,10.34l-.16.64c2.14,1.44,4.37,2.77,6.41,4.34A42.65,42.65,0,0,1,322,20.51c15.54,17.58,23.41,38.17,24.33,61.59a115.85,115.85,0,0,0,2.34,18c1.67,8.42,9.21,12.57,17.24,9.77,6.78-2.36,8.54-8.58,10.05-14.47,2.77-10.82,2.17-21.85.63-32.8-1.78-12.71-4.52-25.13-11.76-36.06-1.81-2.73-3.59-6-6.88-6.71-8.95-2.08-17.67-5.13-26.83-6.31C324,12.58,317,11.4,309.88,10.34Zm-4.75,296.93a67.31,67.31,0,0,0-.5-12.07c-1-7.14-2.28-14.16-6-20.5-.57-1-1.07-2.08-2.44-2a65.39,65.39,0,0,0-29.84,9c-5.45,3.29-10.27,8-12.5,14.64-2.18,6.52,2.19,16.42,8.41,19.39,3.09,1.48,6,3.27,9.19,4.68,2.44,1.08,5,2.83,7.55,3.24,7.05,1.13,13.93,3.35,21.23,3.26,2.17,0,2.83-.44,3.18-2.22C304.55,318.84,305.69,313,305.13,307.27Zm42.62-36.9H336.24c-1.82,0-2.15.54-1.11,2.16a48.32,48.32,0,0,1,5.52,11.69,82.94,82.94,0,0,1,2,43.86c-.28,1.22,0,1.69,1.33,1.67,7.62-.16,15.26-.59,22.86-.21,4.35.22,5.7-1.85,6.39-5.32a75.21,75.21,0,0,0-3.88-43.29c-3.29-8.29-6.59-10.54-15.39-10.55Zm93,38c-.27-13-2.19-24.39-8.11-34.66-2.26-3.91-4.09-9.64-10.24-8.19-6.63,1.57-13.37,2.3-20,3.58-2,.38-2.31.78-1.39,2.56a74.59,74.59,0,0,1,7.41,24.16c1.36,9.48,2,18.91-.57,28.27-.66,2.39.81,2.15,2.06,1.94,7.41-1.27,14.91-2.22,22.15-4.16,2.77-.74,7.58.34,8-4.78C440.31,313.7,441.1,310.39,440.79,308.33ZM440.2,85.48c.35-2.34-.14-5.82-.79-9.17-.72-3.72-.28-8.29-3.86-10.71-4.49-3-7.85-7.23-12-10.56-1.43-1.15-2.94-2.2-4.44-3.25q-8.62-6-17.29-11.93c-.46-.31-1.43-.5-1.76-.24-.81.64,0,1.28.34,1.92a55.5,55.5,0,0,1,3.37,6.72,116,116,0,0,1,6.59,42,36.69,36.69,0,0,0,3.37,15.76c3.81,8.5,14.85,9.52,20.48,2C439,101.67,440.09,94.31,440.2,85.48ZM220.83,107.9a6.26,6.26,0,0,0-.22-1,109,109,0,0,0-13.74-25.39c-1.41-2-3.91-1.84-5.87.19A141.24,141.24,0,0,0,185.29,101c-1.72,2.56-1,5.32,2.08,5.94,9.56,1.94,19.32,2.7,28.78,5.35C218.78,113,220.71,111.07,220.83,107.9Zm-57.38,92.23c5.7-.06,11.41-.08,16.74-2.6,2.76-1.3,4.57-3.31,4.52-6.48-.06-3.34-2.06-5.44-5.07-6.32a55.68,55.68,0,0,0-31.44,0c-3,.85-5.52,2.88-5.47,6.63s2.6,5.4,5.56,6.59C153.15,199.86,158.27,200.2,163.45,200.13ZM59.69,182.59c-3.94-.45-8.71.73-13.51,1.39-3.67.51-5.58,3.23-6.07,6.67a5.25,5.25,0,0,0,2.84,5.8c10.32,5.13,21,4.64,31.74,1.72,3.29-.9,5.75-3.19,5.61-7.15s-2.72-5.68-6-6.8C69.84,182.73,65.26,182.63,59.69,182.59ZM48.45,82.79a5,5,0,0,0-4.13,1.87,135.85,135.85,0,0,0-13.15,22,3.6,3.6,0,0,0,.43,4,4.47,4.47,0,0,0,4.27,1.48c7.73-1.68,15.39-3.67,23.4-3.76,4.24,0,5.66-3.1,3.52-6.76s-4-7.17-6.35-10.47C54.18,88,52.48,84.11,48.45,82.79Zm61.28,122.32a30.11,30.11,0,0,0-11.63,1.63c-3.17,1.22-5.33,3.23-3.82,7.1,1.91,4.87,9.38,9.83,15.35,9.7,6.56-.14,12-2.75,15.21-8.76,2-3.73.87-6.46-3-8.07C118.2,205.22,114.36,205.12,109.73,205.11Z" style="fill:#fbb03b"/><path d="M163.45,200.13c-5.18.07-10.3-.27-15.16-2.22-3-1.19-5.52-2.87-5.56-6.59s2.48-5.78,5.47-6.63a55.68,55.68,0,0,1,31.44,0c3,.88,5,3,5.07,6.32,0,3.17-1.76,5.18-4.52,6.48C174.86,200.05,169.15,200.07,163.45,200.13Z" style="fill:#754c24"/><path d="M59.69,182.59c5.57,0,10.15.14,14.57,1.63,3.32,1.12,5.91,2.86,6,6.8s-2.32,6.25-5.61,7.15C64,201.09,53.27,201.58,43,196.45a5.25,5.25,0,0,1-2.84-5.8c.49-3.44,2.4-6.16,6.07-6.67C51,183.32,55.75,182.14,59.69,182.59Z" style="fill:#754c24"/><path d="M444,248a40.7,40.7,0,0,1,16.78-5.56c6.64-.67,13.47-1,19.83,2.12,1.72.84,3.16,1.74,3.9,3.69,3.34,8.8,6.22,17.71,5.61,27.27-.38,5.91-2.52,11.31-5.21,16.6-1.64,3.23-4.36,5.34-6.42,8.09-.45.62-1,1.69-1.92,1.26s-.51-1.52-.44-2.29c1.45-15.47-4.47-27.57-17-36.41A26.09,26.09,0,0,0,445.93,258a11.64,11.64,0,0,1-3.05-1.16C445.17,254.11,447.8,251.47,444,248Z" style="fill:#f7931e"/><path d="M206.32,25.53c6.78-2,13.36-4.38,20-6.44,7.43-2.3,15.07-3.25,22.4-5.45,11.48-3.44,20.86.39,29.69,7.05,10.71,8.07,18,18.87,23.27,31C307,64,310.45,77,310.12,90.64c-.16,6.54-1.26,13.33-7.4,17.25-8.68,5.54-18.08,1.22-21.86-9.9-3.12-9.16-5.6-18.54-8.9-27.64-7.82-21.57-22-36.48-44.85-42.47A83.44,83.44,0,0,0,206.32,25.53Z" style="fill:#f7931e"/><path d="M309.88,10.34C317,11.4,324,12.58,331.11,13.49c9.16,1.18,17.88,4.23,26.83,6.31,3.29.76,5.07,4,6.88,6.71,7.24,10.93,10,23.35,11.76,36.06,1.54,10.95,2.14,22-.63,32.8-1.51,5.89-3.27,12.11-10.05,14.47-8,2.8-15.57-1.35-17.24-9.77a115.85,115.85,0,0,1-2.34-18c-.92-23.42-8.79-44-24.33-61.59a42.65,42.65,0,0,0-5.86-5.19c-2-1.57-4.27-2.9-6.41-4.34Z" style="fill:#f7931e"/><path d="M305.13,307.27c.56,5.7-.58,11.57-1.71,17.44-.35,1.78-1,2.19-3.18,2.22-7.3.09-14.18-2.13-21.23-3.26-2.6-.41-5.11-2.16-7.55-3.24-3.18-1.41-6.1-3.2-9.19-4.68-6.22-3-10.59-12.87-8.41-19.39,2.23-6.67,7.05-11.35,12.5-14.64a65.39,65.39,0,0,1,29.84-9c1.37-.09,1.87,1,2.44,2,3.71,6.34,5,13.36,6,20.5A67.31,67.31,0,0,1,305.13,307.27Z" style="fill:#f7931e"/><path d="M347.75,270.38h6.18c8.8,0,12.1,2.26,15.39,10.55a75.21,75.21,0,0,1,3.88,43.29c-.69,3.47-2,5.54-6.39,5.32-7.6-.38-15.24,0-22.86.21-1.36,0-1.61-.45-1.33-1.67a82.94,82.94,0,0,0-2-43.86,48.32,48.32,0,0,0-5.52-11.69c-1-1.62-.71-2.17,1.11-2.16Z" style="fill:#f7931e"/><path d="M440.79,308.33c.31,2.06-.48,5.37-.74,8.72-.4,5.12-5.21,4-8,4.78-7.24,1.94-14.74,2.89-22.15,4.16-1.25.21-2.72.45-2.06-1.94,2.6-9.36,1.93-18.79.57-28.27A74.59,74.59,0,0,0,401,271.62c-.92-1.78-.6-2.18,1.39-2.56,6.66-1.28,13.4-2,20-3.58,6.15-1.45,8,4.28,10.24,8.19C438.6,283.94,440.52,295.29,440.79,308.33Z" style="fill:#f7931e"/><path d="M440.2,85.48c-.11,8.83-1.2,16.19-6,22.59-5.63,7.51-16.67,6.49-20.48-2a36.69,36.69,0,0,1-3.37-15.76,116,116,0,0,0-6.59-42,55.5,55.5,0,0,0-3.37-6.72c-.34-.64-1.15-1.28-.34-1.92.33-.26,1.3-.07,1.76.24q8.69,5.91,17.29,11.93c1.5,1.05,3,2.1,4.44,3.25,4.16,3.33,7.52,7.52,12,10.56,3.58,2.42,3.14,7,3.86,10.71C440.06,79.66,440.55,83.14,440.2,85.48Z" style="fill:#f7931e"/><path d="M220.83,107.9c-.12,3.17-2.05,5.09-4.68,4.35-9.46-2.65-19.22-3.41-28.78-5.35-3-.62-3.8-3.38-2.08-5.94A141.24,141.24,0,0,1,201,81.74c2-2,4.46-2.14,5.87-.19a109,109,0,0,1,13.74,25.39A6.26,6.26,0,0,1,220.83,107.9Z" style="fill:#f7931e"/><path d="M48.45,82.79c4,1.32,5.73,5.19,8,8.34,2.38,3.3,4.3,6.94,6.35,10.47s.72,6.72-3.52,6.76c-8,.09-15.67,2.08-23.4,3.76a4.47,4.47,0,0,1-4.27-1.48,3.6,3.6,0,0,1-.43-4,135.85,135.85,0,0,1,13.15-22A5,5,0,0,1,48.45,82.79Z" style="fill:#f7931e"/><path d="M109.73,205.11c4.63,0,8.47.11,12.09,1.6,3.89,1.61,5,4.34,3,8.07-3.21,6-8.65,8.62-15.21,8.76-6,.13-13.44-4.83-15.35-9.7-1.51-3.87.65-5.88,3.82-7.1A30.11,30.11,0,0,1,109.73,205.11Z" style="fill:#754c24"/></svg>