<svg id="Layer_1" data-name="Layer 1" xmlns="http://www.w3.org/2000/svg" viewBox="0 0 491.15 500"><path d="M142.12,21.07C243-25,380.87,3.64,451.21,115.17,523,229,495.76,372.53,387.51,452,283.82,528.18,146.79,507.39,73.19,433.7c146.14,21.19,244.25-31.65,270.84-184,10.21-58.51-11.23-112.46-51-157.51C253.84,47.64,203.63,25,142.12,21.07Z" style="fill:#faffbf"/><path d="M1.54,116.94C17.82,120,30.11,129.12,43.12,136.2c8,4.38,14.35,5.53,22.71.31A197.8,197.8,0,0,1,107,117.33c-6.94,13.16-13.53,26.51-21,39.39-4.39,7.62-5,14.08-.06,21.83,6,9.57,10.73,20,16.15,29.93,1.59,2.91,2.72,6.25.46,8.57-3.19,3.3-5.1-1-7.51-2.39-38.8-22.11-38.8-22.1-78.07-1.2-4.46,2.37-8.95,4.66-17,8.83,8.74-16.13,15.21-29.2,22.76-41.63,5.36-8.84,5.79-16.47.21-25.41C15.52,143.28,9.14,130.65,1.54,116.94Z" style="fill:#faffbf"/><path d="M166.17,351.33c-24.21-26.1-47.67-21.09-71.32-2.27-.41-1.34-.83-2.67-1.24-4,4.27-8.37,8-17.08,13-25,4.26-6.79,4.58-12.28.19-19.22-5.25-8.3-9.17-17.45-13.05-28.52,24,17.7,47.43,24.07,71.14-2,1.63,13.2-4.64,20.59-9,27.7-5.66,9.22-4.64,16.35.29,25.08C160.24,330.35,165.74,337.45,166.17,351.33Z" style="fill:#faffbf"/><path d="M204.72,188.49c14.07,11.18,27.82,12.51,42.91-.09-8.45,15.29-11.23,29.52.36,44.91-16-13.47-30.46-8.87-46.73,2.89C214.33,211.76,214.33,211.76,204.72,188.49Z" style="fill:#faffbf"/></svg>