<svg id="Layer_1" data-name="Layer 1" xmlns="http://www.w3.org/2000/svg" viewBox="0 0 500 499.99"><path d="M0,269.55v-40c1.88-4,1.54-8.47,2.14-12.73C9,167.67,28.24,124,61,86.69,108.16,32.86,167.85,4,239.3.32c42.35-2.16,82.75,6.58,120.89,25.29-1.35.88-2.72,1.74-4.06,2.65C339,40,331,56,334.07,76.75c1.76,11.83,7.6,22.06,14.46,31.65,15.32,21.42,34.91,38.44,56,53.91,9.37,6.87,14.7,6.82,24.26,0,14.22-10.11,27.12-21.76,39.6-33.9,27.89,50.67,37.4,104.69,28.29,161.69-8.38,52.47-31.63,97.77-69,135.55s-82.37,61.26-134.73,70.65c-8.1,1.45-16.39,1.51-24.37,3.67H229.46c-2.86-1.83-6.21-1.42-9.33-1.8a246.26,246.26,0,0,1-91.66-29.8c1.65-1.79,3.26-3.62,4.95-5.36,11.41-11.72,21.7-24.26,28.3-39.42,4.52-10.39,6.44-21.11,3.59-32.34-8.11-31.88-45.11-47.82-74.41-31.42-6,3.34-9.57,3.14-15.31-.06-16.42-9.17-33.37-8.05-50.1-.15-10.65-20.81-17.35-42.9-21.68-65.81C2.29,285.77,2.25,277.49,0,269.55ZM246.65,375.06c28.29-.2,52.12-5.22,74.76-15.69A169.13,169.13,0,0,0,370,325.5c5.28-5.25,6.39-12.15,3.29-18.35s-9.38-9.35-16.66-8.36c-4.49.6-7.58,3.46-10.67,6.4-50.9,48.43-128.43,51.67-183.27,7.62-4.18-3.36-7.89-7.29-12.05-10.67a15.61,15.61,0,0,0-25.31,8.77c-1.29,6.32,1.19,11.35,5.75,15.71C164.34,358.47,204.08,374.37,246.65,375.06ZM104.34,216.84A15.55,15.55,0,0,0,124,233.76c6.8-2,10.83-7.35,11.51-15.26,1.06-12.35,9.1-20.34,20.53-20.41C167.74,198,175.82,206,177,218.63a23.85,23.85,0,0,0,.52,3.37,15.5,15.5,0,0,0,30.69-3.37c.31-28-22.53-51.26-50.79-51.78C128.93,166.32,105.23,188.44,104.34,216.84Zm239.55-50c-29.12-.09-53,23.95-52.11,52.42a15.48,15.48,0,0,0,30.47,3.57,33.79,33.79,0,0,0,.8-5.78c.83-9.67,8.26-17.66,17.54-18.79,10.33-1.26,19.33,4.22,22.73,13.67,1,2.83.85,5.77,1.31,8.64,1.36,8.57,8.47,14.41,16.72,13.79s14.31-7.51,14.29-16.19C395.58,189.88,372.44,166.92,343.89,166.83Z" style="fill:#fed44f"/><path d="M25.49,359.64c16.73-7.9,33.68-9,50.1.15,5.74,3.2,9.35,3.4,15.31.06,29.3-16.4,66.3-.46,74.41,31.42,2.85,11.23.93,22-3.59,32.34-6.6,15.16-16.89,27.7-28.3,39.42-1.69,1.74-3.3,3.57-4.95,5.36-1.46,1.26-3,2.48-4.38,3.77C113,482.26,101.54,491.9,88.86,500H77.14c-12.74-9.25-25.26-18.79-36.62-29.73-14.47-13.94-27.85-28.7-36-47.47-1.8-4.13-2.12-8.74-4.51-12.63v-16.6c.32-.33.84-.6.93-1C4.19,377.92,13.08,367.47,25.49,359.64Z" style="fill:#e43935"/><path d="M360.19,25.61c14.65-6.38,29.44-7.48,44.49-1.35,4.24,1.73,7.92,6,11.9,6.11s7.67-4.34,11.9-6.1c31.3-13,65.66,5.53,71,38.44,1.51,9.27-.54,18.1-4.07,26.65-5.42,13.11-13.9,24.17-23.26,34.65-1.29,1.45-2.53,2.95-3.79,4.43-12.48,12.13-25.38,23.78-39.6,33.89-9.56,6.8-14.89,6.85-24.26,0-21.06-15.47-40.65-32.49-56-53.91-6.86-9.59-12.7-19.82-14.46-31.65C331,56,339,40,356.13,28.26,357.47,27.35,358.84,26.49,360.19,25.61Z" style="fill:#e43935"/><path d="M246.65,375.06c-42.57-.69-82.31-16.59-115.58-48.44-4.56-4.36-7-9.39-5.75-15.71a15.61,15.61,0,0,1,25.31-8.77c4.16,3.38,7.87,7.31,12.05,10.67,54.84,44.05,132.37,40.81,183.27-7.62,3.09-2.94,6.18-5.8,10.67-6.4,7.28-1,13.56,2.14,16.66,8.36s2,13.1-3.29,18.35a169.13,169.13,0,0,1-48.58,33.87C298.77,369.84,274.94,374.86,246.65,375.06Z" style="fill:#6e4d41"/><path d="M104.34,216.84c.89-28.4,24.59-50.52,53-50,28.26.52,51.1,23.81,50.79,51.78A15.5,15.5,0,0,1,177.48,222a23.85,23.85,0,0,1-.52-3.37c-1.14-12.65-9.22-20.61-20.91-20.54-11.43.07-19.47,8.06-20.53,20.41-.68,7.91-4.71,13.24-11.51,15.26a15.55,15.55,0,0,1-19.67-16.92Z" style="fill:#6e4d41"/><path d="M343.89,166.83c28.55.09,51.69,23,51.75,51.33,0,8.68-6.06,15.57-14.29,16.19s-15.36-5.22-16.72-13.79c-.46-2.87-.29-5.81-1.31-8.64-3.4-9.45-12.4-14.93-22.73-13.67-9.28,1.13-16.71,9.12-17.54,18.79a33.79,33.79,0,0,1-.8,5.78,15.48,15.48,0,0,1-30.47-3.57C290.88,190.78,314.77,166.74,343.89,166.83Z" style="fill:#6e4d41"/></svg>