<svg id="Layer_1" data-name="Layer 1" xmlns="http://www.w3.org/2000/svg" viewBox="0 0 476.4 500"><path d="M146.7,445.56l-.31.22.23-.29Z" style="fill:#f8bd01"/><path d="M133.45,457l.19.37-.37-.2Z" style="fill:#f8bd01"/><path d="M475.81,327.16c-20,1.57-36.89,1.81-53.45,4.41-37,5.82-57.79,38-49,74.66,2.93,12.27,6.25,24.44,9.58,36.6a14.58,14.58,0,0,1,.12,8.51c-12.37-7.84-24.56-15.17-36.33-23.11-33-22.26-75.31-9.77-90.63,27.07-5.86,14.08-11.4,28.27-18,44.7-5.38-13.39-10.38-24.71-14.49-36.34-6.31-17.86-16-32.72-33.88-40.71-20.17-9-39.79-7.55-58.53,4.09-12.84,8-25.49,16.23-40.08,25.55,4.27-17.33,8-32.37,11.69-47.4,9.13-36.86-15.83-71.66-53.78-74.68-15.22-1.21-30.48-1.88-46.36-2.84,1.75-6.44,7.87-8.32,11.75-12.13,10.61-10.43,24-17.67,33.06-30,18.39-25.12,15.23-59.5-8.18-80.11C27.14,194.76,14.4,184.78,0,172.89c16.54-1.07,30.92-2.24,45.32-2.89,41.38-1.85,67.68-37.8,57-78-3.72-14-7.16-28-11.31-44.27,14.43,9.07,26.8,16.64,39,24.53,34.08,22.13,76,8.8,90.71-28.88,5.4-13.84,11-27.58,17.4-43.4,6,15.05,11.44,28.09,16.41,41.3,14.81,39.36,55.71,53.42,91.37,31.18,12.36-7.71,24.58-15.65,38.21-24.34-2,15.31-6.28,28.77-10,42.31-9.24,33.62,7.24,67.22,39.06,76.55,18.16,5.32,37.42,3.75,56.19,5.2,1.28.1,2.58,0,7.11,0-9.06,7.64-16.18,13.67-23.32,19.67-9.93,8.33-21,15.54-27.65,27.15-15.66,27.19-9.75,58.78,14.68,78.77C451.34,307,462.53,316.24,475.81,327.16Zm-87.15-77.7c-.59-90-77.44-155.37-161.94-149.81-80,5.26-144,77.5-139.3,158.89C92.31,342.91,164,406,250.34,400.08,329.4,394.66,389.28,327.14,388.66,249.46Z" style="fill:#fbdb3b"/><path d="M366.93,249.2c-.1,73.69-57.14,130-131.66,129.94-69.32,0-126.92-59.54-126.44-130.59.49-70.81,58.6-127.58,130.48-127.47C309.21,121.2,367,179.22,366.93,249.2Z" style="fill:#fbdb3b"/></svg>