<svg id="Layer_1" data-name="Layer 1" xmlns="http://www.w3.org/2000/svg" viewBox="0 0 500 411.24"><path d="M12.25.91a1.74,1.74,0,0,1,0,1.71,4.18,4.18,0,0,0-.17,3.15c.68,1.86-.06,3.65.17,5.45-2.1-.31-4.2.71-6.32-.12a2.8,2.8,0,0,0-2.38.33A1.32,1.32,0,0,1,2,11.34a1.34,1.34,0,0,1-.45-1.63c.27-.71.52-1.37-.16-2a.73.73,0,0,1,0-.85A2.2,2.2,0,0,0,.59,3.76,1.63,1.63,0,0,1,.07,2,1.15,1.15,0,0,1,1.41,1c3.15.63,6.34-.83,9.47.17C11.39,1.35,11.78.92,12.25.91Z" style="fill:#a8784b"/><rect x="64.58" y="366.45" width="406.11" height="26.91" style="fill:#c7b299"/><path d="M480.75.5a5.37,5.37,0,0,1,1.9.27,4.3,4.3,0,0,0,2.26.08,29.22,29.22,0,0,1,7.24-.11,1.92,1.92,0,0,0,.76,0c1.69-.65,3.36,0,5,0,1.17,0,1.59,1,2.06,1.9V9.93c-.27,1-.39,2.07-1.36,2.8a4,4,0,0,1-3.6.49c-1.82-.54-3.6-.16-5.38-.19-2.27,0-4.54.07-6.81-.09-.78-.06-1.53.62-2.37.2.08-.57-.53-1-.48-1.43A22.74,22.74,0,0,0,480.19,7c-.09-1.17.25-2.6.29-3.91A6.66,6.66,0,0,1,480.75.5Z" style="fill:#a8784b"/><path d="M480.75.5a6.66,6.66,0,0,0-.27,2.55c0,1.31-.38,2.74-.29,3.91a22.74,22.74,0,0,1-.19,4.75c-.05.45.56.86.48,1.43a3.57,3.57,0,0,0-.21,2.66,22.51,22.51,0,0,1,.07,8.18,55.93,55.93,0,0,0-.22,6.31c-.06,1.84.47,3.76.32,5.66a21.48,21.48,0,0,0,.17,4.6,18.24,18.24,0,0,1-.23,3.24,10.78,10.78,0,0,0,.17,2.79c.15.75.31,1.44-.33,2.05a.78.78,0,0,0,0,1.07,2.4,2.4,0,0,1,.23,2.25c-.62,1.17-.12,2.16.05,3.22a6.27,6.27,0,0,1-.27,3.49c-.37,1,0,2.4.1,3.61.07.63.14,1.27.16,1.92.06,1.86.11,3.72.17,5.58,0,.08.05.2,0,.25-1.08,1.31,0,2.75-.25,4.08-.42,2.63.18,5.17.33,7.75a1.76,1.76,0,0,1-.45,1.56.79.79,0,0,0-.27.83,8.12,8.12,0,0,1,.14,3.1c-.16,1.84.83,3.58.49,5.35-.39,2,.3,4.13-.51,6.11-.07.16-.18.41-.11.49,1.37,1.72.34,3.52.06,5.21s.48,3.35.21,5.08.5,3.28-.28,4.87c0,.08-.08.21,0,.25,1.32,1.76-.34,3.77.6,5.7.64,1.33-.54,3-.37,4.57a16.64,16.64,0,0,0,.38,3.2,8.62,8.62,0,0,1,0,3.28c-.14,1.47.06,2.92-.06,4.37q-.18,1.92-.39,3.84a32.63,32.63,0,0,0,.26,6.31,5.38,5.38,0,0,1,0,1.79,7.4,7.4,0,0,0,0,3.47,3.52,3.52,0,0,1,0,1.93,1,1,0,0,0-.09.62c.71,1.8-.08,3.59,0,5.32.12,2-.17,4.05.24,6.07a7.71,7.71,0,0,1-.2,5,.64.64,0,0,0-.05.5c.86,1.46.27,3.06.44,4.58a2,2,0,0,1-.33,1.61c-.17.21-.3.55-.15.73,1.14,1.35.08,2.69,0,4a50.94,50.94,0,0,0,.4,8,9.14,9.14,0,0,1-.06,2.71,5,5,0,0,0,.41,3.84c-.31,2.2.66,4.44-.22,6.64a2.12,2.12,0,0,0,0,1.53c.76,1.44.51,2.93.41,4.42a36.83,36.83,0,0,0-.32,5.36,39.15,39.15,0,0,1,0,7.18c-.13,1.14-.46,1.28-1.18,1.34-2.81.22-5.53,1-8.42.95a101.23,101.23,0,0,0-10.39.93,6.94,6.94,0,0,1-3.34-.16,3.78,3.78,0,0,0-3.35.2,1.4,1.4,0,0,0-.93,1.76,1.56,1.56,0,0,0,1.77,1.2,3.86,3.86,0,0,1,1.27-.16,16.79,16.79,0,0,0,6,.08c1.79-.23,3.6-.28,5.4-.43s3.74-.25,5.62-.3a58.45,58.45,0,0,0,7.38-1.11,3.71,3.71,0,0,1-.32,1.63c-.63,1.27.14,2.45.34,3.66a3.12,3.12,0,0,1-.15,2,1.67,1.67,0,0,0-.14,1c.58,2.49-.43,5,.1,7.51.19.91-.38,2,.35,2.84,0,0,0,.11,0,.13-1,1-.53,2.23-.38,3.34.33,2.5-.64,4.93,0,7.51.33,1.33-.1,3-.14,4.55a23.51,23.51,0,0,1,0,4.19c-.18.91.43,2.22.32,3.37a50.73,50.73,0,0,0,0,8.36c.17,2.52-.52,5.07.16,7.59-1,1.43.15,3-.35,4.52-.42,1.3.59,2.57.26,3.94a13.27,13.27,0,0,0-.1,6.91,5.92,5.92,0,0,1-.25,2.41c-.24,1.35.54,2.64.27,3.8a14.71,14.71,0,0,0,.1,5.73,4.74,4.74,0,0,1-.16,2.17,12,12,0,0,0-.07,6.52,6,6,0,0,1,0,2.57,7.45,7.45,0,0,0-.07,2.45c.38,3-.14,6.07.17,9,.25,2.34-.7,4.52-.22,6.73a21.72,21.72,0,0,1,.28,4.8c0,1.5-.63,3.1-.47,4.7.25,2.49,0,5,.48,7.48a.77.77,0,0,1,0,.26c-.81,3.17.31,6.34-.1,9.55a21.06,21.06,0,0,0,.25,8.25c0,.13.11.29.06.38-.89,1.47-.1,2.93,0,4.39.09.95-.5,1.76-.51,2.64,0,2,.08,4-.07,6-.09,1.29-.37,2.65.56,3.83.11.13.07.43,0,.63-.9,3.15.37,6.3,0,9.46-.08.7-.08,1.11-.93.75s-1.53.06-2.29.15c-3,.36-5.92.72-8.88,1.05-1.28.15-2.4,1-3.75.83-.54-1.54-.91-1.76-2.5-1.48a1.8,1.8,0,0,1-.75.08c-2.11-.68-4.05.43-6.05.68a31.34,31.34,0,0,0-4,.88c-2.35.62-4.83.73-7.23,1.2-1.51.3-3.15.08-4.53.91a2.39,2.39,0,0,1-2,.3,4.92,4.92,0,0,0-1.91-.05c-1.25.14-2.49.19-3.74.35a6.78,6.78,0,0,1-3.22-.22c-1.68-.66-3.38-1.31-5-2a21.4,21.4,0,0,0-3.51-1.36,6.36,6.36,0,0,1-2.18-1.08,22.72,22.72,0,0,0-5.19-2.93c-2.21-.8-2.26-.93-2.4-3.34-.09-1.46.66-2.81.47-4.21a16.49,16.49,0,0,1,.32-4.95c.42-2.41.37-4.82.6-7.21a35.65,35.65,0,0,1,1.12-7,3.31,3.31,0,0,0,.27-1.78,7.6,7.6,0,0,1,.25-4.1c.76-2.5.48-5.17,1.38-7.63a1.46,1.46,0,0,0,0-.9,3.39,3.39,0,0,1,.06-1.49,26,26,0,0,1,1-4c.2-.76-.16-1.54.13-2.31a8.59,8.59,0,0,0,.66-5.29,1.9,1.9,0,0,1,.11-1.27c.87-1.63.81-3.41,1-5.16a24.44,24.44,0,0,1,.63-4.74c1.05-3.46,1.37-7.09,2.41-10.56a1.46,1.46,0,0,0,0-.9,2.66,2.66,0,0,1,.16-2,5.47,5.47,0,0,0,.4-1.5c.1-4.23,1.36-8.25,2.07-12.38.28-1.6.55-3.21.83-4.81.44-2.46.71-5,1.36-7.36.71-2.62,1.31-5.25,1.79-7.92.26-1.45.09-2.95.53-4.33a75.94,75.94,0,0,0,1.9-7.88c.21-1,0-2.07.49-3.05.83-1.65.67-3.53,1.21-5.25.38-1.21-.2-2.57.52-3.68a2,2,0,0,0-.28-2.69c.1-.36.37-.72.19-1.12a2.75,2.75,0,0,1,.33-2.49c1.66-2.93,1.18-6.3,2-9.39.2-.7.06-1.47.73-2a1.11,1.11,0,0,0,.37-1.06c-.21-1.84.54-3.56.85-5.29s1-3.73,1.35-5.63a11.54,11.54,0,0,1,.35-2.55,27,27,0,0,0,1.79-6.35,1.67,1.67,0,0,0-1-2.17c-.64-.28-1.48-.54-1.42-1.48.12-2-.81-3.94.17-5.87a.62.62,0,0,0-.06-.61c-1-.88-.52-2-.39-2.93a39.67,39.67,0,0,0-.09-7.55c-.09-1.72.59-3.46.25-5.24,2.5-.07,5.07-.54,7.48.11a20.77,20.77,0,0,0,5.11.62,21.23,21.23,0,0,1,5.56.57,3.47,3.47,0,0,0,1.28.13c1.67-.18,2.13-1.15,1.5-2.71-.93-2.33-3-3.87-4-6.2a14.45,14.45,0,0,0-1.6-3.25c-1.48-2-1.76-4.53-3.22-6.57-1-1.37-1.35-3.22-2-4.82-.83-2.18-2.26-4.15-2.62-6.54-.12-.79.31-1.62-.11-2.28-.92-1.44-1-3.23-1.91-4.64a4.27,4.27,0,0,1-.61-2.2c-.12-1.94-1-3.73-1.3-5.64-.17-1-.8-1.93-.81-3a3.68,3.68,0,0,0-.54-1.44,6.18,6.18,0,0,1-.71-2.34c-.09-1.14-.33-2.25-.45-3.4a58.65,58.65,0,0,0-1.38-6.3c-.46-2.13-1.13-4.21-1.7-6.32a8.09,8.09,0,0,1-.56-2.5,12,12,0,0,0-.89-5.15,7.19,7.19,0,0,1-.66-3.1,10,10,0,0,0-.43-3.68c-.55-2-1.09-4.09-1.6-6.14-.31-1.22.51-2.52-.13-3.69a9,9,0,0,1-.82-5.1,1.58,1.58,0,0,0-.24-1c-.95-1.22-.76-2.61-.75-4a9.72,9.72,0,0,0-.12-1.42c-.6-4.18-1.56-8.3-2-12.51-.3-3-1.23-5.94-1.29-9,0-1.18-.79-2.33-.64-3.4.28-2.11-.6-4.07-.42-6.13.07-.8-.64-1.47-.66-2.2a52.05,52.05,0,0,0-.8-6.49,18.74,18.74,0,0,1-.36-3.33,25.17,25.17,0,0,0-.39-5c-.25-1.42.22-2.83-.3-4.19a4.39,4.39,0,0,1-.42-2.74c.21-.9-.45-1.73-1-2.47a1.49,1.49,0,0,0-2.56,1c.17,1.11-.13,2.43.36,3.29,1.09,1.91.21,3.94.8,5.91s.13,4.44.59,6.7a33.68,33.68,0,0,1,.86,7.9,1.71,1.71,0,0,0,.33,1A2.3,2.3,0,0,1,422,67.6a1.34,1.34,0,0,0,0,1.14c1.09,2,.45,4.36,1.07,6.53.55,2,.25,4.15.9,6.16a3.16,3.16,0,0,1,.24,1.4,10.62,10.62,0,0,0,.42,4.3c.9,3,.89,6.07,1.67,9a10.39,10.39,0,0,1,.27,3.1,6,6,0,0,0,.82,4,2,2,0,0,1,.12,1.64,5,5,0,0,0,.62,3.61,2.32,2.32,0,0,1,.44,1.71c-.45,1.78.21,3.41.55,5.09.46,2.27,2,4.37,1.14,6.87-.09.28.11.67.2,1,.53,1.94,1.29,3.81,1.65,5.79.16.89-.26,1.75.1,2.68.88,2.27,1.06,4.75,1.93,7,.58,1.49.42,3.15,1.13,4.64a5.21,5.21,0,0,1,.42,2.41,14.92,14.92,0,0,0,1.36,6.37,48.67,48.67,0,0,1,1.37,4.92,36.89,36.89,0,0,1,1.51,6.65c.08.88,1,1.67,1.16,2.57.32,1.77.88,3.47,1.36,5.18a57,57,0,0,0,3.43,8.39c.9,1.92,1.43,4,2.57,5.88.63,1,.38,2.41,1.12,3.24a18.7,18.7,0,0,1,3,5.65c.32.78,1.85,1.12,1.15,2-.54.69-1.69-.16-2.6-.06a12.15,12.15,0,0,1-5-.43c-2.22-.69-4.56-.21-6.85-.32L437.75,194l0,0-.2-.24c-1.35-.85-1.8-2.26-2.2-3.68a4.92,4.92,0,0,0-1.12-2.45c-1.64-1.34-1.6-3.45-2.53-5.12s-2.45-3.49-2.48-5.75a1.67,1.67,0,0,0-.64-.95,5.7,5.7,0,0,1-.94-1.36c-.89-1.37-.68-3-1.29-4.45-.86-2-2.28-3.75-2.33-6.06a1.68,1.68,0,0,0-.31-.7c-1-1.84-2.1-3.64-2.31-5.78a4,4,0,0,0-.52-2.11,11.26,11.26,0,0,1-1.24-2.71c-1-2.59-1-5.44-2.19-8-.7-1.5-1.55-2.95-1.56-4.69a3.36,3.36,0,0,0-1-2.22,2.9,2.9,0,0,1-.81-1.88c0-1.56-.64-3-.84-4.45a26.9,26.9,0,0,0-1.61-6.06c-.72-1.84-.92-3.78-1.67-5.62-1.32-3.24-1.09-6.91-2.22-10.28-.71-2.13-.82-4.44-1.6-6.57a19.24,19.24,0,0,1-.49-2.28c-.51-2.27-.47-4.63-1.34-6.85a8.19,8.19,0,0,1-.57-3.35,7.19,7.19,0,0,0-.27-2.68,29,29,0,0,1-.92-5c-.22-1.49-.53-3-.78-4.46-.11-.69-.75-1.12-.78-1.89a71.22,71.22,0,0,0-1.8-11.63c-.38-1.88-.23-3.73-.51-5.58-.15-1.05-.7-2.05-.57-3.14.27-2.27-.42-4.47-.58-6.71a120.89,120.89,0,0,0-1.55-12.06,13,13,0,0,1-.32-3.36c.19-1.92-.24-2.46-2.16-2.32l-.07-1.35a22.77,22.77,0,0,0-.44-3.24c-.29-1.65-.44-3.31-.64-5s.4-3.22,0-4.82a12,12,0,0,1-.21-3.59.49.49,0,0,0,0-.79c-.55-.46-.58-1.13-.84-1.71.14-.88-.19-1.81.26-2.66a3,3,0,0,0,.08-2.37c-.51-1.71.23-3.53-.44-5.24,0,0,.08-.15.13-.22,1.52.5,3.12.23,4.67.45,1.07.15,2-.83,3-.47,1.19.42,2.36.11,3.53.24a5.5,5.5,0,0,0,4.44.21h.32a19,19,0,0,1,6.16-.23,2.25,2.25,0,0,0,2.25.29c.95-.26,2,.25,2.93-.21,1.64-.62,3.25-.19,4.91,0,1.47.2,3.05.47,4.52-.29a2.16,2.16,0,0,1,1.4,0,5,5,0,0,0,1.53.15,31.69,31.69,0,0,1,7,.28c1.78-.07,3.57.22,5.34-.18,2-.46,4.07,0,6.08-.32,2.79-.48,5.58.08,8.39-.06a36.65,36.65,0,0,1,7.18,0c1.32.19,2.73-.61,4,.3,1.64-1.23,3.52.36,5.25-.45a4.75,4.75,0,0,1,2.3.07c1,.11,2.14.46,3.14-.25C480.23-.14,480.52.13,480.75.5ZM467.2,236.6c0-1.58-.44-2.24-1.5-2.26s-1.54.62-1.59,2.21a5.91,5.91,0,0,1-.41,1.63,7.74,7.74,0,0,0-.21,4.47,2.2,2.2,0,0,1-.09,1.65,4,4,0,0,0-.39,2.14,23,23,0,0,1-.08,5.05c-.59,2.64-.42,5.31-.66,7.95-.17,2,.28,4-.2,5.95a6.69,6.69,0,0,0-.28,2.69,9.87,9.87,0,0,1-.1,4c-.63,2.77.66,5.67-.61,8.39-.12.25.1.67.23,1a1.92,1.92,0,0,1,.07,1c-.39,2.37-.22,4.78-.64,7.16-.36,2,.77,4.07-.41,6.09-.26.45.41,1.38.25,2-.67,2.45-.19,4.95-.43,7.41-.07.75.23,1.55.16,2.3-.19,2-.39,4-.45,5.95a16.59,16.59,0,0,1,0,3.46c-.74,2.85.07,5.77-.65,8.58a1.69,1.69,0,0,0,.06.77,3.23,3.23,0,0,1-.21,2.51,1.26,1.26,0,0,0-.08,1c.84,1.76,0,3.56,0,5.31s-.32,3.2.12,4.82a4.78,4.78,0,0,1,.05,1.69c-.3,3.68-1,7.36-.35,11.08a1.21,1.21,0,0,1,0,.5c-.6,2.17-.25,4.41-.56,6.61-.21,1.5.55,3,.36,4.5-.47,3.75,0,7.5-.13,11.24-.07,2.69.65,5.38,0,8.1a1.66,1.66,0,0,0,.21,1,3.48,3.48,0,0,1,.21,2.41,4.85,4.85,0,0,0,.38,2.78,1.42,1.42,0,0,0,1.84,1,1.44,1.44,0,0,0,1.09-1.91,9,9,0,0,1-.06-3.23,2,2,0,0,0-.11-1.13,3.64,3.64,0,0,1-.14-2.75,3.53,3.53,0,0,0,.12-1.15c-.81-4.39-.12-8.83-.52-13.23-.1-1.1.46-2.32.19-3.34-.81-3,.13-6-.16-9-.09-.88.58-1.6.38-2.53-.54-2.57-.06-5.15.05-7.73.09-2.06.64-4.12.09-6.19a3.06,3.06,0,0,1-.24-1.66,19.83,19.83,0,0,0,.49-6.95,1.52,1.52,0,0,1,0-.64c.8-2.09.05-4.26.32-6.4.17-1.26-.15-2.65,0-4a10.41,10.41,0,0,0,.35-2.43c-.32-3,.23-5.94.41-8.91a4.42,4.42,0,0,0-.07-1.15,7.37,7.37,0,0,1,.32-4.18,1.84,1.84,0,0,0,.06-1.52c-.76-1.63,0-3.3.07-4.88a26.06,26.06,0,0,0,.12-4.33,4.54,4.54,0,0,1,.15-2.8,2.88,2.88,0,0,0,.27-2c-.44-2.15.05-4.32.28-6.38.21-1.9.07-3.76.1-5.62,0-2.57.68-5.14.19-7.72a.37.37,0,0,1,.05-.25,8,8,0,0,0,.41-4.1c-.22-2.88.6-5.72.26-8.61a5.51,5.51,0,0,1,.42-1.75,4.41,4.41,0,0,0,.28-1.25,35.84,35.84,0,0,1,.22-6.54c.31-2.55-.14-5.21.67-7.76A.56.56,0,0,0,467.2,236.6ZM448.71,59.24a5.12,5.12,0,0,0-.6-2,1.45,1.45,0,0,0-1.9-1.1,1.6,1.6,0,0,0-1,2.21,2.56,2.56,0,0,1,.3,1.63,7.53,7.53,0,0,0,.16,4,8.66,8.66,0,0,1,.13,2.59c-.13,2.35-.66,4.69,0,7a2.06,2.06,0,0,1-.06,1.15,4.87,4.87,0,0,0-.05,2.18c.23,1.81,1.08,3.6.11,5.45a1.07,1.07,0,0,0,0,.89c.66,1.12.36,2.35.5,3.53.17,1.51-.09,3,.1,4.49.41,3.22.53,6.44.67,9.67,0,1.2-.26,2.42.16,3.61.33.93.74,1.84.15,2.85a1.24,1.24,0,0,0,.14,1.25c1,1.6.74,3.45.76,5.16,0,2.79.61,5.52.61,8.32a34,34,0,0,1,.24,3.94,9.22,9.22,0,0,0,.3,2c.16,1.41.89,2.74.7,4.17a16.6,16.6,0,0,0,.78,6.35,36.76,36.76,0,0,1,.65,5c.34,2.91-.06,5.92,1.64,8.57a.87.87,0,0,1,.09.63c-.73,2.13.64,4,.71,6.08s1.16,4.09,1.19,6.28a9.48,9.48,0,0,0,.59,2c.49,1.94,1.06,3.87,1.38,5.84a31.35,31.35,0,0,0,1.19,5.15c.66,1.91,1.17,3.85,1.75,5.78a18.31,18.31,0,0,0,1.5,3.85c1.42,2.49,2.12,5.26,3.22,7.87.38.94.72,1.68,1.88,1.52s1.29-1,1.2-1.93c-.22-2.15-1.48-3.92-2.16-5.9-.94-2.72-2.51-5.18-3.14-8.06a15.72,15.72,0,0,0-.9-3.49,17.37,17.37,0,0,1-1.37-4.8,36.67,36.67,0,0,0-1.65-6.86,7.42,7.42,0,0,1-.49-2.78,4,4,0,0,0-.13-1.41,30.71,30.71,0,0,1-1.64-9.16,3.67,3.67,0,0,0-.49-2.12c-1.46-1.88-1.16-4.17-1.19-6.22a50.27,50.27,0,0,0-.65-5.56c-.32-2.54-1.07-5-.78-7.64a5.37,5.37,0,0,0-.28-1.38c-.23-1.52-1-3-.75-4.54a18.08,18.08,0,0,0-.27-5.57c-.45-3-.3-6.06-.72-9.06a29,29,0,0,1-.49-4.69c0-1.34-.58-2.7-.56-4.16a49.32,49.32,0,0,0-.41-7.59c-.34-2.36,0-4.72-.38-7.08a18.79,18.79,0,0,1-.3-4.81c.34-3.25-.82-6.38-.34-9.59a14.44,14.44,0,0,0-.21-2.29c-.09-1.92.38-3.8.21-5.7S448.08,61.12,448.71,59.24ZM427.84,390.31a7.11,7.11,0,0,0,.22,2.29c.28.91.81,1.51,1.78,1.32a1.48,1.48,0,0,0,1.18-1.87,5.88,5.88,0,0,1,.31-3.19,1.46,1.46,0,0,0,0-1.14,4,4,0,0,1,.14-3.13,5.17,5.17,0,0,0,.33-2.3,28.6,28.6,0,0,1,.17-5.22c.68-4.35.59-8.8,1.09-13.19.34-3,.25-6,1.11-8.93.41-1.4-.07-2.89.29-4.26.93-3.58.65-7.29,1.43-10.9.52-2.38.74-4.85,1.22-7.24.25-1.22-.32-2.32-.08-3.46a31.61,31.61,0,0,0,1.06-7.62c-.06-1.21.95-2.33.66-3.54-.4-1.67,1-3.12.39-4.76,1.25-2.33.13-4.95.88-7.37a10,10,0,0,0,.57-2.77,49.88,49.88,0,0,1,1.68-11.19c.39-1.61-.27-3.42.72-5,.27-.42-.34-1-.12-1.5.85-2.09.68-4.32.88-6.5a6.56,6.56,0,0,1,.4-2.68c1.44-2.42,1.11-5.17,1.24-7.71.14-3,1-5.83,1.31-8.76.11-.95,0-1.7-.83-2.05a1.55,1.55,0,0,0-2.11,1c-.75,1.61-.64,3.37-1,5a60.45,60.45,0,0,0-.84,9.51,1.71,1.71,0,0,1-.27,1,5.87,5.87,0,0,0-1,3.33c0,3.71-.94,7.25-1.66,10.84a3.41,3.41,0,0,0,.1,2.4c.29.55,0,1-.13,1.5a31.79,31.79,0,0,0-1.17,4.61c-.27,2.65-.18,5.34-.88,7.95s-.18,5.35-.91,8a8,8,0,0,0-.6,3.36,11.16,11.16,0,0,1-.28,4.08c-.5,3.08-.89,6.18-1.38,9.27a32.61,32.61,0,0,1-.48,4.52,1.53,1.53,0,0,0,.14.88c.13.35.23.74,0,1-1.44,1.59-.87,3.64-1.06,5.42-.52,4.88-.78,9.78-1.91,14.57a1.82,1.82,0,0,0,0,.52,17.54,17.54,0,0,1-.3,4,73.55,73.55,0,0,0-.88,10.83c0,3.7-1.63,7.27-.64,11,.35,1.31-.94,2.34-.75,3.61A12.55,12.55,0,0,1,427.84,390.31Z" style="fill:#fc9575"/><path d="M11.76,196.35c.83-.83.52-1.86.4-2.8a2.93,2.93,0,0,1,.17-1.6,8.41,8.41,0,0,0,.11-4,52.57,52.57,0,0,1,0-6c0-2.15-.13-4.31-.28-6.46a2.64,2.64,0,0,1,.21-1.75.88.88,0,0,0,.14-.62c-.61-2.12.19-4.25-.13-6.43a11.51,11.51,0,0,1,.09-4.52,2.73,2.73,0,0,0-.32-2.37,1.72,1.72,0,0,1-.1-1.39,9.22,9.22,0,0,0,0-4.49c-.22-.67.42-1.1.49-1.71a43.19,43.19,0,0,0-.09-5.91c0-1.91-.12-3.82-.17-5.73,0-1.49-.05-3-.08-4.46,0-.13-.14-.31-.1-.37,1.1-1.39-.15-2.71-.12-4.07s.37-2.85.34-4.26c-.05-2.33.41-4.68-.19-7a3.6,3.6,0,0,1,.39-2.39,2.59,2.59,0,0,0,.16-2.14c-.94-2-.19-4-.33-6-.11-1.55.35-3.16-.06-4.75a1.09,1.09,0,0,1,.11-.75,4.63,4.63,0,0,0,.25-3.15c-.13-1,0-2.13-.07-3.07-.15-2.31.8-4.6-.19-7-.65-1.54.08-3.33.27-5,0-.3.2-.61.15-.88-.36-2.16.18-4.37-.42-6.52a5,5,0,0,1,0-2.82c.42-1.44-.33-2.91.06-4.37a12.52,12.52,0,0,0,.11-4.32,8.7,8.7,0,0,1,.15-3.79,1,1,0,0,0-.08-1,1.42,1.42,0,0,1,0-1.9.53.53,0,0,0,.11-.37c-.74-2.21.82-4.57-.45-6.76-.17-.29,0-.66.19-1a1.31,1.31,0,0,0,.22-.85c-.76-2.61-.57-5.32-.52-7.94s.21-5.21.36-7.81a6.19,6.19,0,0,0,0-1.43,21.91,21.91,0,0,1,.23-7.09c.19-1.39-.39-2.63-.62-3.94a2.28,2.28,0,0,1,0-1.27,3.21,3.21,0,0,0,0-3.33,1.34,1.34,0,0,1-.08-.37c-.18-1,.41-1.79.63-2.67.17-.72-1-1.51-.24-2.57.42-.57-.28-1.32-.16-2-.23-1.8.51-3.59-.17-5.45a4.18,4.18,0,0,1,.17-3.15,1.74,1.74,0,0,0,0-1.71c0-.74.48-1,1.13-.9,1.07.1,2.15.2,3.21.36a28.74,28.74,0,0,0,6.62,0A37.76,37.76,0,0,1,29.13.21c3.3.25,6.6,0,9.89.16,2.72.13,5.45-.32,8.16.2A4,4,0,0,0,49.11.42a3.89,3.89,0,0,1,2.67.13C52.44.83,53,1,53.54.36c.25-.28.65-.43.93-.13.84.91,1.78.39,2.66.22A4.55,4.55,0,0,1,58.8.26,14.94,14.94,0,0,0,65.08.1a2.61,2.61,0,0,1,2.35.5c.63.54,1.32,0,2,0,2.6,0,5.21.09,7.8-.07A44.33,44.33,0,0,1,82,.4c1.86.08,3.79-.55,5.6.27a1.93,1.93,0,0,0,1.5-.16c1.59-.47,3.14.37,4.73,0,2.33-.49,4.71.19,7-.26.37-.06.71,0,.78.49a3.43,3.43,0,0,0-.55,2.08c0,1.28.16,2.54.16,3.79a20.72,20.72,0,0,1-.78,4c-.11.54-.34,1.09.11,1.6.1.51.48,1,.16,1.55l-.16.49c-.2.11-.46.29-.35.47.79,1.28,0,2.48-.14,3.7-.17.74.33,1.4.19,2.16a41.15,41.15,0,0,0-.71,9.59l-.54,1c-1.56-.34-2.07,0-2.55,1.53a9.27,9.27,0,0,0-.08,2.68c0,2.9-1,5.69-1.13,8.6-.07,2-.89,4-.63,6a1.27,1.27,0,0,1-.1.75c-.77,1.33-.41,2.86-.56,4.25-.17,1.56-.31,3.12-.54,4.69a34.94,34.94,0,0,0-.86,4.67c0,3-1.45,5.86-1.2,8.91,0,.08,0,.16-.07.25-.36,3-1.73,5.82-1.38,8.92a1.28,1.28,0,0,1-.14.75c-1,1.61-.89,3.46-1.18,5.22-.36,2.16-.9,4.27-1.28,6.43-.24,1.34-1,2.57-.58,4a2.08,2.08,0,0,1-.29,1.36c-1,2.27-1.28,4.74-2,7.06-.63,1.95-.43,4-1,6a32.38,32.38,0,0,0-1.48,5.22,7.87,7.87,0,0,1-.32,1.89,14.11,14.11,0,0,0-1.32,4.9,9.12,9.12,0,0,1-.79,3.91c-.8,1.75-.9,3.68-1.87,5.45-1.17,2.14-1.08,4.79-2.09,7.08-.54,1.23-.63,2.7-1.08,3.87-.87,2.24-1.34,4.6-2.34,6.77-.34.72.06,1.58-.55,2.22A4.89,4.89,0,0,0,70.34,158a3.26,3.26,0,0,1-.36,1.62,27.36,27.36,0,0,0-3.18,7.57,29.52,29.52,0,0,1-2.27,6.2c-.69,1.42-1.52,2.78-2.16,4.25s-1.2,3.22-1.91,4.79-1.81,2.64-2.33,4.14c-.85,2.41-2,4.71-3,7-.66,1.48-1.36,2.34-3.08,1.74a2.46,2.46,0,0,0-1,.11,12,12,0,0,1-2.43.29c-1.87-.16-3.66,1-5.55.23-.18-.07-.5.11-.73.22a1.28,1.28,0,0,1-1,.11,2.34,2.34,0,0,0-2.1.29c-.26.16-.55.44-.79.11s0-.68.27-.89a6,6,0,0,0,1.6-2.34c1.49-2.77,2.3-5.89,4.3-8.4a1,1,0,0,0,.22-.6c0-1.16.7-2,1.07-3,.78-2.11,2.43-3.94,2.12-6.42a1.14,1.14,0,0,1,.34-.82,4.36,4.36,0,0,0,1.16-3.33,1.23,1.23,0,0,1,.32-1c1.41-1.12,1-2.93,1.57-4.38a8,8,0,0,0,.93-2.56c0-1.66,1-3.11,1-4.75,0-1.2,1-2,1.13-3.08A26.2,26.2,0,0,1,56,149a2.16,2.16,0,0,0,.25-1.13c-.39-1.86.58-3.53,1.11-5.08,1.22-3.57,1.66-7.29,2.64-10.89a29.25,29.25,0,0,0,.32-3.56c.24-1.76,1.19-3.26,1.46-5,.22-1.44-.06-3,.55-4.34,1.12-2.54,1.15-5.33,1.72-8a34.73,34.73,0,0,0,1-8.08c-.06-2.15,1.27-4,1.29-6.14s1-4.52,1.28-6.83c.2-1.53-.1-3,0-4.49.29-3.28,1.8-6.41,1.24-9.8a.63.63,0,0,1,.06-.38c1.21-2.19.39-4.72,1.26-7.06a15.83,15.83,0,0,0,.61-5.7c-.07-2.43.67-4.9,1-7.36s.94-4.85,1.17-7.32c.14-1.57.35-3.14.5-4.71a5.89,5.89,0,0,0-.15-2.86,1.58,1.58,0,0,0-2-1.17c-1,.22-1.06,1-1,1.84a32.75,32.75,0,0,1-.1,4.33c-.32,3.95-1.32,7.83-1.82,11.79-.21,1.64-.54,3.33-.62,5a40.15,40.15,0,0,1-1.2,7.54,32.83,32.83,0,0,0-.72,5.83c-.1,2.06-.56,4-.71,6.08-.13,1.72-.85,3.45-.69,5.12a21.37,21.37,0,0,1-.29,5.13c-.23,1.6-1,3.07-1,4.74a8.56,8.56,0,0,1-.74,3.36,11.77,11.77,0,0,0-.74,4.3A9.1,9.1,0,0,1,61,108a1.38,1.38,0,0,0,0,1,2.65,2.65,0,0,1,0,1.78,47.51,47.51,0,0,0-1.11,5c-.53,2.45-.76,5-1.42,7.35-.58,2.1-1.08,4.22-1.56,6.34-.25,1.11.36,2.26-.21,3.32-1.15,2.19-.67,4.78-1.73,7-.79,1.64-.84,3.51-1.52,5.17s-.14,3.88-1.52,5.46c-.06.07,0,.25,0,.38a9.21,9.21,0,0,1-.76,3.59,70.21,70.21,0,0,0-1.94,6.78,59.44,59.44,0,0,0-1.89,6.59c-.51,2.9-2.11,5.5-2.61,8.5-.43,2.6-2,4.95-3.11,7.33-1.26,2.64-2.41,5.36-3.81,7.94a6.57,6.57,0,0,1-1,1.68c-1.32,1.24-2,2.92-3.27,4.23a1.43,1.43,0,0,0,1.07,2.45c1.88,0,3.76.28,5.68-.24a12.47,12.47,0,0,1,3.47-.29,5.52,5.52,0,0,0,2.29-.13,17.2,17.2,0,0,1,5.6-.66c1.21-.05,2.41.26,3.56-.38.18,1.52-.63,3-.36,4.47a24.21,24.21,0,0,1,.34,5.16c0,.68.58,1.36.11,2a1.67,1.67,0,0,0,0,1.94,2.12,2.12,0,0,1,.07,1.76c-.23.66-.23,1.39-.44,2-.34,1,.57,1.8.27,2.77a5.67,5.67,0,0,0-.22,2.92.75.75,0,0,1-.58,1c-.74.15-1.11.78-1.66,1.18-.86.62-.87,1.19-.27,2.06a5.5,5.5,0,0,1,1,4,1.67,1.67,0,0,0,.3,1.34,1.88,1.88,0,0,1,.4,1.59c-.36,1.66.7,3.06.78,4.71s1.48,3.39,1.09,5.36c0,.21.23.45.31.69.35,1,1.1,1.94.73,3.18a2.42,2.42,0,0,0,.52,2,1.9,1.9,0,0,1,.42,1.58,1.45,1.45,0,0,0,.4,1.31c.2.22.48.43.34.78-.44,1.08.1,1.9.7,2.71q.36,3.14.73,6.27a4.23,4.23,0,0,0-.11,3.87,1.19,1.19,0,0,1,0,.75,4.71,4.71,0,0,0,.6,3.14c.9,1.54.83,3.25,1,4.89a42.42,42.42,0,0,0,1.37,7.2c1.05,3.5,1.37,7.1,2.18,10.62a14.7,14.7,0,0,1,.85,3.74,38.21,38.21,0,0,0,1.16,8.72,11.67,11.67,0,0,1,.44,2.8,13,13,0,0,0,1,5.42c1,2.47.72,5.06,1.49,7.54s.78,5.41,1.16,8.13a4.81,4.81,0,0,0,.43,1.49,7.43,7.43,0,0,1,.61,2.88,12.45,12.45,0,0,0,.83,4.83,8.52,8.52,0,0,1,.47,2.39c.39,2.39.1,4.86,1.24,7.18a5.29,5.29,0,0,1,.77,3.61,5.74,5.74,0,0,0,.42,3.65,4.56,4.56,0,0,1,.35,1.51A16,16,0,0,0,78,363.26a.86.86,0,0,1,.09.62c-.74,1.81.39,3.46.45,5.2,0,.8-.33,1.61,0,2.42.6,1.34.09,2.95,1,4.22.14.18,0,.6-.06.88a6,6,0,0,0,.24,3.71,6.14,6.14,0,0,1,.26,3.69,2.7,2.7,0,0,0-.07,1.16,40.05,40.05,0,0,1,.77,6.91,37.35,37.35,0,0,0,.16,4.48,3.81,3.81,0,0,1-1.18,3.5c-1.15,1.14-3.22.54-4,2.24-3.09.45-5.38,2.9-8.47,3.39a3.75,3.75,0,0,0-1.59.83,2.9,2.9,0,0,1-1.89.72,28.78,28.78,0,0,0-4.1.61,5.29,5.29,0,0,1-2,.11,6.92,6.92,0,0,0-2.44-.15c-.43,0-1,.14-1.27-.09-1.32-1.31-3.14-1-4.63-1.14-2.88-.19-5.55-1.26-8.39-1.55-2.15-.21-4.13-1.53-6.41-1.12a.53.53,0,0,1-.25,0c-1.73-.89-3.57-.41-5.37-.42a1.64,1.64,0,0,0-1.82,1.49c-1.05-.55-2-1.35-3.37-.82-.3.12-.6-.1-.83-.29a1.32,1.32,0,0,0-1.54-.27,1.31,1.31,0,0,1-1,0c-1.57-.81-3.18-.49-4.8-.29a22.58,22.58,0,0,1-2.73.05c-.49,0-.62-.26-.37-.67a2.94,2.94,0,0,0,0-2.75,2.18,2.18,0,0,1-.21-1.26c.54-2.05,0-4.18.45-6.23,0-.08.07-.19,0-.25-1.1-2.14-.15-4.42-.34-6.64a39,39,0,0,1,.22-6.89,28.34,28.34,0,0,0-.4-5.25c0-.26-.21-.62-.1-.75,1.07-1.22.15-2.43,0-3.64,0-.21-.11-.47,0-.63,1-2.17.28-4.37.17-6.55a9.23,9.23,0,0,1,.09-2.46,6.75,6.75,0,0,0,0-3.34c-.24-.84-.72-1.73.1-2.56a.5.5,0,0,0,0-.5c-1-1.28-.14-2.67-.19-4-.12-2.76.14-5.56.06-8.3-.05-1.8.54-3.67-.23-5.52a6.77,6.77,0,0,1,0-3.35,5.71,5.71,0,0,0-.06-3.42c-.41-.89.34-1.82.26-2.87a30.23,30.23,0,0,1,.16-6.85,2.13,2.13,0,0,0-.2-1.13,4.5,4.5,0,0,1-.14-2.92,4.4,4.4,0,0,0,.05-2.19,3.28,3.28,0,0,1,.17-2.24c.4-.88-.07-1.87-.17-2.8a24.07,24.07,0,0,1,0-5.69,10.78,10.78,0,0,0-.11-3.88,1.08,1.08,0,0,1,.2-1,1.3,1.3,0,0,0,.1-1.76,1.37,1.37,0,0,1-.06-1.14c.06-.2.2-.45.14-.62-.88-2.32.77-4.71-.21-7,.94-1.26-.33-2.73.4-4.06.35-.64-.45-1.25-.4-2,.09-1.35,0-2.68.18-4.06a23.52,23.52,0,0,0-.39-6.19,5.63,5.63,0,0,1,.19-1.79c.23-1.22-.45-2.41-.24-3.59.43-2.47,0-5,.52-7.43.28-1.33-.37-2.64-.28-4,.07-1-.21-2,.27-2.95a.65.65,0,0,0,0-.51c-.9-2.08-.51-4.17,0-6.25.21-.9-.38-1.7-.23-2.56.38-2.05-.58-4.19.46-6.18a1,1,0,0,0,0-.65c-.82-2.74-.19-5.51-.23-8.27,1.23.57,2.58.24,3.87.46,2.66.44,5.41.3,8.08.65s5.08-.26,7.57.47a2.51,2.51,0,0,0,1.66.16,5.22,5.22,0,0,1,3.53-.23,1.45,1.45,0,0,0,1.81-1.11,1.4,1.4,0,0,0-.88-1.81,6.65,6.65,0,0,0-4.2-.27,2.84,2.84,0,0,1-1.74.16c-2.62-.78-5.34,0-8-.53-1.58-.33-3.19.27-4.74-.3a22.24,22.24,0,0,0-5.33-.7c-.94.06-2.23.19-2.59-1a10.68,10.68,0,0,1-.16-5.64,2.84,2.84,0,0,0,.08-1.53,10,10,0,0,1,.15-5.49,2.45,2.45,0,0,0-.07-1.9,5.5,5.5,0,0,1-.44-2.38c-.19-1.59.83-3,.56-4.58A12.06,12.06,0,0,1,11.76,196.35Zm17.47,46c-.08-2.06-.79-4-.38-6a2.18,2.18,0,0,0-.16-.89,1.48,1.48,0,0,0-2.93.31c-.1,1.76-.38,3.5.24,5.25a7,7,0,0,1,0,2.58c-.08,1.32-.36,2.77.08,3.93a19.91,19.91,0,0,1,.7,5.37c.29,3.3.27,6.62.25,9.93a26.58,26.58,0,0,0,.08,4.37,11,11,0,0,1,0,4.77,1.79,1.79,0,0,0,.17.88,8.42,8.42,0,0,1,.39,4.31,4.25,4.25,0,0,0,0,2.57,2.74,2.74,0,0,1,.16,2.11c-.49,1.52.54,3,.05,4.55a1,1,0,0,0,.27.71c.41.48.31,1,.42,1.58.24,1.13-.67,2.12-.38,3.16a18.12,18.12,0,0,1,.44,5.35,50.54,50.54,0,0,0,.64,8.83c.36,2.3.77,4.79,0,7.18a2.9,2.9,0,0,0-.07,1c.07,1.73,1.2,3.41.22,5.18-.05.09,0,.25.05.38.57,1.89.31,3.87.62,5.79.11.71.48,1.47.17,2.18-.9,2.09-.4,4.3,0,6.27.86,4.27,0,8.5.3,12.74.12,2.08-.17,4.19,0,6.29a36.79,36.79,0,0,1,.27,5.44c-.19,4-.67,7.94.05,11.92a3.85,3.85,0,0,1-.2,2.17,4.13,4.13,0,0,0-.33,2.55c.34,1.47.64,2.88-.18,4.29-.12.21,0,.6.09.89.43,1.94-.38,3.9.12,5.84.06.24-.19.56-.3.84a3.67,3.67,0,0,0,0,2.67,1.39,1.39,0,0,0,1.64,1,1.36,1.36,0,0,0,1.25-1.3c.05-.43-.07-.93.12-1.28,1.12-2,.13-4.18.56-6.27.21-1-.26-2.23.24-3.44a3.36,3.36,0,0,0-.23-2.9,2,2,0,0,1-.07-1.76,6.83,6.83,0,0,0,.32-4.22c-.56-1.84-.28-3.71-.25-5.48a94,94,0,0,0,0-10.21c-.15-1.63-.09-3.26-.15-4.88s.11-3.23.13-4.86a69.49,69.49,0,0,0-.29-10.1,14.93,14.93,0,0,1-.36-4.23,20.57,20.57,0,0,0-.06-6.07c-.4-2.89.37-5.85-.55-8.71a4.26,4.26,0,0,1,.12-2.55,6.47,6.47,0,0,0,.09-3.09,10,10,0,0,1-.15-2.83c.13-1.47-.44-2.83-.57-4.26a28.52,28.52,0,0,1-.12-6.33,3.6,3.6,0,0,0,.05-2.05c-.89-1.72-.1-3.48-.21-5.22a25.62,25.62,0,0,1-.33-3c.1-1.9-.73-3.77-.17-5.68a.69.69,0,0,0-.17-.48,2.27,2.27,0,0,1-.21-2.11,5.76,5.76,0,0,0,.05-2.19c-.14-1.13-.32-2.28-.41-3.4a100.62,100.62,0,0,1-.46-11c.06-2.9-.11-5.78-.15-8.66C29.87,248.78,28.75,245.55,29.23,242.3Zm4.11-76.53.17,0c-.36,1.6-.64,3.22-1.1,4.8-.3,1-.41,2.12-.66,3.15-.51,2.09-1.2,4.14-1.88,6.18-.16.48-.62.9-.59,1.42.1,1.83-1,3.29-1.59,4.88-1,2.84-2.52,5.52-3.8,8.28a1.45,1.45,0,0,0,.42,2,1.38,1.38,0,0,0,2-.2A5.18,5.18,0,0,0,27.75,194a12.57,12.57,0,0,1,1.71-3.88A10.83,10.83,0,0,0,31,186.62a38.64,38.64,0,0,1,1.63-4.87c.82-2.2,1.1-4.59,2.24-6.67a.45.45,0,0,0,0-.26c-.21-3.4,1.79-6.34,1.9-9.74.08-2.53,1.47-5,1.32-7.62a1.86,1.86,0,0,1,.29-1.24c1.21-1.46.92-3.19,1-4.86a49.54,49.54,0,0,1,1.1-6.61c.34-2.18.42-4.42.93-6.53a24.57,24.57,0,0,0,.29-4.41c.23-3.42,1.27-6.7,1.58-10.11.06-.64.11-1.26.11-1.92,0-1.81.35-3.61.37-5.45,0-2,.74-4,.71-6a22.68,22.68,0,0,1,.45-6c.34-1.31-.31-2.59.08-3.85a16.48,16.48,0,0,0,.66-4c.11-1.79-.62-3.56-.2-5.3s.28-3.63.66-5.46c.54-2.61.29-5.36.47-8.06.22-3.17.07-6.37.29-9.56a16.36,16.36,0,0,0,.36-2.81,22.75,22.75,0,0,1-.06-7.18,1.56,1.56,0,0,0-1-2c-1-.3-1.54.24-1.93,1.08-.76,1.63-.38,3.32-.32,5a28.53,28.53,0,0,1-.29,6.6,26.41,26.41,0,0,0-.22,4.33c-.06,2.26.33,4.52-.25,6.77a3.87,3.87,0,0,0,0,1.55,13.83,13.83,0,0,1,0,2c0,1.33-.73,2.52-.58,3.79a9.49,9.49,0,0,1-.09,2.82,14.89,14.89,0,0,0,0,4.52A8.59,8.59,0,0,1,42,99.41a3.36,3.36,0,0,0-.22,2.4,4.86,4.86,0,0,1-.14,3.07,7.35,7.35,0,0,0-.42,3.57c.22,1.84-.43,3.56-.49,5.33,0,1.35-.7,2.64-.46,4a16.28,16.28,0,0,1-.15,5.36c-.33,2-.3,4.18-1,6.17a10.48,10.48,0,0,0-.25,2.31c-.22,1.55,0,3.17-.36,4.63a17.11,17.11,0,0,0-.65,5.72,2.85,2.85,0,0,1-.25,1.52A5.6,5.6,0,0,0,37,146a4.77,4.77,0,0,1-.2,1.79,8.54,8.54,0,0,0-.6,3.69c0,.88.28,1.87-.29,2.66a6.29,6.29,0,0,0-.95,3.58,15.33,15.33,0,0,1-.53,3.57C34,162.74,33.71,164.26,33.34,165.77Zm27.6,222.11a37,37,0,0,1,.64,4.47,1.41,1.41,0,0,0,1.68,1.29A1.45,1.45,0,0,0,64.61,392c0-.56-.12-1.12-.13-1.68a25.38,25.38,0,0,1-.22-3.72A22.52,22.52,0,0,0,64.2,380c-.4-2.14-.19-4.35-.87-6.45a1.9,1.9,0,0,1,0-1c.45-1.45-.44-2.88,0-4.32a1.13,1.13,0,0,0-.28-1,1.64,1.64,0,0,1-.23-1.5c.54-1.83-.4-3.61-.12-5.43a1.66,1.66,0,0,0-.3-1.11,3,3,0,0,1-.35-2.37,6.22,6.22,0,0,0,0-1.67c-.23-1.83-.79-3.65-1-5.44-.28-2.76-1.06-5.51-.64-8.33a3.85,3.85,0,0,0-.09-1.55,29.54,29.54,0,0,1-1-6.76,15.53,15.53,0,0,0-.4-4.24,21,21,0,0,1-.74-5.34c-.13-2.79-.87-5.45-1.08-8.2-.14-1.95-.65-4-.67-5.84,0-2.8-1.9-5.32-1-8.18,0-.13-.17-.31-.18-.48-.11-1.89-1-3.62-1.07-5.53a8.65,8.65,0,0,0-.36-2.69,18.61,18.61,0,0,1-.63-5.37,46.74,46.74,0,0,0-1-7.8c-.75-3.65-1.13-7.36-1.91-11-.65-3-1.6-6.13-1.29-9.34a1.5,1.5,0,0,0-2.65-1,3.75,3.75,0,0,0-.73,2.57c.33,1.76.74,3.52,1.07,5.29.36,1.94.85,3.9,1.09,5.82a37,37,0,0,0,.64,4.13c.53,2.27.55,4.59,1,6.86A13.81,13.81,0,0,1,50,286c-.16,3.75.91,7.34,1.26,11,.23,2.48,1.19,4.89.92,7.47a2.54,2.54,0,0,0,.34,1.62c1.42,1.85.51,4.08,1.09,6.1.73,2.54.59,5.31,1.12,7.94a4.92,4.92,0,0,1,.28,2.17c-.53,2.14.49,4.13.65,6.21.18,2.43.7,4.84.64,7.31a4.23,4.23,0,0,0,.21,1.53,18.46,18.46,0,0,1,.71,5.56,42.61,42.61,0,0,0,.91,8.18,17.43,17.43,0,0,1,.72,5.94c-.16,1.24-.29,2.4.65,3.41a.84.84,0,0,1,.15.73c-.44,1.14,0,2.26,0,3.36,0,2.88.47,5.7.58,8.55.08,2,.39,4,.6,6a29.93,29.93,0,0,1,.43,3.31A24.54,24.54,0,0,1,60.94,387.88Z" style="fill:#fc9575"/><path d="M59.47,254.72c-.6-.81-1.14-1.63-.7-2.71.14-.35-.14-.56-.34-.78a1.45,1.45,0,0,1-.4-1.31,1.9,1.9,0,0,0-.42-1.58,2.42,2.42,0,0,1-.52-2c.37-1.24-.38-2.15-.73-3.18-.08-.24-.35-.48-.31-.69.39-2-1-3.62-1.09-5.36s-1.14-3-.78-4.71a1.88,1.88,0,0,0-.4-1.59,1.67,1.67,0,0,1-.3-1.34,5.5,5.5,0,0,0-1-4c-.6-.87-.59-1.44.27-2.06.55-.4.92-1,1.66-1.18a.75.75,0,0,0,.58-1,5.67,5.67,0,0,1,.22-2.92c.3-1-.61-1.75-.27-2.77.21-.62.21-1.35.44-2a2.12,2.12,0,0,0-.07-1.76,1.67,1.67,0,0,1,0-1.94c.47-.65-.12-1.33-.11-2a24.21,24.21,0,0,0-.34-5.16c-.27-1.43.54-2.95.36-4.47,2.69-1.21,3-4,4.1-6.26.83-1.63,1.37-3.52,2.3-5s1.52-3.32,2.41-4.9c.09.08.19.25.27.24,2.93-.17,5.86.77,8.79-.09a5.3,5.3,0,0,1,3.08.08,4.33,4.33,0,0,0,1.52.11A106.1,106.1,0,0,1,89,182.18a96,96,0,0,0,10.18,0c2.73-.08,5.43.23,8.15.23s5.36,0,8,0,5.6-.13,8.4-.2a24.54,24.54,0,0,1,4.53-.06,13.43,13.43,0,0,0,4.6.14,27.08,27.08,0,0,1,5.55,0c3.32.14,6.65-.08,10,.09a17.58,17.58,0,0,0,4.64-.1c.64-.14,1.31,0,1.92-.08,1.7-.22,3.35.39,5,.19a50.66,50.66,0,0,1,9.69-.11c4.06.31,8.09-.14,12.15.2,4.4.37,8.88-.21,13.33-.42,2.76-.12,5.52.1,8.28.13,1.92,0,3.85-.12,5.79,0,1.74.09,3.51-.12,5.29.13a19,19,0,0,0,5,.25c3.11-.42,6.24,0,9.33-.45a7.08,7.08,0,0,1,3.1.18,12.57,12.57,0,0,0,4.65.25,113.36,113.36,0,0,1,15.53,0c1.85.12,2.59-.29,2.62-1.44.07-2.46.15-4.93.12-7.38,0-3-.17-6-.26-9-.1-3.58.27-7.17-.18-10.74-.35-2.88.37-5.74.07-8.66-.37-3.56.22-7.17-.06-10.75-.11-1.48.3-3,.14-4.39-.38-3.36.21-6.72-.17-10.08-.35-3.12.2-6.25.11-9.41-.2-6.35.17-12.72.14-19.08,0-2.67.8-5.34,0-8a7.93,7.93,0,0,1-.08-2.71c0-1,.74-2,.51-3-.72-3.08-.2-6.19-.36-9.27-.06-1.18.38-2.37.17-3.49-.54-3-.15-6-.26-9.06a21.28,21.28,0,0,1-.1-4.65c.67-3.77.42-7.59.32-11.37-.08-3.26-.21-6.53-.07-9.9-1.81.47-3.61.1-5.4.06-4.63-.09-9.25,0-13.87-.08-1.71,0-3.34.45-5,.33a69.49,69.49,0,0,0-11.36-.14,54.39,54.39,0,0,1-8.93.22c-4.14-.33-8.29-.09-12.43-.3a63.63,63.63,0,0,0-9.56.2,30,30,0,0,1-4,.11c-1.94-.07-3.88,0-5.82-.05a62.44,62.44,0,0,1-6.58-.22c-3.29-.42-6.49.22-9.73.22-2.05,0-4.12-.57-6.17-.08a9.67,9.67,0,0,1-3.86-.17,10.33,10.33,0,0,0-4-.18c-3.09.74-6.18.22-9.26.36-2.77.12-5.51-.34-8.29-.11a32.4,32.4,0,0,1-6.75,0c-2.32-.28-4.64.11-7-.07-2.05-.16-4.15.29-6.2.13-3.69-.29-7.36.23-11,0a41.15,41.15,0,0,1,.71-9.59c.14-.76-.36-1.42-.19-2.16a37.82,37.82,0,0,0,6.43.46c2.37-.21,4.72.26,7.07-.16,1.24-.22,2.47.3,3.74.28.82,0,1.48-.77,2.24-.5,2.06.75,4.19-.07,6.26.43a7.07,7.07,0,0,0,3,.24,29.38,29.38,0,0,1,6.42-.24,15.66,15.66,0,0,1,2.83-.18,27.46,27.46,0,0,0,7.52.21c.51,0,1-.34,1.52-.19a16.91,16.91,0,0,0,8.36-.26,1.69,1.69,0,0,1,.77,0c2.39.77,4.86.3,7.29.48,2.83.2,5.71-1.08,8.52.24.24.11.59,0,.89-.07a22.06,22.06,0,0,1,4.46-.47c1.44.08,2.82.88,4.32.32a4.58,4.58,0,0,1,2.27-.06,5.2,5.2,0,0,0,3-.16,4.68,4.68,0,0,1,2.93-.2,26.2,26.2,0,0,0,5.53.36,29.57,29.57,0,0,1,5,0c2.76.41,5.55-.78,8.28.25.17.06.41-.09.62-.14a14.38,14.38,0,0,1,5.8-.23,14,14,0,0,0,5.05.13,12.09,12.09,0,0,1,4.68,0c3.15.65,6.3.06,9.45.06,1,0,2-.68,3-.2a5.62,5.62,0,0,0,3.69.27,15.64,15.64,0,0,1,5,.11c2,.19,3.88-.32,5.85-.2a18.24,18.24,0,0,0,6.37-.31c.23-.07.51.09.76.11a38,38,0,0,0,7.62.24c1.55-.19,3.17-.67,4.75-.26a12.33,12.33,0,0,0,3.79.26c2.11-.13,4.2-.13,6.29-.21s3.92.15,5.9-.08,3.77.37,5.66.32c1.19,0,2.46.41,3.55,0,2.22-.82,4.42.08,6.65-.23,1.82-.26,3.73.18,5.6-.13a4.86,4.86,0,0,1,1.42.07,10.11,10.11,0,0,0,4,.2,6.77,6.77,0,0,1,3.1,0c2.36.55,4.73-.45,7.07.17a.29.29,0,0,0,.13,0c1.91-.92,3.91-.13,5.85-.15,2.27,0,4.55-.15,6.83-.16a10.73,10.73,0,0,1,2.64.17,9,9,0,0,0,4.07.22c3.06-.79,6.09,0,9.14-.18a22.57,22.57,0,0,0,3.4.07,11.19,11.19,0,0,1,3.1-.19c2.59.21,5.19.07,7.78.14,2.77.07,5.6,0,8.32.26s5.44-.64,8.19-.2a1.72,1.72,0,0,0,2-1.51,1.7,1.7,0,0,0-1.24-2.15c-1.62-.27-3.29-.94-4.95-.1a2.2,2.2,0,0,1-1.4.14,26.66,26.66,0,0,0-4.29-.44c-1.76-.06-3.6.61-5.32-.31a.46.46,0,0,0-.38,0c-1.77.73-3.71-.48-5.46.44-3.12-.73-6.28.35-9.41-.2a2.78,2.78,0,0,0-1.28.1,3.13,3.13,0,0,1-2-.1,1.93,1.93,0,0,0-1.13-.24c-1.95.53-4-.05-5.93.46a3.41,3.41,0,0,1-2-.09c-2.46-1-5-.13-7.44-.2a42,42,0,0,0-6.73,0c-.88.12-1.84.15-2.76.19a23.15,23.15,0,0,1-5.4-.05,15.12,15.12,0,0,0-4.68-.11c-2.15.24-4.24-.41-6.37,0a11.48,11.48,0,0,1-2.79-.12c-1.52-.09-3.05.48-4.47.1a15.11,15.11,0,0,0-5.84,0c-3.17.4-6.26-.33-9.43,0a28.17,28.17,0,0,1-6.92-.11,2.59,2.59,0,0,0-1,.1c-1.78.46-3.57-.1-5.38,0-1,.07-2.11-.06-3.19,0-2.41.17-4.82.63-7.24.29-2-.27-3.9-.84-5.87,0a1.77,1.77,0,0,1-1,0c-3-.81-6.13.18-9.18-.19-.16,0-.34.11-.5.11-1.84,0-3.69-.62-5.52.08-.06,0-.16-.05-.24-.09-2.41-1.1-4.92-.06-7.37-.13-2.06,0-4.22.2-6.33,0a23.59,23.59,0,0,0-6.5.08,10.89,10.89,0,0,1-1.89,0c-2.32,0-4.62-.73-7-.15a2.82,2.82,0,0,1-1.89.08c-1.48-.64-3-.15-4.54-.05a5.5,5.5,0,0,1-2.14,0,5.36,5.36,0,0,0-2.67-.06c-1.77.27-3.6-.28-5.36.32,0,0-.08,0-.13,0-2.6-.42-5.2-1.54-7.81,0a.4.4,0,0,1-.37,0c-1.19-.91-2.41-.69-3.69-.2-.39.15-.84-.07-1.26-.11a14.23,14.23,0,0,0-5.08-.11c-1.3.33-2.57.74-3.83-.16-.24-.17-.68-.06-1-.11a10.2,10.2,0,0,0-2.7.28c-2.84.32-5.7-.66-8.52.22a.83.83,0,0,1-.51-.07c-2.13-1.12-4.28,0-6.41.05a9.87,9.87,0,0,1-3.3.07,7.11,7.11,0,0,0-3.58-.05c-1.43.32-2.9-.06-4.39.11-1.83.2-3.71-.57-5.64-.12a3.71,3.71,0,0,1-2.53-.31,2.19,2.19,0,0,0-2.13.09,4.57,4.57,0,0,1-3.51.34,25.78,25.78,0,0,0-8.15-.49c-1.81.18-3.58,0-5.34.18a16.35,16.35,0,0,1-4.89-.07,3.36,3.36,0,0,0-1.64.05c-2.14.7-4.12-.32-6.16-.56,0-.16.1-.33.16-.49.38.38.8.13,1.21.1l6.08-.37c.82,0,1.58.47,2.43.21a8.66,8.66,0,0,1,3.36-.23,52.36,52.36,0,0,0,7.62.07c3.7-.16,7.42.14,11.13.2a23,23,0,0,1,3-.19,55.8,55.8,0,0,0,9.84.13,111.7,111.7,0,0,1,12.94.07,8.45,8.45,0,0,0,1.65.12c3.13-.42,6.27-.07,9.41-.3,2.61-.19,5.27.29,7.88.12a24.33,24.33,0,0,1,5.26.25,11.49,11.49,0,0,0,4,0,19.07,19.07,0,0,1,4.5-.43c2.32,0,4.65,0,7,.21s4.48-.19,6.74.08a20.06,20.06,0,0,0,5.52.15,30.88,30.88,0,0,1,7.56-.17,13.39,13.39,0,0,0,1.8.1c3.06-.1,6.13-.83,9.18-.1a5.81,5.81,0,0,0,2.93,0,7.53,7.53,0,0,1,2.45-.22,55.2,55.2,0,0,0,8.53.11,13.36,13.36,0,0,1,3.09-.13,29,29,0,0,0,7.62,0c2.27-.3,4.54.11,6.83,0,3.27-.15,6.56.18,9.84-.06s6.62.75,9.91,0c1.79-.41,3.53.07,5.3,0a60.31,60.31,0,0,1,9.78.24,32.25,32.25,0,0,0,6.21.17c3-.18,6.09,0,9.12-.37,1.47-.19,2.94.72,4.36.45,2.34-.44,4.64.13,7-.08a14,14,0,0,1,3.48,0,39.35,39.35,0,0,0,8.12,0c2.12-.1,4.23-.58,6.35-.28a11.86,11.86,0,0,0,3.36.11,10.3,10.3,0,0,1,3.09.14,19,19,0,0,0,4.13,0,48.83,48.83,0,0,1,8.55,0,16.33,16.33,0,0,0,4,.07,9.53,9.53,0,0,1,3.1-.1,10.36,10.36,0,0,0,5.07,0,2.7,2.7,0,0,1,1.4-.13c3.78,1,7.55-.22,11.34,0,2.79.13,5.68.53,8.51-.07a12,12,0,0,0,.21,3.59c.42,1.6-.17,3.2,0,4.82s.35,3.32.64,5a22.77,22.77,0,0,1,.44,3.24c-2.45-.23-4.91.54-7.38,0a4,4,0,0,0-1.54.19,5.39,5.39,0,0,1-2.19.05,16.45,16.45,0,0,0-5.42-.17c-.73.09-1.46.23-2.19.25-4.89.14-9.78-.12-14.66-.22-2.63-.05-5.28-.39-7.89-.22a30.84,30.84,0,0,1-6.72.16,11.69,11.69,0,0,0-2.2-.2c-3.11.12-6.21.25-9.32.31-3.51.06-7,.2-10.51,0s-7.1-.05-10.65-.09c-1.29,0-2.54-.45-3.87-.2a38.87,38.87,0,0,1-5.06.22c-2.73.15-5.44-.39-8.17-.09-3,.33-6-.17-9.06,0-1.85.11-3.72-.14-5.64,0a39.37,39.37,0,0,1-9.81-.39c-4-.62-5.16.41-5,4.34.11,2.84.36,5.67.45,8.52.14,4.16-.58,8.27-.35,12.42.1,1.74,0,3.55.05,5.3.11,3.23.27,6.46.29,9.7,0,1.61-.51,3.24-.18,4.78.72,3.44,0,6.88.12,10.31a65,65,0,0,1-.24,8.12c-.23,2.42.23,4.91-.13,7.37a5.5,5.5,0,0,0,.21,2.57,6.48,6.48,0,0,1-.15,3.57,6.49,6.49,0,0,0-.26,3.34c.7,2.23.24,4.48.4,6.71s-.67,4.56,0,6.84a2,2,0,0,1,0,1.16c-1,3.09.33,6.2-.12,9.37a41.1,41.1,0,0,0-.12,6.3c0,1.19.55,2.41.42,3.57-.27,2.53.17,5.11-.59,7.6a2.42,2.42,0,0,0,0,1.55c1.19,2.76,0,5.55.19,8.31.1,2,.11,4,.15,5.93.06,2.38.25,4.77.21,7.14,0,2.11-.12,4.23-.11,6.36,0,.72.15,1.1,1,1.14,1.25,0,2.5.24,3.75.32a37,37,0,0,0,6.74,0,31.56,31.56,0,0,1,5.32-.14c5.4.29,10.79.6,16.18-.13a6,6,0,0,1,2.57.09,7.07,7.07,0,0,0,3,.23,78.46,78.46,0,0,1,8.53-.32c2.52,0,5.08,0,7.61,0,3.29,0,6.63.64,9.91-.14a1,1,0,0,1,.39,0,36.56,36.56,0,0,0,6.94,0,29.08,29.08,0,0,1,7.34-.05,16.55,16.55,0,0,0,5.66-.12,12.6,12.6,0,0,1,4.37-.08,16.72,16.72,0,0,0,5.51.17,48.3,48.3,0,0,1,8.42-.07,118.37,118.37,0,0,0,11.91-.18c1.68-.1,3.37.17,5.05.17a24.26,24.26,0,0,1,3.47-.26c3.1.43,6.2.14,9.29.33,5.05.3,10.11-.31,15.18-.08,3.27.14,6.55-.3,9.84-.17a5.94,5.94,0,0,0,3.28-.28,27.3,27.3,0,0,1,2.49,5.68,2.56,2.56,0,0,0,1.17,1.9,1.78,1.78,0,0,1,.73,1c.45,1.2.86,2.41,1.29,3.62-3.46.37-6.9-.67-10.37-.13a18.31,18.31,0,0,1-3,.29c-3.4-.05-6.78-.4-10.2-.22-4.06.22-8.14,0-12.21,0-.77,0-1.54-.38-2.29.05a4,4,0,0,0-3.89-1.52c-1.67.18-3.33.36-5,.48-2.34.17-4.65-.45-7-.43a29.14,29.14,0,0,1-6.6-.3,1.15,1.15,0,0,0-.75.12,5.13,5.13,0,0,1-3.87.18,5.71,5.71,0,0,0-2.33,0c-1.27.23-2.48.7-3.77,0a2.16,2.16,0,0,0-1.39.06,3.79,3.79,0,0,1-1.92,0,6.07,6.07,0,0,0-2.58,0,13.41,13.41,0,0,1-3.46.39,74,74,0,0,0-10.41-.47,69.63,69.63,0,0,1-9,.23c-3.21-.2-6.43.42-9.64,0a4.64,4.64,0,0,0-1.17.08c-1.66.24-3.31.56-4.93-.23a2.1,2.1,0,0,0-1.52,0,10.22,10.22,0,0,1-5.48.4,11,11,0,0,0-4.39-.2,8.78,8.78,0,0,1-2.29,0,35.27,35.27,0,0,0-6.07-.23c-2.28.18-4.56.16-6.83.14-1.72,0-3.43.12-5.14.13a7.17,7.17,0,0,1-2.92-.2,2.2,2.2,0,0,0-1.52-.15c-1.23.44-2.46,0-3.7.12a51.23,51.23,0,0,1-6.66-.15,2.31,2.31,0,0,0-1.15.11,2.81,2.81,0,0,1-2.48,0,2.12,2.12,0,0,0-2.84,1.8c0,1.66-.38,3.27-.27,4.92.16,2.42-.13,4.84.41,7.3.44,2-.16,4.17-.09,6.3.1,3-.35,6-.36,9.06,0,1.26.45,2.47.28,3.74a63.27,63.27,0,0,0-.2,10.57c.08,2.53.25,5.05.22,7.59s.16,5.06.25,7.6c.05,1.64-.45,3.34-.18,4.89.42,2.37-.3,4.69.16,7a3.06,3.06,0,0,1-.31,1.51,2.37,2.37,0,0,0-.17,1.14,68.56,68.56,0,0,1,.45,8.23,20,20,0,0,1-.15,5.11,23.8,23.8,0,0,0,.07,4.38c0,2.66-.48,5.3-.17,8,.13,1.09.08,2.22.13,3.31s-.7,2.25-.29,3.28c1.1,2.79-.42,5.54.06,8.32.28,1.63.12,3.33.25,5a11.75,11.75,0,0,1-.2,4.87,3.23,3.23,0,0,0-.08,1.66,11.5,11.5,0,0,1,.38,3.46,37.84,37.84,0,0,0-.46,4.62c0,2.23.11,4.46.16,6.69,0,1.83-.27,3.71-.15,5.56.12,1.65.15,3.43,1.84,4.48a23.34,23.34,0,0,0,.13,6.19c.08.37,0,.82.54.85,3.06.13,6.12.32,9.18.38,2.36,0,4.76-.33,7.1-.06,2.14.24,4.21-.14,6.32-.05s4.25,0,6.37,0c3.18.05,6.35.69,9.54.14a11.14,11.14,0,0,1,2.45-.17c2.63.1,5.26.21,7.89.25,1.78,0,3.55.07,5.33,0a76.31,76.31,0,0,1,8.14-.16c4,.2,8,0,12,.08,2.31,0,4.66-.15,7-.15,3.8,0,7.6.14,11.4.22,4.49.1,9-.54,13.45-.27,1.17.07,2.31.27,3.49.3,4.8.13,9.59-.32,14.4-.12,7.44.31,14.9.14,22.35.18a3.28,3.28,0,0,0-.09,2.52,1.08,1.08,0,0,1,0,.88c-.84,1.24-.74,2.74-1,4.1s-.82,2.65-.62,3.87c.3,1.78-.3,3.31-.61,4.94a6.65,6.65,0,0,0-2.84-.18c-2.81.35-5.62,0-8.42.13s-5.88-.22-8.81-.08c-.6,0-1.21-.1-1.81-.11a25.44,25.44,0,0,0-6.57.45,4.24,4.24,0,0,1-1.42,0,16.6,16.6,0,0,0-4.88-.2,7.45,7.45,0,0,1-3.85-.31c-.2-.07-.46-.2-.62-.13-2.61,1.1-5.34.39-8,.3-3-.09-6.08,0-9.05.09-4.17.15-8.35-.75-12.53.21-1.55.37-3.25,0-4.88,0-4.73.07-9.48-.52-14.2-.11-3,.26-5.86-.24-8.79-.19a6.56,6.56,0,0,0-.89.11,4.39,4.39,0,0,1-1.39.25,37.6,37.6,0,0,0-8.35,0c-2.57.16-5-.62-7.59-.32-2,.24-4-.26-6.06-.13-5.48.33-11,.22-16.44.15a40.64,40.64,0,0,1-7.21-.34c-1.46-.28-3.08.2-4.64.17s-3,0-4.51,0a22,22,0,0,0-4.14.17c-2.12.34-4.23-.2-6.35-.25-.94,0-1.77.29-2.66.32-2.59.11-5.17-.3-7.76-.11a25.91,25.91,0,0,1-4.66.12,38.93,38.93,0,0,0-8-.2,33.65,33.65,0,0,1-8.39-.23c-2.63-.39-5.24.35-7.87.37a24.69,24.69,0,0,1-5.7-.14,10.84,10.84,0,0,0-3,.21c-3.07.12-6.14-.06-9.22.16a18.42,18.42,0,0,1-5.16-.37,7.89,7.89,0,0,0-2.43-.08c-2.31.19-4.64.22-7,.3a45.31,45.31,0,0,0-5.58.19c-1.85.29-3.69-.26-5.51-.57a6,6,0,0,0-2.2,0c-3.5.67-7,.33-10.55.24a46.87,46.87,0,0,0-8.78.14c-3.28.53-6.56-.09-9.84-.14-1.32,0-2.62-.1-4,0a32,32,0,0,1-8.23-.18,2.21,2.21,0,0,0-.89-.05c-3.69.74-7.43.35-11.15.33-4.49,0-9-.08-13.45.27a3.39,3.39,0,0,1-.78,0,39.11,39.11,0,0,0-10.31,0,5.06,5.06,0,0,1-2.18-.23,3.86,3.86,0,0,1-.33-2.36,4.08,4.08,0,0,0-.45-2.52,12.88,12.88,0,0,1-1.09-5.54,8.2,8.2,0,0,0-.56-3.43,2.87,2.87,0,0,1,0-2.51,5.43,5.43,0,0,1,3.58-.09,9,9,0,0,0,3.22.22,52.42,52.42,0,0,1,8-.25,30,30,0,0,0,4.64,0,75,75,0,0,1,9.6,0,44.55,44.55,0,0,0,9.45,0,21.42,21.42,0,0,1,4.8-.08,10.69,10.69,0,0,0,1.79,0,29.23,29.23,0,0,1,5.83-.18,86.15,86.15,0,0,0,15,.13,55.54,55.54,0,0,1,10.31.34,4.74,4.74,0,0,0,1.55,0c4.72-.88,9.49-.27,14.21-.1,3.08.11,6.1-.45,9.19-.16,1.71.17,3.51-.17,5.29.07a6.2,6.2,0,0,0,2.7.25c2.94-.92,5.93,0,8.9-.27a15.74,15.74,0,0,1,4.65-.1,24.93,24.93,0,0,0,5.32.15c3-.06,6-.6,9.07-.26a10.77,10.77,0,0,0,3.35.3c4-.81,8.1.08,12.16-.18,2.4-.16,4.81-.12,7.22-.14s4.73-.05,7.09,0,4.91.19,7.37.27c.45,0,1.16.07,1-.64-.5-2.59.2-5.19-.1-7.77-.2-1.68,0-3.35,0-5-.09-2,.49-4,.05-6.07a11.88,11.88,0,0,1-.15-2.46c0-2.38.2-4.78.07-7.12-.18-3.24.29-6.46-.13-9.71-.37-2.9.22-5.84.05-8.8-.2-3.56.11-7.15,0-10.73-.06-1.38,0-2.77.06-4.16,0-3.17.68-6.35,0-9.53a4.53,4.53,0,0,1-.13-1.55,39.42,39.42,0,0,0,.1-7.68c-.08-4.25-.19-8.52.11-12.77,0-.77-.32-1.64-.09-2.32,1.1-3.15-.24-6.3.18-9.51a39.08,39.08,0,0,0,0-8.78,12.42,12.42,0,0,1-.19-2.84c.5-3.4,0-6.81.13-10.22s0-7.06.19-10.59a63.42,63.42,0,0,0-.25-9,4.09,4.09,0,0,1,0-1.16,16.8,16.8,0,0,0,.17-6.7c-.1-.48-.19-.78-.78-.77-2.24,0-4.45-.37-6.72-.26-4.7.24-9.42-.17-14.11.31a5.35,5.35,0,0,1-2.7-.25,5.66,5.66,0,0,0-3.2-.21,20.27,20.27,0,0,1-3.11.17c-2.72,0-5.42.34-8.15,0a54.09,54.09,0,0,0-8.54-.1c-1.76.09-3.56-.09-5.29,0-2.52.13-5-.39-7.51-.21a35.54,35.54,0,0,1-5.67.39,27.09,27.09,0,0,0-5.83.09,12.75,12.75,0,0,1-3.38,0c-3.5-.51-7,.07-10.49-.11-2.46-.13-4.92,0-7.38,0s-5.25-.55-7.75-.12c-3.25.56-6.48-.54-9.67.31a1.87,1.87,0,0,1-.77-.07c-2.77-.58-5.61.13-8.39-.41a2.44,2.44,0,0,0-1.14.18,9.48,9.48,0,0,1-3.09.35,20.31,20.31,0,0,1-4.25-.44c-1.6-.38-3.19.5-4.76.35-3.32-.31-6.65.24-10-.19-1.13-.15-2.25.46-3.36.18-2.47-.6-5,.59-7.47-.41-.13-.05-.34.06-.5.11-2.3.66-4.64.36-7,.25-1.5-.06-3-.6-4.51-.16a6.72,6.72,0,0,1-4,0,6.71,6.71,0,0,0-3.21-.08,9.8,9.8,0,0,1-1.93.24,51.16,51.16,0,0,0-7.63.08,12.12,12.12,0,0,1-2.33-.06,75,75,0,0,0-9.36-.12c-.37,0-.7,0-.68.54.13,3-.32,6.06-.2,9.08a18.06,18.06,0,0,1-.2,5.29,7,7,0,0,0-.29,2.95,35.89,35.89,0,0,1,.43,7.6c0,4,.37,8.05.11,12.05s.14,7.95.17,11.93C60,247.25,59.58,251,59.47,254.72Z" style="fill:#c89763"/><path d="M100.54,12.29c-.45-.51-.22-1.06-.11-1.6a20.72,20.72,0,0,0,.78-4c0-1.25-.19-2.51-.16-3.79A3.43,3.43,0,0,1,101.6.78c2,0,3.92.35,5.93-.11a9,9,0,0,1,4.24.08c1.06.28,2.29.66,3.37-.18a.19.19,0,0,1,.13,0c1.93.58,3.92.06,5.86.35a6.61,6.61,0,0,0,3.53-.13c.37-.15.77-.36,1.12-.21,1.07.48,2.17.15,3.25.27a35,35,0,0,0,7.16,0,9.65,9.65,0,0,1,2.46.11A1.92,1.92,0,0,0,140,.77a2,2,0,0,1,1.26-.23,7.09,7.09,0,0,0,3.77,0,1.49,1.49,0,0,1,1.36.27,1.94,1.94,0,0,0,1.38.2A46.81,46.81,0,0,1,153.59.9c1.5.1,3.27.88,4.77-.32a.43.43,0,0,1,.37,0c1.51.6,3.11-.1,4.71.49,1.25.47,2.82.13,4.23,0A5.75,5.75,0,0,1,170,1a1.75,1.75,0,0,0,1.15,0,5.6,5.6,0,0,1,4,0c.87.27,1.63-.38,2.53-.34,3.07.16,6.13.41,9.21.32,1.24,0,2.5.21,3.69-.45a1.39,1.39,0,0,1,1.13,0,4.59,4.59,0,0,0,3.14.19c2-.3,4,.27,5.9.14s3.55.26,5.39,0a32.71,32.71,0,0,1,8.73,0,20.24,20.24,0,0,0,4.92-.14c2.67-.24,5.31.29,8,.5A32.25,32.25,0,0,0,232.32,1c1.06-.06,2.09.53,3.09.21,1.8-.57,3.66-.18,5.48-.48a3.4,3.4,0,0,1,1.77.23c1.53.53,3.07.13,4.59-.1a5.66,5.66,0,0,1,1.92-.07A22.53,22.53,0,0,0,255,.92a18,18,0,0,1,5.66.14,21,21,0,0,0,6.72,0c2.9-.26,5.79,0,8.69,0a5.32,5.32,0,0,0,2.16-.3,1.56,1.56,0,0,1,1-.16c2.1.69,4.18,0,6.26,0,1.43,0,2.91.11,4.33.06,2.41-.08,4.9.64,7.15.17s3.92.8,5.95.25A29.77,29.77,0,0,1,307.7.55a4.89,4.89,0,0,1,2.44.16,5.39,5.39,0,0,0,3.67.09c2.17-.59,4.31.07,6.46,0a37,37,0,0,1,5.47,0c2.16.31,4.28-.74,6.48.08a5.36,5.36,0,0,0,3.32,0c.2-.06.47-.2.62-.13,2.29,1.11,4.56-1,7,0,.82.34,2.25-.55,3.37-.11a5.6,5.6,0,0,0,2.61.41c2-.2,4-.38,6-.56A3.52,3.52,0,0,1,356,.55c2,.35,4.1.07,6.17.37,1.43.21,3-.2,4.49-.16,1.9.06,3.86-.39,5.7-.07,1.48.25,3-.5,4.4.3.38.21,1,0,1.53-.08a3.91,3.91,0,0,1,2.17.15,2,2,0,0,0,2.09-.15,1.2,1.2,0,0,1,.85-.27c1.66.46,3.35,0,5,.21,1.06.13,2-.7,3-.23-.05.07-.15.17-.13.22.67,1.71-.07,3.53.44,5.24a3,3,0,0,1-.08,2.37c-.45.85-.12,1.78-.26,2.66-1.31.51-2.63-.29-4,0-.87.21-1.82.6-2.72-.13-.21-.18-.57,0-.85.15a2.94,2.94,0,0,1-2.95.08,4.71,4.71,0,0,0-1.12-.28,31.78,31.78,0,0,0-6.7.32c-2.26.25-4.37-.27-6.55-.24-1.63,0-3.26.19-4.87.31a30.16,30.16,0,0,1-4.25,0,23.89,23.89,0,0,0-4.65-.3c-1.5.19-3,0-4.43.2a45.51,45.51,0,0,1-6.81-.08c-1.43-.08-2.86-.15-4.29-.11-.92,0-1.75.62-2.76.35-3.32-.9-6.72-.48-10.06-.24-1.1.07-2.08-.17-3.12-.19-2.16,0-4.34.92-6.51,0a.9.9,0,0,0-.51,0,14.23,14.23,0,0,1-5.92.07,1.67,1.67,0,0,0-1.26.14,1.38,1.38,0,0,1-1.59,0,1.05,1.05,0,0,0-1-.11c-1.31.46-2.73.16-4.07.6a2.27,2.27,0,0,1-1.86-.3,3.15,3.15,0,0,0-2.75-.16,4.17,4.17,0,0,1-2.89.31c-2.45-.9-5.08.46-7.53-.55a.46.46,0,0,0-.37.08c-1.81,1.17-3.76,0-5.67.25a19.92,19.92,0,0,0-2.74.12,5.59,5.59,0,0,1-2.15.13c-.66,0-1.23-.72-1.85-.39-1.11.6-2.19.26-3.29.11a2.21,2.21,0,0,0-1.26.15c-1.31.59-2.69.14-4,.05-.72,0-1.61-.48-2.23-.15-1.84,1-3.89-.32-5.69.65a.61.61,0,0,1-.5-.07,4.27,4.27,0,0,0-2.42-.3c-1.33.07-2.67.07-4,.07-1.64,0-3.3-.59-4.9-.11a13,13,0,0,1-5.31.07,29.89,29.89,0,0,0-5.34-.07c-2.38.12-4.75-.21-7.12.12a14.18,14.18,0,0,1-3.5-.1,7.92,7.92,0,0,0-3.72,0,2.86,2.86,0,0,1-2.1.29c-1.46-.58-2.9-.08-4.34-.16a15.82,15.82,0,0,1-1.66.12c-1.73-.35-3.51.21-5.22-.38a.74.74,0,0,0-.6.15,2,2,0,0,1-1.86.32c-2.45-.63-5,.1-7.42-.43a1.16,1.16,0,0,0-.61.16,2.51,2.51,0,0,1-1.51.11,4.17,4.17,0,0,0-2.9.28,1.55,1.55,0,0,1-1.14.09,24.28,24.28,0,0,0-3.29-.18,28.14,28.14,0,0,0-6.36-.11c-1,.16-2.21-.16-3.33-.11a31.38,31.38,0,0,1-6.85,0c-1.44-.24-3,.35-4.58.06a15.62,15.62,0,0,0-1.68-.09c-2.57-.19-5.08.46-7.64.5a6.72,6.72,0,0,1-2.81-.25,2.84,2.84,0,0,0-2.4-.07,3.91,3.91,0,0,1-2.41.3,6.18,6.18,0,0,0-2.81.07c-1.2.4-2-.5-3.1-.59-1.28-.11-2.54,1.21-3.84,0-.07-.06-.4.1-.58.21a3.25,3.25,0,0,1-2.74.15c-.36-.1-.67-.35-1.1-.2-1.52.53-3.13.05-4.67.45a1.37,1.37,0,0,1-1.33-.35,1.05,1.05,0,0,0-1-.26c-1.69.42-3.49-.25-5.15.5a.73.73,0,0,1-.62-.1c-.58-.47-1.24-.13-1.81-.23-1.94-.31-3.9,1-5.79-.15a.74.74,0,0,0-.85.18c-.27.23-.62.53-.92.38-1.17-.61-2.38-.09-3.57-.22a16.91,16.91,0,0,0-6.06-.11A5.7,5.7,0,0,1,100.54,12.29Z" style="fill:#a8784b"/><path d="M443.45.88c-1.77.4-3.56.11-5.34.18,1.13-.95,2.45-.45,3.69-.44A10.48,10.48,0,0,1,443.45.88Z" style="fill:#a8784b"/><path d="M407.07,1.05a5.5,5.5,0,0,1-4.44-.21C404.14.35,405.59,1.08,407.07,1.05Z" style="fill:#a8784b"/><path d="M418.73.9c-1,.46-2-.05-2.93.21a2.25,2.25,0,0,1-2.25-.29Z" style="fill:#c89763"/><polygon points="407.39 1.05 407.35 1.05 407.39 1 407.39 1.05" style="fill:#a8784b"/><path d="M100.54,12.29a5.7,5.7,0,0,0,2.17-.28,16.91,16.91,0,0,1,6.06.11c1.19.13,2.4-.39,3.57.22.3.15.65-.15.92-.38a.74.74,0,0,1,.85-.18c1.89,1.18,3.85-.16,5.79.15.57.1,1.23-.24,1.81.23a.73.73,0,0,0,.62.1c1.66-.75,3.46-.08,5.15-.5a1.05,1.05,0,0,1,1,.26,1.37,1.37,0,0,0,1.33.35c1.54-.4,3.15.08,4.67-.45.43-.15.74.1,1.1.2a3.25,3.25,0,0,0,2.74-.15c.18-.11.51-.27.58-.21,1.3,1.16,2.56-.16,3.84,0,1.06.09,1.9,1,3.1.59a6.18,6.18,0,0,1,2.81-.07,3.91,3.91,0,0,0,2.41-.3,2.84,2.84,0,0,1,2.4.07,6.72,6.72,0,0,0,2.81.25c2.56,0,5.07-.69,7.64-.5a15.62,15.62,0,0,1,1.68.09c1.55.29,3.14-.3,4.58-.06a31.38,31.38,0,0,0,6.85,0c1.12,0,2.33.27,3.33.11a28.14,28.14,0,0,1,6.36.11,24.28,24.28,0,0,1,3.29.18,1.55,1.55,0,0,0,1.14-.09,4.17,4.17,0,0,1,2.9-.28,2.51,2.51,0,0,0,1.51-.11,1.16,1.16,0,0,1,.61-.16c2.45.53,5-.2,7.42.43a2,2,0,0,0,1.86-.32.74.74,0,0,1,.6-.15c1.71.59,3.49,0,5.22.38a15.82,15.82,0,0,0,1.66-.12c1.44.08,2.88-.42,4.34.16a2.86,2.86,0,0,0,2.1-.29,7.92,7.92,0,0,1,3.72,0,14.18,14.18,0,0,0,3.5.1c2.37-.33,4.74,0,7.12-.12a29.89,29.89,0,0,1,5.34.07,13,13,0,0,0,5.31-.07c1.6-.48,3.26.11,4.9.11,1.34,0,2.68,0,4-.07a4.27,4.27,0,0,1,2.42.3.61.61,0,0,0,.5.07c1.8-1,3.85.33,5.69-.65.62-.33,1.51.11,2.23.15,1.31.09,2.69.54,4-.05a2.21,2.21,0,0,1,1.26-.15c1.1.15,2.18.49,3.29-.11.62-.33,1.19.35,1.85.39a5.59,5.59,0,0,0,2.15-.13,19.92,19.92,0,0,1,2.74-.12c1.91-.29,3.86.92,5.67-.25a.46.46,0,0,1,.37-.08c2.45,1,5.08-.35,7.53.55a4.17,4.17,0,0,0,2.89-.31,3.15,3.15,0,0,1,2.75.16,2.27,2.27,0,0,0,1.86.3c1.34-.44,2.76-.14,4.07-.6a1.05,1.05,0,0,1,1,.11,1.38,1.38,0,0,0,1.59,0,1.67,1.67,0,0,1,1.26-.14,14.23,14.23,0,0,0,5.92-.07.9.9,0,0,1,.51,0c2.17,1,4.35,0,6.51,0,1,0,2,.26,3.12.19,3.34-.24,6.74-.66,10.06.24,1,.27,1.84-.32,2.76-.35,1.43,0,2.86,0,4.29.11a45.51,45.51,0,0,0,6.81.08c1.46-.16,2.93,0,4.43-.2a23.89,23.89,0,0,1,4.65.3,30.16,30.16,0,0,0,4.25,0c1.61-.12,3.24-.28,4.87-.31,2.18,0,4.29.49,6.55.24a31.78,31.78,0,0,1,6.7-.32,4.71,4.71,0,0,1,1.12.28,2.94,2.94,0,0,0,2.95-.08c.28-.19.64-.33.85-.15.9.73,1.85.34,2.72.13,1.35-.33,2.67.47,4,0,.26.58.29,1.25.84,1.71a.49.49,0,0,1,0,.79c-2.83.6-5.72.2-8.51.07-3.79-.19-7.56,1-11.34,0a2.7,2.7,0,0,0-1.4.13,10.36,10.36,0,0,1-5.07,0,9.53,9.53,0,0,0-3.1.1,16.33,16.33,0,0,1-4-.07,48.83,48.83,0,0,0-8.55,0,19,19,0,0,1-4.13,0,10.3,10.3,0,0,0-3.09-.14,11.86,11.86,0,0,1-3.36-.11c-2.12-.3-4.23.18-6.35.28a39.35,39.35,0,0,1-8.12,0,14,14,0,0,0-3.48,0c-2.33.21-4.63-.36-7,.08-1.42.27-2.89-.64-4.36-.45-3,.39-6.08.19-9.12.37a32.25,32.25,0,0,1-6.21-.17,60.31,60.31,0,0,0-9.78-.24c-1.77,0-3.51-.44-5.3,0-3.29.77-6.6-.23-9.91,0s-6.57-.09-9.84.06c-2.29.1-4.56-.31-6.83,0a29,29,0,0,1-7.62,0,13.36,13.36,0,0,0-3.09.13,55.2,55.2,0,0,1-8.53-.11,7.53,7.53,0,0,0-2.45.22,5.81,5.81,0,0,1-2.93,0c-3.05-.73-6.12,0-9.18.1a13.39,13.39,0,0,1-1.8-.1,30.88,30.88,0,0,0-7.56.17,20.06,20.06,0,0,1-5.52-.15c-2.26-.27-4.49.11-6.74-.08s-4.64-.16-7-.21a19.07,19.07,0,0,0-4.5.43,11.49,11.49,0,0,1-4,0,24.33,24.33,0,0,0-5.26-.25c-2.61.17-5.27-.31-7.88-.12-3.14.23-6.28-.12-9.41.3a8.45,8.45,0,0,1-1.65-.12,111.7,111.7,0,0,0-12.94-.07,55.8,55.8,0,0,1-9.84-.13,23,23,0,0,0-3,.19c-3.71-.06-7.43-.36-11.13-.2a52.36,52.36,0,0,1-7.62-.07,8.66,8.66,0,0,0-3.36.23c-.85.26-1.61-.25-2.43-.21l-6.08.37c-.41,0-.83.28-1.21-.1C101,13.28,100.64,12.8,100.54,12.29Z" style="fill:#fefefe"/><path d="M439.3,195.81c-1.47.24-1.47.24-1.55-1.81Z" style="fill:#c0f6fa"/><path d="M437.77,194c-.25.08-.17-.13-.2-.24Z" style="fill:#c0f6fa"/><path d="M100.54,14.33c2,.24,4,1.26,6.16.56a3.36,3.36,0,0,1,1.64-.05,16.35,16.35,0,0,0,4.89.07c1.76-.21,3.53,0,5.34-.18a25.78,25.78,0,0,1,8.15.49,4.57,4.57,0,0,0,3.51-.34,2.19,2.19,0,0,1,2.13-.09,3.71,3.71,0,0,0,2.53.31c1.93-.45,3.81.32,5.64.12,1.49-.17,3,.21,4.39-.11a7.11,7.11,0,0,1,3.58.05,9.87,9.87,0,0,0,3.3-.07c2.13-.09,4.28-1.17,6.41-.05a.83.83,0,0,0,.51.07c2.82-.88,5.68.1,8.52-.22a10.2,10.2,0,0,1,2.7-.28c.34.05.78-.06,1,.11,1.26.9,2.53.49,3.83.16a14.23,14.23,0,0,1,5.08.11c.42,0,.87.26,1.26.11,1.28-.49,2.5-.71,3.69.2a.4.4,0,0,0,.37,0c2.61-1.52,5.21-.4,7.81,0,.05,0,.09,0,.13,0,1.76-.6,3.59,0,5.36-.32a5.36,5.36,0,0,1,2.67.06,5.5,5.5,0,0,0,2.14,0c1.5-.1,3.06-.59,4.54.05a2.82,2.82,0,0,0,1.89-.08c2.35-.58,4.65.16,7,.15a10.89,10.89,0,0,0,1.89,0,23.59,23.59,0,0,1,6.5-.08c2.11.21,4.27,0,6.33,0,2.45.07,5-1,7.37.13.08,0,.18.11.24.09,1.83-.7,3.68-.1,5.52-.08.16,0,.34-.13.5-.11,3,.37,6.13-.62,9.18.19a1.77,1.77,0,0,0,1,0c2-.86,3.91-.29,5.87,0,2.42.34,4.83-.12,7.24-.29,1.08-.07,2.15.06,3.19,0,1.81-.13,3.6.43,5.38,0a2.59,2.59,0,0,1,1-.1,28.17,28.17,0,0,0,6.92.11c3.17-.29,6.26.44,9.43,0a15.11,15.11,0,0,1,5.84,0c1.42.38,3-.19,4.47-.1a11.48,11.48,0,0,0,2.79.12c2.13-.41,4.22.24,6.37,0a15.12,15.12,0,0,1,4.68.11,23.15,23.15,0,0,0,5.4.05c.92,0,1.88-.07,2.76-.19a42,42,0,0,1,6.73,0c2.46.07,5-.83,7.44.2a3.41,3.41,0,0,0,2,.09c2-.51,4,.07,5.93-.46a1.93,1.93,0,0,1,1.13.24,3.13,3.13,0,0,0,2,.1,2.78,2.78,0,0,1,1.28-.1c3.13.55,6.29-.53,9.41.2,1.75-.92,3.69.29,5.46-.44a.46.46,0,0,1,.38,0c1.72.92,3.56.25,5.32.31a26.66,26.66,0,0,1,4.29.44,2.2,2.2,0,0,0,1.4-.14c1.66-.84,3.33-.17,4.95.1a1.7,1.7,0,0,1,1.24,2.15,1.72,1.72,0,0,1-2,1.51c-2.75-.44-5.41.45-8.19.2s-5.55-.19-8.32-.26c-2.59-.07-5.19.07-7.78-.14a11.19,11.19,0,0,0-3.1.19,22.57,22.57,0,0,1-3.4-.07c-3,.19-6.08-.61-9.14.18a9,9,0,0,1-4.07-.22,10.73,10.73,0,0,0-2.64-.17c-2.28,0-4.56.13-6.83.16-1.94,0-3.94-.77-5.85.15a.29.29,0,0,1-.13,0c-2.34-.62-4.71.38-7.07-.17a6.77,6.77,0,0,0-3.1,0,10.11,10.11,0,0,1-4-.2,4.86,4.86,0,0,0-1.42-.07c-1.87.31-3.78-.13-5.6.13-2.23.31-4.43-.59-6.65.23-1.09.4-2.36,0-3.55,0-1.89.05-3.81-.54-5.66-.32s-3.94,0-5.9.08-4.18.08-6.29.21a12.33,12.33,0,0,1-3.79-.26c-1.58-.41-3.2.07-4.75.26a38,38,0,0,1-7.62-.24c-.25,0-.53-.18-.76-.11a18.24,18.24,0,0,1-6.37.31c-2-.12-3.86.39-5.85.2a15.64,15.64,0,0,0-5-.11,5.62,5.62,0,0,1-3.69-.27c-1-.48-2,.2-3,.2-3.15,0-6.3.59-9.45-.06a12.09,12.09,0,0,0-4.68,0,14,14,0,0,1-5.05-.13,14.38,14.38,0,0,0-5.8.23c-.21.05-.45.2-.62.14-2.73-1-5.52.16-8.28-.25a29.57,29.57,0,0,0-5,0,26.2,26.2,0,0,1-5.53-.36,4.68,4.68,0,0,0-2.93.2,5.2,5.2,0,0,1-3,.16,4.58,4.58,0,0,0-2.27.06c-1.5.56-2.88-.24-4.32-.32a22.06,22.06,0,0,0-4.46.47c-.3,0-.65.18-.89.07-2.81-1.32-5.69,0-8.52-.24-2.43-.18-4.9.29-7.29-.48a1.69,1.69,0,0,0-.77,0,16.91,16.91,0,0,1-8.36.26c-.55-.15-1,.15-1.52.19a27.46,27.46,0,0,1-7.52-.21,15.66,15.66,0,0,0-2.83.18,29.38,29.38,0,0,0-6.42.24,7.07,7.07,0,0,1-3-.24c-2.07-.5-4.2.32-6.26-.43-.76-.27-1.42.48-2.24.5-1.27,0-2.5-.5-3.74-.28-2.35.42-4.7-.05-7.07.16a37.82,37.82,0,0,1-6.43-.46c.19-1.22.93-2.42.14-3.7C100.08,14.62,100.34,14.44,100.54,14.33Z" style="fill:#a8784b"/><path d="M79.17,350.3a2.87,2.87,0,0,0,0,2.51,8.2,8.2,0,0,1,.56,3.43,12.88,12.88,0,0,0,1.09,5.54,4.08,4.08,0,0,1,.45,2.52,3.86,3.86,0,0,0,.33,2.36,23.45,23.45,0,0,0,1.1,7.93,3.85,3.85,0,0,1,.06,2.3,4.49,4.49,0,0,0,.27,3,8.38,8.38,0,0,1,.24,4.36,2.2,2.2,0,0,0,0,1.14c.94,2.48.79,5.12.78,7.66,0,1.64.45,3.33-.06,5-.16.5.22.81.37,1.2a1.77,1.77,0,0,1-1.25,2.61,3.6,3.6,0,0,0-1.75,1,4,4,0,0,1-2.26,1.2,1.29,1.29,0,0,0-1,.53,2.36,2.36,0,0,1-1.57.84,9.29,9.29,0,0,0-5.14,2.46,1.36,1.36,0,0,1-1,.48,7.08,7.08,0,0,0-3.84,1.25c-1.76.91-3.76,1-5.67,1.42S57,410.55,55,411c-1.68.36-3.18-.62-4.7-1-1.9-.49-3.83-.34-5.72-.78-1.26-.3-2.51-.69-3.81-.9-2.26-.36-4.4-1.16-6.76-1.32a51.76,51.76,0,0,0-5.46-.41c-1,0-1.45-.64-1.45-1.62a1.64,1.64,0,0,1,1.82-1.49c1.8,0,3.64-.47,5.37.42a.53.53,0,0,0,.25,0c2.28-.41,4.26.91,6.41,1.12,2.84.29,5.51,1.36,8.39,1.55,1.49.1,3.31-.17,4.63,1.14.23.23.84.12,1.27.09a6.92,6.92,0,0,1,2.44.15,5.29,5.29,0,0,0,2-.11,28.78,28.78,0,0,1,4.1-.61,2.9,2.9,0,0,0,1.89-.72,3.75,3.75,0,0,1,1.59-.83c3.09-.49,5.38-2.94,8.47-3.39.8-1.7,2.87-1.1,4-2.24a3.81,3.81,0,0,0,1.18-3.5,37.35,37.35,0,0,1-.16-4.48,40.05,40.05,0,0,0-.77-6.91,2.7,2.7,0,0,1,.07-1.16,6.14,6.14,0,0,0-.26-3.69,6,6,0,0,1-.24-3.71c.08-.28.2-.7.06-.88-1-1.27-.44-2.88-1-4.22-.36-.81,0-1.62,0-2.42-.06-1.74-1.19-3.39-.45-5.2a.86.86,0,0,0-.09-.62,16,16,0,0,1-1.47-7.91,4.56,4.56,0,0,0-.35-1.51,5.74,5.74,0,0,1-.42-3.65,5.29,5.29,0,0,0-.77-3.61c-1.14-2.32-.85-4.79-1.24-7.18a8.52,8.52,0,0,0-.47-2.39,12.45,12.45,0,0,1-.83-4.83,7.43,7.43,0,0,0-.61-2.88,4.81,4.81,0,0,1-.43-1.49c-.38-2.72-.36-5.55-1.16-8.13s-.49-5.07-1.49-7.54a13,13,0,0,1-1-5.42,11.67,11.67,0,0,0-.44-2.8,38.21,38.21,0,0,1-1.16-8.72,14.7,14.7,0,0,0-.85-3.74c-.81-3.52-1.13-7.12-2.18-10.62a42.42,42.42,0,0,1-1.37-7.2c-.18-1.64-.11-3.35-1-4.89a4.71,4.71,0,0,1-.6-3.14,1.19,1.19,0,0,0,0-.75A4.23,4.23,0,0,1,60.2,261c1.38-.62,2.48-.45,2.55.59.09,1.36.76,2.63.56,4a3.13,3.13,0,0,0,.41,2.24A10.7,10.7,0,0,1,65,273.27a27.27,27.27,0,0,0,1.11,6.56c1.06,3.6,1.31,7.35,2.41,10.92.81,2.63.25,5.54,1.55,8.1a1,1,0,0,1,0,.77c-.49,1.13,0,2.21.21,3.28a17.4,17.4,0,0,1,.57,3.44,15.29,15.29,0,0,0,.57,3.16c.33,1.73,1.27,3.29,1.24,5.1a4.92,4.92,0,0,0,.1,2.18c1.35,2.7.69,5.79,1.78,8.54.26.67-.21,1.62,0,2.3A12.36,12.36,0,0,1,75.71,333c-.11,1.63.88,3.08,1.07,4.62.35,2.9.31,5.81,1.4,8.6A31,31,0,0,1,79.17,350.3Z" style="fill:#f64a02"/><path d="M410.94,366.61c.31-1.63.91-3.16.61-4.94-.2-1.22.34-2.59.62-3.87s.2-2.86,1-4.1a1.08,1.08,0,0,0,0-.88,3.28,3.28,0,0,1,.09-2.52c1.11-.84,1-2,.8-3.16a5.74,5.74,0,0,1,.34-3.55,8.68,8.68,0,0,0,.71-3.49A27.34,27.34,0,0,1,416,334c1-3.22,1.14-6.6,2.15-9.81a1.15,1.15,0,0,0-.09-.62,3.14,3.14,0,0,1,.26-2.27,3.79,3.79,0,0,0,.49-1.73,24.47,24.47,0,0,1,.67-5.39c.78-4.14,1.53-8.29,2.38-12.42.49-2.4.58-4.87,1.36-7.21a34.7,34.7,0,0,0,1.89-9.33,34.58,34.58,0,0,1,1.48-7.16c.68-2.61.75-5.31,1.64-7.92a20.4,20.4,0,0,0,1-6.56,2.59,2.59,0,0,1,3.05-2.8,2,2,0,0,1,.28,2.69c-.72,1.11-.14,2.47-.52,3.68-.54,1.72-.38,3.6-1.21,5.25-.49,1-.28,2-.49,3.05a75.94,75.94,0,0,1-1.9,7.88c-.44,1.38-.27,2.88-.53,4.33-.48,2.67-1.08,5.3-1.79,7.92-.65,2.4-.92,4.9-1.36,7.36-.28,1.6-.55,3.21-.83,4.81-.71,4.13-2,8.15-2.07,12.38a5.47,5.47,0,0,1-.4,1.5,2.66,2.66,0,0,0-.16,2,1.46,1.46,0,0,1,0,.9c-1,3.47-1.36,7.1-2.41,10.56a24.44,24.44,0,0,0-.63,4.74c-.17,1.75-.11,3.53-1,5.16a1.9,1.9,0,0,0-.11,1.27,8.59,8.59,0,0,1-.66,5.29c-.29.77.07,1.55-.13,2.31a26,26,0,0,0-1,4,3.39,3.39,0,0,0-.06,1.49,1.46,1.46,0,0,1,0,.9c-.9,2.46-.62,5.13-1.38,7.63a7.6,7.6,0,0,0-.25,4.1,3.31,3.31,0,0,1-.27,1.78,35.65,35.65,0,0,0-1.12,7c-.23,2.39-.18,4.8-.6,7.21a16.49,16.49,0,0,0-.32,4.95c.19,1.4-.56,2.75-.47,4.21.14,2.41.19,2.54,2.4,3.34a22.72,22.72,0,0,1,5.19,2.93,6.36,6.36,0,0,0,2.18,1.08,21.4,21.4,0,0,1,3.51,1.36c1.65.74,3.35,1.39,5,2a6.78,6.78,0,0,0,3.22.22c1.25-.16,2.49-.21,3.74-.35a4.92,4.92,0,0,1,1.91.05,2.39,2.39,0,0,0,2-.3c1.38-.83,3-.61,4.53-.91,2.4-.47,4.88-.58,7.23-1.2a31.34,31.34,0,0,1,4-.88c2-.25,3.94-1.36,6.05-.68a1.8,1.8,0,0,0,.75-.08c1.59-.28,2-.06,2.5,1.48a3.25,3.25,0,0,1-3.72,1.71,3.08,3.08,0,0,0-1.53-.09c-3.58.82-7.11,1.93-10.76,2.29-2.38.23-4.66.9-7,1-.83,0-1.42.69-2.26.87-1.33.28-2.55-.24-3.85-.15a35.44,35.44,0,0,1-5.27.36c-2.71-.23-5-1.39-7.44-2.45a5.15,5.15,0,0,0-.92-.44c-3.4-.78-6.11-2.91-9.11-4.49a14.47,14.47,0,0,0-4-1.58,1.88,1.88,0,0,1-1.45-2.55,6,6,0,0,0,.17-1.79,36.14,36.14,0,0,1,.6-7.91,2.45,2.45,0,0,0-.07-1.26,2.77,2.77,0,0,1,.08-1.9,6,6,0,0,0,.24-4,1.69,1.69,0,0,1-.05-1c.89-3.05.94-6.25,1.69-9.36C410.84,370.66,410.64,368.57,410.94,366.61Z" style="fill:#f64a02"/><path d="M480.76,225.55a58.45,58.45,0,0,1-7.38,1.11c-1.88.05-3.77.14-5.62.3s-3.61.2-5.4.43a16.79,16.79,0,0,1-6-.08,3.86,3.86,0,0,0-1.27.16,1.56,1.56,0,0,1-1.77-1.2,1.4,1.4,0,0,1,.93-1.76,3.78,3.78,0,0,1,3.35-.2,6.94,6.94,0,0,0,3.34.16,101.23,101.23,0,0,1,10.39-.93c2.89,0,5.61-.73,8.42-.95.72-.06,1.05-.2,1.18-1.34a39.15,39.15,0,0,0,0-7.18,36.83,36.83,0,0,1,.32-5.36c.1-1.49.35-3-.41-4.42a2.12,2.12,0,0,1,0-1.53c.88-2.2-.09-4.44.22-6.64a3.86,3.86,0,0,0,.55-1.16,1.47,1.47,0,0,1,1.81-.89c.74.2,1.32.8,1.07,1.54-.54,1.59-.16,3.13-.05,4.69a1.28,1.28,0,0,1,0,.52c-.7,1.82-.12,3.59.17,5.38a7.8,7.8,0,0,1-.28,3.45c-.6,1.93.47,3.73-.06,5.69-.31,1.12.3,2.61.09,3.95a5.87,5.87,0,0,0,0,2.36C484.78,223.53,483.1,225.27,480.76,225.55Z" style="fill:#f64a02"/><path d="M11.76,196.35a12.06,12.06,0,0,0,0,3.84c.27,1.56-.75,3-.56,4.58a5.5,5.5,0,0,0,.44,2.38,2.45,2.45,0,0,1,.07,1.9,10,10,0,0,0-.15,5.49,2.84,2.84,0,0,1-.08,1.53,10.68,10.68,0,0,0,.16,5.64c.36,1.2,1.65,1.07,2.59,1a22.24,22.24,0,0,1,5.33.7c1.55.57,3.16,0,4.74.3,2.62.55,5.34-.25,8,.53a2.84,2.84,0,0,0,1.74-.16,6.65,6.65,0,0,1,4.2.27,1.4,1.4,0,0,1,.88,1.81,1.45,1.45,0,0,1-1.81,1.11,5.22,5.22,0,0,0-3.53.23,2.51,2.51,0,0,1-1.66-.16c-2.49-.73-5.05-.13-7.57-.47s-5.42-.21-8.08-.65c-1.29-.22-2.64.11-3.87-.46-.71-.45-1.51-.18-2.27-.28a2.14,2.14,0,0,1-2-2.37,11.63,11.63,0,0,0-.09-3.18c-.07-1.21.08-2.42.09-3.62a61.08,61.08,0,0,1,.12-6.63c.26-2.18-.61-4.3-.26-6.49a4.25,4.25,0,0,1,.4-2,1.14,1.14,0,0,0,.14-1c-.52-1.5,0-3,0-4.47,0-1,.44-1.7,1.5-1.7s1.47.58,1.41,1.6C11.49,195.87,11.67,196.11,11.76,196.35Z" style="fill:#f64a02"/><path d="M427.66,181.5c-.19-.28-.5-.55-.55-.86-.42-2.3-2.05-4-2.87-6.13-.61-1.6-.49-3.47-1.57-4.88-1.3-1.67-1.44-3.8-2.33-5.64s-1.91-3.46-1.86-5.54c0-1.54-1-2.77-1.55-4.08-1.16-2.51-1-5.35-2.11-7.86a18.26,18.26,0,0,0-1-2.09,4.07,4.07,0,0,1-.84-3.18,2.08,2.08,0,0,0-.48-1.56,11.81,11.81,0,0,1-1.65-4.85,42.37,42.37,0,0,0-1.65-6.35,28.18,28.18,0,0,1-1.36-4.92c-.28-1.77-1-3.44-1.38-5.18s-.58-3.45-.88-5.17c-.12-.68,0-1.38-.63-1.89a.73.73,0,0,1-.26-.44c-.06-1.49-.91-2.82-.81-4.34,0-.3.12-.65,0-.88-1.12-2.27-1.31-4.78-1.64-7.19-.25-1.86-.83-3.61-1.19-5.41a9.21,9.21,0,0,1-.36-3.84c.16-.78-.9-1.39-.83-2.26a20.87,20.87,0,0,0-.22-2.53c0-1.31-.5-2.53-.53-3.83a2.76,2.76,0,0,0-.67-2,1.16,1.16,0,0,1-.36-.81c.23-2-1-3.87-.65-5.89a5.16,5.16,0,0,0-.53-2.76,5.88,5.88,0,0,1-.6-3.4c.12-.62-.26-1.08-.44-1.59-.55-1.51.08-3.07-.28-4.6a9.32,9.32,0,0,1-.49-2.08c0-2.21-.73-4.35-.73-6.45,0-2.86-.4-5.65-.64-8.46-.18-2.16-.88-4.26-.84-6.49,0-.93-.52-1.86-.18-2.89a3.67,3.67,0,0,1,.88-1.55c1.92-.14,2.35.4,2.16,2.32a13,13,0,0,0,.32,3.36,120.89,120.89,0,0,1,1.55,12.06c.16,2.24.85,4.44.58,6.71-.13,1.09.42,2.09.57,3.14.28,1.85.13,3.7.51,5.58a71.22,71.22,0,0,1,1.8,11.63c0,.77.67,1.2.78,1.89.25,1.49.56,3,.78,4.46a29,29,0,0,0,.92,5,7.19,7.19,0,0,1,.27,2.68,8.19,8.19,0,0,0,.57,3.35c.87,2.22.83,4.58,1.34,6.85a19.24,19.24,0,0,0,.49,2.28c.78,2.13.89,4.44,1.6,6.57,1.13,3.37.9,7,2.22,10.28.75,1.84,1,3.78,1.67,5.62a26.9,26.9,0,0,1,1.61,6.06c.2,1.49.85,2.89.84,4.45a2.9,2.9,0,0,0,.81,1.88,3.36,3.36,0,0,1,1,2.22c0,1.74.86,3.19,1.56,4.69,1.18,2.53,1.2,5.38,2.19,8a11.26,11.26,0,0,0,1.24,2.71,4,4,0,0,1,.52,2.11c.21,2.14,1.32,3.94,2.31,5.78a1.68,1.68,0,0,1,.31.7c0,2.31,1.47,4.07,2.33,6.06.61,1.42.4,3.08,1.29,4.45a5.7,5.7,0,0,0,.94,1.36,1.67,1.67,0,0,1,.64.95c0,2.26,1.5,4,2.48,5.75s.89,3.78,2.53,5.12a4.92,4.92,0,0,1,1.12,2.45c.4,1.42.85,2.83,2.2,3.68,0,.11-.05.32.2.24l0,0c.08,2.05.08,2.05,1.55,1.81,2.29.11,4.63-.37,6.85.32a12.15,12.15,0,0,0,5,.43c.91-.1,2.06.75,2.6.06.7-.91-.83-1.25-1.15-2a18.7,18.7,0,0,0-3-5.65c-.74-.83-.49-2.23-1.12-3.24-1.14-1.84-1.67-4-2.57-5.88a57,57,0,0,1-3.43-8.39c-.48-1.71-1-3.41-1.36-5.18-.17-.9-1.08-1.69-1.16-2.57a36.89,36.89,0,0,0-1.51-6.65,48.67,48.67,0,0,0-1.37-4.92,14.92,14.92,0,0,1-1.36-6.37,5.21,5.21,0,0,0-.42-2.41c-.71-1.49-.55-3.15-1.13-4.64-.87-2.29-1-4.77-1.93-7-.36-.93.06-1.79-.1-2.68-.36-2-1.12-3.85-1.65-5.79-.09-.33-.29-.72-.2-1,.85-2.5-.68-4.6-1.14-6.87-.34-1.68-1-3.31-.55-5.09a2.32,2.32,0,0,0-.44-1.71,5,5,0,0,1-.62-3.61,2,2,0,0,0-.12-1.64,6,6,0,0,1-.82-4,10.39,10.39,0,0,0-.27-3.1c-.78-3-.77-6.07-1.67-9a10.62,10.62,0,0,1-.42-4.3,3.16,3.16,0,0,0-.24-1.4c-.65-2-.35-4.21-.9-6.16-.62-2.17,0-4.49-1.07-6.53a1.34,1.34,0,0,1,0-1.14,2.3,2.3,0,0,0-.27-2.34,1.71,1.71,0,0,1-.33-1,33.68,33.68,0,0,0-.86-7.9c-.46-2.26,0-4.61-.59-6.7s.29-4-.8-5.91c-.49-.86-.19-2.18-.36-3.29a1.49,1.49,0,0,1,2.56-1c.53.74,1.19,1.57,1,2.47a4.39,4.39,0,0,0,.42,2.74c.52,1.36.05,2.77.3,4.19a25.17,25.17,0,0,1,.39,5,18.74,18.74,0,0,0,.36,3.33,52.05,52.05,0,0,1,.8,6.49c0,.73.73,1.4.66,2.2-.18,2.06.7,4,.42,6.13-.15,1.07.62,2.22.64,3.4.06,3.05,1,6,1.29,9,.4,4.21,1.36,8.33,2,12.51a9.72,9.72,0,0,1,.12,1.42c0,1.38-.2,2.77.75,4a1.58,1.58,0,0,1,.24,1,9,9,0,0,0,.82,5.1c.64,1.17-.18,2.47.13,3.69.51,2,1.05,4.09,1.6,6.14a10,10,0,0,1,.43,3.68,7.19,7.19,0,0,0,.66,3.1,12,12,0,0,1,.89,5.15,8.09,8.09,0,0,0,.56,2.5c.57,2.11,1.24,4.19,1.7,6.32a58.65,58.65,0,0,1,1.38,6.3c.12,1.15.36,2.26.45,3.4a6.18,6.18,0,0,0,.71,2.34,3.68,3.68,0,0,1,.54,1.44c0,1.12.64,2.07.81,3,.34,1.91,1.18,3.7,1.3,5.64a4.27,4.27,0,0,0,.61,2.2c.94,1.41,1,3.2,1.91,4.64.42.66,0,1.49.11,2.28.36,2.39,1.79,4.36,2.62,6.54.61,1.6,1,3.45,2,4.82,1.46,2,1.74,4.57,3.22,6.57a14.45,14.45,0,0,1,1.6,3.25c.92,2.33,3,3.87,4,6.2.63,1.56.17,2.53-1.5,2.71a3.47,3.47,0,0,1-1.28-.13,21.23,21.23,0,0,0-5.56-.57,20.77,20.77,0,0,1-5.11-.62c-2.41-.65-5-.18-7.48-.11a2.48,2.48,0,0,1-2.64-2.05c-.25-1.3-1.26-2.11-1.74-3.23s-.84-2.42-1.29-3.62a1.78,1.78,0,0,0-.73-1,2.56,2.56,0,0,1-1.17-1.9A27.3,27.3,0,0,0,427.66,181.5Z" style="fill:#f64a02"/><path d="M467.2,236.6a.56.56,0,0,1,0,.13c-.81,2.55-.36,5.21-.67,7.76a35.84,35.84,0,0,0-.22,6.54,4.41,4.41,0,0,1-.28,1.25,5.51,5.51,0,0,0-.42,1.75c.34,2.89-.48,5.73-.26,8.61a8,8,0,0,1-.41,4.1.37.37,0,0,0-.05.25c.49,2.58-.16,5.15-.19,7.72,0,1.86.11,3.72-.1,5.62-.23,2.06-.72,4.23-.28,6.38a2.88,2.88,0,0,1-.27,2,4.54,4.54,0,0,0-.15,2.8,26.06,26.06,0,0,1-.12,4.33c-.09,1.58-.83,3.25-.07,4.88a1.84,1.84,0,0,1-.06,1.52,7.37,7.37,0,0,0-.32,4.18,4.42,4.42,0,0,1,.07,1.15c-.18,3-.73,5.91-.41,8.91a10.41,10.41,0,0,1-.35,2.43c-.19,1.33.13,2.72,0,4-.27,2.14.48,4.31-.32,6.4a1.52,1.52,0,0,0,0,.64,19.83,19.83,0,0,1-.49,6.95,3.06,3.06,0,0,0,.24,1.66c.55,2.07,0,4.13-.09,6.19-.11,2.58-.59,5.16-.05,7.73.2.93-.47,1.65-.38,2.53.29,3-.65,6,.16,9,.27,1-.29,2.24-.19,3.34.4,4.4-.29,8.84.52,13.23a3.53,3.53,0,0,1-.12,1.15,3.64,3.64,0,0,0,.14,2.75,2,2,0,0,1,.11,1.13,9,9,0,0,0,.06,3.23,1.44,1.44,0,0,1-1.09,1.91,1.42,1.42,0,0,1-1.84-1,4.85,4.85,0,0,1-.38-2.78,3.48,3.48,0,0,0-.21-2.41,1.66,1.66,0,0,1-.21-1c.61-2.72-.11-5.41,0-8.1.09-3.74-.34-7.49.13-11.24.19-1.46-.57-3-.36-4.5.31-2.2,0-4.44.56-6.61a1.21,1.21,0,0,0,0-.5c-.62-3.72,0-7.4.35-11.08a4.78,4.78,0,0,0-.05-1.69c-.44-1.62-.13-3.21-.12-4.82s.87-3.55,0-5.31a1.26,1.26,0,0,1,.08-1,3.23,3.23,0,0,0,.21-2.51,1.69,1.69,0,0,1-.06-.77c.72-2.81-.09-5.73.65-8.58a16.59,16.59,0,0,0,0-3.46c.06-2,.26-4,.45-5.95.07-.75-.23-1.55-.16-2.3.24-2.46-.24-5,.43-7.41.16-.6-.51-1.53-.25-2,1.18-2,.05-4.11.41-6.09.42-2.38.25-4.79.64-7.16a1.92,1.92,0,0,0-.07-1c-.13-.32-.35-.74-.23-1,1.27-2.72,0-5.62.61-8.39a9.87,9.87,0,0,0,.1-4,6.69,6.69,0,0,1,.28-2.69c.48-2,0-4,.2-5.95.24-2.64.07-5.31.66-7.95a23,23,0,0,0,.08-5.05,4,4,0,0,1,.39-2.14,2.2,2.2,0,0,0,.09-1.65,7.74,7.74,0,0,1,.21-4.47,5.91,5.91,0,0,0,.41-1.63c.05-1.59.54-2.22,1.59-2.21S467.2,235,467.2,236.6Z" style="fill:#f64a02"/><path d="M448.71,59.24c-.63,1.88,0,3.69.19,5.53s-.3,3.78-.21,5.7a14.44,14.44,0,0,1,.21,2.29c-.48,3.21.68,6.34.34,9.59a18.79,18.79,0,0,0,.3,4.81c.38,2.36,0,4.72.38,7.08a49.32,49.32,0,0,1,.41,7.59c0,1.46.58,2.82.56,4.16a29,29,0,0,0,.49,4.69c.42,3,.27,6,.72,9.06a18.08,18.08,0,0,1,.27,5.57c-.26,1.56.52,3,.75,4.54a5.37,5.37,0,0,1,.28,1.38c-.29,2.62.46,5.1.78,7.64a50.27,50.27,0,0,1,.65,5.56c0,2-.27,4.34,1.19,6.22a3.67,3.67,0,0,1,.49,2.12,30.71,30.71,0,0,0,1.64,9.16,4,4,0,0,1,.13,1.41,7.42,7.42,0,0,0,.49,2.78,36.67,36.67,0,0,1,1.65,6.86,17.37,17.37,0,0,0,1.37,4.8,15.72,15.72,0,0,1,.9,3.49c.63,2.88,2.2,5.34,3.14,8.06.68,2,1.94,3.75,2.16,5.9.09.93,0,1.77-1.2,1.93s-1.5-.58-1.88-1.52c-1.1-2.61-1.8-5.38-3.22-7.87a18.31,18.31,0,0,1-1.5-3.85c-.58-1.93-1.09-3.87-1.75-5.78a31.35,31.35,0,0,1-1.19-5.15c-.32-2-.89-3.9-1.38-5.84a9.48,9.48,0,0,1-.59-2c0-2.19-1.13-4.2-1.19-6.28s-1.44-3.95-.71-6.08a.87.87,0,0,0-.09-.63c-1.7-2.65-1.3-5.66-1.64-8.57a36.76,36.76,0,0,0-.65-5,16.6,16.6,0,0,1-.78-6.35c.19-1.43-.54-2.76-.7-4.17a9.22,9.22,0,0,1-.3-2,34,34,0,0,0-.24-3.94c0-2.8-.57-5.53-.61-8.32,0-1.71.28-3.56-.76-5.16a1.24,1.24,0,0,1-.14-1.25c.59-1,.18-1.92-.15-2.85-.42-1.19-.11-2.41-.16-3.61-.14-3.23-.26-6.45-.67-9.67-.19-1.44.07-3-.1-4.49-.14-1.18.16-2.41-.5-3.53a1.07,1.07,0,0,1,0-.89c1-1.85.12-3.64-.11-5.45a4.87,4.87,0,0,1,.05-2.18,2.06,2.06,0,0,0,.06-1.15c-.7-2.35-.17-4.69,0-7a8.66,8.66,0,0,0-.13-2.59,7.53,7.53,0,0,1-.16-4,2.56,2.56,0,0,0-.3-1.63,1.6,1.6,0,0,1,1-2.21,1.45,1.45,0,0,1,1.9,1.1A5.12,5.12,0,0,1,448.71,59.24Z" style="fill:#f64a02"/><path d="M427.84,390.31a12.55,12.55,0,0,0,.06-4.52c-.19-1.27,1.1-2.3.75-3.61-1-3.72.62-7.29.64-11a73.55,73.55,0,0,1,.88-10.83,17.54,17.54,0,0,0,.3-4,1.82,1.82,0,0,1,0-.52c1.13-4.79,1.39-9.69,1.91-14.57.19-1.78-.38-3.83,1.06-5.42.23-.26.13-.65,0-1a1.53,1.53,0,0,1-.14-.88,32.61,32.61,0,0,0,.48-4.52c.49-3.09.88-6.19,1.38-9.27a11.16,11.16,0,0,0,.28-4.08,8,8,0,0,1,.6-3.36c.73-2.66.22-5.4.91-8s.61-5.3.88-7.95a31.79,31.79,0,0,1,1.17-4.61c.12-.49.42-.95.13-1.5a3.41,3.41,0,0,1-.1-2.4c.72-3.59,1.68-7.13,1.66-10.84a5.87,5.87,0,0,1,1-3.33,1.71,1.71,0,0,0,.27-1,60.45,60.45,0,0,1,.84-9.51c.33-1.67.22-3.43,1-5a1.55,1.55,0,0,1,2.11-1c.87.35.94,1.1.83,2.05-.34,2.93-1.17,5.76-1.31,8.76-.13,2.54.2,5.29-1.24,7.71a6.56,6.56,0,0,0-.4,2.68c-.2,2.18,0,4.41-.88,6.5-.22.53.39,1.08.12,1.5-1,1.59-.33,3.4-.72,5A49.88,49.88,0,0,0,440.57,303a10,10,0,0,1-.57,2.77c-.75,2.42.37,5-.88,7.37.6,1.64-.79,3.09-.39,4.76.29,1.21-.72,2.33-.66,3.54a31.61,31.61,0,0,1-1.06,7.62c-.24,1.14.33,2.24.08,3.46-.48,2.39-.7,4.86-1.22,7.24-.78,3.61-.5,7.32-1.43,10.9-.36,1.37.12,2.86-.29,4.26-.86,2.92-.77,5.95-1.11,8.93-.5,4.39-.41,8.84-1.09,13.19a28.6,28.6,0,0,0-.17,5.22,5.17,5.17,0,0,1-.33,2.3,4,4,0,0,0-.14,3.13,1.46,1.46,0,0,1,0,1.14,5.88,5.88,0,0,0-.31,3.19,1.48,1.48,0,0,1-1.18,1.87c-1,.19-1.5-.41-1.78-1.32A7.11,7.11,0,0,1,427.84,390.31Z" style="fill:#f64a02"/><path d="M99,31.27a2.3,2.3,0,0,1,.6,1.76,68.09,68.09,0,0,1-.67,7.15,43.63,43.63,0,0,0-.66,5c-.12,1.67-1.15,3.31-.35,5.05a.8.8,0,0,1,0,.51c-.79,3.22-.85,6.54-1.49,9.79a38.35,38.35,0,0,0-.75,5.31,10,10,0,0,1-.9,4.25c-.53,1-.09,2.22-.32,3.32-.42,2-.7,4-1.3,5.94a2.18,2.18,0,0,0-.14.9c.35,2.65-.94,5-1.27,7.55-.29,2.25-.7,4.51-1.16,6.71s-.45,4.29-1.09,6.28a57.32,57.32,0,0,0-2.58,11.38,10.69,10.69,0,0,1-1,3.47c-1,2-1.06,4.26-1.53,6.34-.38,1.67-1.7,3.23-1.11,5.15.13.39-.13.93-.28,1.38a18.73,18.73,0,0,0-1.33,4.72c-.08,1.31-1.19,2.22-1.4,3.53-.49,3.17-1.85,6.11-2.68,9.19a39.84,39.84,0,0,1-2.32,6.83,3.09,3.09,0,0,0-.41,1.61,1.57,1.57,0,0,1-.3,1.36c-1.08,1-1.13,2.26-1.27,3.55-.23,2-1.65,3.54-2.32,5.4a24.66,24.66,0,0,0-1.25,3.5c-.59,3.11-2.17,5.8-3.52,8.61A22.2,22.2,0,0,0,64,182c-.89,1.58-1.43,3.31-2.41,4.9s-1.47,3.41-2.3,5c-1.12,2.22-1.41,5.05-4.1,6.26-1.15.64-2.35.33-3.56.38a17.2,17.2,0,0,0-5.6.66,5.52,5.52,0,0,1-2.29.13,12.47,12.47,0,0,0-3.47.29c-1.92.52-3.8.24-5.68.24a1.43,1.43,0,0,1-1.07-2.45c1.24-1.31,1.95-3,3.27-4.23a6.57,6.57,0,0,0,1-1.68c1.4-2.58,2.55-5.3,3.81-7.94,1.13-2.38,2.68-4.73,3.11-7.33.5-3,2.1-5.6,2.61-8.5a59.44,59.44,0,0,1,1.89-6.59,70.21,70.21,0,0,1,1.94-6.78,9.21,9.21,0,0,0,.76-3.59c0-.13,0-.31,0-.38,1.38-1.58.81-3.69,1.52-5.46s.73-3.53,1.52-5.17c1.06-2.21.58-4.8,1.73-7,.57-1.06,0-2.21.21-3.32.48-2.12,1-4.24,1.56-6.34.66-2.4.89-4.9,1.42-7.35a47.51,47.51,0,0,1,1.11-5A2.65,2.65,0,0,0,61,109a1.38,1.38,0,0,1,0-1,9.1,9.1,0,0,0,.63-3.85,11.77,11.77,0,0,1,.74-4.3,8.56,8.56,0,0,0,.74-3.36c0-1.67.81-3.14,1-4.74a21.37,21.37,0,0,0,.29-5.13c-.16-1.67.56-3.4.69-5.12.15-2,.61-4,.71-6.08a32.83,32.83,0,0,1,.72-5.83A40.15,40.15,0,0,0,67.77,62c.08-1.64.41-3.33.62-5,.5-4,1.5-7.84,1.82-11.79a32.75,32.75,0,0,0,.1-4.33c0-.83,0-1.62,1-1.84a1.58,1.58,0,0,1,2,1.17,5.89,5.89,0,0,1,.15,2.86c-.15,1.57-.36,3.14-.5,4.71-.23,2.47-.83,4.87-1.17,7.32s-1.08,4.93-1,7.36a15.83,15.83,0,0,1-.61,5.7c-.87,2.34,0,4.87-1.26,7.06a.63.63,0,0,0-.06.38c.56,3.39-1,6.52-1.24,9.8-.13,1.5.17,3,0,4.49-.32,2.31-1.26,4.52-1.28,6.83s-1.35,4-1.29,6.14A34.73,34.73,0,0,1,64,111c-.57,2.66-.6,5.45-1.72,8-.61,1.38-.33,2.9-.55,4.34-.27,1.77-1.22,3.27-1.46,5a29.25,29.25,0,0,1-.32,3.56c-1,3.6-1.42,7.32-2.64,10.89-.53,1.55-1.5,3.22-1.11,5.08A2.16,2.16,0,0,1,56,149a26.2,26.2,0,0,0-1.54,6.14c-.13,1-1.14,1.88-1.13,3.08,0,1.64-1,3.09-1,4.75a8,8,0,0,1-.93,2.56c-.52,1.45-.16,3.26-1.57,4.38a1.23,1.23,0,0,0-.32,1,4.36,4.36,0,0,1-1.16,3.33A1.14,1.14,0,0,0,48,175c.31,2.48-1.34,4.31-2.12,6.42-.37,1-1.1,1.87-1.07,3a1,1,0,0,1-.22.6c-2,2.51-2.81,5.63-4.3,8.4a6,6,0,0,1-1.6,2.34c-.3.21-.51.56-.27.89s.53.05.79-.11a2.34,2.34,0,0,1,2.1-.29,1.28,1.28,0,0,0,1-.11c.23-.11.55-.29.73-.22,1.89.78,3.68-.39,5.55-.23a12,12,0,0,0,2.43-.29,2.46,2.46,0,0,1,1-.11c1.72.6,2.42-.26,3.08-1.74,1.05-2.33,2.16-4.63,3-7,.52-1.5,1.67-2.67,2.33-4.14s1.23-3.22,1.91-4.79,1.47-2.83,2.16-4.25a29.52,29.52,0,0,0,2.27-6.2A27.36,27.36,0,0,1,70,159.63a3.26,3.26,0,0,0,.36-1.62,4.89,4.89,0,0,1,1.19-3.35c.61-.64.21-1.5.55-2.22,1-2.17,1.47-4.53,2.34-6.77.45-1.17.54-2.64,1.08-3.87,1-2.29.92-4.94,2.09-7.08,1-1.77,1.07-3.7,1.87-5.45a9.12,9.12,0,0,0,.79-3.91,14.11,14.11,0,0,1,1.32-4.9,7.87,7.87,0,0,0,.32-1.89,32.38,32.38,0,0,1,1.48-5.22c.58-2,.38-4,1-6,.76-2.32,1.07-4.79,2-7.06A2.08,2.08,0,0,0,86.71,99c-.42-1.45.34-2.68.58-4,.38-2.16.92-4.27,1.28-6.43.29-1.76.18-3.61,1.18-5.22a1.28,1.28,0,0,0,.14-.75c-.35-3.1,1-5.94,1.38-8.92,0-.09.08-.17.07-.25-.25-3,1.18-5.86,1.2-8.91a34.94,34.94,0,0,1,.86-4.67c.23-1.57.37-3.13.54-4.69.15-1.39-.21-2.92.56-4.25a1.27,1.27,0,0,0,.1-.75c-.26-2.06.56-4,.63-6,.09-2.91,1.08-5.7,1.13-8.6a9.27,9.27,0,0,1,.08-2.68C96.92,31.26,97.43,30.93,99,31.27Z" style="fill:#f64a02"/><path d="M29.23,242.3c-.48,3.25.64,6.48.69,9.77,0,2.88.21,5.76.15,8.66a100.62,100.62,0,0,0,.46,11c.09,1.12.27,2.27.41,3.4a5.76,5.76,0,0,1-.05,2.19,2.27,2.27,0,0,0,.21,2.11.69.69,0,0,1,.17.48c-.56,1.91.27,3.78.17,5.68a25.62,25.62,0,0,0,.33,3c.11,1.74-.68,3.5.21,5.22a3.6,3.6,0,0,1-.05,2.05,28.52,28.52,0,0,0,.12,6.33c.13,1.43.7,2.79.57,4.26a10,10,0,0,0,.15,2.83,6.47,6.47,0,0,1-.09,3.09,4.26,4.26,0,0,0-.12,2.55c.92,2.86.15,5.82.55,8.71a20.57,20.57,0,0,1,.06,6.07,14.93,14.93,0,0,0,.36,4.23,69.49,69.49,0,0,1,.29,10.1c0,1.63-.2,3.25-.13,4.86s0,3.25.15,4.88a94,94,0,0,1,0,10.21c0,1.77-.31,3.64.25,5.48a6.83,6.83,0,0,1-.32,4.22,2,2,0,0,0,.07,1.76,3.36,3.36,0,0,1,.23,2.9c-.5,1.21,0,2.4-.24,3.44-.43,2.09.56,4.27-.56,6.27-.19.35-.07.85-.12,1.28a1.36,1.36,0,0,1-1.25,1.3,1.39,1.39,0,0,1-1.64-1,3.67,3.67,0,0,1,0-2.67c.11-.28.36-.6.3-.84-.5-1.94.31-3.9-.12-5.84-.06-.29-.21-.68-.09-.89.82-1.41.52-2.82.18-4.29a4.13,4.13,0,0,1,.33-2.55,3.85,3.85,0,0,0,.2-2.17c-.72-4-.24-7.94-.05-11.92a36.79,36.79,0,0,0-.27-5.44c-.21-2.1.08-4.21,0-6.29-.26-4.24.56-8.47-.3-12.74-.39-2-.89-4.18,0-6.27.31-.71-.06-1.47-.17-2.18-.31-1.92-.05-3.9-.62-5.79,0-.13-.1-.29-.05-.38,1-1.77-.15-3.45-.22-5.18a2.9,2.9,0,0,1,.07-1c.75-2.39.34-4.88,0-7.18a50.54,50.54,0,0,1-.64-8.83,18.12,18.12,0,0,0-.44-5.35c-.29-1,.62-2,.38-3.16-.11-.54,0-1.1-.42-1.58a1,1,0,0,1-.27-.71c.49-1.53-.54-3-.05-4.55a2.74,2.74,0,0,0-.16-2.11,4.25,4.25,0,0,1,0-2.57,8.42,8.42,0,0,0-.39-4.31,1.79,1.79,0,0,1-.17-.88,11,11,0,0,0,0-4.77,26.58,26.58,0,0,1-.08-4.37c0-3.31,0-6.63-.25-9.93a19.91,19.91,0,0,0-.7-5.37c-.44-1.16-.16-2.61-.08-3.93A7,7,0,0,0,26,241c-.62-1.75-.34-3.49-.24-5.25a1.48,1.48,0,0,1,2.93-.31,2.18,2.18,0,0,1,.16.89C28.44,238.31,29.15,240.24,29.23,242.3Z" style="fill:#f64a02"/><path d="M33.34,165.77c.37-1.51.7-3,1.12-4.52a15.33,15.33,0,0,0,.53-3.57,6.29,6.29,0,0,1,.95-3.58c.57-.79.32-1.78.29-2.66a8.54,8.54,0,0,1,.6-3.69A4.77,4.77,0,0,0,37,146a5.6,5.6,0,0,1,.53-2.52,2.85,2.85,0,0,0,.25-1.52,17.11,17.11,0,0,1,.65-5.72c.37-1.46.14-3.08.36-4.63a10.48,10.48,0,0,1,.25-2.31c.74-2,.71-4.12,1-6.17a16.28,16.28,0,0,0,.15-5.36c-.24-1.31.41-2.6.46-4,.06-1.77.71-3.49.49-5.33a7.35,7.35,0,0,1,.42-3.57,4.86,4.86,0,0,0,.14-3.07,3.36,3.36,0,0,1,.22-2.4,8.59,8.59,0,0,0,.43-4.73,14.89,14.89,0,0,1,0-4.52,9.49,9.49,0,0,0,.09-2.82c-.15-1.27.61-2.46.58-3.79a13.83,13.83,0,0,0,0-2,3.87,3.87,0,0,1,0-1.55c.58-2.25.19-4.51.25-6.77a26.41,26.41,0,0,1,.22-4.33,28.53,28.53,0,0,0,.29-6.6c-.06-1.67-.44-3.36.32-5,.39-.84,1-1.38,1.93-1.08a1.56,1.56,0,0,1,1,2,22.75,22.75,0,0,0,.06,7.18,16.36,16.36,0,0,1-.36,2.81c-.22,3.19-.07,6.39-.29,9.56-.18,2.7.07,5.45-.47,8.06-.38,1.83-.22,3.66-.66,5.46s.31,3.51.2,5.3a16.48,16.48,0,0,1-.66,4c-.39,1.26.26,2.54-.08,3.85a22.68,22.68,0,0,0-.45,6c0,2-.7,4-.71,6,0,1.84-.38,3.64-.37,5.45,0,.66-.05,1.28-.11,1.92-.31,3.41-1.35,6.69-1.58,10.11a24.57,24.57,0,0,1-.29,4.41c-.51,2.11-.59,4.35-.93,6.53a49.54,49.54,0,0,0-1.1,6.61c0,1.67.26,3.4-1,4.86a1.86,1.86,0,0,0-.29,1.24c.15,2.66-1.24,5.09-1.32,7.62-.11,3.4-2.11,6.34-1.9,9.74a.45.45,0,0,1,0,.26c-1.14,2.08-1.42,4.47-2.24,6.67A38.64,38.64,0,0,0,31,186.62a10.83,10.83,0,0,1-1.51,3.51A12.57,12.57,0,0,0,27.75,194a5.18,5.18,0,0,1-1.46,2.27,1.38,1.38,0,0,1-2,.2,1.45,1.45,0,0,1-.42-2c1.28-2.76,2.77-5.44,3.8-8.28.57-1.59,1.69-3,1.59-4.88,0-.52.43-.94.59-1.42.68-2,1.37-4.09,1.88-6.18.25-1,.36-2.11.66-3.15.46-1.58.74-3.2,1.1-4.8Z" style="fill:#f64a02"/><path d="M60.94,387.88a24.54,24.54,0,0,0,.3-5.47,29.93,29.93,0,0,0-.43-3.31c-.21-2-.52-4-.6-6-.11-2.85-.59-5.67-.58-8.55,0-1.1-.43-2.22,0-3.36a.84.84,0,0,0-.15-.73c-.94-1-.81-2.17-.65-3.41a17.43,17.43,0,0,0-.72-5.94,42.61,42.61,0,0,1-.91-8.18,18.46,18.46,0,0,0-.71-5.56,4.23,4.23,0,0,1-.21-1.53c.06-2.47-.46-4.88-.64-7.31-.16-2.08-1.18-4.07-.65-6.21a4.92,4.92,0,0,0-.28-2.17c-.53-2.63-.39-5.4-1.12-7.94-.58-2,.33-4.25-1.09-6.1a2.54,2.54,0,0,1-.34-1.62c.27-2.58-.69-5-.92-7.47-.35-3.69-1.42-7.28-1.26-11a13.81,13.81,0,0,0-.55-3.26c-.47-2.27-.49-4.59-1-6.86a37,37,0,0,1-.64-4.13c-.24-1.92-.73-3.88-1.09-5.82-.33-1.77-.74-3.53-1.07-5.29a3.75,3.75,0,0,1,.73-2.57,1.5,1.5,0,0,1,2.65,1c-.31,3.21.64,6.32,1.29,9.34.78,3.65,1.16,7.36,1.91,11a46.74,46.74,0,0,1,1,7.8,18.61,18.61,0,0,0,.63,5.37,8.65,8.65,0,0,1,.36,2.69c0,1.91,1,3.64,1.07,5.53,0,.17.21.35.18.48-.88,2.86,1,5.38,1,8.18,0,1.88.53,3.89.67,5.84.21,2.75,1,5.41,1.08,8.2a21,21,0,0,0,.74,5.34,15.53,15.53,0,0,1,.4,4.24,29.54,29.54,0,0,0,1,6.76,3.85,3.85,0,0,1,.09,1.55c-.42,2.82.36,5.57.64,8.33.17,1.79.73,3.61,1,5.44a6.22,6.22,0,0,1,0,1.67,3,3,0,0,0,.35,2.37,1.66,1.66,0,0,1,.3,1.11c-.28,1.82.66,3.6.12,5.43a1.64,1.64,0,0,0,.23,1.5,1.13,1.13,0,0,1,.28,1c-.44,1.44.45,2.87,0,4.32a1.9,1.9,0,0,0,0,1c.68,2.1.47,4.31.87,6.45a22.52,22.52,0,0,1,.06,6.61,25.38,25.38,0,0,0,.22,3.72c0,.56.1,1.12.13,1.68a1.45,1.45,0,0,1-1.35,1.62,1.41,1.41,0,0,1-1.68-1.29A37,37,0,0,0,60.94,387.88Z" style="fill:#f64a02"/></svg>