<svg id="Layer_1" data-name="Layer 1" xmlns="http://www.w3.org/2000/svg" viewBox="0 0 406.71 432.44"><path d="M0,194c.59-44.1,10.65-81.66,33.78-115.27a9.34,9.34,0,0,0,1.67-3c2.38-11,9.15-19.18,16.93-26.56,18-17.12,38.33-30.22,63.25-35.2C130.43,11,145,6.77,159.83,4.05c35.61-6.52,70.92-5.61,105.57,6C296,20.25,320.67,38.47,338.06,65.74c21.73,34.06,36,71.22,43.62,110.85,7.45,39-3,73.85-25.64,105.62-11.38,16-24.83,30-39.52,42.91-2.7,2.36-3.52,3.41.14,5.9,10.22,7,12.63,17.5,11.61,29.07-.69,7.79-2.08,15.52-2.75,23.31a58.82,58.82,0,0,0,.32,12.44c2,15.58,12.7,24.39,28.32,23.07,7.79-.65,15.5-2.19,23.26-3.18,8.86-1.14,17.57-.76,26.08,2.47,2.85,1.09,3.91,2,2.74,5.28-3,8.51-2.76,7.95-11.36,6.47-6.27-1.09-12.89-.62-19.31-.18s-12.83,2.08-19.29,2.53C330.52,434.08,313,418.75,312,392.83c-.37-9.56,1.44-19.2,2.19-28.8a80.45,80.45,0,0,0,.52-10.95c-.41-7.08-5.17-12.48-12-14.27-2.43-.64-9.4,3.86-11.77,7.07s-4.64,6.72-7.79,8.9c-21.34,14.82-44.94,23.88-71,25.47-6,.36-12.23-2.3-18.4-3.21-7.38-1.1-14.83-1.77-22.24-2.72-36.36-4.68-70.64-15.21-100.52-37.2-40.5-29.79-62.25-70.63-69-119.89C.71,208.34.43,199.33,0,194ZM117,27c-4.78,1.47-8.56,2.76-12.41,3.78-3.19.84-4,2.58-3.5,5.79,3.36,19.84,5.38,40,10,59.51,23.41,98.38,72,182,148.48,248.74,6.71,5.86,6.69,5.68,14.12.39,2.86-2,2.6-3.2.21-5.47-8-7.57-16-15.14-23.42-23.19-30.87-33.29-54.87-71.43-77.64-110.48a425.41,425.41,0,0,1-44.22-105.54A316.53,316.53,0,0,1,118.07,31.6,25.26,25.26,0,0,0,117,27ZM87.17,39.33c-3.4,2.25-6.19,4.42-9.25,6.05-4.67,2.49-5.54,6-4.9,11A459.68,459.68,0,0,0,99.86,164.7c29.05,75.56,73.05,140.6,135.81,192.41,3.71,3.06,6.79,3.74,11.15,1.7,5.37-2.5,5.48-2.18,1.09-6.09C165.73,279.43,115.39,188.08,93.83,80.51,91.32,68,90,55.18,88.05,42.51A30.14,30.14,0,0,0,87.17,39.33ZM210.34,367.24c3-.32,6-.56,8.92-1a26.22,26.22,0,0,0,4.05-1.32c-.91-.93-1.75-1.94-2.73-2.79-83.13-72.68-133.71-164-155.8-271.71C63,81.94,62,73.32,60.54,64.8a4.44,4.44,0,0,0-2-2.33C53.75,65.1,48.51,76.4,49.45,81.86S51.26,93,52.38,98.58c20.75,102.62,69.41,189.94,144.13,263A18.31,18.31,0,0,0,210.34,367.24Zm22.21-121.87A344.53,344.53,0,0,0,364.89,226c1.65-.57,3.48-3.2,3.64-5,.8-8.93,1-17.9,1.54-26.85.27-4.34-.87-5.07-5.28-3.72-21.62,6.62-43.35,12.89-65.11,19-7,2-14,3.22-20.29,7.63-10.21,7.14-21.12,13.28-31.81,19.73C242.65,239.81,237.57,242.53,232.55,245.37Zm4.65-134.93c-6.13.46-16.91,1.32-27.69,2-16.82,1.13-31.81,6.35-43.59,19-1.23,1.34-2.79,2.37-4.12,3.63-6.87,6.55-6.34,3.45-3,12.68,1.38,3.87,2.67,4.54,6.59,2.63,30-14.66,61.92-22.05,95.3-23a234.5,234.5,0,0,1,88.11,14.39c1.33.49,3.44.59,4.42-.15,1.55-1.17,3.68-3.54,3.34-4.79a8.74,8.74,0,0,0-4.6-5C316.67,117.53,279.82,111.21,237.2,110.44Zm3.73-46c8.44.7,20.42,1.62,31.9-3.09.9-.37,1.79-.78,2.68-1.17A14.14,14.14,0,0,0,273.16,58a115,115,0,0,0-43.78-14.49c-31.48-4-62.44.51-93.32,6.11-2.62.47-3.07,1.75-2.64,4.18,1.5,8.51,3,17,4.11,25.62.59,4.72,2.14,5,6.31,3.4A277,277,0,0,1,240.93,64.48Zm72.6,111.91-.59-.79c-16.94.88-33.89,2.62-50.82,2.45-28.77-.29-57.53-1.72-86.3-2.82-3.62-.14-4.51.37-2.53,3.79,4.6,7.9,9.13,15.86,13.43,23.93,1.62,3.06,3.62,4.07,7.07,4.07a497.44,497.44,0,0,0,77.57-5.93c3.77-.59,8.15-.5,11.1-2.46C293.08,191.62,303.21,183.86,313.53,176.39ZM175.38,160l.36,1.34c1.11.2,2.22.51,3.34.6,50.54,3.89,101,4.56,151.35-2.86a17.67,17.67,0,0,0,6-2.06c1.29-.73,2.1-2.3,3.13-3.5a36.94,36.94,0,0,0-4-1.81c-42.35-13.4-85-14.39-127.82-2.59C196.77,152.12,186.15,156.33,175.38,160ZM36.72,279.74l.82-.42c-1.73-11.65-3.83-23.25-5.11-34.95C29,212.52,28.89,180.62,39.27,150c4.77-14,6.3-27,1.49-40.81-.76-2.18-.94-4.55-1.5-6.81-.34-1.35-.89-2.65-1.34-4a28,28,0,0,0-2.5,3.5C9.59,152.79,6.47,205,26.66,258.34,29.44,265.69,33.34,272.62,36.72,279.74Zm94-250.49c1.16,7.29,1.14,7.12,7.47,6.28,17.31-2.3,34.58-5.19,52-6.48,37.09-2.76,72.41,2.57,103.12,25.87a8.23,8.23,0,0,0,5,1.11,84,84,0,0,0,8.88-1.28c1.1-.18,2.19-.5,3.28-.75a18.93,18.93,0,0,0-2.12-3.11,120.19,120.19,0,0,0-45.83-27.5C219.91,9,177.35,11.28,134.94,24.2,133.17,24.74,132.09,27.52,130.68,29.25ZM52.13,154.9l-1.44,0c-1.92,12.25-4.5,24.45-5.63,36.78C41.57,230,47.91,267.2,58.06,304c1.95,7.07,7.32,10.34,12.22,15.1a9.16,9.16,0,0,0,.29-1.33c-7.65-39.16-10.63-78.43-2.78-118a7.58,7.58,0,0,0-.21-3.9C62.49,182.23,57.3,168.57,52.13,154.9ZM248.87,259.56c-7.65,0-15.31,0-23,.05-.87,0-2.46.62-2.49,1-.15,2.38,7.9,10.53,10.54,10.85,38.36,4.61,75.61-.69,112.36-11.89,7.63-2.33,12.59-6,14.66-13.58.38-1.38.8-2.74,1.21-4.11a34.84,34.84,0,0,0-4.24.79A365.79,365.79,0,0,1,248.87,259.56Zm-32.7-161.7a14.44,14.44,0,0,0,2,.25c42.42-3.18,83.74,2.31,124.1,15.53,1.84.61,3.77.94,5.66,1.4a42.49,42.49,0,0,0-2.66-6.7c-.69-1.16-2.33-1.8-3.62-2.55a201.57,201.57,0,0,0-50.06-20.92c-27.87-7.44-31.55-7.21-58.07,4.36-4.88,2.13-9.64,4.53-14.44,6.83C218.27,96.47,217.51,97,216.17,97.86ZM78.23,220.91c-.25,2.6-.37,3.75-.47,4.89-2.86,33.12.89,65.69,7.88,98,1.26,5.86,3.51,10.14,9.16,12.33,1.77.68,3.54,1.39,5.31,2.09-.2-1.79-.28-3.59-.62-5.35-3.8-20.07-5.85-40.35-1.2-60.39,1.87-8,.73-14-3.39-20.72C89.05,242.23,84.18,232.06,78.23,220.91Zm266.29,54.86c-19.35,3.29-38.2,7.26-57.26,9.5-13.46,1.58-27.2.79-40.81,1.1a18.07,18.07,0,0,0-3.12.6,21.08,21.08,0,0,0,1.54,2.45c3,3.58,5.88,7.24,9.08,10.61a7.66,7.66,0,0,0,4.58,2.3,288.59,288.59,0,0,0,62.17-2.23A7.69,7.69,0,0,0,325,298C331.67,290.63,338.15,283.07,344.52,275.77ZM220.66,79.84c-.76-.38-1-.64-1.27-.63-26,1.93-50.81,8.55-74.94,18-.92.36-1.77,2.9-1.45,4.1,1.84,6.91,4.18,13.68,6.07,20.58,1.09,4,2.17,4.59,5.54,1.59A274,274,0,0,1,215.8,82.46C217.35,81.69,218.86,80.81,220.66,79.84ZM111.05,279.32a19.6,19.6,0,0,0-.74,2.53c-.21,1.47-.36,3-.46,4.45-1.12,16.88.91,33.45,3.94,50,1.48,8.13,5.08,12.54,13.09,14.19,3.39.7,4.19.71,3.86-3.08-1.21-13.72-2-27.48-3.07-41.21a10,10,0,0,0-1.21-4.66C121.58,294.29,116.49,287.13,111.05,279.32Zm206.24-88.07c1.74-.4,3.2-.64,4.59-1.07,9.68-3,19.4-5.83,29-9.05,5.61-1.89,11-4.4,16.51-6.63q-2.11-9.19-4.22-18.38c0-.17-.13-.32-.16-.48-.47-2.76-1.51-2.75-3.5-1C345.63,166.75,331.69,178.78,317.29,191.25Zm-65,27.59-.35-.72c-17.1.79-34.19,1.62-51.29,2.29-2.74.11-3.24.7-1.75,3,3.41,5.33,6.62,10.77,10.14,16a3.65,3.65,0,0,0,3.44.87C225.84,233.27,239.07,226,252.32,218.84Zm-75.79,142.9c-11.49-13.24-22.22-25.59-33-37.94a4.73,4.73,0,0,0-1.17-.73,6.37,6.37,0,0,0-.54,2.13c1.1,9.38,2.2,18.77,3.54,28.12a4.27,4.27,0,0,0,2.59,2.94C157.18,358.18,166.42,359.84,176.53,361.74Zm129.69-45.19c-11.42,0-22.21,0-33,0a14.42,14.42,0,0,0-2.72.55,13.63,13.63,0,0,0,1.6,2.32c3.82,3.7,7.63,7.42,11.64,10.9.8.7,2.92,1,3.69.42C293.73,326.22,299.85,321.42,306.22,316.55ZM293.36,70.4l41.39,15.37c-4-6.13-7.43-11.74-11.28-17.06-.78-1.08-3.14-1.61-4.68-1.46C310.73,68.08,302.7,69.21,293.36,70.4Z" style="fill:#ff7bac"/><path d="M117,27a25.26,25.26,0,0,1,1.09,4.58,316.53,316.53,0,0,0,10.56,68.95,425.41,425.41,0,0,0,44.22,105.54c22.77,39,46.77,77.19,77.64,110.48,7.47,8.05,15.46,15.62,23.42,23.19,2.39,2.27,2.65,3.43-.21,5.47-7.43,5.29-7.41,5.47-14.12-.39C183.05,278.08,134.51,194.48,111.1,96.1c-4.65-19.52-6.67-39.67-10-59.51-.54-3.21.31-5,3.5-5.79C108.42,29.78,112.2,28.49,117,27Z" style="fill:#ffa8d2"/><path d="M87.17,39.33a30.14,30.14,0,0,1,.88,3.18C90,55.18,91.32,68,93.83,80.51c21.56,107.57,71.9,198.92,154.08,272.21,4.39,3.91,4.28,3.59-1.09,6.09-4.36,2-7.44,1.36-11.15-1.7C172.91,305.3,128.91,240.26,99.86,164.7A459.68,459.68,0,0,1,73,56.43c-.64-5.09.23-8.56,4.9-11C81,43.75,83.77,41.58,87.17,39.33Z" style="fill:#ffa8d2"/><path d="M210.34,367.24a18.31,18.31,0,0,1-13.83-5.65C121.79,288.52,73.13,201.2,52.38,98.58c-1.12-5.54-2-11.14-2.93-16.72s4.3-16.76,9.13-19.39a4.44,4.44,0,0,1,2,2.33C62,73.32,63,81.94,64.78,90.41c22.09,107.67,72.67,199,155.8,271.71,1,.85,1.82,1.86,2.73,2.79a26.22,26.22,0,0,1-4.05,1.32C216.31,366.68,213.32,366.92,210.34,367.24Z" style="fill:#ffa8d2"/><path d="M232.55,245.37c5-2.84,10.1-5.56,15-8.54,10.69-6.45,21.6-12.59,31.81-19.73,6.31-4.41,13.28-5.66,20.29-7.63,21.76-6.13,43.49-12.4,65.11-19,4.41-1.35,5.55-.62,5.28,3.72-.54,9-.74,17.92-1.54,26.85-.16,1.82-2,4.45-3.64,5A344.53,344.53,0,0,1,232.55,245.37Z" style="fill:#ffa8d2"/><path d="M237.2,110.44c42.62.77,79.47,7.09,114.74,21.43a8.74,8.74,0,0,1,4.6,5c.34,1.25-1.79,3.62-3.34,4.79-1,.74-3.09.64-4.42.15a234.5,234.5,0,0,0-88.11-14.39c-33.38.93-65.25,8.32-95.3,23-3.92,1.91-5.21,1.24-6.59-2.63-3.32-9.23-3.85-6.13,3-12.68,1.33-1.26,2.89-2.29,4.12-3.63,11.78-12.66,26.77-17.88,43.59-19C220.29,111.76,231.07,110.9,237.2,110.44Z" style="fill:#ffa8d2"/><path d="M240.93,64.48a277,277,0,0,0-97.09,18.38c-4.17,1.58-5.72,1.32-6.31-3.4-1.07-8.58-2.61-17.11-4.11-25.62-.43-2.43,0-3.71,2.64-4.18,30.88-5.6,61.84-10.1,93.32-6.11A115,115,0,0,1,273.16,58a14.14,14.14,0,0,1,2.35,2.18c-.89.39-1.78.8-2.68,1.17C261.35,66.1,249.37,65.18,240.93,64.48Z" style="fill:#ffa8d2"/><path d="M313.53,176.39c-10.32,7.47-20.45,15.23-31.07,22.24-2.95,2-7.33,1.87-11.1,2.46A497.44,497.44,0,0,1,193.79,207c-3.45,0-5.45-1-7.07-4.07-4.3-8.07-8.83-16-13.43-23.93-2-3.42-1.09-3.93,2.53-3.79,28.77,1.1,57.53,2.53,86.3,2.82,16.93.17,33.88-1.57,50.82-2.45Z" style="fill:#ffa8d2"/><path d="M175.38,160c10.77-3.66,21.39-7.87,32.34-10.88,42.81-11.8,85.47-10.81,127.82,2.59a36.94,36.94,0,0,1,4,1.81c-1,1.2-1.84,2.77-3.13,3.5a17.67,17.67,0,0,1-6,2.06c-50.32,7.42-100.81,6.75-151.35,2.86-1.12-.09-2.23-.4-3.34-.6Z" style="fill:#ffa8d2"/><path d="M36.72,279.74c-3.38-7.12-7.28-14.05-10.06-21.4C6.47,205,9.59,152.79,35.42,101.94a28,28,0,0,1,2.5-3.5c.45,1.32,1,2.62,1.34,4,.56,2.26.74,4.63,1.5,6.81C45.57,123.05,44,136,39.27,150,28.89,180.62,29,212.52,32.43,244.37c1.28,11.7,3.38,23.3,5.11,34.95Z" style="fill:#ffa8d2"/><path d="M130.68,29.25c1.41-1.73,2.49-4.51,4.26-5.05,42.41-12.92,85-15.2,127.54-.81a120.19,120.19,0,0,1,45.83,27.5A18.93,18.93,0,0,1,310.43,54c-1.09.25-2.18.57-3.28.75A84,84,0,0,1,298.27,56a8.23,8.23,0,0,1-5-1.11c-30.71-23.3-66-28.63-103.12-25.87-17.38,1.29-34.65,4.18-52,6.48C131.82,36.37,131.84,36.54,130.68,29.25Z" style="fill:#ffa8d2"/><path d="M52.13,154.9c5.17,13.67,10.36,27.33,15.45,41a7.58,7.58,0,0,1,.21,3.9c-7.85,39.53-4.87,78.8,2.78,118a9.16,9.16,0,0,1-.29,1.33c-4.9-4.76-10.27-8-12.22-15.1C47.91,267.2,41.57,230,45.06,191.64c1.13-12.33,3.71-24.53,5.63-36.78Z" style="fill:#ffa8d2"/><path d="M248.87,259.56A365.79,365.79,0,0,0,358,242.7a34.84,34.84,0,0,1,4.24-.79c-.41,1.37-.83,2.73-1.21,4.11-2.07,7.59-7,11.25-14.66,13.58-36.75,11.2-74,16.5-112.36,11.89-2.64-.32-10.69-8.47-10.54-10.85,0-.41,1.62-1,2.49-1C233.56,259.53,241.22,259.56,248.87,259.56Z" style="fill:#ffa8d2"/><path d="M216.17,97.86c1.34-.83,2.1-1.39,2.94-1.8,4.8-2.3,9.56-4.7,14.44-6.83,26.52-11.57,30.2-11.8,58.07-4.36a201.57,201.57,0,0,1,50.06,20.92c1.29.75,2.93,1.39,3.62,2.55A42.49,42.49,0,0,1,348,115c-1.89-.46-3.82-.79-5.66-1.4-40.36-13.22-81.68-18.71-124.1-15.53A14.44,14.44,0,0,1,216.17,97.86Z" style="fill:#ffa8d2"/><path d="M78.23,220.91c6,11.15,10.82,21.32,16.67,30.89,4.12,6.71,5.26,12.68,3.39,20.72-4.65,20-2.6,40.32,1.2,60.39.34,1.76.42,3.56.62,5.35-1.77-.7-3.54-1.41-5.31-2.09-5.65-2.19-7.9-6.47-9.16-12.33-7-32.35-10.74-64.92-7.88-98C77.86,224.66,78,223.51,78.23,220.91Z" style="fill:#ffa8d2"/><path d="M344.52,275.77c-6.37,7.3-12.85,14.86-19.5,22.24a7.69,7.69,0,0,1-4.32,2.09,288.59,288.59,0,0,1-62.17,2.23A7.66,7.66,0,0,1,254,300c-3.2-3.37-6.1-7-9.08-10.61a21.08,21.08,0,0,1-1.54-2.45,18.07,18.07,0,0,1,3.12-.6c13.61-.31,27.35.48,40.81-1.1C306.32,283,325.17,279.06,344.52,275.77Z" style="fill:#ffa8d2"/><path d="M220.66,79.84c-1.8,1-3.31,1.85-4.86,2.62a274,274,0,0,0-61.19,41.05c-3.37,3-4.45,2.38-5.54-1.59-1.89-6.9-4.23-13.67-6.07-20.58-.32-1.2.53-3.74,1.45-4.1,24.13-9.48,49-16.1,74.94-18C219.63,79.2,219.9,79.46,220.66,79.84Z" style="fill:#ffa8d2"/><path d="M111.05,279.32c5.44,7.81,10.53,15,15.41,22.26a10,10,0,0,1,1.21,4.66c1,13.73,1.86,27.49,3.07,41.21.33,3.79-.47,3.78-3.86,3.08-8-1.65-11.61-6.06-13.09-14.19-3-16.59-5.06-33.16-3.94-50,.1-1.49.25-3,.46-4.45A19.6,19.6,0,0,1,111.05,279.32Z" style="fill:#ffa8d2"/><path d="M317.29,191.25c14.4-12.47,28.34-24.5,42.21-36.61,2-1.75,3-1.76,3.5,1,0,.16.12.31.16.48q2.11,9.18,4.22,18.38c-5.5,2.23-10.9,4.74-16.51,6.63-9.59,3.22-19.31,6.07-29,9.05C320.49,190.61,319,190.85,317.29,191.25Z" style="fill:#ffa8d2"/><path d="M252.32,218.84c-13.25,7.19-26.48,14.43-39.81,21.5a3.65,3.65,0,0,1-3.44-.87c-3.52-5.25-6.73-10.69-10.14-16-1.49-2.34-1-2.93,1.75-3,17.1-.67,34.19-1.5,51.29-2.29Z" style="fill:#ffa8d2"/><path d="M176.53,361.74c-10.11-1.9-19.35-3.56-28.54-5.48a4.27,4.27,0,0,1-2.59-2.94c-1.34-9.35-2.44-18.74-3.54-28.12a6.37,6.37,0,0,1,.54-2.13,4.73,4.73,0,0,1,1.17.73C154.31,336.15,165,348.5,176.53,361.74Z" style="fill:#ffa8d2"/><path d="M306.22,316.55c-6.37,4.87-12.49,9.67-18.78,14.21-.77.56-2.89.28-3.69-.42-4-3.48-7.82-7.2-11.64-10.9a13.63,13.63,0,0,1-1.6-2.32,14.42,14.42,0,0,1,2.72-.55C284,316.54,294.8,316.55,306.22,316.55Z" style="fill:#ffa8d2"/><path d="M293.36,70.4c9.34-1.19,17.37-2.32,25.43-3.15,1.54-.15,3.9.38,4.68,1.46,3.85,5.32,7.29,10.93,11.28,17.06Z" style="fill:#ffa8d2"/></svg>