<?xml version="1.0" encoding="utf-8"?>
<!-- Generator: Adobe Illustrator 26.2.1, SVG Export Plug-In . SVG Version: 6.00 Build 0)  -->
<svg version="1.1" id="Layer_1" xmlns="http://www.w3.org/2000/svg" xmlns:xlink="http://www.w3.org/1999/xlink" x="0px" y="0px"
	 viewBox="0 0 500 500" style="enable-background:new 0 0 500 500;" xml:space="preserve">
<style type="text/css">
	.st0{fill:#F6EDF1;}
	.st1{fill:#F196B2;}
	.st2{fill:#EFB2BC;}
	.st3{fill:#CBCBCB;}
	.st4{fill:#D35878;}
	.st5{fill:#B3B3B3;}
</style>
<g>
	<path class="st0" d="M139.65,0C255.07,0,370.5,0,485.92,0c0,16.42-0.01,32.83,0.02,49.25c0.01,2.9-0.38,6.01,2.98,7.63
		c0,1.66,0,3.33,0,4.99c-3.16,1.66-3.16,3.33,0,4.99c0,1,0,2,0,2.99c-3.43,1.02-1.93,3.88-1.93,5.88
		c-0.08,112.37-0.06,224.74-0.1,337.1c0,2.24,0.73,4.69-1.68,7.31c-11.69,0-23.95,0-36.21,0c3.33-9.16,6.7-18.31,9.96-27.49
		c0.8-2.25,1.85-4.6,0.28-7.29c-3.05,0.84-5.16,2.97-7.54,4.67c-7.58,5.41-12.99,13.24-20.7,18.51c0-25.41,0.01-50.82,0.01-76.23
		c10.55,0,21.1,0,31.55,0c0-102.61,0-204.27,0-306.01c-35.55,0-70.68,0-106.23,0c2.92,15.45,2.32,30.99,7.81,45.53
		c-8.33,0-16.67,0.01-25,0.01c-1.43-10.45-2.86-20.9-4.34-31.68c-9.64,1.26-18.97,2.51-28.3,3.69c-16.9,2.15-33.81,4.23-50.71,6.39
		c-16.9,2.16-33.78,4.44-50.68,6.58c-17.23,2.18-34.49,4.2-51.72,6.37c-20.51,2.58-41.02,5.25-61.52,7.87
		c-2.73,0.51-5.46,1.02-8.19,1.54c-14.98,1.2-29.79,3.62-44.66,5.6c0,3.02-0.27,5.53,0.04,7.96c3.87,30.2,7.82,60.4,11.77,90.59
		c2.23,17.06,4.58,34.11,6.75,51.19c2.16,16.91,4.12,33.84,6.26,50.76c2.16,17.07,4.45,34.13,6.64,51.2
		c1.47,11.49,2.87,22.99,4.3,34.49c-8.2-2.89-16.49-3.88-24.97-1.23c-0.03-13.78-2.98-27.24-4.53-40.86
		c-1.3-11.48-2.98-22.92-4.43-34.38c-1.8-14.25-3.46-28.52-5.29-42.77c-1.83-14.24-3.86-28.46-5.67-42.7
		c-1.81-14.25-3.39-28.53-5.22-42.78c-1.83-14.24-3.88-28.46-5.76-42.69c-1.99-15.05-4.12-30.09-5.7-45.19
		c-0.49-4.73-2.52-9.24-2.08-15.04c42.68-5.49,85.29-10.96,128.5-16.52C139.65,26.52,139.65,13.26,139.65,0z M164.12,37.24
		c29.59-3.76,58.9-7.49,88.21-11.22c-0.03-0.16-0.07-0.32-0.1-0.47c-29.3,0-58.6,0-88.21,0C163.56,29.46,163.42,32.85,164.12,37.24z
		"/>
	<path class="st1" d="M381.14,500c0.43-2.7,0.86-5.41,1.29-8.11c5.51-13.96,11.11-27.88,16.44-41.91c1.12-2.96-0.26-5.79-2.5-8.12
		c-7.11-7.37-14.38-14.62-21.16-22.3c-4.42-5.01-9.65-9.54-12.02-16.12c2.98-0.55,5.97-0.22,8.95,0.03
		c0.23,1.12,1.05,1.49,2.05,1.88c5.42,2.08,10.74,4.43,16.21,6.36c8.87,3.13,17.36,7.38,26.39,9.58
		c5.56-3.73,10.07-8.04,14.22-12.75c7.71-5.26,13.11-13.1,20.7-18.51c2.38-1.7,4.5-3.83,7.54-4.67c1.56,2.69,0.51,5.05-0.28,7.29
		c-3.26,9.19-6.63,18.33-9.96,27.49c-2.71,5.85-5.2,11.77-6.97,18.11c10.87,15.33,26.53,26.49,36.94,43.43
		c-6.21,0.31-10.57-1.65-14.97-3.29c-11.04-4.13-22.04-8.37-33.06-12.56c-4.4-2.94-7.81-1.45-11.26,2.01
		c-5.67,5.7-11.64,11.11-17.53,16.6c-2.48,2.31-5.96,3.62-7.11,7.24c-3.97,2.33-7.68,5-10.9,8.32C383.14,500,382.14,500,381.14,500z
		"/>
	<path class="st2" d="M431,408.55c-4.15,4.71-8.65,9.02-14.22,12.75c-9.04-2.19-17.52-6.45-26.39-9.58
		c-5.47-1.93-10.79-4.28-16.21-6.36c-1-0.38-1.82-0.76-2.05-1.88c11.57,0,23.15,0,34.71,0c0-102.71,0-204.69,0-306.6
		c-99.57,0-198.77,0-298.5,0c0,81.33,0,162.42,0,243.51c-10.85,3.57-18.79,10.44-23.57,20.87c-0.32-27.73-0.85-55.45-0.91-83.18
		c-0.17-68.49-0.13-136.97-0.17-205.46c2.73-0.51,5.46-1.02,8.19-1.54c1.43,1.24,3.17,0.78,4.79,0.78
		c80.83,0.01,161.66,0,242.49-0.01c8.33,0,16.67-0.01,25-0.01c21.85,0,43.7,0,65.53,0c2.32,87.5,0.98,174,1.33,260.48
		C431.01,357.72,431.01,383.14,431,408.55z"/>
	<path class="st3" d="M431.01,332.31c-0.36-86.48,0.99-172.97-1.33-260.48c-21.83,0-43.68,0-65.53,0
		c-5.49-14.55-4.89-30.09-7.81-45.53c35.55,0,70.67,0,106.23,0c0,101.74,0,203.4,0,306.01
		C452.11,332.31,441.56,332.31,431.01,332.31z"/>
	<path class="st4" d="M84.77,361.26c4.78-10.43,12.72-17.29,23.57-20.87c1.98-0.07,3.96-0.14,5.94-0.2
		c11.16-0.37,20.2,3.96,26.45,13.1c6.26,9.16,8.5,19.58,8.19,30.68c-0.19,6.77-3.27,12.77-4.31,19.28c0.04,0.21-0.04,0.37-0.23,0.48
		c-0.35-0.06-0.56,0.09-0.62,0.46c-8.94,17.36-17.88,34.73-27.01,52.46c-10.95-3.89-21.52-7.64-32.08-11.4
		c-8.25-3.13-16.49-6.26-24.74-9.39c-11.26-5.52-20.38-13.03-26.32-24.55c-10.31-20.01-3.94-40.01,16.2-48.12
		c8.47-2.65,16.77-1.66,24.97,1.23c2.44,1.51,4.88,3.02,7.63,4.72C83.29,366.19,84.03,363.72,84.77,361.26z"/>
	<path class="st5" d="M84.77,361.26c-0.74,2.47-1.48,4.93-2.35,7.87c-2.75-1.7-5.19-3.21-7.63-4.72c-1.43-11.5-2.82-23-4.3-34.49
		c-2.19-17.07-4.48-34.13-6.64-51.2c-2.14-16.91-4.1-33.85-6.26-50.76c-2.18-17.07-4.52-34.12-6.75-51.19
		c-3.95-30.19-7.9-60.39-11.77-90.59c-0.31-2.43-0.04-4.94-0.04-7.96c14.87-1.97,29.68-4.4,44.66-5.6
		c0.04,68.48,0,136.97,0.17,205.46C83.92,305.81,84.45,333.53,84.77,361.26z"/>
	<path class="st5" d="M339.15,71.85c-80.83,0.01-161.66,0.02-242.49,0.01c-1.62,0-3.35,0.45-4.79-0.78
		c20.51-2.63,41.01-5.29,61.52-7.87c17.23-2.17,34.49-4.19,51.72-6.37c16.9-2.14,33.78-4.42,50.68-6.58
		c16.9-2.16,33.81-4.25,50.71-6.39c9.33-1.19,18.66-2.43,28.3-3.69C336.29,50.95,337.72,61.4,339.15,71.85z"/>
	<path class="st3" d="M164.12,37.24c-0.7-4.39-0.56-7.78-0.11-11.7c29.61,0,58.91,0,88.21,0c0.03,0.16,0.07,0.32,0.1,0.47
		C223.02,29.75,193.71,33.48,164.12,37.24z"/>
	<path class="st2" d="M84.68,445.24c10.56,3.75,21.13,7.51,32.08,11.4c9.13-17.73,18.07-35.1,27.01-52.46
		c0.29-0.06,0.49-0.21,0.62-0.46c0.19-0.1,0.27-0.26,0.23-0.48c67.55,0.02,135.1,0.04,202.65,0.07c5.31,0,10.62,0.09,15.92,0.14
		c2.38,6.58,7.6,11.11,12.02,16.12c6.77,7.68,14.04,14.92,21.16,22.3c2.25,2.33,3.63,5.16,2.5,8.12
		c-5.33,14.03-10.93,27.95-16.44,41.91c-73.93,0-147.87,0-221.8,0c-21.76,0-43.53-0.03-65.29,0.03c-3.68,0.01-7.2-0.63-11.21-1.73
		c-1-6.39,1.62-12.74,0.45-19.08C84.61,462.49,84.64,453.87,84.68,445.24z"/>
	<path class="st0" d="M84.68,445.24c-0.03,8.62-0.07,17.24-0.1,25.87c-5.67-0.74-11.16,1.41-16.83,0.98
		c-3.21-0.24-5.49-1.72-4.78-4.91c1.54-6.91-1.41-13.36-1.43-20.09c-0.01-3.75-1.03-7.5-1.59-11.24
		C68.18,438.98,76.43,442.11,84.68,445.24z"/>
	<path class="st2" d="M430.94,465.84c0,8.42,0,16.83,0,25.85c-12.48,0-24.19,0-35.9,0c1.14-3.62,4.63-4.93,7.11-7.24
		c5.89-5.49,11.86-10.89,17.53-16.6C423.12,464.39,426.53,462.9,430.94,465.84z"/>
	<path class="st1" d="M144.39,403.72c-0.13,0.25-0.34,0.41-0.62,0.46C143.83,403.81,144.03,403.66,144.39,403.72z"/>
</g>
</svg>
