<?xml version="1.0" encoding="utf-8"?>
<!-- Generator: Adobe Illustrator 26.2.1, SVG Export Plug-In . SVG Version: 6.00 Build 0)  -->
<svg version="1.1" id="Layer_1" xmlns="http://www.w3.org/2000/svg" xmlns:xlink="http://www.w3.org/1999/xlink" x="0px" y="0px"
	 viewBox="0 0 500 500" style="enable-background:new 0 0 500 500;" xml:space="preserve">
<style type="text/css">
	.st0{fill:#F196B2;}
</style>
<path d="M363.19,403.45c-5.31-0.05-10.62-0.14-15.92-0.14c-67.55-0.03-135.1-0.05-202.65-0.07c1.04-6.51,4.12-12.51,4.31-19.28
	c0.31-11.1-1.93-21.52-8.19-30.68c-6.25-9.14-15.29-13.47-26.45-13.1c-1.98,0.06-3.96,0.14-5.94,0.2c0-81.09,0-162.19,0-243.51
	c99.73,0,198.94,0,298.5,0c0,101.91,0,203.89,0,306.6c-11.56,0-23.13,0-34.71,0C369.15,403.23,366.17,402.9,363.19,403.45z"/>
<path class="st0" d="M144.39,403.72c-0.13,0.25-0.34,0.41-0.62,0.46C143.83,403.81,144.03,403.66,144.39,403.72z"/>
</svg>
