<?xml version="1.0" encoding="utf-8"?>
<!-- Generator: Adobe Illustrator 26.2.1, SVG Export Plug-In . SVG Version: 6.00 Build 0)  -->
<svg version="1.1" id="Layer_1" xmlns="http://www.w3.org/2000/svg" xmlns:xlink="http://www.w3.org/1999/xlink" x="0px" y="0px"
	 viewBox="0 0 500 500" style="enable-background:new 0 0 500 500;" xml:space="preserve">
<style type="text/css">
	.st0{fill:#8CC5BD;}
	.st1{fill:#5F2C42;}
	.st2{fill:#FCF1D5;}
	.st3{fill:#E4828E;}
	.st4{fill:#B7C5BD;}
</style>
<path class="st0" d="M149.83,455.6c0.05-0.21,0.12-0.41,0.21-0.6c0.73,0.2,1.46,0.4,2.18,0.6
	C151.43,455.6,150.63,455.6,149.83,455.6z"/>
<path class="st0" d="M156.04,455.07c0.15,0.15,0.21,0.33,0.18,0.53c-0.8,0-1.6,0-2.39,0C154.56,455.42,155.3,455.24,156.04,455.07z"
	/>
<path class="st0" d="M346.18,455.6c-0.03-0.21,0.03-0.38,0.18-0.53c0.74,0.18,1.48,0.36,2.22,0.53
	C347.77,455.6,346.97,455.6,346.18,455.6z"/>
<path class="st0" d="M352.35,455c0.09,0.19,0.16,0.4,0.21,0.6c-0.8,0-1.6,0-2.39,0C350.89,455.4,351.62,455.2,352.35,455z"/>
<g>
	<path class="st1" d="M371.11,500c-0.65,0-1.3,0-1.95,0c-0.9-0.22-1.81-0.43-2.71-0.65c-3.15-0.96-5.17-3.27-6.96-5.83
		c-4.2-5.99-8.72-11.79-12.45-18.06c-2.65-4.46-4.9-4.76-9.48-2.5c-35.67,17.58-73.36,23.26-112.76,18.49
		c-22.46-2.72-43.86-8.93-63.98-19.27c-3.15-1.62-4.63-1.24-6.53,1.71c-4.32,6.69-9.04,13.11-13.61,19.63
		c-1.8,2.56-3.82,4.87-6.96,5.83c-0.9,0.22-1.81,0.43-2.71,0.65c-0.65,0-1.3,0-1.95,0c-0.89-0.25-1.78-0.49-2.67-0.74
		c-7.81-4.16-9.73-10.87-4.93-18.19c3.74-5.71,7.79-11.21,11.7-16.81c3.77-5.39,3.82-5.47-1.47-9.3
		c-30.91-22.31-54.04-50.95-69.15-85.92c-14.57-33.72-19.24-68.91-14.83-105.4c3.86-31.92,15.11-61.06,32.75-87.72
		c14.79-22.34,33.54-40.97,55.74-56c2.87-1.94,2.65-3.16,0.83-5.52c-2.97-3.86-5.84-7.83-8.36-12c-1.84-3.05-3.27-2.87-5.99-0.94
		c-16.15,11.51-32.41,22.86-48.7,34.16c-7.48,5.19-13.72,3.88-18.61-3.67c-13.03-20.08-17.55-41.98-11.99-65.24
		c8.19-34.27,29.95-56.56,64.07-64.29c34.36-7.79,63.48,3.27,85.86,30.79C200.29,41.8,199.12,48,190,54.4
		c-13.97,9.8-27.91,19.66-41.98,29.32c-2.51,1.72-2.87,2.93-0.95,5.29c2.25,2.77,4.15,5.82,6.2,8.75c6.02,8.61,6.01,8.6,15.75,4.03
		c1.61-0.76,3.28-1.42,4.93-2.08c19.13-7.63,38.9-12.64,59.5-13.88c4.2-0.25,5.37-1.67,5.21-5.84c-0.35-8.94-0.26-17.9,0.06-26.84
		c0.08-2.2-0.23-3.47-1.81-4.96c-8.68-8.21-8.99-21.06-0.86-29.09c7.71-7.62,20.43-7.6,28.14,0.05c8.11,8.05,7.7,20.8-0.91,29.13
		c-0.88,0.85-2.22,1.34-2.06,3.03c0.95,10.39,0.26,20.8,0.36,31.2c0.02,2.59,1.37,2.84,3.29,3.04c5.82,0.61,11.66,1.06,17.43,1.98
		c19.35,3.09,37.97,8.6,55.47,17.54c2.42,1.24,3.63,0.8,5.04-1.36c3.2-4.89,6.46-9.78,10.07-14.37c2.24-2.85,1.48-4.12-1.2-5.96
		c-14.33-9.85-28.57-19.84-42.76-29.89c-7.56-5.35-8.49-11.88-2.93-19.2c15.76-20.76,36.81-32.26,62.65-33.98
		c45.29-3.01,84.46,30.1,89.69,75.12c-0.49,1.08,0.2,1.88,0.65,2.74c0,4.56,0,9.11,0,13.67c-1.03,1.4-0.98,2.99-0.79,4.6
		c-1.65,12.25-5.77,23.59-12.43,34.02c-6.13,9.6-11.6,10.74-20.9,4.23c-15.71-10.99-31.49-21.89-47.06-33.08
		c-3.26-2.35-4.73-1.83-6.65,1.31c-2.45,4.02-5.15,7.91-8.09,11.58c-2.06,2.57-1.55,3.68,1.06,5.47
		c34.84,23.94,60.37,55.51,75.95,94.8c12.95,32.66,16.88,66.57,12.17,101.46c-5.43,40.25-21.82,75.51-48.14,106.27
		c-11.05,12.91-23.65,24.16-37.6,33.83c-2.81,1.95-2.96,3.32-0.94,6c4.59,6.1,8.98,12.36,13.18,18.74
		c4.81,7.3,2.87,14.02-4.93,18.18C372.89,499.51,372,499.75,371.11,500z M69.01,288.85c-0.6,99.16,80.47,180.77,180.78,181.18
		c98.2,0.4,180.9-78.53,181.26-180.6c0.35-99.09-79.07-181.33-180.92-181.44C149.91,107.89,69.64,188.56,69.01,288.85z
		 M374.72,23.14c-15.5-0.07-30.52,5.5-41.21,14.97c-2.39,2.12-2.38,3.1,0.25,4.93c31.19,21.74,62.33,43.54,93.4,65.44
		c2.93,2.06,3.73,1.37,4.91-1.68C447.39,67.04,417.48,23.34,374.72,23.14z M130.25,23.23c-46.81-0.78-77.63,43.49-62.16,83.58
		c1.19,3.07,2.01,3.7,4.91,1.66c31.07-21.9,62.21-43.7,93.39-65.43c2.63-1.83,2.69-2.86,0.24-4.92
		C154.98,28.3,141.62,23.27,130.25,23.23z"/>
	<path class="st0" d="M458.95,96.73c-0.3,0-0.56-0.09-0.79-0.28c-0.19-1.62-0.24-3.2,0.79-4.6
		C458.95,93.48,458.95,95.1,458.95,96.73z"/>
	<path class="st0" d="M458.3,75.43l0.25-0.35l0.4,0.16c0,0.98,0,1.95,0,2.93C458.51,77.32,457.81,76.52,458.3,75.43z"/>
	<path class="st2" d="M69.01,288.85c0.63-100.29,80.9-180.96,181.12-180.86c101.86,0.11,181.27,82.35,180.92,181.44
		c-0.36,102.07-83.06,181-181.26,180.6C149.48,469.62,68.41,388.02,69.01,288.85z M250.15,322.69c22.38-0.06,38.58-21.58,32.11-43
		c-1.21-4-0.48-6.35,2.44-9.24c21.64-21.36,43.07-42.92,64.55-64.45c1.48-1.49,2.98-3.04,4.1-4.8c4.28-6.66,0.98-14.86-6.66-16.96
		c-5.51-1.52-9.34,1.3-12.91,4.87c-21.95,21.96-43.94,43.9-65.82,65.93c-2.29,2.31-4.17,3.28-7.56,2.03
		c-6.73-2.48-13.77-2.47-20.51-0.01c-3.3,1.2-5.25,0.43-7.6-1.93c-27.05-27.21-54.2-54.33-81.34-81.46
		c-6.96-6.97-13.9-7.87-19.03-2.5c-4.99,5.21-3.99,11.84,2.86,18.69c27,27.03,53.97,54.1,81.08,81.02c2.65,2.64,3.28,4.76,2.15,8.43
		C211.32,300.95,227.6,322.75,250.15,322.69z M261.7,145.03c-0.39-4.67,0.51-9.39-0.68-14.05c-1.39-5.44-5.82-9.02-11.21-8.89
		c-5.22,0.13-9.78,3.58-10.56,8.97c-1.31,9.16-1.34,18.43,0.02,27.59c0.8,5.4,5.34,8.8,10.61,8.91c5.38,0.11,9.74-3.47,11.14-8.96
		C262.18,154.1,261.32,149.54,261.7,145.03z M105.84,300.61c4.68-0.31,9.4,0.46,14.06-0.67c5.12-1.24,8.77-5.65,8.83-10.81
		c0.06-5.1-3.46-10.06-8.66-10.86c-9.31-1.44-18.74-1.38-28.06-0.05c-5.28,0.76-8.77,5.53-8.82,10.7c-0.06,5.34,3.66,9.8,9.08,11.07
		C96.76,301.06,101.32,300.27,105.84,300.61z M396.78,277.6c-6.01,0-10.06-0.04-14.11,0.03c-0.95,0.02-1.91,0.36-2.85,0.61
		c-4.89,1.32-8.29,5.68-8.36,10.68c-0.07,5.09,3.53,10.13,8.63,10.89c9.32,1.38,18.75,1.34,28.07,0.04
		c5.23-0.73,8.77-5.52,8.82-10.71c0.05-5.18-3.46-9.58-8.59-10.97C403.9,276.95,399.34,277.8,396.78,277.6z M238.49,433.02
		c0.37,4.68-0.5,9.4,0.68,14.06c1.32,5.24,5.55,8.84,10.71,8.95c5.29,0.12,10.24-3.5,11.05-9.02c1.34-9.16,1.36-18.44-0.02-27.6
		c-0.82-5.43-5.92-9.16-11.09-9c-5.12,0.17-9.33,3.82-10.66,9.03C238.02,423.94,238.85,428.5,238.49,433.02z"/>
	<path class="st3" d="M374.72,23.14c42.76,0.2,72.67,43.91,57.35,83.66c-1.17,3.05-1.98,3.74-4.91,1.68
		c-31.07-21.9-62.21-43.7-93.4-65.44c-2.63-1.83-2.64-2.81-0.25-4.93C344.2,28.64,359.22,23.06,374.72,23.14z"/>
	<path class="st3" d="M130.25,23.23c11.38,0.04,24.73,5.07,36.38,14.88c2.45,2.07,2.39,3.09-0.24,4.92
		C135.21,64.77,104.07,86.57,73,108.47c-2.9,2.05-3.73,1.41-4.91-1.66C52.62,66.72,83.44,22.45,130.25,23.23z"/>
	<path class="st1" d="M250.15,322.69c-22.54,0.07-38.83-21.74-32.14-43.37c1.13-3.67,0.51-5.79-2.15-8.43
		c-27.11-26.92-54.08-53.99-81.08-81.02c-6.85-6.86-7.85-13.48-2.86-18.69c5.13-5.36,12.07-4.46,19.03,2.5
		c27.13,27.13,54.28,54.25,81.34,81.46c2.35,2.36,4.3,3.14,7.6,1.93c6.75-2.46,13.79-2.48,20.51,0.01c3.39,1.25,5.27,0.28,7.56-2.03
		c21.88-22.03,43.87-43.97,65.82-65.93c3.57-3.57,7.4-6.39,12.91-4.87c7.65,2.11,10.94,10.3,6.66,16.96
		c-1.13,1.76-2.62,3.31-4.1,4.8c-21.48,21.52-42.92,43.08-64.55,64.45c-2.93,2.89-3.65,5.24-2.44,9.24
		C288.72,301.11,272.53,322.62,250.15,322.69z M250.29,278.3c-5.9-0.1-10.89,4.76-10.93,10.65c-0.05,5.86,4.93,10.86,10.78,10.83
		c5.68-0.03,10.49-4.73,10.69-10.44C261.02,283.5,256.16,278.4,250.29,278.3z"/>
	<path class="st1" d="M261.7,145.03c-0.38,4.52,0.48,9.07-0.67,13.57c-1.41,5.5-5.76,9.08-11.14,8.96
		c-5.27-0.11-9.81-3.51-10.61-8.91c-1.36-9.16-1.33-18.43-0.02-27.59c0.77-5.39,5.34-8.84,10.56-8.97
		c5.39-0.13,9.82,3.45,11.21,8.89C262.2,135.63,261.31,140.35,261.7,145.03z"/>
	<path class="st1" d="M105.84,300.61c-4.52-0.34-9.07,0.45-13.57-0.61c-5.42-1.27-9.14-5.73-9.08-11.07
		c0.06-5.17,3.55-9.94,8.82-10.7c9.32-1.34,18.75-1.39,28.06,0.05c5.2,0.8,8.72,5.76,8.66,10.86c-0.06,5.16-3.71,9.56-8.83,10.81
		C115.24,301.07,110.52,300.3,105.84,300.61z"/>
	<path class="st1" d="M396.78,277.6c2.56,0.2,7.12-0.65,11.6,0.56c5.14,1.39,8.64,5.79,8.59,10.97c-0.05,5.19-3.59,9.98-8.82,10.71
		c-9.32,1.3-18.75,1.35-28.07-0.04c-5.1-0.76-8.7-5.8-8.63-10.89c0.07-5,3.47-9.36,8.36-10.68c0.94-0.25,1.89-0.6,2.85-0.61
		C386.72,277.56,390.77,277.6,396.78,277.6z"/>
	<path class="st1" d="M238.49,433.02c0.36-4.52-0.47-9.08,0.67-13.57c1.32-5.21,5.54-8.86,10.66-9.03c5.16-0.17,10.27,3.56,11.09,9
		c1.38,9.16,1.35,18.44,0.02,27.6c-0.81,5.52-5.76,9.13-11.05,9.02c-5.16-0.11-9.39-3.71-10.71-8.95
		C237.99,442.42,238.86,437.7,238.49,433.02z"/>
	<path class="st4" d="M250.29,278.3c5.87,0.1,10.73,5.2,10.53,11.05c-0.19,5.7-5.01,10.41-10.69,10.44
		c-5.85,0.03-10.82-4.97-10.78-10.83C239.4,283.07,244.39,278.21,250.29,278.3z"/>
</g>
</svg>
