<?xml version="1.0" encoding="utf-8"?>
<!-- Generator: Adobe Illustrator 26.2.1, SVG Export Plug-In . SVG Version: 6.00 Build 0)  -->
<svg version="1.1" id="Layer_1" xmlns="http://www.w3.org/2000/svg" xmlns:xlink="http://www.w3.org/1999/xlink" x="0px" y="0px"
	 viewBox="0 0 500 500" style="enable-background:new 0 0 500 500;" xml:space="preserve">
<style type="text/css">
	.st0{fill:#FDC3C8;}
	.st1{fill:#FCECE3;}
	.st2{fill:#FCECB6;}
	.st3{fill:#423336;}
	.st4{fill:#BF3D55;}
</style>
<path class="st0" d="M500,367.22l-0.46,0.3l-0.52-0.17c-0.04-5.89-0.07-11.79-0.11-17.68c0.39-0.18,0.75-0.14,1.09,0.11
	C500,355.59,500,361.41,500,367.22z"/>
<path class="st1" d="M272.7,436.91c-44.08,0-88.16,0.02-132.24-0.01c-18.72-0.02-36.27-4.62-52.75-13.56
	c-6.13-3.33-10.64-7.13-9.26-15.08c0.53-3.04,0.04-6.28-0.12-9.42c-0.23-4.77-2.77-7.89-7.5-8.2c-4.74-0.31-7.69,2.28-8.33,7.2
	c-0.17,1.3,0.65,3.27-1.2,3.71c-1.96,0.47-2.84-1.5-3.89-2.74c-31.94-37.94-34.72-93.17-5.87-134.05
	c13.23-18.75,31.19-32.14,53.07-39.82c5.92-2.08,6.85-1.49,5.78,4.99c-1,6.01-1.31,12.01-1.22,18.04c0.09,6.18,3.38,10.32,8.21,9.91
	c5.55-0.48,7.38-4.23,7.66-9.57c3.02-58.48,29.84-102.16,83.31-126.69c43.37-19.9,86.98-16.8,128.51,7.2
	c36.01,20.81,57.12,52.57,66.38,92.65c3.02,13.08,2.62,26.39,2.35,39.7c-0.08,3.73-1.95,4.56-5.03,4.35
	c-4.91-0.33-9.58,1.12-14.33,1.93c-5.09,0.86-7.53,4.01-6.88,9.27c0.66,5.35,4.35,6.73,8.9,6.14c6.96-0.89,13.89-1.4,20.92-1.52
	c34.3-0.59,68.45,29.08,73.76,63.94c2.81,18.47,0.33,35.55-8.58,51.82c-1.13,2.07-2.05,4.38-4.47,5.42
	c-0.37-1.85-0.58-3.75-1.14-5.54c-1.27-4.05-3.6-7.03-8.36-6.37c-4.72,0.65-7.35,3.23-7.01,8.37c0.42,6.25-1.08,12.61,0.7,18.77
	c0.72,2.5-0.41,3.52-2.18,4.63c-13.7,8.62-28.08,14.69-44.76,14.6c-44.81-0.23-89.61-0.08-134.42-0.08
	C272.7,436.9,272.7,436.91,272.7,436.91z M286.17,149.23c8.42,0.19,11.46-1.91,11.35-7.47c-0.12-5.66-3.95-7.62-9.07-8.35
	c-14.42-2.04-28.83-2.6-43.24-0.12c-12.44,2.14-24.37,5.93-35.59,11.72c-5.84,3.02-7.54,7.22-4.98,11.71
	c2.9,5.07,7.23,4.88,11.89,2.67c0.44-0.21,0.87-0.43,1.3-0.64c15.9-7.7,32.55-11.75,50.34-11.24
	C274.71,147.7,281.13,148.59,286.17,149.23z M319.28,144.96c-3.94-0.05-6.52,2.28-7.66,5.59c-1.34,3.91,0.75,7.09,3.95,9.29
	c5.15,3.56,10.55,6.76,15.64,10.4c4.69,3.35,8.72,2.78,11.83-1.78c3.03-4.43,1.25-8.51-2.6-11.36c-4.84-3.58-10.03-6.69-15.14-9.9
	C323.48,146.06,321.61,144.86,319.28,144.96z M312.63,406.6c-0.13,0-0.26,0-0.39,0c0-3.37,0.42-6.81-0.11-10.1
	c-0.66-4.13-3.72-5.85-7.84-6.02c-4.11-0.17-6.66,1.95-7.2,5.64c-0.94,6.43-1.23,13.01-0.2,19.44c0.67,4.19,3.92,7.08,8.25,6.5
	c4.24-0.57,7.62-3.08,7.5-8.22C312.59,411.42,312.63,409.01,312.63,406.6z M414.32,406.67c-0.08,0-0.16,0-0.25,0
	c0,2.41,0.23,4.85-0.04,7.24c-0.68,6.06,3.29,7.5,7.91,7.95c4.7,0.45,7.41-2.6,7.95-6.71c0.81-6.2,0.72-12.52-0.45-18.71
	c-0.79-4.2-3.67-6.13-7.82-5.88c-4.13,0.25-6.79,2.56-7.23,6.72C414.06,400.37,414.32,403.54,414.32,406.67z M273.45,406.08
	c-0.05,0-0.1,0-0.15,0c0-2.64,0.04-5.29-0.01-7.93c-0.08-4.48-2.09-7.31-6.82-7.62c-4.84-0.31-8.19,2.17-8.75,6.68
	c-0.71,5.68-0.83,11.56-0.22,17.25c0.51,4.75,4.17,7.95,9.02,7.4c4.37-0.5,7.22-3.57,6.95-8.58
	C273.35,410.89,273.45,408.48,273.45,406.08z M101.72,405.79c-0.02,0-0.04,0-0.06,0c0,3.14-0.19,6.3,0.05,9.42
	c0.31,3.97,3.19,6.27,6.64,6.64c3.66,0.39,7.56-0.93,8.53-5.13c1.64-7.11,1.54-14.39-0.49-21.41c-1.05-3.63-4.17-5.41-7.98-4.69
	c-3.82,0.72-6.77,2.64-6.69,7.21C101.76,400.48,101.72,403.14,101.72,405.79z M391.01,406.53c-0.05,0-0.1,0-0.14,0
	c0-2.42,0.02-4.84,0-7.26c-0.04-5.16-2.71-8.42-7.76-8.65c-5.2-0.23-7.96,2.97-8.09,8.16c-0.13,5.08-0.1,10.16-0.09,15.24
	c0.02,5.06,2.47,7.38,7.66,7.31c5.22-0.07,8.37-1.96,8.43-7.55C391.04,411.37,391.01,408.95,391.01,406.53z M351.8,406.34
	c-0.08,0-0.16,0-0.25,0c0-3.13,0.39-6.32-0.1-9.37c-0.63-3.99-3.27-6.39-7.51-6.42c-4.11-0.03-7.43,1.91-7.8,6.01
	c-0.56,6.21-0.65,12.54-0.08,18.74c0.4,4.38,3.64,6.4,8.31,6.03c4.54-0.36,7.27-2.27,7.4-7.04
	C351.86,411.64,351.8,408.99,351.8,406.34z M141.01,405.92c-0.08,0-0.16,0-0.24,0c0,2.18,0.05,4.35-0.01,6.53
	c-0.13,5.21,1.05,9.08,7.51,8.89c6.11-0.19,8.65-2.38,8.58-9c-0.05-5.28-0.62-10.57-1.27-15.82c-0.54-4.32-3.42-6.06-7.66-5.98
	c-4.03,0.07-6.45,2.07-6.86,5.98C140.74,399.61,141.01,402.78,141.01,405.92z M194.98,406.37c-0.02,0-0.04,0-0.07,0
	c0-2.9,0.06-5.8-0.01-8.69c-0.13-4.68-2.61-7.12-7.28-7.12c-4.56,0-7.37,2.18-7.5,6.93c-0.15,5.55-0.16,11.11-0.08,16.66
	c0.07,4.99,2.52,7.35,7.73,7.24c4.89-0.1,7.06-2.42,7.2-7.04C195.04,411.68,194.98,409.03,194.98,406.37z M219.28,405.92
	c-0.03,0-0.05,0-0.08,0c0,2.88-0.11,5.77,0.03,8.65c0.22,4.61,2.51,6.94,7.37,6.76c4.57-0.17,7.45-2.09,7.58-6.8
	c0.16-5.76,0.07-11.54-0.13-17.3c-0.17-4.89-3.6-6.56-7.81-6.64c-4.29-0.08-6.65,2.46-6.93,6.68
	C219.12,400.15,219.28,403.04,219.28,405.92z"/>
<path class="st2" d="M62.48,189.67c0.63-45.75,34.49-79.94,77.12-80.68c11.94-0.21,23.49,2.46,34.42,7.44
	c4.09,1.86,6.11,3.26,0.76,7c-26.58,18.58-44.53,43.9-55.84,74.03c-2.23,5.93-5.27,8.88-11.83,10.38
	c-10.78,2.48-21.14,6.89-30.43,13.2c-3.66,2.48-5.42,2.24-7.35-2.25C64.86,208.4,62.58,197.69,62.48,189.67z"/>
<g>
	<path class="st3" d="M0,182.63c8.17-5.03,17.16-2.8,25.83-2.61c3.54,0.08,5.09,3.52,5.24,6.81c0.15,3.25-0.84,6.89-4.39,7.44
		c-9.07,1.4-18.43,3.77-26.68-2.92C0,188.44,0,185.53,0,182.63z"/>
	<path class="st3" d="M498.91,349.67c0.04,5.89,0.07,11.79,0.11,17.68c-4.84,49.53-44.26,85.58-94.09,85.64
		c-87.92,0.12-175.84,0.12-263.77,0c-60.26-0.08-111.3-40.77-123-100.04c-8.62-43.69,3.01-82.47,35.18-114.12
		c4.12-4.06,4.89-6.82,2.32-12.26C29.4,170.92,64.29,104.91,124.72,95.1c22.93-3.72,44.32,0.14,64.12,12.05
		c4.26,2.56,7.39,2.78,11.92,0.78c44.88-19.76,89.98-19.89,133.86,2.04c48.52,24.25,76.86,64.11,85.63,117.8
		c1.77,10.85,1.67,21.74,1.18,32.59c-0.24,5.32,1.57,7,6.41,8.07C466.09,276.86,495.58,310.71,498.91,349.67z M272.7,436.91
		c0-0.01,0-0.02,0-0.03c44.81,0,89.61-0.15,134.42,0.08c16.68,0.09,31.06-5.98,44.76-14.6c1.77-1.11,2.9-2.12,2.18-4.63
		c-1.78-6.16-0.28-12.52-0.7-18.77c-0.34-5.14,2.29-7.71,7.01-8.37c4.76-0.66,7.1,2.32,8.36,6.37c0.56,1.79,0.77,3.69,1.14,5.54
		c2.41-1.04,3.33-3.35,4.47-5.42c8.91-16.26,11.39-33.34,8.58-51.82c-5.31-34.87-39.46-64.53-73.76-63.94
		c-7.03,0.12-13.97,0.63-20.92,1.52c-4.55,0.58-8.24-0.79-8.9-6.14c-0.65-5.26,1.79-8.41,6.88-9.27c4.75-0.8,9.42-2.26,14.33-1.93
		c3.08,0.21,4.95-0.62,5.03-4.35c0.28-13.31,0.67-26.62-2.35-39.7c-9.25-40.08-30.37-71.84-66.38-92.65
		c-41.53-24-85.14-27.1-128.51-7.2c-53.47,24.53-80.29,68.22-83.31,126.69c-0.28,5.34-2.11,9.08-7.66,9.57
		c-4.83,0.42-8.12-3.72-8.21-9.91c-0.09-6.03,0.22-12.03,1.22-18.04c1.07-6.47,0.14-7.06-5.78-4.99
		C82.73,232.6,64.76,246,51.53,264.74c-28.84,40.88-26.06,96.11,5.87,134.05c1.04,1.24,1.93,3.21,3.89,2.74
		c1.85-0.44,1.03-2.41,1.2-3.71c0.64-4.92,3.59-7.51,8.33-7.2c4.74,0.31,7.27,3.43,7.5,8.2c0.15,3.14,0.64,6.38,0.12,9.42
		c-1.38,7.95,3.13,11.75,9.26,15.08c16.48,8.94,34.02,13.54,52.75,13.56C184.54,436.94,228.62,436.91,272.7,436.91z M62.48,189.67
		c0.09,8.02,2.38,18.73,6.84,29.12c1.93,4.49,3.69,4.73,7.35,2.25c9.3-6.3,19.65-10.72,30.43-13.2c6.56-1.51,9.6-4.45,11.83-10.38
		c11.31-30.13,29.27-55.45,55.84-74.03c5.35-3.74,3.34-5.14-0.76-7c-10.93-4.98-22.48-7.65-34.42-7.44
		C96.97,109.73,63.11,143.92,62.48,189.67z"/>
	<path class="st3" d="M30.57,223.18c5.04,0.37,7.83,1.83,9.06,5.57c1.14,3.45,0.17,6.79-2.7,8.27c-5.97,3.09-12.23,5.78-18.63,7.82
		c-3.35,1.07-6.5-0.87-8.26-4.38c-1.8-3.59-1.23-7.33,1.87-9.02C18.23,228.01,25.06,225.56,30.57,223.18z"/>
	<path class="st3" d="M104.66,77.8c-0.05,4.54-1.22,7.34-4.67,8.49c-3.47,1.15-6.95,0.82-9.04-2.47c-3.5-5.51-5.98-11.59-7.65-17.85
		c-0.93-3.47,0.97-6.5,4.38-8.26c3.6-1.86,6.97-0.84,9.08,1.99C100.98,65.36,102.34,72.36,104.66,77.8z"/>
	<path class="st3" d="M148.3,62.46c0,2.66,0.03,5.31-0.01,7.97c-0.05,4.27-2.31,6.89-6.42,7.43c-4.4,0.58-7.83-1.54-8.69-5.85
		c-1.28-6.4-1.05-12.96,0.02-19.41c0.73-4.44,4.16-5.95,8.02-5.65c3.85,0.3,6.88,2.33,7.01,6.81c0.09,2.89,0.02,5.79,0.02,8.69
		C148.26,62.46,148.28,62.46,148.3,62.46z"/>
	<path class="st3" d="M41.1,140.42c-0.09,4.96-4.77,8.3-10.17,6.47c-4.79-1.62-9.5-3.61-14-5.92c-4.17-2.14-5.72-5.83-3.81-10.37
		c1.99-4.73,5.85-5.53,10.2-3.93c4.52,1.67,8.87,3.8,13.28,5.77C39.89,133.91,40.92,136.77,41.1,140.42z"/>
	<path class="st3" d="M58.87,110.14c-2.39,0.09-4.43-0.6-6.04-2.22c-3.24-3.26-6.53-6.49-9.59-9.91c-3.34-3.74-3.96-8-0.23-11.68
		c3.73-3.67,7.83-3.16,11.47,0.6c3.53,3.65,7.2,7.17,10.56,10.97c2.09,2.36,2.28,5.18,0.75,8.12
		C64.27,108.93,62.04,110.34,58.87,110.14z"/>
	<path class="st3" d="M202.25,67.4c-2.61,5.92-4.23,12.9-8.8,18.31c-2.26,2.67-5.8,3.53-9.18,1.15c-3.03-2.13-4.87-5.04-3.49-8.7
		c1.96-5.18,4.21-10.28,6.73-15.21c1.74-3.41,5.12-4.43,8.7-3.57C199.89,60.27,201.64,63.1,202.25,67.4z"/>
	<path class="st3" d="M286.17,149.23c-5.04-0.64-11.46-1.53-18-1.72c-17.79-0.51-34.44,3.54-50.34,11.24
		c-0.44,0.21-0.87,0.43-1.3,0.64c-4.66,2.21-8.99,2.4-11.89-2.67c-2.57-4.48-0.86-8.69,4.98-11.71
		c11.22-5.79,23.15-9.57,35.59-11.72c14.42-2.49,28.82-1.92,43.24,0.12c5.12,0.73,8.96,2.68,9.07,8.35
		C297.64,147.32,294.59,149.42,286.17,149.23z"/>
	<path class="st3" d="M319.28,144.97c2.33-0.11,4.2,1.09,6.03,2.24c5.1,3.21,10.3,6.32,15.14,9.9c3.85,2.85,5.63,6.93,2.6,11.36
		c-3.11,4.56-7.14,5.12-11.83,1.78c-5.09-3.64-10.49-6.84-15.64-10.4c-3.19-2.21-5.29-5.38-3.95-9.29
		C312.76,147.24,315.33,144.91,319.28,144.97z"/>
	<path class="st3" d="M312.63,406.6c0,2.41-0.05,4.82,0.01,7.23c0.12,5.14-3.26,7.65-7.5,8.22c-4.32,0.58-7.57-2.3-8.25-6.5
		c-1.03-6.42-0.74-13.01,0.2-19.44c0.54-3.69,3.09-5.81,7.2-5.64c4.12,0.17,7.18,1.89,7.84,6.02c0.52,3.29,0.11,6.72,0.11,10.1
		C312.37,406.6,312.5,406.6,312.63,406.6z"/>
	<path class="st3" d="M414.32,406.67c0-3.14-0.26-6.3,0.06-9.4c0.43-4.15,3.1-6.47,7.23-6.72c4.15-0.25,7.03,1.68,7.82,5.88
		c1.17,6.2,1.26,12.52,0.45,18.71c-0.54,4.11-3.25,7.16-7.95,6.71c-4.62-0.45-8.59-1.89-7.91-7.95c0.27-2.38,0.04-4.82,0.04-7.24
		C414.16,406.67,414.24,406.67,414.32,406.67z"/>
	<path class="st3" d="M273.45,406.08c0,2.4-0.1,4.81,0.02,7.2c0.26,5.01-2.58,8.08-6.95,8.58c-4.84,0.55-8.5-2.65-9.02-7.4
		c-0.61-5.69-0.5-11.57,0.22-17.25c0.56-4.51,3.91-6.99,8.75-6.68c4.74,0.31,6.74,3.13,6.82,7.62c0.05,2.64,0.01,5.28,0.01,7.93
		C273.35,406.08,273.4,406.08,273.45,406.08z"/>
	<path class="st3" d="M101.72,405.79c0-2.66,0.04-5.32-0.01-7.98c-0.09-4.57,2.87-6.49,6.69-7.21c3.81-0.72,6.93,1.06,7.98,4.69
		c2.03,7.02,2.13,14.3,0.49,21.41c-0.97,4.21-4.86,5.53-8.53,5.13c-3.45-0.37-6.34-2.67-6.64-6.64c-0.24-3.12-0.05-6.28-0.05-9.42
		C101.68,405.79,101.7,405.79,101.72,405.79z"/>
	<path class="st3" d="M391.01,406.53c0,2.42,0.02,4.84,0,7.26c-0.06,5.58-3.21,7.47-8.43,7.55c-5.19,0.07-7.65-2.24-7.66-7.31
		c-0.02-5.08-0.04-10.16,0.09-15.24c0.13-5.19,2.89-8.39,8.09-8.16c5.05,0.23,7.72,3.48,7.76,8.65c0.02,2.42,0,4.84,0,7.26
		C390.92,406.53,390.97,406.53,391.01,406.53z"/>
	<path class="st3" d="M351.8,406.34c0,2.65,0.06,5.3-0.01,7.95c-0.13,4.77-2.86,6.68-7.4,7.04c-4.67,0.37-7.91-1.66-8.31-6.03
		c-0.57-6.2-0.48-12.53,0.08-18.74c0.37-4.1,3.69-6.04,7.8-6.01c4.23,0.03,6.87,2.43,7.51,6.42c0.49,3.05,0.1,6.24,0.1,9.37
		C351.64,406.34,351.72,406.34,351.8,406.34z"/>
	<path class="st3" d="M141.01,405.92c0-3.14-0.26-6.31,0.07-9.42c0.41-3.9,2.83-5.9,6.86-5.98c4.24-0.07,7.12,1.66,7.66,5.98
		c0.65,5.25,1.21,10.54,1.27,15.82c0.07,6.62-2.47,8.82-8.58,9c-6.46,0.2-7.65-3.68-7.51-8.89c0.06-2.17,0.01-4.35,0.01-6.53
		C140.85,405.92,140.93,405.92,141.01,405.92z"/>
	<path class="st3" d="M194.98,406.37c0,2.66,0.06,5.31-0.01,7.97c-0.13,4.62-2.31,6.94-7.2,7.04c-5.21,0.11-7.66-2.25-7.73-7.24
		c-0.08-5.55-0.07-11.11,0.08-16.66c0.13-4.75,2.95-6.93,7.5-6.93c4.67,0,7.15,2.44,7.28,7.12c0.08,2.9,0.01,5.79,0.01,8.69
		C194.94,406.37,194.96,406.37,194.98,406.37z"/>
	<path class="st3" d="M219.28,405.92c0-2.88-0.15-5.78,0.04-8.65c0.28-4.22,2.64-6.77,6.93-6.68c4.21,0.08,7.64,1.75,7.81,6.64
		c0.2,5.76,0.29,11.54,0.13,17.3c-0.13,4.71-3.01,6.62-7.58,6.8c-4.86,0.18-7.15-2.14-7.37-6.76c-0.14-2.88-0.03-5.77-0.03-8.65
		C219.23,405.92,219.25,405.92,219.28,405.92z"/>
</g>
<path class="st4" d="M1092.34,306.6c-0.54-0.57-0.99-1.21-1.35-1.92C1091.44,305.32,1091.89,305.96,1092.34,306.6z"/>
<path class="st4" d="M1092.4,316.49l-0.36-0.56l0.32-0.58C1092.75,315.72,1092.76,316.1,1092.4,316.49z"/>
</svg>
