<?xml version="1.0" encoding="utf-8"?>
<!-- Generator: Adobe Illustrator 26.2.1, SVG Export Plug-In . SVG Version: 6.00 Build 0)  -->
<svg version="1.1" id="Layer_1" xmlns="http://www.w3.org/2000/svg" xmlns:xlink="http://www.w3.org/1999/xlink" x="0px" y="0px"
	 viewBox="0 0 500 500" style="enable-background:new 0 0 500 500;" xml:space="preserve">
<style type="text/css">
	.st0{fill:#D65778;}
</style>
<g id="Nb8CC0_00000002353322059178936940000008849169791158984365_">
	<g>
		<g>
			<path class="st0" d="M295.35,69.67c9.74,0,19.48,0,29.22,0c0.52,0.66,1.28,0.68,2.02,0.72c10.87,0.58,21.75,0.98,32.57,2.4
				c9.46,1.24,18.72,3.15,27.46,7.08c4.71,2.12,7.99,5.58,8.98,10.74c0.44,2.26,0.29,4.63,0.39,6.96
				c0.84,20.1,12.1,34.75,31.29,40.76c9.76,3.06,19.5,6.14,29.23,9.3c7.34,2.38,14.53,5.11,20.52,10.22
				c9.02,7.68,12.96,17.93,14.9,29.24c2.16,12.59,3.92,25.22,4.94,37.97c1.06,13.29,1.69,26.59,2.17,39.91
				c0.09,2.57-0.85,3.12-3.29,3.1c-17.36-0.1-34.72-0.04-52.07-0.03c-6.42,0-6.36-0.01-7.55-6.15
				c-6.99-36.17-26.28-64.15-56.82-84.39c-16.43-10.89-34.62-17.25-54.24-19.81c-12.92-1.68-25.74-1.59-38.53,0.45
				c-13.42,2.14-26.12,6.57-38.1,13.05c-25.41,13.73-44.91,33.17-57.37,59.38c-5.24,11.01-8.94,22.53-10.8,34.6
				c-0.45,2.92-1.52,4.07-4.82,4.05c-32.81-0.16-65.62-0.1-98.43-0.1c-23.81,0-47.63,0.01-71.44,0.04c-2.09,0-3.7-0.01-3.49-2.95
				c0.9-12.98,1.68-25.96,2.43-38.95c1.19-20.7,3.21-41.32,6.39-61.82c1.06-6.81,4.88-11.22,11.06-13.95
				c9.14-4.04,18.94-5.02,28.66-6.18c6.72-0.8,7.48-1.15,8.43-7.72c0.73-5.01,3.59-8.06,8.5-8.9c3.54-0.6,7.09-1.21,10.65-1.58
				c20.88-2.15,41.85-1.51,62.79-1.71c5.81-0.06,9.53,3.07,11.37,8.76c1.52,4.71,1.77,5.09,6.69,4.71
				c10.11-0.77,20.23-1.29,30.27-3.07c22.52-3.98,37.49-18.69,40.56-41.43c1.22-9.02,5.29-14.61,13.97-16.98
				c11.43-3.13,23.18-4.46,34.85-6.24C284.22,70.32,289.87,70.9,295.35,69.67z M428.07,181c-0.11,9.26,7.08,16.86,16.04,16.98
				c8.85,0.11,16.43-7.21,16.7-16.13c0.26-8.67-7.41-16.76-15.98-16.86C435.88,164.88,428.18,172.24,428.07,181z"/>
			<path class="st0" d="M235.06,430.32c-70.7,0-141.41,0.03-212.11-0.06c-6.37-0.01-12.46-1.47-15.99-7.71
				c-2.32-4.1-2.22-8.77-2.84-13.25C-0.94,373.43,0,337.32,0.2,301.25c0.02-3.01,1.56-3.11,3.8-3.11c32.6,0.04,65.2,0.03,97.8,0.03
				c24.34,0,48.69,0.07,73.03-0.09c3.5-0.02,4.39,1.2,4.81,4.4c3.9,29.1,15.63,54.48,36.61,75.24c18.39,18.2,39.99,31.1,65.58,35.75
				c44.52,8.08,83.87-2.68,116.84-34.41c18.67-17.96,30.64-39.69,36.1-64.98c1.05-4.85,1.84-9.76,2.54-14.68
				c0.25-1.77,0.94-2.26,2.63-2.25c19.16,0.04,38.32,0.06,57.47-0.03c2.32-0.01,2.46,1.07,2.51,2.9
				c0.36,14.72-0.65,29.39-1.46,44.07c-0.84,15.21-1.23,30.44-2.12,45.65c-0.34,5.9,0.02,11.86-1.1,17.71
				c-1.13,5.92-4.66,9.74-10.25,11.86c-11.05,4.19-22.29,7.8-33.72,10.77c-1.4,0.36-2.94,0.25-4.41,0.25
				C376.25,430.33,305.65,430.33,235.06,430.32z"/>
			<path class="st0" d="M308.66,177.93c59.55,0.3,109.07,48,108.4,110.05c-0.64,59.79-48.21,105.84-105.21,107.46
				c-63.93,1.82-111.78-49.96-112.08-107.94C199.47,228.01,247.1,177.99,308.66,177.93z M308.65,369.02
				c5.62-8.94,12.1-16.44,19.43-23.22c9.53-8.81,20.4-15.77,31.34-22.62c7.3-4.57,14.26-9.63,19.34-16.69
				c12.67-17.61,13.14-36.05,2.82-54.82c-10.51-19.12-31.66-25.6-51.15-15.96c-9.31,4.6-15.48,12.3-20.32,21.16
				c-1.38,2.53-2.03,2.02-3.17,0.05c-3.47-5.97-7.46-11.51-12.58-16.24c-18.19-16.77-47.66-11.58-58.73,10.49
				c-3.82,7.62-5.85,15.75-6.69,24.26c-1.33,13.56,2.59,25.21,11.84,35.14c7.31,7.85,16.43,13.21,25.51,18.67
				c14.05,8.44,27.06,18.14,36.78,31.63C304.89,363.42,306.61,366.05,308.65,369.02z"/>
		</g>
	</g>
</g>
</svg>
