<?xml version="1.0" encoding="utf-8"?>
<!-- Generator: Adobe Illustrator 26.2.1, SVG Export Plug-In . SVG Version: 6.00 Build 0)  -->
<svg version="1.1" id="Layer_1" xmlns="http://www.w3.org/2000/svg" xmlns:xlink="http://www.w3.org/1999/xlink" x="0px" y="0px"
	 viewBox="0 0 500 500" style="enable-background:new 0 0 500 500;" xml:space="preserve">
<style type="text/css">
	.st0{fill:#58352D;}
	.st1{fill:#FCF1E2;}
	.st2{fill:#E4828E;}
</style>
<g>
	<path class="st0" d="M453.7,500c-129.76,0-259.52,0-389.29,0c0.18-2.64-1-4.62-3.29-5.73c-28.09-13.62-37.16-36.71-36.97-66.91
		c0.74-114.07,1.14-228.17-0.2-342.23C23.54,49.8,29.14,20.31,63.66,3.27C64.3,2.95,64.18,1.12,64.42,0c120.24,0,240.48,0,360.71,0
		c26.62,11.35,37.62,31.18,35.73,60.23c-1.61,24.87-0.4,49.94-0.28,74.92c0.02,4.61-2.05,11.78,2.37,13.25
		c17.22,5.72,12.4,19.58,12.73,31.32c0.47,17.23-0.3,34.51,0.26,51.74c0.41,12.61,0.25,24.23-15.42,26.85
		c0,72.43-0.16,143.17,0.18,213.92C460.76,482.38,459.36,491.57,453.7,500z M429.88,258.24c-16.56-1.36-33.5-0.22-47.52-11.05
		c-14.65-11.32-22.13-25.82-22.23-44.34c-0.07-13.04,4.01-24.58,12.21-34.53c14.49-17.59,34.69-20.78,57.55-18.86
		c0-31.58,0.04-60.62-0.01-89.65c-0.05-26.43-2.43-28.9-28.3-28.91c-89.18-0.04-178.37-0.05-267.55,0.08
		c-5.1,0.01-10.56-1.63-15.62,1.67c0,113.91,0,227.69,0,342.54c98.4,0,195.79,0.01,293.18-0.01c13.94,0,18.36-8.41,18.33-20.9
		C429.83,322.78,429.88,291.28,429.88,258.24z M85.7,373.86c0-114.47,0-227.82,0-341.23c-22.3,1.68-31.44,12.31-31.47,36.71
		c-0.11,83.8-0.04,167.61-0.04,251.41c0,20.06,0,40.12,0,60.99C65.25,378.97,74.91,376.56,85.7,373.86z M430.09,453.33
		c-7.61,0-13.47,0-19.34,0c-104.13,0-208.25,0.03-312.38-0.07c-5.83-0.01-11.8,1.24-17.53-1.55c-6.56-3.2-10.11-7.86-9.71-15.43
		c0.42-7.83,5.22-12.06,11.99-13.56c5.12-1.13,10.65-0.55,15.99-0.56c103.53-0.02,207.06,0.02,310.59-0.11
		c6.37-0.01,13.03,1.71,19.29-1.63c2.91-12.24-5.49-16.74-13.75-13.97c-14.81,4.96-28.64-0.16-42.86-0.15
		c-91.03,0.05-182.07-0.06-273.1-0.09c-5.94,0-11.96-0.25-17.82,0.55c-22.87,3.16-34.16,27.63-22.08,47.2
		c8.33,13.49,21.25,15.26,35.59,15.24c107.1-0.19,214.2-0.1,321.3-0.1c3.99,0,7.98,0,10.79,0
		C431.25,463.79,429.41,459.52,430.09,453.33z M445.59,178.31c-19.1,2.9-39.02-6.64-52.05,12.97c-5.89,8.86-5.07,18.31,1.95,26.3
		c14.18,16.12,32.29,9.05,50.1,9.45C445.59,210.61,445.59,196,445.59,178.31z"/>
	<path class="st1" d="M429.88,258.24c0,33.04-0.05,64.54,0.03,96.04c0.03,12.48-4.39,20.89-18.33,20.9
		c-97.39,0.03-194.78,0.01-293.18,0.01c0-114.84,0-228.63,0-342.54c5.06-3.3,10.52-1.67,15.62-1.67
		c89.18-0.12,178.37-0.11,267.55-0.08c25.87,0.01,28.26,2.47,28.3,28.91c0.05,29.04,0.01,58.08,0.01,89.65
		c-22.86-1.93-43.05,1.27-57.55,18.86c-8.2,9.95-12.28,21.48-12.21,34.53c0.1,18.52,7.58,33.01,22.23,44.34
		C396.38,258.02,413.32,256.88,429.88,258.24z M273.48,73.69c-29.56-22.21-71.91-9.01-82.95,26.72c-6.86,22.21,0.3,42.21,14.1,59.98
		c15.98,20.58,36.9,35.06,59.57,47.31c5.55,3,10.62,4.03,16.76,0.84c27.28-14.16,52.02-31.39,68.22-58.21
		c15.05-24.91,12.71-52.68-4.8-70.92C325.94,60.22,302.18,58.07,273.48,73.69z M272.41,335.16c22.01,0,44.02-0.26,66.02,0.11
		c11.4,0.19,19.38-4.48,19.41-15.81c0.03-11.04-9.42-14.71-18.9-14.77c-44.01-0.3-88.03-0.35-132.03,0.12
		c-9.42,0.1-17.96,3.91-17.17,15.93c0.75,11.39,8.14,14.59,18.43,14.48C229.58,335.01,251,335.16,272.41,335.16z"/>
	<path class="st2" d="M85.7,373.86c-10.79,2.7-20.45,5.11-31.51,7.87c0-20.86,0-40.92,0-60.99c0-83.8-0.06-167.61,0.04-251.41
		c0.03-24.4,9.17-35.03,31.47-36.71C85.7,146.04,85.7,259.39,85.7,373.86z"/>
	<path class="st1" d="M430.09,453.33c-0.68,6.18,1.16,10.46-3.01,15.78c-2.82,0-6.81,0-10.79,0c-107.1,0-214.2-0.09-321.3,0.1
		c-14.34,0.03-27.26-1.75-35.59-15.24c-12.08-19.58-0.8-44.04,22.08-47.2c5.85-0.81,11.87-0.56,17.82-0.55
		c91.03,0.03,182.07,0.14,273.1,0.09c14.22-0.01,28.05,5.11,42.86,0.15c8.26-2.77,16.67,1.72,13.75,13.97
		c-6.26,3.34-12.92,1.62-19.29,1.63c-103.53,0.13-207.06,0.08-310.59,0.11c-5.35,0-10.87-0.58-15.99,0.56
		c-6.78,1.5-11.58,5.73-11.99,13.56c-0.4,7.57,3.15,12.23,9.71,15.43c5.73,2.79,11.7,1.55,17.53,1.55
		c104.13,0.1,208.25,0.07,312.38,0.07C416.62,453.33,422.49,453.33,430.09,453.33z"/>
	<path class="st2" d="M445.59,178.31c0,17.7,0,32.31,0,48.71c-17.82-0.4-35.93,6.66-50.1-9.45c-7.02-7.98-7.84-17.44-1.95-26.3
		C406.57,171.66,426.48,181.21,445.59,178.31z"/>
	<path class="st0" d="M273.48,73.69c28.69-15.62,52.46-13.47,70.89,5.72c17.51,18.23,19.85,46.01,4.8,70.92
		c-16.2,26.82-40.94,44.05-68.22,58.21c-6.14,3.19-11.2,2.16-16.76-0.84c-22.66-12.25-43.59-26.73-59.57-47.31
		c-13.8-17.78-20.96-37.77-14.1-59.98C201.57,64.68,243.92,51.48,273.48,73.69z M273.86,177.71c20.93-13.06,41.15-25.63,51.66-48.29
		c5.92-12.76,4.06-24.74-8.56-32.59c-11.75-7.32-20.84-2.35-29.23,7.43c-11.28,13.17-16.24,12.65-29.54-1.7
		c-7.63-8.23-16.19-12.35-26.76-6.58c-9.72,5.31-14.45,13.9-12.63,25.15c1.46,9.03,6.38,16.53,12.2,23.32
		C242.7,158.09,257.02,168.48,273.86,177.71z"/>
	<path class="st2" d="M272.41,335.16c-21.41,0-42.83-0.15-64.23,0.07c-10.29,0.11-17.69-3.1-18.43-14.48
		c-0.79-12.02,7.75-15.83,17.17-15.93c44.01-0.47,88.02-0.42,132.03-0.12c9.48,0.06,18.94,3.74,18.9,14.77
		c-0.04,11.33-8.01,16-19.41,15.81C316.43,334.9,294.42,335.16,272.41,335.16z"/>
	<path class="st2" d="M273.86,177.71c-16.84-9.23-31.15-19.61-42.86-33.27c-5.82-6.79-10.73-14.29-12.2-23.32
		c-1.82-11.25,2.91-19.84,12.63-25.15c10.57-5.77,19.13-1.65,26.76,6.58c13.3,14.36,18.26,14.87,29.54,1.7
		c8.38-9.79,17.48-14.75,29.23-7.43c12.62,7.86,14.47,19.84,8.56,32.59C315.01,152.07,294.79,164.65,273.86,177.71z"/>
</g>
</svg>
