<?xml version="1.0" encoding="utf-8"?>
<!-- Generator: Adobe Illustrator 26.2.1, SVG Export Plug-In . SVG Version: 6.00 Build 0)  -->
<svg version="1.1" id="svg2" xmlns:svg="http://www.w3.org/2000/svg"
	 xmlns="http://www.w3.org/2000/svg" xmlns:xlink="http://www.w3.org/1999/xlink" x="0px" y="0px" viewBox="0 0 500 500"
	 style="enable-background:new 0 0 500 500;" xml:space="preserve">
<style type="text/css">
	.st0{fill-rule:evenodd;clip-rule:evenodd;stroke:#000000;}
</style>
<g id="layer1" transform="translate(-710.9656,-414.3609)">
	<path id="path2078" class="st0" d="M957.98,626.22c28.28,3.3,61.65,9.62,76.58,36.97c10.9,16.12,20.39,33.41,33.99,47.51
		c24.1,12.19,48.11,26.84,65.4,47.91c21.7,32.44,15.13,78.91-10.09,107.4c-28.24,25.85-68.89,38.77-106.53,29.21
		c-24.06-4.81-48.05-18.96-73.08-11.06c-23.15,6.5-46.13,16.74-70.79,13.99c-23.44-0.79-44.47-12.26-64.19-23.79
		c-22.99-14.76-37.36-41.44-35.8-68.86c0.08-41.16,31.03-75.29,65.88-93.35c14.87-7.23,30.49-15.08,37.56-31.13
		c10.11-18.52,18.98-41.78,41.44-48.09C931,628.3,944.54,626.45,957.98,626.22z"/>
	<path id="path2040" class="st0" d="M713.33,586.43c6.04-21.2,23.15-40.82,45.87-43.69c16.25-2.1,33.06,2.03,47.36,9.7
		c26.08,17.37,41.26,46.77,49.85,76.13c4.33,14.04,7.27,29.04,3.7,43.59c-3.29,17.19-15.76,31.75-31.8,38.45
		c-20.84,12.53-48.47,10.83-68.33-2.86c-11.82-7.83-22.29-18.04-28.64-30.85C716.28,649.76,706.13,617.51,713.33,586.43z"/>
	<path id="path2071" class="st0" d="M909.32,430.12c0,0,34.68,0.21,53.8,44.56c0,0,13.2,28.76,8.62,72.93c0,0-0.72,44.47-27.17,62.6
		c0,0-35.96,32.7-77.28-11.29c0,0-28.83-30.91-34.48-74.6c0,0-6.24-45.18,21.7-72.23C854.52,452.08,878.22,429.91,909.32,430.12z"/>
	<path id="path2073" class="st0" d="M1079.77,436.85c0,0,42.67,12.61,38.04,61.37c0,0,2.42,39.17-20.76,74.83
		c0,0-23.48,43.99-54.69,48.75c0,0-34.48,10.7-59.45-42.21c0,0-17.83-60.04,9.81-100.46C992.73,479.13,1025,419.17,1079.77,436.85z"
		/>
	<path id="path2075" class="st0" d="M1174.56,557.07c20.02,6.12,34.16,25.49,35.94,46.08c1.93,18.5-2.45,37.1-8.67,54.41
		c-10.13,25.32-28.4,47.45-51.5,61.95c-17.46,9.53-39.23,5.49-55.22-5.2c-6.54-3.13-10.52-9.07-13.34-15.53
		c-10.64-21.18-12.14-46.95-2.46-68.76c8.18-20.53,18.24-41.49,35.48-55.95c13.07-11.88,30.16-21.59,48.44-19.68
		C1167.11,554.78,1170.92,555.69,1174.56,557.07z"/>
</g>
</svg>
