<?xml version="1.0" encoding="utf-8"?>
<!-- Generator: Adobe Illustrator 26.2.1, SVG Export Plug-In . SVG Version: 6.00 Build 0)  -->
<svg version="1.1" id="Layer_1" xmlns="http://www.w3.org/2000/svg" xmlns:xlink="http://www.w3.org/1999/xlink" x="0px" y="0px"
	 viewBox="0 0 500 500" style="enable-background:new 0 0 500 500;" xml:space="preserve">
<style type="text/css">
	.st0{fill:#FEFDFD;}
	.st1{fill:#FEE7F0;}
	.st2{fill:#FEFEFE;}
	.st3{fill:#F3BFC6;}
	.st4{fill:#80463B;}
	.st5{fill:#421803;}
	.st6{fill:#80464A;}
</style>
<path class="st0" d="M388.94,499.98c-3.53,0-7.06,0.03-10.6-0.02c-1.04-0.01-2.49,0.36-2.82-1.05c-0.31-1.33,0.85-1.93,1.97-2.19
	c1.13-0.26,2.09-0.77,2.84-1.64c1.35-1.58,1.25-2.79-1.07-2.85c-3.9-0.11-7.81-0.03-11.71-0.02c-1.19,0.01-2.49,0.35-2.46,1.68
	c0.1,4.4-2.9,3.89-5.7,3.86c-2.6-0.02-5.27-0.35-7.79,0.1c-3.62,0.65-6.96,2.03-5.09-4.17c0.55-1.84-2.04-2.4-3.63-2.52
	c-2.77-0.22-5.57-0.04-8.36-0.12c-3.56-0.11-6.88-0.16-4.02,4.96c1.36,2.45-0.21,2.86-2.2,2.86c-5.39-0.01-10.78-0.02-16.17,0
	c-2.2,0.01-3.3-0.71-2.03-2.98c1.77-3.17,0.29-3.85-2.65-3.73c-2.78,0.11-5.58,0-8.36,0.03c-2.85,0.03-6.52-0.92-4.62,4.38
	c0.52,1.45-0.79,2.56-2.38,1.99c-4-1.44-8.11-0.62-12.16-0.75c-2.48-0.08-4.54-0.23-4.28-3.49c0.22-2.9-1.58-3.49-3.91-3.23
	c-5.57,0.62-11.11-0.9-16.81,1.76c-3.7,1.73-9.11,1.62-13.09-0.12c-4.99-2.19-9.65-1.92-14.55-0.88c-1.75,0.37-3.29,0.26-4.81-0.61
	c-3.11-1.76-6.72-2.11-9.68-0.78c-3.39,1.52-6.66-3.47-9.61,0.42c-8.78-0.96-17.41,3.58-26.28,0.63c-1.7-0.56-3.67-0.41-5.51-0.41
	c-12.35-0.03-24.72-0.31-37.06,0.06c-15.8,0.47-31.56,0.38-47.3-1.14c-0.9-0.09-1.92-0.01-2.73,0.33
	c-9.02,3.82-17.9,0.58-26.65-0.89c-6.13-1.03-6.82-7.83-9.43-12.3c-1.99-3.42-1.94-7.4-1.62-11.69c0.62-8.23,1.35-16.66-0.62-24.94
	c-1.15-4.83,1.02-9.51,0.99-14.34c-0.1-16.26,0.25-32.53-0.18-48.77c-0.17-6.43-0.21-12.8-0.03-19.23
	c0.28-9.87-0.52-19.77-0.97-29.65c-0.13-2.84,0.53-5.5,1.09-8.22c1.79-8.64-0.36-17.25-0.3-25.88c0.03-3.34,0.23-6.85-1.67-10.05
	c-0.77-1.29,0.11-2.8,1.4-3.88c2.9-2.45,2.19-5.15,0.31-7.83c-0.42-0.61-1.36-1.16-1.35-1.72c0.14-7,0.27-14.01,0.79-21
	c0.08-1.07,0.86-2.34,0.86-3.63c0.01-9.11,1.32-18.46-0.31-27.27c-2.33-12.55,0.6-24.93-0.83-37.29c-1.69-14.61,2.57-29,1.27-43.61
	c-0.51-5.78-2.64-11.44-1.28-17.43c2.29-10.1,1.01-20.49,1.8-30.73c0.49-6.34,0.99-13.65-2.37-20c-0.31-0.59-0.39-1.49-0.2-2.13
	c1.61-5.38,1.39-10.76,0.92-16.31c-0.81-9.62,0.57-19.29,1.42-28.81c0.67-7.53,2.1-16.74,12.76-18.32
	c3.18-4.66,6.63-2.04,10.51-0.86c7.01,2.13,14.17,4.25,21.7,3.26c2.47-0.33,5.73,0.75,5.42-4.16c-0.15-2.34,3.01-1.64,4.51-0.89
	c8.54,4.28,16.91,4.18,25.51,0.04c2.92-1.41,6.21-0.85,9.08,0.89c4.54,2.74,8.85,1.72,12.82-1.04c2.1-1.45,4.11-2.35,5.93-0.37
	c2.41,2.61,4.37,1.74,6.74,0.12c2.85-1.95,5.14-2.25,6.84,1.86c2.19,5.28,7.28,3.85,11.25,3.33c9.25-1.21,18.42-1.51,27.61,0.14
	c4.71,0.85,9.16-1.07,13.79-1.04c8.7,0.06,17.38,0.19,26.08,0.96c3.91,0.34,8.8,0.36,10.19-5.3c0.26-1.05,1.31-1.28,2.27-0.91
	c1.12,0.43,1.86,1.22,1.54,2.57c-0.25,1.02-0.97,2.3,1.01,2.28c8.45-0.08,16.87,0.31,25.25,1.5c3.34,0.47,6.46-1.32,9.89-1.15
	c6.09,0.31,12.18,0.61,18.26,0.99c11.26,0.69,22.53-1.6,33.86-0.98c2.33,0.13,4.3-0.84,5.01-3.51c0.29-1.08,1.15-1.99,2.52-1.53
	c0.98,0.33,1.71,1.25,1.32,2.13c-0.99,2.23,0.14,3.3,1.96,3.61c2.21,0.37,3.94-0.79,4.89-2.82c0.56-1.19-0.17-3.5,2.17-3.09
	c2.17,0.38,0.26,2.14,0.63,3.21c0.94,2.67,3.25,1.91,5.18,2.06c14.77,1.19,29.55-0.18,44.32,0.1c6.05,0.12,12.02,1.21,17.97-1.08
	c2.49-0.96,5.53-0.03,7.44,1.48c6.2,4.89,11.73,10.57,11.69,19.2c-0.03,7.2,0.85,14.44-0.94,21.62c-1.06,4.23,1.15,8.36,1.08,12.66
	c-0.2,12.29,0.32,24.6-0.22,36.87c-0.31,6.96-0.34,14.04-1.95,20.9c-0.76,3.27,1.13,6.15,1,9.33c-0.89,21.61,0.51,43.24-0.4,64.88
	c-0.33,7.9,0,16.1,0.19,24.14c0.54,22.75,0.2,45.53,0.18,68.3c0,5.85,0.09,11.78-0.28,17.53c-0.67,10.47,1.7,20.99-0.01,31.18
	c-1.55,9.22,1.75,18.44-1.29,27.4c-0.48,1.42-0.17,2.55,0.5,3.68c1.21,2.04,1.09,4.27,1.09,6.5c-0.01,36.34,0,72.68-0.01,109.02
	c0,6.99-0.28,7.42-7.32,8.27c-2.32,0.28-3.85,1.32-4.83,3.22c-1.37,2.63-3.19,2.73-5.51,1.39c-2.2-1.27-4.49-1.6-6.94-0.63
	c-6.52,2.57-13.07,1.79-19.64,0.16c-1.42-0.35-2.9-0.69-4.35-0.67c-1.56,0.02-3.56-0.83-4.55,1.04c-0.88,1.68,0.75,2.65,1.63,3.78
	c2.13,2.73,1.32,4.03-2,4.04C396.75,500,392.85,499.98,388.94,499.98z M157.38,14.57c-0.71-1.13-1.47-1.14-2.28-0.11
	c-3.7,0-7.4,0.01-11.1,0.01c-0.76-1.02-1.53-1.02-2.29,0c-0.39,0.03-0.78,0.07-1.17,0.1c-5.56,0.02-11.12,0.04-16.67,0.06
	c-5.96-0.01-11.91-0.02-17.87-0.04c-5.57,0.01-11.15,0.03-16.72,0.04c-5.19-0.05-10.37-0.11-15.56-0.16
	c-0.43-0.59-0.82-0.55-1.18,0.06c-0.35,0.04-0.71,0.08-1.06,0.11c-4.72-0.9-9.43,0.29-14.16,0.13c-1.08-0.04-2.23,0.72-2,2.11
	c0.2,1.17,1.36,1.06,2.24,1.06c4.64,0.03,9.27,0.01,13.91,0.01c0.35,0.02,0.69,0.06,1.04,0.13c0.73,5.88-1.38,11.76-0.04,17.64
	c-4.78,0.04-9.6-0.29-14.34,0.2c-6.66,0.68-2.81,6.05-3.18,9.14c-0.3,2.47-2.67,7.24,3.21,7.45c4.78,0.17,9.56,0.08,14.35,0.1
	c0.02,3.71,0.16,7.42,0.02,11.12c-0.22,5.9-1.06,6.63-6.87,6.66c-11.7,0.07-11.61,0.06-11.02,11.78c0.14,2.84,1.01,3.99,3.91,3.9
	c4.63-0.14,9.26-0.01,13.9,0.01c0,0,0.06,0.06,0.06,0.06c-0.01,5.88-0.02,11.76-0.03,17.64c-4.25,0.03-8.5,0.08-12.76,0.08
	c-2.32,0-4.97,0.07-4.86,3.1c0.17,4.46-1.64,9.18,1.22,13.3c0.4,0.58,2.1,0.33,3.2,0.34c4.07,0.02,8.13-0.01,12.2-0.02
	c0.34,0.03,0.68,0.07,1.02,0.13c-0.02,5.88-0.04,11.75-0.06,17.63c-2.22,0.04-4.43,0.1-6.65,0.11c-12.1,0.01-12.05,0.01-11.14,12.13
	c0.16,2.15,0.69,3.09,3.04,3.65c4.94,1.17,9.89,0.89,14.85,0.99c-0.01,1.86-0.03,3.72-0.04,5.58c-2.55-0.19-5.19,0.5-7.64-0.55
	c-1.8-0.77-3.18-0.35-4.44,1.02c-1.57,1.71-1.69,3.74-0.8,5.64c0.78,1.65,2.07,3.04,1.77,5.05c-6.41,0.45-6.66,0.69-6.7,6.6
	c-0.01,1.84,0.08,3.68-0.01,5.51c-0.16,3.23,1.22,4.73,4.54,4.67c4.4-0.09,8.81,0.04,13.22,0.07c-1.97,5.89,0.83,11.77,0.02,17.66
	c-4.24,0.03-8.48,0.07-12.72,0.08c-2.3,0.01-4.96,0.02-4.88,3.06c0.12,4.46-1.55,9.16,1.16,13.32c0.37,0.57,2.09,0.34,3.19,0.35
	c4.43,0.06,8.85,0.06,13.28,0.09c0.01,5.54,0.02,11.08,0.03,16.62c-4.06,0.02-8.11,0.02-12.16,0.07c-2.25,0.03-5.13,0.18-5.35,2.75
	c-0.38,4.47-1.28,9.12,0.7,13.5c0.14,0.31,1.02,0.47,1.52,0.41c4.83-0.55,9.45,1.29,14.23,1.17c-0.21,5.6,0.14,11.16,1.05,16.68
	c-4.27,0.02-8.56,0.37-12.79-0.02c-4.63-0.44-6.32,0.75-5.13,5.62c0.54,2.22,0.36,4.74-0.55,7.11c-0.97,2.52,0.41,3.84,2.91,4.14
	c1.61,5.93,2.19,11.85,0,17.78c-1.93,0.21-2.28,1.5-2.25,3.14c0.04,2.76,0.23,5.55-0.04,8.29c-0.4,4,0.85,5.76,5.16,5.41
	c4.21-0.34,8.47-0.04,12.71-0.03c0.01,3.33,0.04,6.67,0.03,10c-0.02,6.49-0.18,6.65-6.41,6.7c-2.41,0.02-4.82-0.11-7.22,0.03
	c-4.19,0.25-5.28,1.85-4.63,6.04c0.31,1.99,0.88,4.25,0.26,6.02c-1.33,3.86,0.48,4.72,3.65,5.33c2.08,0.4,3.92,0.19,5.96-0.26
	c5.54-1.23,8.35,1.16,8.39,6.8c0.02,3.52-0.04,7.04-0.06,10.55c-4.62,0.02-9.23,0.03-13.85,0.07c-1.63,0.01-3.53-0.31-3.95,1.99
	c-0.84,4.54,0.04,9.06,0.44,13.56c0.13,1.43,2.08,1.16,3.34,1.18c2.95,0.04,5.92,0.16,8.86-0.02c3.12-0.19,4.29,1.03,4.18,4.16
	c-0.16,4.21-0.42,8.48,1.02,12.58c-2.79,0.01-5.57,0.04-8.36,0.04c-10.33,0-10.48,0.01-9.38,10.21c0.26,2.41-2.7,5.28,0.5,7.1
	c2.28,1.3,5.11,0.37,7.69,0.51c1.3,0.07,2.61,0.13,3.9-0.01c4.22-0.47,5.7,1.75,5.68,5.57c-0.02,3.72-0.03,7.43-0.04,11.15
	c-4.24,0.02-8.48-0.05-12.72,0.11c-2.64,0.1-5.22,0.72-6.08,3.74c-2.57,8.97-1.1,11.36,8,13.33c0.31,0.07,0.54,0.47,0.81,0.71
	c-0.62,1.42-1.88,2.23-2.95,3.25c-1.95,1.85-1.53,7.2,0.77,7.48c4.05,0.49,7.77,4.06,12.17,1.55c0,1.47,0.01,2.94,0.01,4.4
	c-0.34,0.05-0.67,0.09-1.01,0.12c-4.25-0.02-8.51-0.1-12.76-0.02c-1.48,0.03-3.77-0.72-3.74,1.92c0.03,2.13,1.9,2.28,3.63,2.55
	c3.44,0.53,6.84,1.27,10.25,1.93c1.76,0.34,3.41,0.48,3.67-1.97c1.11,0.02,2.21,0.03,3.32,0.05c2.93,3.11,6.07,3.11,8.98-0.01
	c1.11-0.01,2.21-0.02,3.32-0.04c5.72,3.16,11.9,2.01,17.95,1.79c0.36-0.01,0.69-1.15,1.03-1.76c1.1,0,2.21,0,3.31-0.01
	c2.79,3.05,5,3.06,7.86,0.03c1.1,0,2.19,0.01,3.29,0.01c0.18,1.24,0.79,2.21,2.12,2.08c4.89-0.49,9.73-1.48,14.7-0.64
	c0.62,0.11,1.45-0.98,2.18-1.51c1.11,0.01,2.22,0.02,3.33,0.04c1.87,3.53,3.74,3.51,5.62,0.01c2.59-0.02,5.19-0.03,7.78-0.05
	c0.21,2.38,2.02,2.59,3.58,2.1c3.6-1.11,7.05-1.14,10.65,0c1.54,0.48,3.39,0.33,3.62-2.06c1.11,0,2.22,0,3.32,0
	c2.9,3.13,6.06,3.13,8.97,0.01c0.73,0,1.46,0,2.18,0c0.41,2.78,2.62,1.9,4.33,2.21c5.17,0.93,9.65-2.42,14.68-2.27
	c5.57,0.01,11.15,0.01,16.72,0.02c5.94,1.53,11.89-0.67,17.83,0.01c5.21,0.01,10.42,0.01,15.63,0.02
	c4.89,4.48,10.67,1.49,16.04,1.79c0.57,0.03,1.21-1.21,1.82-1.85c5.58,0.01,11.15,0.02,16.73,0.03c5.96,3.07,11.91,1.33,17.86-0.02
	c5.58,0.01,11.16,0.02,16.73,0.03c5.96,1.81,11.91,1.85,17.86-0.03c5.57,0,11.14,0.01,16.71,0.01c5.59-0.76,11.17,1.44,16.76,0.01
	c5.58,0,11.16,0,16.74,0c3.31-1.3,5.44,2.94,8.86,1.77c2.61-0.89,5.32-2.1,8.15,0.16c1.03,0.82,1.8-0.68,1.98-1.87
	c1.1,0,2.2-0.01,3.29-0.01c2.84,3.04,5.05,3.04,7.86-0.01c1.11,0,2.22,0,3.32,0c5.14,2.98,10.25,1.02,15.39-0.03
	c1.52-0.31,3.23-0.43,3.09-2.38c-0.13-1.88-1.86-2.06-3.39-2.07c-4.65-0.04-9.29-0.04-13.94-0.06c-0.01-1.47-0.02-2.95-0.04-4.42
	c2.61,0.61,5.07,3.08,7.96,0.24c0.62-0.61,2.56-0.24,3.73,0.16c2.21,0.74,4.86,0.28,5.39-1.29c0.68-2.02,0.05-4.76-0.75-6.92
	c-0.65-1.75-2.63-2.54-4.69-1.86c-2.59,0.86-4.33,0.2-4.95-2.62c2-2.01,4.53-0.8,6.81-1.07c1.48-0.17,2.93-0.13,3.85-1.61
	c2.31-3.72-0.09-12.96-3.96-15.16c4.25-4.95,3.27-10.94,3.35-16.73c3.2-3.82,3.2-12.79,0-17.86c0.73-3.17-1.68-6.12-0.83-9.2
	c1.22-4.43-1.52-4.78-4.7-5.37c-4.13-0.77-7.3,2.36-11.19,2.29c0-1.48,0.01-2.96,0.01-4.44c4.63-0.01,9.27,0.01,13.9-0.04
	c1.61-0.02,3.62,0.34,3.82-2.09c0.28-3.46,0.56-6.93,0.5-10.4c-0.05-2.97-1.4-4.59-4.88-4.32c-4.42,0.34-8.89,0.06-13.34,0.05
	c-0.01-5.56-0.01-11.12-0.02-16.69c2.5,0.04,4.86-0.61,7.51-0.22c10.85,1.6,11.51,0.83,11.44-10.18c0-0.55-0.02-1.1,0-1.65
	c0.12-3.18-1.06-5.34-4.46-5.82c2.93-5.4,2.88-11.01,1.11-16.72c2.61-1.27,3.51-3.37,3.38-6.23c-0.16-3.67,0.11-7.38-2.27-10.55
	c-0.02-5.95,0.37-11.93-1.12-17.79c2.23-0.18,3.31-1.42,3.33-3.63c0.01-0.93,0.01-1.85,0.02-2.78c0.07-10.3,0.02-10.36-10.03-10.36
	c-2.96,0-5.93-0.02-8.89-0.04c-0.01-5.56-0.02-11.13-0.03-16.69c4.27-0.01,8.55-0.01,12.82-0.03c1.47-0.01,3.01,0.18,4.17-1.07
	c3.68-3.93,2.15-14.12-2.5-16.76c1.55-1.39,2.43-2.93,2.3-5.21c-0.23-3.83-0.06-7.68-0.06-11.52c3.09-3.8,1.95-8.33,2.26-12.63
	c0.22-3.08-0.97-4.28-4.1-4.18c-4.95,0.17-9.91,0.03-14.86,0.02c0.01-5.93,0.01-11.85,0.02-17.78c2.6-0.01,5.19-0.04,7.79-0.04
	c12.5,0,12.34,0.03,10.15-12.58c-0.6-3.46-2.17-4.25-5.18-4.18c-4.26,0.1-8.53,0.01-12.8,0c0-5.57,0-11.14,0.01-16.71
	c2.77-0.01,5.54-0.02,8.3-0.03c11.74-0.04,10.62,1.17,10.64-10.73c0.01-6.19-1.8-7.81-7.91-7.04c-1.45,0.18-2.84,0.83-4.29,0.95
	c-4.61,0.4-6.73-1.55-6.76-6.09c-0.02-3.87,0.03-7.75,0.05-11.62c4.62-0.02,9.24-0.01,13.86-0.07c1.6-0.02,3.54,0.36,3.85-2.06
	c0.43-3.27,0.79-6.55,1.2-9.83c0.44-3.44-0.68-5.12-4.52-4.9c-4.79,0.27-9.61,0.05-14.41,0.04c-0.01-3.51-0.04-7.03-0.03-10.54
	c0.01-6.39,0.7-7.06,7.37-7.26c10.69-0.32,10.69-0.32,10.49-11.09c-0.02-0.92,0.06-1.86-0.09-2.77c-0.26-1.6-0.95-2.51-2.93-2.5
	c-4.94,0.03-9.88-0.25-14.82-0.41c0-5.57,0-11.13,0-16.7c5.18-0.01,10.36,0.01,15.54-0.05c1.18-0.01,3.24,0.31,2.87-1.53
	c-0.83-4.11,1.2-7.94,0.63-12.03c-0.33-2.39-1.19-3.3-3.44-3.17c1.55-6.44,3.05-12.86-3.35-17.81c0.55-0.01,1.1-0.02,1.64-0.03
	c1.51-0.03,3.44-0.2,3.35-1.97c-0.1-2.07-2.24-1.32-3.54-1.34c-4.57-0.09-9.13-0.04-13.7-0.04c-5.94,0.02-11.88,0.03-17.82,0.05
	c-5.23-0.01-10.47-0.01-15.7-0.02c-5.96-0.02-11.92-0.03-17.87-0.05c-5.56,0.01-11.12,0.02-16.68,0.03
	c-5.61-0.01-11.22-0.02-16.84-0.04c-5.9,0-11.81,0-17.71,0.01c-5.61,0-11.22,0.01-16.83,0.01c-5.92,0-11.83-0.01-17.75-0.01
	l-0.04-0.03c-0.34-0.73-0.73-0.78-1.18-0.08c-3.7,0-7.4,0-11.09,0c-1.15-1.27-2.28-1.29-3.39,0.04c-0.37,0.04-0.73,0.07-1.1,0.1
	c-5.56-0.01-11.13-0.01-16.69-0.02l-0.03-0.01c-1.46-1.59-2.96-1.49-4.49-0.1c-4.11,0.03-8.22,0.06-12.33,0.09
	c-5.89,0-11.78-0.01-17.67-0.01l-0.09-0.03c-2.23-1.62-4.47-1.54-6.72-0.06c-2.96,0.01-5.92,0.01-8.87,0.02
	c-0.45-0.72-0.83-0.65-1.17,0.09l-0.02,0.01c-5.57,0.01-11.15,0.03-16.72,0.04c-5.94,0-11.87,0-17.81,0
	c-5.57-0.02-11.14-0.04-16.71-0.05L157.38,14.57z"/>
<path class="st0" d="M241.75,498.96c2.49-1.82,5.03-1,7.58-0.52C246.97,500.82,244.36,500,241.75,498.96z"/>
<path class="st1" d="M345.94,484.34c-5.95,1.87-11.9,1.83-17.86,0.03c0-1.49,0-2.98,0.01-4.47c1.66,0,3.33,0,4.99,0
	c13.02,0,13.22-0.32,11.8-13.7c-0.31-2.91-2.22-4.54-4.24-3.9c-4.34,1.37-8.36-0.58-12.51-0.22c-0.03-5.58-0.06-11.15-0.08-16.73
	c2.03-0.01,4.05-0.03,6.08-0.03c10.38,0,10.38,0,10.86-10.23c7.77,0.32,15.5-0.21,23.22-1.1c-6.36,3-6.6,3.47-5.59,10.83
	c0.02,0.18-0.01,0.37-0.02,0.55c-4.07-0.01-8.15,0.03-12.22-0.05c-2.95-0.06-4.27,1.12-4.52,4.21
	c-0.99,12.57-0.83,12.82,11.89,12.55c0.37-0.01,0.74-0.04,1.11,0c2.94,0.32,3.93-1.09,3.83-3.91c-0.15-4.25-0.06-8.52-0.07-12.78
	c5.54,0.79,11.1,1.33,16.71,0.99c0.03,4.05,0.15,8.09,0.06,12.14c-0.05,2.58,0.96,3.64,3.57,3.59c4.41-0.09,8.83,0.02,13.24,0.05
	c0.01,5.89,0.01,11.78,0.02,17.67c0,0-0.08,0.08-0.08,0.08c-5.57,0-11.14,0.01-16.72,0.01l-0.09-0.09
	c0.02-4.42,0.53-8.91-0.05-13.24c-0.9-6.67-6.38-2.68-9.69-3.22c-2.34-0.38-6.86-2.36-6.91,3.25c-0.05,4.42,0.01,8.84,0.02,13.26
	l-0.09,0.09c-4.18-0.02-8.37,0.14-12.53-0.13C346.55,479.61,345.5,481.17,345.94,484.34z"/>
<path class="st1" d="M72.45,86.09c-4.63-0.02-9.27-0.15-13.9-0.01c-2.89,0.09-3.77-1.07-3.91-3.9
	c-0.59-11.72-0.69-11.71,11.02-11.78c5.81-0.03,6.65-0.77,6.87-6.66c0.14-3.7,0-7.41-0.02-11.12l0.08-0.08
	c5.55-0.01,11.1-0.02,16.66-0.03c0.02,4.41,0.12,8.83,0.03,13.24c-0.05,2.58,0.98,3.64,3.57,3.58c4.41-0.09,8.82,0,13.24,0.02
	c-0.01,4.22,0.11,8.45-0.09,12.66c-0.15,3.15,1.13,4.21,4.18,4.1c4.21-0.15,8.44,0.03,12.66,0.07c-0.01,5.88-0.01,11.76-0.02,17.64
	c-5.6,0.02-11.19,0.04-16.79,0.07c0-4.43,0.37-8.9-0.08-13.28c-0.68-6.7-6.05-2.84-9.16-3.21c-2.48-0.3-7.26-2.67-7.46,3.24
	c-0.15,4.43-0.04,8.86-0.05,13.29c-5.57-0.01-11.14-0.02-16.71-0.02l-0.09-0.09c0.01-5.88,0.02-11.76,0.03-17.64
	c4.08-0.03,8.17-0.16,12.24-0.06c2.71,0.06,3.99-1.28,3.4-3.7c-1.06-4.3,3.13-10.1-2.51-12.78c-2.87-1.37-6.94-0.24-10.46-0.25
	c-2.33,0-2.63,1.54-2.64,3.37C72.53,77.18,72.48,81.63,72.45,86.09z"/>
<path class="st1" d="M72.52,445.26c0.01-3.72,0.02-7.43,0.04-11.15c0.02-3.82-1.46-6.03-5.68-5.57c-1.29,0.14-2.6,0.08-3.9,0.01
	c-2.58-0.14-5.41,0.79-7.69-0.51c-3.19-1.82-0.24-4.69-0.5-7.1c-1.11-10.2-0.95-10.21,9.38-10.21c2.79,0,5.57-0.03,8.36-0.04
	l0.1,0.1c-0.92,4.7,0.14,9.41-0.11,14.11c-0.16,3.02,1.33,3.78,4.01,3.69c4.22-0.14,8.44-0.09,12.66-0.12l0.12,0.12
	c0,4.4,0.07,8.81-0.03,13.21c-0.06,2.6,1.02,3.61,3.59,3.55c4.4-0.1,8.8-0.01,13.21,0.01c-0.01,4.41,0.07,8.82-0.05,13.23
	c-0.1,3.51,2.28,5.16,4.83,4.31c4.19-1.4,7.96,0.36,11.91,0.25c0.04,5.56,0.07,11.12,0.11,16.68l-0.09,0.09
	c-5.57,0.01-11.14,0.02-16.71,0.03l-0.08-0.08c0.02-3.89-0.2-7.8,0.11-11.67c0.39-4.79-1.96-6.26-6.24-6.14
	c-3.52,0.09-7.04,0.01-10.56,0.01c-0.01-4.04-0.1-8.09,0.01-12.13c0.09-3.27-1.28-4.72-4.58-4.62c-4.04,0.12-8.09,0.04-12.13,0.04
	C72.6,445.35,72.52,445.26,72.52,445.26z"/>
<path class="st1" d="M72.54,410.69c-1.44-4.1-1.18-8.37-1.02-12.58c0.12-3.13-1.06-4.35-4.18-4.16c-2.94,0.18-5.91,0.05-8.86,0.02
	c-1.26-0.02-3.21,0.26-3.34-1.18c-0.4-4.5-1.29-9.02-0.44-13.56c0.43-2.29,2.32-1.97,3.95-1.99c4.62-0.04,9.23-0.05,13.85-0.07
	l0.08,0.08c-0.01,1.46-0.03,2.93-0.03,4.39c-0.01,12.46-0.01,12.46,12.3,12.31c5.68,10.04,12.31,19.34,21.15,26.9
	c0.02,2.57,0.05,5.13,0.07,7.7c-5.58,0.01-11.17,0.02-16.75,0.03l-0.12-0.12c0.03-4.39-0.02-8.79,0.11-13.18
	c0.1-3.29-1.34-4.66-4.6-4.56c-4.02,0.12-8.05,0.05-12.08,0.06L72.54,410.69z"/>
<path class="st1" d="M430.78,120.67c-0.02,3.87-0.07,7.75-0.05,11.62c0.03,4.54,2.16,6.49,6.76,6.09c1.45-0.13,2.84-0.77,4.29-0.95
	c6.11-0.77,7.92,0.85,7.91,7.04c-0.02,11.9,1.1,10.69-10.64,10.73c-2.77,0.01-5.54,0.02-8.3,0.03l-0.11-0.11
	c0.03-3.88,0.09-7.77,0.07-11.65c-0.03-4.67-1.68-6.41-6.35-5.51c-3.62,0.7-6.93,0.31-10.33-0.55c-0.02-5.58-0.05-11.16-0.07-16.73
	c5.58-0.03,11.16-0.05,16.74-0.08L430.78,120.67z"/>
<path class="st1" d="M430.75,69.27c4.94,0.16,9.88,0.44,14.82,0.41c1.98-0.01,2.67,0.9,2.93,2.5c0.15,0.9,0.07,1.84,0.09,2.77
	c0.2,10.76,0.2,10.76-10.49,11.09c-6.67,0.2-7.36,0.87-7.37,7.26c0,3.51,0.02,7.03,0.03,10.54c0,0-0.09,0.09-0.09,0.09
	c-5.57-0.04-11.15-0.09-16.72-0.13c0-5.89,0-11.78-0.01-17.67c4.21-0.02,8.43-0.19,12.63-0.03c3.05,0.12,4.33-0.94,4.18-4.09
	c-0.2-4.2-0.09-8.42-0.12-12.63L430.75,69.27z"/>
<path class="st1" d="M72.5,377.18c0.02-3.52,0.08-7.04,0.06-10.55c-0.03-5.64-2.85-8.03-8.39-6.8c-2.04,0.45-3.88,0.66-5.96,0.26
	c-3.17-0.61-4.98-1.47-3.65-5.33c0.61-1.77,0.05-4.03-0.26-6.02c-0.66-4.18,0.44-5.79,4.63-6.04c2.4-0.14,4.81-0.01,7.22-0.03
	c6.23-0.05,6.39-0.21,6.41-6.7c0.01-3.33-0.02-6.67-0.03-10l0.08-0.08c4.5-0.46,9.21,1.23,13.51-1.3l0.01,0.1
	c-0.09,0.71-0.18,1.42-0.27,2.13c-3.66,4.76-5.95,10.21-7.88,15.83c-4.37-0.11-5.89,2.16-5.47,6.29c0.19,1.83,0.48,3.85-0.07,5.52
	c-1.39,4.2,0.75,5.53,4.24,6.13c0.48,4.1,0.97,8.21,1.45,12.31c0.72,4.74-2.48,4.48-5.56,4.36L72.5,377.18z"/>
<path class="st1" d="M445.24,342.66c3.4,0.48,4.58,2.64,4.46,5.82c-0.02,0.55-0.01,1.1,0,1.65c0.07,11.01-0.59,11.78-11.44,10.18
	c-2.65-0.39-5.01,0.26-7.51,0.22l-0.12-0.12c0.03-4.03-0.12-8.07,0.15-12.08c0.29-4.31-1.37-6.22-5.71-5.6
	c-2.06-5.5-4.37-10.87-7.73-15.72c4.28-2.29,8.91-0.5,13.32-1.14l0.09,0.09c0,1.48,0,2.96,0,4.44c-0.01,2.97-0.01,5.95-0.02,8.92
	c-0.28,2.51,0.84,3.62,3.34,3.34C437.8,342.66,441.52,342.66,445.24,342.66z"/>
<path class="st1" d="M56.95,291.38c-2.51-0.3-3.88-1.61-2.91-4.14c0.91-2.38,1.1-4.9,0.55-7.11c-1.2-4.87,0.5-6.05,5.13-5.62
	c4.23,0.4,8.52,0.05,12.79,0.02l0.08,0.08c-1.43,3.72-0.92,7.61-1.15,11.45c-0.22,3.73,1.16,5.62,5.01,5.4
	c0.72,5.5,0.61,11.11,2.03,16.53c-1.86,0.97-3.83,1.35-5.91,1.18l-0.1-0.1c0.55-5.13-0.38-10.15-0.97-15.21
	c-0.27-2.33-1.6-2.56-3.39-2.49c-1.48,0-2.97,0-4.45,0c-0.75,0-1.49,0-2.24,0.01C59.92,291.38,58.44,291.38,56.95,291.38z"/>
<path class="st1" d="M328.13,14.59c5.9,0,11.81,0,17.71-0.01c-0.15,2.59,1.09,3.53,3.64,3.44c4.38-0.15,8.76-0.08,13.14-0.1
	c0,0,0.08,0.08,0.08,0.08c-0.01,5.94-0.03,11.88-0.04,17.82c-5.94,0.01-11.88,0.02-17.82,0.03c-0.01-4.77-0.09-9.53,0-14.3
	c0.05-2.56-0.94-3.66-3.54-3.6c-4.4,0.11-8.8,0.03-13.2,0.04C328.12,16.86,328.13,15.72,328.13,14.59z"/>
<path class="st1" d="M225.53,14.57c5.89,0,11.78,0.01,17.67,0.01c-0.16,2.6,1.09,3.53,3.64,3.44c4.38-0.15,8.77-0.07,13.15-0.08
	l0.08,0.08c-0.01,5.93-0.03,11.86-0.04,17.79c-5.6-0.03-11.2-0.06-16.8-0.09c-0.35-4.67-0.89-9.33-0.98-14
	c-0.06-2.94-1.2-3.89-4-3.79c-4.25,0.15-8.5,0.06-12.75,0.07C225.51,16.86,225.52,15.71,225.53,14.57z"/>
<path class="st1" d="M447.47,410.73c3.2,5.06,3.2,14.04,0,17.86c-5.59-0.02-11.18-0.04-16.77-0.06c-0.03-5.89-0.06-11.79-0.09-17.68
	l0.13-0.13C436.31,410.72,441.89,410.73,447.47,410.73z"/>
<path class="st1" d="M445.23,240.02c4.66,2.64,6.18,12.83,2.5,16.76c-1.16,1.24-2.7,1.06-4.17,1.07c-4.27,0.02-8.55,0.02-12.82,0.03
	l-0.12-0.12c0.02-5.9,0.05-11.8,0.07-17.71C435.54,240.04,440.39,240.03,445.23,240.02z"/>
<path class="st1" d="M62.53,463.15c-0.27-0.25-0.5-0.65-0.81-0.71c-9.11-1.97-10.57-4.36-8-13.33c0.87-3.03,3.44-3.65,6.08-3.74
	c4.23-0.15,8.48-0.08,12.72-0.11l0.08,0.09c-0.01,5.57-0.03,11.14-0.04,16.71c0,0-0.12,0.12-0.12,0.12
	C69.05,461.65,65.93,463.83,62.53,463.15z"/>
<path class="st1" d="M430.76,206.51c4.96,0.01,9.91,0.15,14.86-0.02c3.13-0.11,4.31,1.1,4.1,4.18c-0.3,4.3,0.84,8.83-2.26,12.63
	c-5.58-0.01-11.17-0.02-16.75-0.04c-0.02-5.55-0.03-11.1-0.05-16.65L430.76,206.51z"/>
<path class="st1" d="M446.35,35.8c2.25-0.13,3.11,0.78,3.44,3.17c0.57,4.09-1.46,7.92-0.63,12.03c0.37,1.84-1.69,1.52-2.87,1.53
	c-5.18,0.06-10.36,0.04-15.54,0.05l-0.1-0.1c0.03-5.55,0.06-11.11,0.09-16.66C435.94,35.81,441.15,35.8,446.35,35.8z"/>
<path class="st1" d="M430.77,274.56c2.96,0.01,5.93,0.03,8.89,0.04c10.05,0,10.1,0.06,10.03,10.36c-0.01,0.93-0.01,1.85-0.02,2.78
	c-0.02,2.21-1.1,3.45-3.33,3.63c-4.83,0-9.66,0.01-14.5,0.01c-0.38-0.02-0.76-0.04-1.14-0.07c-0.01-5.56-0.02-11.11-0.04-16.67
	C430.68,274.65,430.77,274.56,430.77,274.56z"/>
<path class="st1" d="M447.47,309.16c2.38,3.17,2.11,6.88,2.27,10.55c0.12,2.86-0.77,4.96-3.38,6.23c-4.09,0-8.18-0.01-12.27-0.01
	c-1.11,0.01-2.22,0.01-3.33,0.02l-0.09-0.09c0.02-5.56,0.05-11.11,0.07-16.67C436.31,309.18,441.89,309.17,447.47,309.16z"/>
<path class="st1" d="M430.74,171.93c4.27,0.01,8.53,0.09,12.8,0c3-0.07,4.57,0.71,5.18,4.18c2.19,12.61,2.36,12.58-10.15,12.58
	c-2.6,0-5.19,0.03-7.79,0.04l-0.08-0.08c-0.02-5.53-0.05-11.06-0.07-16.6L430.74,171.93z"/>
<path class="st1" d="M430.77,103.85c4.81,0.01,9.62,0.24,14.41-0.04c3.84-0.22,4.96,1.46,4.52,4.9c-0.42,3.27-0.77,6.56-1.2,9.83
	c-0.32,2.42-2.25,2.04-3.85,2.06c-4.62,0.06-9.24,0.05-13.86,0.07c0,0-0.08-0.08-0.08-0.08c-0.01-5.55-0.02-11.1-0.03-16.65
	C430.67,103.94,430.77,103.85,430.77,103.85z"/>
<path class="st1" d="M72.47,35.72c-1.34-5.88,0.77-11.76,0.04-17.64c5.58-0.05,11.17-0.1,16.75-0.16L89.34,18
	c-0.02,5.95-0.05,11.9-0.07,17.85c-5.57-0.01-11.14-0.03-16.71-0.04L72.47,35.72z"/>
<path class="st1" d="M430.77,377.21c4.45,0.01,8.91,0.29,13.34-0.05c3.48-0.27,4.83,1.35,4.88,4.32c0.05,3.46-0.22,6.94-0.5,10.4
	c-0.2,2.44-2.22,2.07-3.82,2.09c-4.63,0.05-9.27,0.03-13.9,0.04c0,0-0.06-0.06-0.06-0.06c-0.01-5.55-0.01-11.1-0.02-16.65
	C430.68,377.3,430.77,377.21,430.77,377.21z"/>
<path class="st1" d="M430.78,188.73c-0.01,5.93-0.01,11.85-0.02,17.78l-0.09,0.09c-5.56-0.03-11.13-0.07-16.69-0.1
	c-0.01-5.91-0.01-11.83-0.02-17.74c5.58-0.04,11.16-0.07,16.75-0.11L430.78,188.73z"/>
<path class="st1" d="M72.51,52.62c-4.78-0.02-9.57,0.07-14.35-0.1c-5.88-0.21-3.51-4.98-3.21-7.45c0.37-3.1-3.47-8.46,3.18-9.14
	c4.74-0.49,9.56-0.16,14.34-0.2l0.09,0.1c0.01,5.57,0.02,11.15,0.03,16.72L72.51,52.62z"/>
<path class="st1" d="M72.53,325.97c-4.24-0.02-8.5-0.31-12.71,0.03c-4.31,0.35-5.56-1.42-5.16-5.41c0.27-2.74,0.09-5.52,0.04-8.29
	c-0.03-1.64,0.32-2.94,2.25-3.14c3.72,0,7.43,0,11.15,0c1.45-0.03,2.91-0.05,4.36-0.08l0.1,0.1c0.01,5.57,0.03,11.14,0.04,16.71
	L72.53,325.97z"/>
<path class="st1" d="M430.74,475.44c0.01,1.47,0.02,2.95,0.04,4.42l-0.09,0.09c-5.56-0.01-11.12-0.03-16.69-0.04l-0.08-0.08
	c0.01-5.89,0.02-11.79,0.03-17.68c5.59-0.04,11.18-0.07,16.77-0.11l0.08,0.08c-0.02,0.72-0.04,1.44-0.06,2.16
	C430.74,468,430.74,471.72,430.74,475.44z"/>
<path class="st1" d="M72.5,223.34c-4.43-0.02-8.85-0.03-13.28-0.09c-1.1-0.01-2.82,0.22-3.19-0.35c-2.71-4.15-1.04-8.86-1.16-13.32
	c-0.08-3.03,2.58-3.05,4.88-3.06c4.24-0.01,8.48-0.05,12.72-0.08l0.09,0.09c0,5.58,0.01,11.15,0.01,16.73L72.5,223.34z"/>
<path class="st2" d="M447.47,309.16c-5.58,0.01-11.15,0.02-16.73,0.02l0,0c0.74-4.54-1.46-8.86-1.05-13.38
	c2.96-0.37,1.93-2.71,2.17-4.42c4.83,0,9.66-0.01,14.5-0.01C447.84,297.23,447.45,303.21,447.47,309.16z"/>
<path class="st1" d="M72.53,479.84c0-1.47-0.01-2.94-0.01-4.4c-0.03-4.42-0.05-8.83-0.08-13.25l0.12-0.12
	c5.57-0.01,11.15-0.2,16.65,1.01c0.04,5.6,0.08,11.2,0.12,16.8l-0.09,0.09C83.68,479.92,78.1,479.88,72.53,479.84z"/>
<path class="st1" d="M72.46,188.79c-4.41-0.03-8.81-0.16-13.22-0.07c-3.32,0.07-4.7-1.44-4.54-4.67c0.09-1.83,0-3.67,0.01-5.51
	c0.04-5.91,0.29-6.15,6.7-6.6c3.7-0.02,7.39-0.04,11.09-0.06l0.09,0.09c-0.01,5.57-0.02,11.15-0.03,16.72L72.46,188.79z"/>
<path class="st1" d="M72.46,138.35c0.02-5.88,0.04-11.75,0.06-17.63c5.59-0.04,11.18-0.08,16.77-0.12
	c-0.03,5.62-0.05,11.23-0.08,16.85c-5.5,1.21-11.08,1.02-16.65,1.01L72.46,138.35z"/>
<path class="st1" d="M71.49,120.59c-4.07,0.01-8.14,0.04-12.2,0.02c-1.1-0.01-2.8,0.24-3.2-0.34c-2.86-4.12-1.05-8.84-1.22-13.3
	c-0.11-3.03,2.54-3.1,4.86-3.1c4.25,0,8.5-0.05,12.76-0.08l0.09,0.09C72.28,109.45,73.28,115.11,71.49,120.59z"/>
<path class="st1" d="M72.56,155.22c-4.96-0.1-9.91,0.18-14.85-0.99c-2.35-0.56-2.88-1.5-3.04-3.65
	c-0.91-12.12-0.96-12.11,11.14-12.13c2.22,0,4.43-0.07,6.65-0.11l0.1,0.11c0.02,5.57,0.03,11.14,0.05,16.71L72.56,155.22z"/>
<path class="st1" d="M444.12,445.32c3.88,2.2,6.28,11.44,3.96,15.16c-0.92,1.48-2.37,1.44-3.85,1.61c-2.28,0.26-4.81-0.95-6.81,1.07
	c-1.48,0-2.97,0-4.45,0c-0.46-0.89-1.26-1.07-2.17-1.03l-0.08-0.08c0.02-5.21,0.05-10.43,0.07-15.64c2.22-0.34,4.7,0.95,6.64-1.08
	C439.66,445.32,441.89,445.32,444.12,445.32z"/>
<path class="st1" d="M72.48,206.45c0.81-5.89-1.99-11.77-0.02-17.66l0.1-0.1c5.24,0.05,10.48,0.11,15.72,0.16
	c-0.01,5.85-0.01,11.71-0.02,17.56c-5.23,0.04-10.46,0.08-15.69,0.12L72.48,206.45z"/>
<path class="st1" d="M71.46,257.85c-4.78,0.12-9.4-1.72-14.23-1.17c-0.5,0.06-1.38-0.1-1.52-0.41c-1.98-4.38-1.08-9.02-0.7-13.5
	c0.22-2.57,3.1-2.72,5.35-2.75c4.05-0.05,8.11-0.05,12.16-0.07l0.07,0.08c-2.27,5.78-0.69,11.78-1,17.68L71.46,257.85z"/>
<path class="st2" d="M446.35,35.8c-5.2,0.01-10.41,0.01-15.61,0.02l0,0c0.01-5.94,0.01-11.88,0.02-17.82l0.01-0.01
	c4.08,0,8.16,0,12.24,0C449.4,22.93,447.9,29.36,446.35,35.8z"/>
<path class="st3" d="M71.49,120.59c1.79-5.48,0.79-11.13,1.08-16.71c5.57,0.01,11.14,0.02,16.71,0.02l0,0c0,5.56,0,11.13,0,16.69
	l0,0c-5.59,0.04-11.18,0.08-16.77,0.12C72.18,120.66,71.84,120.61,71.49,120.59z"/>
<path class="st1" d="M430.75,52.58c0,5.57,0,11.13,0,16.7l-0.11,0.11c-5.54-0.03-11.09-0.05-16.63-0.08c0-5.59,0-11.17-0.01-16.76
	c5.55-0.03,11.1-0.05,16.65-0.08L430.75,52.58z"/>
<path class="st1" d="M72.52,160.79c0.01-1.86,0.03-3.72,0.04-5.57c0,0,0.05-0.05,0.05-0.05c5.55,0,11.1-0.01,16.64-0.01
	c0,5.61-0.01,11.23-0.01,16.84c-5.55-0.01-11.09-0.02-16.64-0.03l-0.09-0.09C72.51,168.18,72.51,164.49,72.52,160.79z"/>
<path class="st1" d="M430.75,155.23c0,5.57,0,11.14-0.01,16.71l-0.12,0.12c-5.54-0.03-11.08-0.06-16.62-0.1c0-5.58,0-11.17,0-16.75
	c5.55-0.03,11.09-0.05,16.64-0.08L430.75,155.23z"/>
<path class="st2" d="M430.72,223.25c5.58,0.01,11.17,0.02,16.75,0.04c0,3.84-0.16,7.69,0.06,11.52c0.14,2.28-0.75,3.82-2.3,5.21
	c-4.85,0.01-9.69,0.02-14.54,0.03l0,0C430.7,234.45,430.71,228.85,430.72,223.25C430.72,223.25,430.72,223.25,430.72,223.25z"/>
<path class="st1" d="M430.76,394.01c0,1.48-0.01,2.96-0.01,4.44c0,4.09-0.01,8.18-0.01,12.27l-0.13,0.13
	c-5.51-0.02-11.03-0.04-16.54-0.06c-0.8-2.19,1.57-5.3-1.94-6.7c1.76-3,3.52-6.01,5.29-9.01c0.29-0.42,0.58-0.84,0.88-1.26
	l-0.03-0.03c4.15,0.06,8.3,0.11,12.45,0.17L430.76,394.01z"/>
<path class="st1" d="M72.52,239.96c-0.01-5.54-0.02-11.08-0.03-16.62c0,0,0.08-0.08,0.08-0.08c5.2,0,10.41,0.01,15.61,0.01
	c0.03,4.07,0.07,8.14,0.1,12.21c0.36,3.55-1.18,4.88-4.75,4.61c-3.63-0.27-7.29-0.05-10.94-0.05
	C72.6,240.04,72.52,239.96,72.52,239.96z"/>
<path class="st2" d="M444.12,445.32c-2.23,0-4.46,0-6.69,0c-1.49-2.6-3.92-3.32-6.69-3.35c-0.02-4.48-0.03-8.95-0.05-13.43l0-0.01
	c5.59,0.02,11.18,0.04,16.77,0.06C447.39,434.37,448.37,440.37,444.12,445.32z"/>
<path class="st2" d="M434.08,325.93c4.09,0,8.18,0.01,12.27,0.01c1.77,5.72,1.82,11.32-1.11,16.72c-3.72,0-7.44,0-11.16,0
	c0.26-2.49-0.85-3.61-3.34-3.34c0.01-2.97,0.01-5.95,0.02-8.92C433.66,330.24,434.19,328.32,434.08,325.93z"/>
<path class="st2" d="M430.74,410.72c0-4.09,0.01-8.18,0.01-12.27c3.89,0.06,7.07-3.06,11.19-2.29c3.18,0.59,5.92,0.93,4.7,5.37
	c-0.85,3.09,1.56,6.03,0.83,9.2C441.89,410.73,436.31,410.72,430.74,410.72z"/>
<path class="st2" d="M432.97,463.15c1.48,0,2.97,0,4.45,0c0.62,2.82,2.35,3.48,4.95,2.62c2.06-0.69,4.04,0.11,4.69,1.86
	c0.8,2.15,1.43,4.89,0.75,6.92c-0.53,1.56-3.18,2.03-5.39,1.29c-1.17-0.39-3.11-0.76-3.73-0.16c-2.89,2.84-5.35,0.38-7.96-0.24
	c0-3.72,0-7.44,0-11.16C431.67,464.26,432.51,464.08,432.97,463.15z"/>
<path class="st2" d="M72.44,462.18c0.03,4.42,0.05,8.83,0.08,13.25c-4.4,2.51-8.11-1.07-12.17-1.55c-2.3-0.28-2.72-5.63-0.77-7.48
	c1.07-1.02,2.33-1.83,2.95-3.25C65.93,463.83,69.05,461.65,72.44,462.18z"/>
<path class="st1" d="M430.74,257.87c0.01,5.56,0.02,11.13,0.03,16.69l-0.09,0.09c-1.78-0.03-3.55-0.07-5.33-0.1
	c-2.05-6.61-4.83-12.73-11.17-16.42c5.48-0.13,10.96-0.25,16.44-0.38L430.74,257.87z"/>
<path class="st1" d="M72.51,274.54c-0.9-5.53-1.26-11.09-1.05-16.68l0.14-0.14c5.47,0.69,11.07-0.9,16.46,1.02
	c-5.43,3.01-7.94,8.16-9.96,13.66c-1.35,1.96-3.27,2.47-5.51,2.21L72.51,274.54z"/>
<path class="st2" d="M68.1,309.16c-3.72,0-7.43,0-11.15,0c2.19-5.93,1.61-11.85,0-17.78c1.48,0,2.97,0,4.45,0.01
	c0.35,3.84-0.73,7.82,0.64,11.56c0.53,0.01,1.07,0.02,1.6,0.03c0-3.87,0-7.73,0-11.6c1.48,0,2.97,0,4.45,0
	C67.66,297.3,69,303.23,68.1,309.16z"/>
<path class="st2" d="M72.52,160.79c0,3.7-0.01,7.39-0.01,11.09c-3.7,0.02-7.39,0.04-11.09,0.06c0.3-2.01-1-3.4-1.77-5.05
	c-0.9-1.89-0.77-3.93,0.8-5.64c1.26-1.37,2.64-1.79,4.44-1.02C67.33,161.29,69.97,160.61,72.52,160.79z"/>
<path class="st1" d="M276.76,484.33c-0.61,0.65-1.25,1.89-1.82,1.85c-5.37-0.29-11.15,2.69-16.04-1.79c0.76-1.41,1.29-2.87,1.14-4.5
	c5.58,0.01,11.16,0.02,16.74,0.03C276.77,481.39,276.77,482.86,276.76,484.33z"/>
<path class="st1" d="M107.17,484.4c-0.34,0.61-0.67,1.75-1.03,1.76c-6.06,0.22-12.23,1.37-17.95-1.79c0.71-1.38,1.29-2.8,1.06-4.41
	l0.09-0.09c5.55-0.01,11.1-0.01,16.66-0.02l0.08,0.08C106.19,481.48,105.51,483.23,107.17,484.4z"/>
<path class="st1" d="M140.63,484.36c-0.73,0.53-1.56,1.62-2.18,1.51c-4.97-0.84-9.81,0.15-14.7,0.64c-1.33,0.13-1.94-0.84-2.12-2.08
	c1.68-1.18,1.03-2.95,1.14-4.53l0.09-0.09c5.89,0.01,11.78,0.02,17.67,0.03C140.57,481.35,140.6,482.86,140.63,484.36z"/>
<path class="st1" d="M175.23,484.4c-0.23,2.39-2.08,2.54-3.62,2.06c-3.6-1.13-7.05-1.11-10.65,0c-1.57,0.48-3.38,0.27-3.58-2.1
	c0-1.49,0-2.97,0-4.46c5.59,0.01,11.18,0.02,16.77,0.03C173.96,481.55,174.49,483,175.23,484.4z"/>
<path class="st1" d="M208.71,484.35c-5.03-0.15-9.51,3.2-14.68,2.27c-1.71-0.31-3.92,0.57-4.33-2.21c3.83-0.6,0.61-3.08,1.21-4.55
	c5.92,0.01,11.85,0.02,17.77,0.04C208.69,481.38,208.7,482.86,208.71,484.35z"/>
<path class="st1" d="M311.35,484.34c-5.95,1.35-11.9,3.09-17.86,0.02c0.02-1.5,0.04-2.99,0.06-4.49c5.93,0.01,11.85,0.02,17.78,0.02
	C311.34,481.37,311.34,482.86,311.35,484.34z"/>
<path class="st1" d="M415.14,484.42c-0.18,1.19-0.95,2.69-1.98,1.87c-2.83-2.26-5.54-1.05-8.15-0.16c-3.42,1.17-5.55-3.07-8.86-1.77
	c0-1.48-0.01-2.97-0.01-4.46l0.08-0.08c5.9,0,11.8,0,17.69,0l0.08,0.08C414.12,481.48,413.46,483.24,415.14,484.42z"/>
<path class="st1" d="M430.77,479.86c4.65,0.02,9.29,0.02,13.94,0.06c1.53,0.01,3.26,0.2,3.39,2.07c0.14,1.95-1.58,2.08-3.09,2.38
	c-5.14,1.04-10.25,3-15.39,0.03c0.73-1.4,1.3-2.83,1.07-4.46L430.77,479.86z"/>
<path class="st1" d="M72.57,484.37c-0.26,2.45-1.91,2.31-3.67,1.97c-3.42-0.66-6.82-1.4-10.25-1.93c-1.73-0.27-3.6-0.42-3.63-2.55
	c-0.03-2.64,2.26-1.89,3.74-1.92c4.25-0.08,8.51,0,12.76,0.02C71.87,481.43,72.22,482.9,72.57,484.37z"/>
<path class="st1" d="M430.75,360.53c0.01,5.56,0.01,11.12,0.02,16.69l-0.09,0.08c-4.42,0.65-6.18-1.32-5.57-5.63
	c0.42-3.71,0.84-7.41,1.26-11.12c1.42-0.05,2.83-0.09,4.25-0.14L430.75,360.53z"/>
<path class="st1" d="M243.27,484.38c-5.94-0.68-11.89,1.52-17.83-0.01c0.02-1.5,0.05-3.01,0.07-4.51c5.9,0,11.79,0,17.69,0
	C243.22,481.36,243.24,482.87,243.27,484.38z"/>
<path class="st1" d="M379.41,484.36c-5.59,1.42-11.17-0.77-16.76-0.01c-0.01-1.46-0.03-2.93-0.04-4.39l0.09-0.09
	c5.55-0.02,11.09-0.03,16.64-0.05l0.09,0.09C379.42,481.4,379.41,482.88,379.41,484.36z"/>
<path class="st3" d="M72.57,484.37c-0.35-1.47-0.7-2.94-1.05-4.41c0.34-0.03,0.68-0.07,1.01-0.12c5.57,0.04,11.15,0.08,16.72,0.12
	c0.23,1.61-0.34,3.03-1.06,4.41c-1.11,0.01-2.21,0.02-3.32,0.04c-2.99,0-5.99,0-8.98,0.01C74.78,484.4,73.68,484.38,72.57,484.37z"
	/>
<path class="st3" d="M190.91,479.86c-0.6,1.47,2.62,3.95-1.21,4.55c-0.73,0-1.46,0-2.18,0c-2.99,0-5.98,0-8.97-0.01
	c-1.11,0-2.22,0-3.32,0c-0.74-1.4-1.27-2.85-1.08-4.47c0.34-0.04,0.68-0.09,1.01-0.14c5.24,0.01,10.49,0.03,15.73,0.04
	L190.91,479.86z"/>
<path class="st3" d="M311.35,484.34c-0.01-1.48-0.01-2.97-0.02-4.45c0,0,0,0,0,0c5.58,0,11.17,0.01,16.75,0.01l0,0
	c0,1.49,0,2.98-0.01,4.47C322.5,484.36,316.93,484.35,311.35,484.34z"/>
<path class="st3" d="M379.41,484.36c0-1.48,0.01-2.97,0.01-4.45c5.57,0,11.14-0.01,16.72-0.01c0,1.49,0.01,2.97,0.01,4.46
	C390.57,484.36,384.99,484.36,379.41,484.36z"/>
<path class="st3" d="M362.61,479.96c0.01,1.46,0.03,2.93,0.04,4.39c-5.57,0-11.14-0.01-16.71-0.01c-0.44-3.17,0.61-4.73,4.14-4.51
	C354.24,480.1,358.43,479.94,362.61,479.96z"/>
<path class="st3" d="M122.78,479.9c-0.11,1.58,0.54,3.35-1.14,4.53c-1.1,0-2.19-0.01-3.29-0.01c-2.62-0.01-5.24-0.02-7.86-0.03
	c-1.1,0-2.21,0-3.31,0.01c-1.66-1.17-0.98-2.92-1.1-4.47C111.64,479.92,117.21,479.91,122.78,479.9z"/>
<path class="st3" d="M293.55,479.87c-0.02,1.5-0.04,2.99-0.06,4.49c-5.58-0.01-11.15-0.02-16.73-0.03c0.01-1.47,0.01-2.94,0.02-4.41
	l0,0c5.58-0.03,11.17-0.05,16.75-0.08L293.55,479.87z"/>
<path class="st3" d="M157.37,479.9c0,1.49,0,2.97,0,4.46c-2.59,0.02-5.19,0.03-7.78,0.05c-1.87,0-3.75-0.01-5.62-0.01
	c-1.11-0.01-2.22-0.02-3.33-0.04c-0.03-1.5-0.06-3.01-0.1-4.51l0.04-0.04C146.17,479.84,151.77,479.87,157.37,479.9z"/>
<path class="st3" d="M225.51,479.86c-0.02,1.5-0.05,3.01-0.07,4.51c-5.57-0.01-11.15-0.01-16.72-0.02
	c-0.01-1.48-0.02-2.97-0.03-4.45l0,0c5.6-0.02,11.19-0.04,16.79-0.07L225.51,479.86z"/>
<path class="st3" d="M430.69,479.95c0.23,1.63-0.34,3.06-1.07,4.46c-1.11,0-2.22,0-3.32,0c-2.62,0-5.24,0.01-7.86,0.01
	c-1.1,0-2.2,0.01-3.29,0.01c-1.67-1.18-1.01-2.95-1.14-4.51C419.56,479.92,425.13,479.93,430.69,479.95z"/>
<path class="st3" d="M243.27,484.38c-0.02-1.51-0.05-3.02-0.07-4.53c0,0,0.04-0.03,0.04-0.03c5.6,0.02,11.2,0.05,16.8,0.07l0,0
	c0.15,1.64-0.38,3.1-1.14,4.5C253.69,484.39,248.48,484.38,243.27,484.38z"/>
<path class="st3" d="M89.26,17.92c-5.58,0.05-11.17,0.1-16.75,0.16c-0.34-0.06-0.69-0.1-1.04-0.13c0-1.1,0-2.2,0.01-3.31
	c0.35-0.04,0.71-0.07,1.06-0.11c0.39-0.02,0.79-0.04,1.18-0.06c5.19,0.05,10.37,0.11,15.56,0.16
	C89.28,15.73,89.27,16.83,89.26,17.92z"/>
<path class="st1" d="M293.56,14.58c5.92,0,11.83,0.01,17.75,0.01c0,1.13,0.01,2.26,0.01,3.39C305.4,18,299.49,18,293.57,18.01
	C293.57,16.87,293.56,15.72,293.56,14.58z"/>
<path class="st3" d="M174.13,14.64c5.94,0,11.87,0,17.81,0c-0.01,1.09-0.02,2.19-0.02,3.28c-5.92,0-11.84,0-17.76-0.01
	C174.15,16.82,174.14,15.73,174.13,14.64z"/>
<path class="st1" d="M443,17.99c-4.08,0-8.16,0-12.24,0c0-1.13-0.01-2.25-0.01-3.38c4.57,0,9.14-0.05,13.7,0.04
	c1.3,0.03,3.44-0.73,3.54,1.34c0.09,1.77-1.84,1.94-3.35,1.97C444.1,17.97,443.55,17.98,443,17.99z"/>
<path class="st1" d="M123.88,14.63c5.56-0.02,11.12-0.04,16.67-0.06c0,1.15,0.01,2.29,0.01,3.44c-5.89,0.01-11.79,0.01-17.68,0.02
	C123.21,16.89,123.54,15.76,123.88,14.63z"/>
<path class="st3" d="M379.36,14.59c5.96,0.02,11.92,0.03,17.87,0.05c-0.36,1.11-0.72,2.23-1.08,3.34
	c-5.59,0.01-11.19,0.02-16.78,0.04L379.36,18C379.36,16.86,379.36,15.73,379.36,14.59z"/>
<path class="st1" d="M396.16,17.98c0.36-1.11,0.72-2.23,1.08-3.34c5.23,0.01,10.47,0.01,15.7,0.02c0.35,1.1,0.7,2.21,1.05,3.31
	l-0.09,0.09c-5.88,0-11.76,0.01-17.65,0.01L396.16,17.98z"/>
<path class="st3" d="M413.99,17.97c-0.35-1.1-0.7-2.21-1.05-3.31c5.94-0.02,11.88-0.03,17.82-0.05c0,1.13,0.01,2.25,0.01,3.38
	l-0.01,0.01C425.17,17.99,419.58,17.98,413.99,17.97z"/>
<path class="st3" d="M123.88,14.63c-0.33,1.13-0.66,2.26-0.99,3.39l-0.05,0.04c-5.6-0.02-11.21-0.05-16.81-0.07
	c0,0-0.01-0.01-0.01-0.01c0-1.13-0.01-2.26-0.01-3.39C111.96,14.61,117.92,14.62,123.88,14.63z"/>
<path class="st1" d="M71.48,14.65c0,1.1,0,2.2-0.01,3.31c-4.64,0-9.27,0.01-13.91-0.01c-0.88-0.01-2.05,0.11-2.24-1.06
	c-0.23-1.38,0.91-2.15,2-2.11C62.04,14.93,66.75,13.75,71.48,14.65z"/>
<path class="st3" d="M362.62,17.92c-4.38,0.02-8.77-0.05-13.14,0.1c-2.55,0.09-3.79-0.85-3.64-3.44c5.61,0.01,11.22,0.02,16.84,0.04
	C362.66,15.72,362.64,16.82,362.62,17.92z"/>
<path class="st3" d="M293.56,14.58c0,1.14,0.01,2.29,0.01,3.43l-0.03,0.03c-5.59-0.02-11.19-0.05-16.78-0.07l0,0
	c0-1.12,0-2.23,0-3.35c0.37-0.03,0.73-0.07,1.1-0.1c1.13-0.01,2.26-0.03,3.39-0.04c3.7,0,7.4,0,11.09,0
	c0.39,0.03,0.78,0.06,1.18,0.08L293.56,14.58z"/>
<path class="st1" d="M362.62,17.92c0.02-1.1,0.04-2.2,0.05-3.3c5.56-0.01,11.12-0.02,16.68-0.03c0,1.14,0,2.27,0,3.41
	c-5.55,0-11.1,0-16.65,0L362.62,17.92z"/>
<path class="st1" d="M276.75,14.62c0,1.12,0,2.23,0,3.35c-5.56,0.02-11.12,0.03-16.68,0.05l-0.08-0.08
	c0.02-1.11,0.04-2.23,0.07-3.34C265.62,14.6,271.19,14.61,276.75,14.62z"/>
<path class="st3" d="M260.06,14.6c-0.02,1.11-0.04,2.23-0.07,3.34c-4.38,0.01-8.77-0.07-13.15,0.08c-2.55,0.08-3.8-0.84-3.64-3.44
	c4.11-0.03,8.22-0.06,12.33-0.09c1.5,0.03,2.99,0.06,4.49,0.1L260.06,14.6z"/>
<path class="st3" d="M225.53,14.57c-0.01,1.15-0.02,2.29-0.03,3.44l-0.02,0.02c-5.59-0.03-11.18-0.05-16.76-0.08
	c-0.02-1.12-0.03-2.24-0.05-3.36c0,0,0.02-0.01,0.02-0.01c0.39-0.03,0.78-0.06,1.17-0.09c2.96-0.01,5.92-0.01,8.87-0.02
	c2.24,0.02,4.48,0.04,6.72,0.06L225.53,14.57z"/>
<path class="st1" d="M106.01,14.6c0,1.13,0.01,2.26,0.01,3.39C100.46,17.99,94.9,18,89.34,18l-0.08-0.08
	c0.01-1.1,0.02-2.19,0.03-3.29C94.86,14.62,100.44,14.61,106.01,14.6z"/>
<path class="st3" d="M311.32,17.99c0-1.13-0.01-2.26-0.01-3.39c5.61,0,11.22-0.01,16.83-0.01c-0.01,1.14-0.01,2.27-0.02,3.41
	c0,0-0.01,0.01-0.01,0.01C322.51,18,316.92,18,311.32,17.99C311.32,17.99,311.32,17.99,311.32,17.99z"/>
<path class="st1" d="M208.66,14.6c0.02,1.12,0.03,2.24,0.05,3.36c0,0-0.09,0.09-0.09,0.09c-5.54-0.01-11.08-0.02-16.63-0.03
	l-0.08-0.08c0.01-1.09,0.02-2.19,0.02-3.28C197.51,14.62,203.08,14.61,208.66,14.6z"/>
<path class="st3" d="M140.56,18.01c0-1.15-0.01-2.29-0.01-3.44c0.39-0.03,0.78-0.07,1.17-0.1c0.76,0,1.53,0,2.29,0
	c3.7,0,7.4-0.01,11.1-0.01c0.76,0.04,1.52,0.07,2.28,0.11l0.03,0.01c-0.02,1.12-0.04,2.24-0.07,3.36
	c-5.59,0.03-11.18,0.06-16.76,0.08C140.59,18.03,140.56,18.01,140.56,18.01z"/>
<path class="st1" d="M157.35,17.95c0.02-1.12,0.04-2.24,0.07-3.36c5.57,0.02,11.14,0.04,16.71,0.05c0.01,1.09,0.02,2.18,0.03,3.27
	L174.07,18c-5.54,0.01-11.09,0.02-16.63,0.04L157.35,17.95z"/>
<path class="st1" d="M178.55,484.4c2.99,0,5.98,0,8.97,0.01C184.6,487.53,181.45,487.53,178.55,484.4z"/>
<path class="st1" d="M75.89,484.42c2.99,0,5.99,0,8.98-0.01C81.96,487.52,78.82,487.53,75.89,484.42z"/>
<path class="st1" d="M418.43,484.41c2.62,0,5.24-0.01,7.86-0.01C423.49,487.45,421.27,487.46,418.43,484.41z"/>
<path class="st1" d="M110.49,484.4c2.62,0.01,5.24,0.02,7.86,0.03C115.49,487.46,113.28,487.45,110.49,484.4z"/>
<path class="st1" d="M143.96,484.4c1.87,0,3.75,0.01,5.62,0.01C147.7,487.9,145.83,487.93,143.96,484.4z"/>
<path class="st1" d="M225.44,14.53c-2.24-0.02-4.48-0.04-6.72-0.06C220.97,12.99,223.22,12.91,225.44,14.53z"/>
<path class="st1" d="M260.03,14.58c-1.5-0.03-2.99-0.06-4.49-0.1C257.06,13.09,258.56,12.99,260.03,14.58z"/>
<path class="st1" d="M281.24,14.47c-1.13,0.01-2.26,0.03-3.39,0.04C278.97,13.18,280.1,13.2,281.24,14.47z"/>
<path class="st1" d="M157.38,14.57c-0.76-0.04-1.52-0.07-2.28-0.11C155.92,13.43,156.68,13.45,157.38,14.57z"/>
<path class="st1" d="M144.01,14.47c-0.76,0-1.53,0-2.29,0C142.48,13.45,143.25,13.46,144.01,14.47z"/>
<path class="st1" d="M293.52,14.56c-0.39-0.03-0.78-0.06-1.18-0.08C292.78,13.78,293.17,13.83,293.52,14.56z"/>
<path class="st1" d="M209.85,14.49c-0.39,0.03-0.78,0.06-1.17,0.09C209.01,13.84,209.4,13.77,209.85,14.49z"/>
<path class="st1" d="M73.73,14.47c-0.39,0.02-0.79,0.04-1.18,0.06C72.91,13.92,73.3,13.88,73.73,14.47z"/>
<path class="st4" d="M426.38,360.54c-0.42,3.71-0.84,7.41-1.26,11.12c-2.29,7.37-4.58,14.74-6.86,22.12l0.03,0.03
	c-0.29,0.42-0.58,0.84-0.88,1.26c-1.76,3-3.52,6.01-5.29,9.01c-1.26,1.81-2.52,3.62-3.78,5.42c-9.64,11.25-21.41,19.26-35.66,23.51
	c-1.56,0.03-3.11,0.05-4.47,0.97c-7.72,0.89-15.45,1.42-23.22,1.1l-0.05,0.06c-2.1-1.51-4.49-0.95-6.8-0.95
	c-2.11-0.71-4.24-1.29-6.49-1.27c-2.97-1.01-5.89-2.16-8.91-2.99c-10.49-2.9-19.45-9.08-29.25-13.44c-2.74-2.35-5.85-4.12-9.04-5.75
	c-2.35-1.84-4.7-3.7-7.69-4.43c-1.32-0.84-2.63-1.69-3.95-2.53c-0.63-0.62-1.26-1.24-1.9-1.86c2.07-2.77,5.41-2.02,8.15-2.9
	c24.55-7.84,47.17-19.22,67.18-35.69c3.5-2.88,6.14-7.01,10.84-8.38c-0.9,3.84-3.31,7-4.78,10.58c-4.59,11.17-9.6,22.18-8.75,34.75
	c0.66,9.83,7.77,16.88,17.63,17.25c9.58,0.36,18.07-2.9,25.2-8.83c12.95-10.76,21.34-24.7,24.83-41.15
	c1.65-7.78,1.87-15.93-1.98-23.47c-3-5.88-6.2-7.42-12.44-5.79c-4.42,1.15-8.91,1.78-13.11-0.12c-3.8-1.72-7.29-1.89-10.95-0.06
	c1.16-2.93,1.09-5.31-1.5-7.84c-3.16-3.09-5.1-7.12-6.62-11.38c-4.95-13.87-4.5-27.74,0.66-41.25c4.73-12.38,12.4-22.21,26.6-24.89
	c6.97-1.31,13.1,1.39,19.43,3.3c0.46,1.4,1.54,1.91,2.89,2.08c6.34,3.69,9.11,9.81,11.17,16.42c0.37,5.97,0.74,11.94,1.11,17.91
	c-0.54,4.7-1.09,9.4-1.63,14.1c-1.79,5.57-3.98,10.95-7.34,15.81c-0.95,1.37-2.61,3.02-0.16,4.64c3.35,4.86,5.67,10.23,7.73,15.72
	C425.68,348.65,426.52,354.56,426.38,360.54z"/>
<path class="st0" d="M413.92,479.82c-5.9,0-11.8,0-17.69,0c-0.01-5.89-0.01-11.78-0.02-17.67l0.05-0.05
	c5.88,0,11.77-0.01,17.65-0.01l0.04,0.04C413.94,468.04,413.93,473.93,413.92,479.82z"/>
<path class="st0" d="M328.13,462.08c4.15-0.37,8.17,1.59,12.51,0.22c2.02-0.64,3.93,0.99,4.24,3.9c1.42,13.38,1.22,13.7-11.8,13.7
	c-1.66,0-3.33,0-4.99,0l0,0c0.01-5.93,0.02-11.87,0.03-17.8L328.13,462.08z"/>
<path class="st0" d="M379.34,479.83c-5.55,0.02-11.09,0.03-16.64,0.05c-0.01-4.42-0.06-8.84-0.02-13.26
	c0.06-5.61,4.58-3.62,6.91-3.25c3.31,0.53,8.78-3.45,9.69,3.22C379.87,470.92,379.36,475.41,379.34,479.83z"/>
<path class="st3" d="M328.05,445.35c0.03,5.58,0.06,11.15,0.08,16.73l-0.01,0.02c-4.21-0.01-8.43-0.15-12.64,0.02
	c-3.05,0.12-4.32-0.95-4.17-4.1c0.2-4.21,0.09-8.43,0.11-12.64C316.96,445.37,322.5,445.36,328.05,445.35
	C328.04,445.35,328.05,445.35,328.05,445.35z"/>
<path class="st3" d="M362.62,445.39c0.01,4.26-0.08,8.52,0.07,12.78c0.1,2.82-0.89,4.23-3.83,3.91c-0.37-0.04-0.74-0.01-1.11,0
	c-12.72,0.27-12.87,0.02-11.89-12.55c0.24-3.09,1.57-4.27,4.52-4.21c4.07,0.08,8.15,0.04,12.22,0.05L362.62,445.39z"/>
<path class="st3" d="M396.2,462.16c-4.41-0.03-8.83-0.14-13.24-0.05c-2.61,0.05-3.62-1.01-3.57-3.59c0.08-4.04-0.03-8.09-0.06-12.14
	c0,0,0.03-0.03,0.03-0.03c4.42,0.02,8.84,0.11,13.26,0.02c2.6-0.05,3.63,1.01,3.57,3.6c-0.09,4.05,0.03,8.1,0.06,12.15L396.2,462.16
	z"/>
<path class="st0" d="M368.21,433.99c1.36-0.92,2.92-0.95,4.47-0.97c6.73,0.1,6.74,0.1,6.73,6.8c0,2.17-0.03,4.35-0.05,6.52
	c0,0-0.03,0.03-0.03,0.03c-5.61,0.34-11.17-0.2-16.71-0.99c0,0-0.03-0.02-0.03-0.02c0.01-0.18,0.05-0.37,0.02-0.55
	C361.6,437.46,361.85,436.99,368.21,433.99z"/>
<path class="st0" d="M331.65,432.93c2.25-0.02,4.38,0.56,6.49,1.27c2.03,1.98,4.5,0.87,6.8,0.95l0.05-0.06
	c-0.47,10.24-0.47,10.24-10.86,10.23c-2.03,0-4.05,0.02-6.08,0.03l0-0.01c0.01-2.94,0.17-5.89,0-8.82
	C327.88,433.78,329.27,432.94,331.65,432.93z"/>
<path class="st0" d="M122.83,103.81c0.01-5.88,0.01-11.76,0.02-17.64l0.07-0.08c1.48,0,2.97-0.16,4.43,0.01
	c13.92,1.65,13.92,1.67,13.28,13.03c-0.01,0.18-0.01,0.37-0.01,0.55c0.12,3.11-1.51,4.26-4.46,4.2c-4.43-0.09-8.87-0.05-13.3-0.06
	L122.83,103.81z"/>
<path class="st3" d="M106.04,103.87c5.6-0.02,11.19-0.04,16.79-0.07l0.03,0.03c-0.02,5.6-0.04,11.2-0.06,16.8
	c-5.59,0-11.18,0-16.77,0l0,0C106.03,115.05,106.03,109.46,106.04,103.87L106.04,103.87z"/>
<path class="st0" d="M89.28,103.91c0.01-4.43-0.1-8.87,0.05-13.29c0.2-5.91,4.98-3.54,7.46-3.24c3.1,0.38,8.48-3.49,9.16,3.21
	c0.45,4.39,0.08,8.85,0.08,13.28l0,0C100.45,103.88,94.87,103.89,89.28,103.91L89.28,103.91z"/>
<path class="st3" d="M122.84,86.17c-4.22-0.04-8.44-0.22-12.66-0.07c-3.05,0.11-4.33-0.94-4.18-4.1c0.2-4.21,0.07-8.44,0.09-12.66
	l0-0.01c5.55,0,11.09,0,16.64,0.01c0.06,5.58,0.12,11.17,0.18,16.75C122.92,86.09,122.84,86.17,122.84,86.17z"/>
<path class="st0" d="M106.09,69.34c-4.41-0.02-8.83-0.11-13.24-0.02c-2.59,0.06-3.63-1-3.57-3.58c0.09-4.41-0.01-8.82-0.03-13.24
	l0.01-0.01c5.59,0.03,11.18,0.05,16.76,0.08C106.05,58.16,106.07,63.75,106.09,69.34L106.09,69.34z"/>
<path class="st3" d="M72.59,52.54c-0.01-5.57-0.02-11.15-0.03-16.72c5.57,0.01,11.14,0.03,16.71,0.04l0,0
	c0,5.55-0.01,11.1-0.01,16.64l-0.01,0.01C83.69,52.52,78.14,52.53,72.59,52.54z"/>
<path class="st3" d="M72.45,86.09c0.03-4.45,0.08-8.91,0.09-13.36c0.01-1.83,0.31-3.38,2.64-3.37c3.53,0.01,7.59-1.12,10.46,0.25
	c5.63,2.68,1.44,8.48,2.51,12.78c0.6,2.42-0.68,3.76-3.4,3.7c-4.08-0.09-8.16,0.03-12.24,0.06L72.45,86.09z"/>
<path class="st0" d="M140.54,479.85c-5.89-0.01-11.78-0.02-17.67-0.03c-0.04-5.56-0.07-11.12-0.11-16.68
	c0.05-0.34,0.1-0.68,0.15-1.01c5.88,0.01,11.75,0.02,17.63,0.03c0.01,5.89,0.03,11.77,0.04,17.66L140.54,479.85z"/>
<path class="st3" d="M72.64,410.79c4.03-0.01,8.06,0.06,12.08-0.06c3.26-0.1,4.7,1.28,4.6,4.56c-0.13,4.39-0.08,8.78-0.11,13.18
	c-4.22,0.03-8.45-0.02-12.66,0.12c-2.68,0.09-4.17-0.67-4.01-3.69C72.77,420.2,71.72,415.49,72.64,410.79z"/>
<path class="st0" d="M105.99,479.85c-5.55,0.01-11.1,0.01-16.66,0.02c-0.04-5.6-0.08-11.2-0.12-16.8c0.04-0.34,0.07-0.68,0.09-1.02
	c3.52,0,7.04,0.09,10.56-0.01c4.28-0.11,6.63,1.35,6.24,6.14C105.79,472.05,106.01,475.96,105.99,479.85z"/>
<path class="st3" d="M122.91,462.12c-0.05,0.34-0.1,0.68-0.15,1.01c-3.95,0.11-7.72-1.65-11.91-0.25c-2.54,0.85-4.93-0.79-4.83-4.31
	c0.12-4.41,0.04-8.82,0.05-13.23l0,0c5.56,0,11.11,0,16.67,0C122.8,450.94,122.85,456.53,122.91,462.12z"/>
<path class="st3" d="M89.31,462.05c-0.02,0.34-0.06,0.68-0.09,1.02c-5.5-1.21-11.08-1.02-16.65-1.01
	c0.01-5.57,0.03-11.14,0.04-16.71c4.04-0.01,8.09,0.08,12.13-0.04c3.3-0.1,4.67,1.35,4.58,4.62C89.2,453.96,89.3,458,89.31,462.05z"
	/>
<path class="st2" d="M89.31,428.58c5.58-0.01,11.17-0.02,16.75-0.03l0,0c0,5.6,0.01,11.19,0.01,16.79l0,0
	c-4.4-0.01-8.81-0.1-13.21-0.01c-2.57,0.06-3.65-0.96-3.59-3.55C89.39,437.39,89.31,432.99,89.31,428.58z"/>
<path class="st4" d="M78.1,272.4c2.02-5.5,4.53-10.65,9.96-13.66c1.65-0.45,2.93-1.37,3.75-2.9c0.9-0.2,1.89-0.22,2.69-0.63
	c12.38-6.26,26.55-1.41,34.81,8.39c10.95,12.99,13.87,28.03,11.98,44.09c-0.96,8.12-2.99,16.61-9.6,22.51
	c-2.66,2.37-3.01,4.62-2.06,7.6c-2.59-0.52-4.83-2.32-7.88-0.67c-5.53,2.99-11.54,2.79-17.28,0.67c-3.21-1.19-5.27-0.21-7.42,1.91
	c-6.3,6.23-6.99,14.04-6.27,22.2c0.84,9.6,4.43,18.27,9.12,26.61c7.52,13.39,17.19,24.26,32.74,28.15
	c14.03,3.51,27.77-2.65,26.99-20.51c-0.15-3.38-0.9-6.6-1.63-9.85c-2.29-10.17-7.1-19.43-10.71-29.12c1.64-0.38,2.62,0.5,3.85,1.51
	c6.41,5.28,12.56,11.03,19.57,15.38c13.29,8.25,27.01,15.76,41.83,21.14c6.55,2.38,13.73,2.86,19.76,6.71
	c-1.94,1.4-3.89,2.79-5.83,4.19c-2.92,0.94-5.51,2.47-7.78,4.52c-3.7,2.25-7.41,4.49-11.11,6.74c-11.79,6.38-23.91,12-36.88,15.61
	c-4.46,0.72-8.92,1.44-13.38,2.15c-5.5-0.04-11-0.09-16.5-0.13l-0.04,0.08c-1.72-1.38-3.75-1.01-5.72-1.01
	c-1.68-0.79-3.46-1.12-5.3-1.19c-1.8-1.11-3.71-1.92-5.87-1.94c-0.36-0.09-0.71-0.18-1.07-0.27c-1.49-1.46-3.37-2-5.35-2.32
	c-3.82-2.51-7.64-5.02-11.46-7.52c-8.84-7.56-15.47-16.85-21.15-26.9c-2.56-6.92-4.86-13.92-6.72-21.06
	c-0.48-4.1-0.97-8.21-1.45-12.31c0.35-5.99-0.02-12.03,1.31-17.95c1.93-5.62,4.21-11.07,7.88-15.83c0.98-0.6,1.53-1.25,0.27-2.13
	l-0.01-0.1c-1.9-5.83-6.53-10.4-7.64-16.59c-1.42-5.42-1.31-11.03-2.03-16.53C77.13,285.12,76.65,278.68,78.1,272.4z"/>
<path class="st3" d="M78.14,372.9c1.86,7.14,4.15,14.14,6.72,21.06c-12.31,0.15-12.31,0.15-12.3-12.31c0-1.46,0.02-2.93,0.03-4.39
	C75.66,377.38,78.86,377.64,78.14,372.9z"/>
<path class="st3" d="M106,420.85c3.82,2.51,7.64,5.02,11.46,7.52c-3.8,0.06-7.59,0.11-11.39,0.17l0,0
	C106.05,425.98,106.02,423.42,106,420.85z"/>
<path class="st0" d="M413.97,120.67c0.02,5.58,0.05,11.16,0.07,16.73c-0.05,0.33-0.11,0.67-0.16,1c-4.05,0.02-8.11,0.04-12.16,0.06
	c-3.74,0.02-5.89-1.35-5.61-5.58c0.27-4.04,0.11-8.11,0.14-12.16c5.9-0.02,11.81-0.04,17.71-0.07L413.97,120.67z"/>
<path class="st3" d="M413.87,138.4c0.05-0.33,0.11-0.67,0.16-1c3.41,0.87,6.72,1.25,10.33,0.55c4.67-0.9,6.31,0.85,6.35,5.51
	c0.03,3.88-0.04,7.77-0.07,11.65c-5.55,0.03-11.09,0.05-16.64,0.08l0,0C413.96,149.6,413.92,144,413.87,138.4z"/>
<path class="st3" d="M430.67,103.94c0.01,5.55,0.02,11.1,0.03,16.65c-5.58,0.03-11.16,0.05-16.74,0.08l-0.02-0.01
	c-0.01-5.61-0.02-11.21-0.03-16.82c0,0,0.03-0.03,0.03-0.03C419.53,103.85,425.1,103.9,430.67,103.94z"/>
<path class="st0" d="M413.94,86.13c0,5.89,0,11.78,0.01,17.67l-0.03,0.03c-5.9-0.01-11.8-0.02-17.69-0.04
	c0.01-5.89,0.02-11.77,0.03-17.66c5.88-0.02,11.76-0.04,17.63-0.06L413.94,86.13z"/>
<path class="st3" d="M414.01,69.31c5.54,0.03,11.09,0.05,16.63,0.08c0.03,4.21-0.08,8.43,0.12,12.63c0.15,3.15-1.13,4.2-4.18,4.09
	c-4.2-0.16-8.42,0-12.63,0.03c0,0-0.05-0.05-0.05-0.05C413.93,80.49,413.97,74.9,414.01,69.31L414.01,69.31z"/>
<path class="st3" d="M78.48,308c1.11,6.19,5.74,10.76,7.64,16.59c-4.3,2.53-9.01,0.84-13.51,1.3c-0.01-5.57-0.03-11.14-0.04-16.71
	C74.65,309.34,76.62,308.97,78.48,308z"/>
<path class="st3" d="M77.99,342.64c-1.32,5.92-0.96,11.96-1.31,17.95c-3.49-0.6-5.63-1.93-4.24-6.13c0.55-1.67,0.26-3.69,0.07-5.52
	C72.1,344.81,73.62,342.53,77.99,342.64z"/>
<path class="st3" d="M86.13,324.69c1.27,0.88,0.71,1.53-0.27,2.13C85.96,326.11,86.04,325.4,86.13,324.69z"/>
<path class="st3" d="M417.34,327c-2.45-1.62-0.79-3.27,0.16-4.64c3.37-4.86,5.55-10.24,7.34-15.81c0.74,3.63,3.66,2.37,5.9,2.63l0,0
	c-0.02,5.56-0.05,11.11-0.07,16.67C426.25,326.5,421.62,324.71,417.34,327z"/>
<path class="st3" d="M426.38,360.54c0.14-5.98-0.69-11.89-1.31-17.82c4.35-0.62,6,1.29,5.71,5.6c-0.27,4.01-0.12,8.05-0.15,12.08
	C429.21,360.45,427.79,360.5,426.38,360.54z"/>
<path class="st0" d="M434.08,325.93c0.11,2.4-0.42,4.31-3.33,4.46c0-1.48,0-2.96,0-4.44C431.86,325.94,432.97,325.93,434.08,325.93z
	"/>
<path class="st0" d="M430.74,339.31c2.49-0.26,3.61,0.85,3.34,3.34C431.58,342.93,430.45,341.82,430.74,339.31z"/>
<path class="st3" d="M78.1,272.4c-1.45,6.28-0.97,12.72-1.65,19.07c-3.85,0.22-5.23-1.67-5.01-5.4c0.23-3.84-0.28-7.74,1.15-11.45
	C74.82,274.87,76.75,274.36,78.1,272.4z"/>
<path class="st0" d="M68.1,309.16c0.89-5.93-0.45-11.85,0-17.78c1.79-0.07,3.12,0.16,3.39,2.49c0.59,5.06,1.52,10.09,0.97,15.21
	C71.01,309.11,69.56,309.13,68.1,309.16z"/>
<path class="st0" d="M63.65,291.37c0,3.87,0,7.73,0,11.6c-0.53-0.01-1.07-0.02-1.6-0.03c-1.37-3.74-0.29-7.72-0.64-11.56
	C62.15,291.38,62.9,291.38,63.65,291.37z"/>
<path class="st0" d="M328.12,17.99c4.4,0,8.8,0.07,13.2-0.04c2.6-0.06,3.59,1.04,3.54,3.6c-0.09,4.76-0.01,9.53,0,14.3h0
	c-5.57-0.03-11.14-0.06-16.71-0.09C328.13,29.84,328.12,23.92,328.12,17.99L328.12,17.99z"/>
<path class="st0" d="M362.71,18c5.55,0,11.1,0,16.65,0c0,0,0.02,0.02,0.02,0.02c-0.01,5.92-0.01,11.83-0.02,17.75
	c-5.56,0.02-11.13,0.04-16.69,0.06l0,0C362.68,29.88,362.7,23.94,362.71,18z"/>
<path class="st3" d="M344.85,35.85c5.94-0.01,11.88-0.02,17.82-0.03l0,0c-0.03,5.54-0.06,11.09-0.09,16.63
	c-5.54,0.02-11.07,0.05-16.61,0.07C343.71,47.09,345.35,41.4,344.85,35.85L344.85,35.85z"/>
<path class="st0" d="M225.5,18.01c4.25-0.01,8.51,0.08,12.75-0.07c2.8-0.1,3.94,0.85,4,3.79c0.09,4.67,0.63,9.33,0.98,14l-0.04,0.04
	c-5.89-0.01-11.78-0.02-17.67-0.03c-0.01-5.9-0.02-11.8-0.04-17.7L225.5,18.01z"/>
<path class="st0" d="M260.07,18.02c5.56-0.02,11.12-0.03,16.68-0.05l0,0c-0.01,5.94-0.03,11.87-0.04,17.81
	c-5.56,0.01-11.12,0.02-16.68,0.04l0,0C260.04,29.88,260.06,23.95,260.07,18.02z"/>
<path class="st3" d="M243.23,35.72c5.6,0.03,11.2,0.06,16.8,0.09l0,0c-0.02,5.56-0.04,11.13-0.07,16.69
	c-5.55,0.01-11.1,0.01-16.64,0.02c-0.05-5.59-0.09-11.17-0.14-16.76L243.23,35.72z"/>
<path class="st3" d="M414.06,410.79c5.51,0.02,11.03,0.04,16.54,0.06c0.03,5.89,0.06,11.79,0.09,17.68c0,0,0,0.01,0,0.01
	c-5.55,0-11.1-0.01-16.65-0.01c-0.05-5.58-0.1-11.17-0.15-16.75C413.95,411.45,414,411.12,414.06,410.79z"/>
<path class="st3" d="M414.19,258.13c-1.34-0.16-2.43-0.68-2.89-2.08c0.9-5.39,2.63-10.63,2.86-16.14
	c5.51,0.04,11.02,0.08,16.53,0.13l0,0c-0.02,5.9-0.05,11.8-0.07,17.71C425.15,257.88,419.67,258,414.19,258.13z"/>
<path class="st3" d="M413.97,206.5c5.56,0.03,11.13,0.07,16.69,0.1c0.02,5.55,0.03,11.1,0.05,16.65l0,0
	c-5.47,0.05-10.94,0.1-16.41,0.15c-0.27-4.25-0.34-8.54-2.02-12.57C414.89,210.18,413.57,208,413.97,206.5z"/>
<path class="st3" d="M430.65,52.47c-5.55,0.03-11.1,0.05-16.65,0.08l0,0c-0.02-5.59-0.05-11.18-0.07-16.77l0.02-0.02
	c5.59,0.02,11.19,0.04,16.78,0.05l0,0C430.71,41.37,430.68,46.92,430.65,52.47z"/>
<path class="st3" d="M426.47,292.45c-0.37-5.97-0.74-11.94-1.11-17.91c1.78,0.03,3.55,0.07,5.33,0.1
	c0.01,5.56,0.02,11.11,0.04,16.67l0,0C429.17,291.21,427.76,291.59,426.47,292.45z"/>
<path class="st0" d="M431.85,291.38c-0.24,1.71,0.8,4.05-2.17,4.42c-0.28-1.64,0.33-3.07,1.04-4.49l0,0
	C431.1,291.34,431.48,291.36,431.85,291.38z"/>
<path class="st3" d="M414.01,171.95c5.54,0.03,11.08,0.06,16.62,0.1c0.02,5.53,0.05,11.06,0.07,16.6
	c-5.58,0.04-11.16,0.07-16.75,0.11l-0.03-0.03C413.95,183.14,413.98,177.55,414.01,171.95L414.01,171.95z"/>
<path class="st0" d="M89.34,18c5.56-0.01,11.12-0.01,16.67-0.02l0.01,0.01c-0.01,5.93-0.02,11.85-0.03,17.78
	c-5.57,0.03-11.15,0.06-16.72,0.09l0,0C89.29,29.9,89.32,23.95,89.34,18z"/>
<path class="st3" d="M418.25,393.78c2.29-7.37,4.58-14.74,6.86-22.12c-0.61,4.31,1.15,6.29,5.57,5.63
	c0.01,5.55,0.01,11.1,0.02,16.65C426.55,393.89,422.4,393.84,418.25,393.78z"/>
<path class="st0" d="M413.97,206.5c-0.41,1.5,0.91,3.68-1.69,4.33c-0.49-7.77-3.91-14.75-5.92-22.11c2.52,0,5.04,0,7.56,0.01
	c0,0,0.03,0.03,0.03,0.03C413.96,194.67,413.97,200.59,413.97,206.5z"/>
<path class="st3" d="M430.79,446.39c-0.02,5.21-0.05,10.43-0.07,15.64c-5.59,0.04-11.18,0.07-16.77,0.11l-0.04-0.04
	c0.04-5.58,0.09-11.17,0.13-16.75c5.57,0.43,11.27-1.09,16.73,1.03L430.79,446.39z"/>
<path class="st0" d="M432.97,463.15c-0.46,0.93-1.3,1.11-2.23,1.13c0.02-0.72,0.04-1.44,0.06-2.16
	C431.71,462.08,432.51,462.26,432.97,463.15z"/>
<path class="st3" d="M88.19,223.27c-5.2,0-10.41-0.01-15.61-0.01c0-5.58-0.01-11.15-0.01-16.73c5.23-0.04,10.46-0.08,15.69-0.12
	c0.36,0.4,0.73,0.8,1.09,1.21c0.82,2.24-2.57,4.45-0.06,6.71C89.9,217.43,88.28,220.26,88.19,223.27z"/>
<path class="st1" d="M430.72,291.32c-0.7,1.41-1.32,2.85-1.04,4.49c-0.4,4.52,1.79,8.83,1.05,13.38c-2.24-0.26-5.16,1.01-5.9-2.63
	c0.54-4.7,1.09-9.4,1.63-14.1C427.76,291.59,429.17,291.21,430.72,291.32z"/>
<path class="st3" d="M72.59,171.97c5.55,0.01,11.09,0.02,16.64,0.03l0.02,0.01c0.01,5.55,0.02,11.09,0.03,16.64
	c-0.34,0.05-0.67,0.11-1,0.2c-5.24-0.05-10.48-0.11-15.72-0.16C72.57,183.12,72.58,177.54,72.59,171.97z"/>
<path class="st0" d="M89.21,137.45c0.03-5.62,0.05-11.23,0.08-16.85c0,0,0,0,0,0c5.58,0.01,11.16,0.02,16.74,0.03l0,0
	c0,5.57,0,11.14,0.01,16.71c-5.47,1.89-11.14,0.85-16.72,1.12C89.29,138.13,89.25,137.79,89.21,137.45z"/>
<path class="st3" d="M89.21,137.45c0.04,0.34,0.07,0.68,0.1,1.01c-0.02,5.56-0.04,11.13-0.06,16.69c0,0-0.01,0.01-0.01,0.01
	c-5.55,0-11.1,0.01-16.64,0.01c-0.02-5.57-0.03-11.14-0.05-16.71C78.13,138.48,83.71,138.66,89.21,137.45z"/>
<path class="st0" d="M430.74,441.96c2.77,0.03,5.2,0.75,6.69,3.35c-1.94,2.02-4.43,0.73-6.64,1.08l-0.02-0.01
	C430.76,444.91,430.75,443.44,430.74,441.96z"/>
<path class="st0" d="M88.28,188.85c0.33-0.09,0.66-0.16,1-0.2c2.17,0.99,5.1-2.25,6.81,1.23c-1.55,5.16-3.1,10.32-4.65,15.48
	c-0.85,0.49-1.02,1.35-1.18,2.21c-0.3,0.02-0.61,0.04-0.91,0.05c-0.36-0.4-0.73-0.8-1.09-1.21
	C88.27,200.56,88.27,194.71,88.28,188.85z"/>
<path class="st3" d="M91.81,255.84c-0.82,1.53-2.1,2.45-3.75,2.9c-5.39-1.93-11-0.33-16.46-1.02c0.31-5.89-1.27-11.89,1-17.68
	c3.65,0,7.31-0.22,10.94,0.05c3.58,0.27,5.12-1.06,4.75-4.61c1.51,1.53,0.78,3.47,1,5.25C89.91,245.8,90.2,250.93,91.81,255.84z"/>
<path class="st1" d="M430.74,35.81c-5.59-0.02-11.19-0.04-16.78-0.05c-0.02-5.9-0.04-11.79-0.06-17.69c0,0,0.09-0.09,0.09-0.09
	c5.59,0.01,11.18,0.01,16.76,0.02C430.75,23.93,430.75,29.87,430.74,35.81z"/>
<path class="st1" d="M106.03,120.63c-5.58-0.01-11.16-0.02-16.74-0.03c0-5.56,0-11.13,0-16.69c5.58-0.01,11.17-0.02,16.75-0.03
	C106.03,109.46,106.03,115.05,106.03,120.63z"/>
<path class="st0" d="M414,52.55c0,5.59,0,11.17,0.01,16.76c0,0,0,0,0,0c-5.94-0.02-11.88-0.04-17.82-0.06c0-5.55,0-11.1,0-16.65
	C402.13,52.58,408.07,52.57,414,52.55L414,52.55z"/>
<path class="st0" d="M89.24,172c0-5.61,0.01-11.23,0.01-16.84l0.01-0.01c5.59,0.02,11.18,0.05,16.76,0.07
	c0.04,5.25,0.08,10.5,0.12,15.75c-0.3,0.39-0.6,0.78-0.91,1.16c-5.33-0.04-10.65-0.09-15.98-0.13L89.24,172z"/>
<path class="st0" d="M414.01,155.2c0,5.58,0,11.17,0,16.75l0,0c-5.21,0.62-10.63-1.37-15.69,1.23c-1.19-0.84-2.08-1.87-2.22-3.4
	c0.21-4.84,0.62-9.69,0.09-14.54C402.13,155.23,408.07,155.22,414.01,155.2C414.01,155.2,414.01,155.2,414.01,155.2z"/>
<path class="st1" d="M414.31,223.4c5.47-0.05,10.94-0.1,16.41-0.15c-0.01,5.6-0.01,11.19-0.02,16.79
	c-5.51-0.04-11.02-0.08-16.53-0.13C414.21,234.41,414.26,228.91,414.31,223.4z"/>
<path class="st0" d="M414.06,410.79c-0.06,0.33-0.11,0.66-0.16,0.99c-2.21,0.12-4.45,0.32-5.55-2.27c1.26-1.81,2.52-3.62,3.78-5.42
	C415.63,405.49,413.26,408.6,414.06,410.79z"/>
<path class="st3" d="M417.41,395.07c0.29-0.42,0.58-0.84,0.88-1.26C417.99,394.23,417.7,394.65,417.41,395.07z"/>
<path class="st1" d="M430.74,441.96c0.01,1.47,0.02,2.95,0.03,4.42c-5.47-2.12-11.16-0.61-16.73-1.03l-0.09-0.09
	c0-5.55,0.01-11.1,0.01-16.66l0.08-0.08c5.55,0,11.1,0.01,16.65,0.01C430.71,433.01,430.72,437.49,430.74,441.96z"/>
<path class="st0" d="M276.78,479.92c-5.58-0.01-11.16-0.02-16.74-0.03l0,0c-0.01-4.05,0.29-8.13-0.1-12.14
	c-0.36-3.73,1.68-5.3,4.58-5.4c3.6-0.12,7.26,0.53,10.85,1.12c1.64,0.27,1.38,1.96,1.39,3.2
	C276.79,471.09,276.77,475.5,276.78,479.92L276.78,479.92z"/>
<path class="st0" d="M175.16,479.79c-0.34,0.05-0.68,0.1-1.01,0.14c-5.59-0.01-11.18-0.02-16.77-0.03c0-4.43,0.09-8.87-0.02-13.3
	c-0.07-2.7,1.27-3.95,3.69-3.38c4.31,1.02,10.32-3.1,12.74,2.44C175.58,469.78,174.79,475.04,175.16,479.79z"/>
<path class="st0" d="M208.69,479.89c-5.92-0.01-11.85-0.02-17.77-0.04l-0.02-0.02c-1.08-4.92,1.89-9.75,0.25-14.73
	c-0.42-1.28,0.87-2.02,2.08-1.89c5.2,0.56,10.23-1.16,15.39-1.08C208.64,468.05,208.66,473.97,208.69,479.89L208.69,479.89z"/>
<path class="st0" d="M311.33,479.89c-5.93-0.01-11.85-0.02-17.78-0.02l-0.02-0.02c0.03-5.9,0.05-11.79,0.08-17.69
	c4.95-0.26,9.73,1.63,14.72,1.04c2.48-0.3,3.05,1.34,3.03,3.48C311.3,471.08,311.34,475.48,311.33,479.89L311.33,479.89z"/>
<path class="st0" d="M243.2,479.85c-5.9,0-11.79,0-17.69,0l-0.03-0.03c0.02-5.89,0.04-11.78,0.05-17.67
	c5.88,0,11.76,0.01,17.64,0.01c-2.05,5.89,0.29,11.76,0.06,17.65L243.2,479.85z"/>
<path class="st1" d="M208.61,462.13c-5.16-0.07-10.19,1.65-15.39,1.08c-1.21-0.13-2.51,0.61-2.08,1.89
	c1.64,4.98-1.33,9.81-0.25,14.73c-5.24-0.01-10.49-0.03-15.73-0.04c-0.37-4.75,0.42-10.01-1.38-14.13
	c-2.42-5.53-8.43-1.41-12.74-2.44c-2.42-0.57-3.76,0.68-3.69,3.38c0.11,4.43,0.02,8.87,0.02,13.3c-5.6-0.03-11.19-0.06-16.79-0.09
	c-0.01-5.89-0.03-11.77-0.04-17.66l0.09-0.1c4.41,0.01,8.82-0.06,13.22,0.05c2.61,0.07,3.59-1.04,3.54-3.6
	c-0.09-4.04,0.03-8.08,0.07-12.12c5.55,0.18,11.1-1.12,16.65,0.05c0.2,3.87,0.12,7.71,0.79,11.61c0.59,3.49,1.96,4.16,5.03,4.09
	c13.17-0.34,10.64,1.78,10.94-10.77c0.02-0.74-0.06-1.49,0.01-2.23c0.3-2.97-1.14-3.92-3.95-3.83c-3.9,0.14-7.8,0.02-11.71,0.01
	c0-2.56-0.12-5.13,0.02-7.68c0.18-3.3-1.35-4.73-4.54-4.62c12.97-3.61,25.09-9.23,36.88-15.61c2.28,3.53,0.6,7.46,1.14,11.16
	c-4.43,0.01-8.87-0.02-13.3,0.03c-5.63,0.07-3.63,4.59-3.25,6.94c0.53,3.31-3.44,8.8,3.27,9.69c4.36,0.58,8.85,0.13,13.29,0.14
	c-0.01,5.57-0.02,11.14-0.02,16.71L208.61,462.13z"/>
<path class="st1" d="M311.33,479.89c0-4.4-0.03-8.81,0.02-13.21c0.03-2.13-0.55-3.77-3.03-3.48c-4.99,0.59-9.77-1.3-14.72-1.04
	l-0.11-0.1c-0.02-5.57-0.03-11.13-0.05-16.7l0.08-0.08c5.93,0.01,11.86,0.02,17.79,0.02l0.09,0.09c-0.02,4.21,0.09,8.43-0.11,12.64
	c-0.15,3.14,1.12,4.22,4.17,4.1c4.21-0.17,8.43-0.03,12.64-0.02c-0.01,5.93-0.02,11.87-0.03,17.8
	C322.5,479.89,316.92,479.89,311.33,479.89z"/>
<path class="st1" d="M243.23,479.82c0.23-5.88-2.11-11.76-0.06-17.65l0.11-0.12c4.39,0.01,8.78-0.06,13.17,0.04
	c2.55,0.06,3.66-0.93,3.59-3.53c-0.12-4.39-0.08-8.78-0.11-13.17l0.1-0.1c4.22,0.01,8.45-0.12,12.67,0.07
	c3.15,0.14,4.22-1.12,4.11-4.19c-0.16-4.22,0.01-8.44,0.03-12.66c5.54,0.01,11.08,0.02,16.62,0.02l0.08,0.08c0,5.55,0,11.1,0,16.65
	l-0.08,0.08c-3.88-0.01-7.76-0.01-11.64-0.03c-2.29-0.01-4.98-0.03-4.88,3.04c0.14,4.47-1.57,9.18,1.18,13.33
	c0.38,0.58,2.1,0.35,3.19,0.36c4.07,0.03,8.13,0,12.2-0.01l0.11,0.1c-0.03,5.9-0.05,11.79-0.08,17.69
	c-5.58,0.03-11.17,0.05-16.75,0.08c-0.01-4.42,0.01-8.84-0.03-13.26c-0.01-1.24,0.24-2.94-1.39-3.2c-3.59-0.58-7.24-1.24-10.85-1.12
	c-2.9,0.1-4.94,1.67-4.58,5.4c0.39,4.01,0.1,8.09,0.1,12.14C254.43,479.86,248.83,479.84,243.23,479.82z"/>
<path class="st1" d="M225.53,462.16c-0.02,5.89-0.04,11.78-0.05,17.67c-5.6,0.02-11.19,0.04-16.79,0.07
	c-0.03-5.92-0.05-11.84-0.08-17.76l0.09-0.08c5.58,0,11.16,0,16.74,0.01L225.53,462.16z"/>
<path class="st0" d="M293.57,18.01c5.92-0.01,11.83-0.02,17.75-0.02l0.01,0.01c-0.01,5.92-0.02,11.84-0.03,17.77
	c-5.9-0.01-11.81-0.02-17.71-0.03c-0.01-5.9-0.03-11.79-0.04-17.69L293.57,18.01z"/>
<path class="st1" d="M174.16,17.92c5.92,0,11.84,0,17.76,0.01c0,0,0.08,0.08,0.08,0.08c-0.02,4.65,0.07,9.3-0.09,13.94
	c-0.1,2.89,1.01,4.01,3.9,3.91c4.27-0.16,8.55-0.07,12.83-0.09l0.08,0.08c0,5.56,0,11.12,0,16.69c-4.08,0.01-8.15-0.03-12.23,0.04
	c-4.24,0.06-6.49,3.16-5.26,7.28c0.47,1.58,1.24,3.07,1.87,4.6c-5.81-2-11.91-2.01-17.93-2.63c0.01-0.91,0.04-1.82,0.03-2.73
	c-0.03-6.32-0.2-6.51-6.38-6.54c-3.83-0.02-7.65-0.01-11.48-0.01c0-5.57,0-11.14,0-16.71l0.08-0.08c4.27,0.02,8.55-0.07,12.82,0.1
	c2.9,0.11,3.99-1.03,3.89-3.91c-0.16-4.64-0.07-9.29-0.08-13.94C174.07,18,174.16,17.92,174.16,17.92z M190.87,44.28
	c-0.11-8.94,1.2-8.51-7-8.47c-9.99,0.05-8.59-1.24-8.67,9.01c-0.06,7.31,0.32,7.72,7.34,7.7C192.14,52.49,190.74,53.47,190.87,44.28
	z"/>
<path class="st0" d="M122.88,18.03c5.89-0.01,11.79-0.01,17.68-0.02l0.03,0.02c0,5.91,0.01,11.83,0.01,17.74l-0.01,0.01
	c-5.9-0.02-11.81-0.05-17.71-0.07c-0.01-5.88-0.03-11.77-0.04-17.65L122.88,18.03z"/>
<path class="st1" d="M379.36,35.77c0.01-5.92,0.01-11.83,0.02-17.75c5.59-0.01,11.19-0.02,16.78-0.04l0.09,0.09
	c-0.01,5.89-0.02,11.77-0.02,17.66l-0.08,0.09c-5.57,0.01-11.14,0.02-16.71,0.03L379.36,35.77z"/>
<path class="st0" d="M396.23,35.73c0.01-5.89,0.02-11.77,0.02-17.66c5.88,0,11.76-0.01,17.65-0.01c0.02,5.9,0.04,11.79,0.06,17.69
	l-0.02,0.02C408.03,35.76,402.13,35.75,396.23,35.73z"/>
<path class="st1" d="M122.84,18.07c0.01,5.88,0.03,11.77,0.04,17.65l-0.09,0.1c-5.57,0.01-11.15,0.02-16.72,0.03l-0.07-0.08
	c0.01-5.93,0.02-11.85,0.03-17.78C111.63,18.02,117.23,18.04,122.84,18.07z"/>
<path class="st1" d="M293.54,18.04c0.01,5.9,0.03,11.79,0.04,17.69l-0.08,0.09c-5.57,0.01-11.13,0.03-16.7,0.04l-0.08-0.08
	c0.01-5.94,0.03-11.87,0.04-17.81C282.35,17.99,287.94,18.02,293.54,18.04z"/>
<path class="st1" d="M225.47,18.03c0.01,5.9,0.02,11.8,0.04,17.7l-0.08,0.08c-5.57,0.01-11.14,0.02-16.71,0.02l-0.08-0.08
	c-0.01-5.91-0.01-11.82-0.02-17.73c0,0,0.09-0.09,0.09-0.09C214.3,17.98,219.89,18,225.47,18.03z"/>
<path class="st1" d="M311.29,35.76c0.01-5.92,0.02-11.84,0.03-17.77c5.59,0,11.19,0,16.78,0.01c0.01,5.92,0.02,11.84,0.03,17.76
	l-0.08,0.08c-5.57,0-11.14,0-16.7,0L311.29,35.76z"/>
<path class="st0" d="M208.62,18.04c0.01,5.91,0.01,11.82,0.02,17.73c-4.28,0.02-8.56-0.07-12.83,0.09c-2.89,0.11-4-1.02-3.9-3.91
	c0.16-4.64,0.07-9.29,0.09-13.94C197.54,18.02,203.08,18.03,208.62,18.04z"/>
<path class="st1" d="M140.6,35.78c0-5.91-0.01-11.83-0.01-17.74c5.59-0.03,11.18-0.06,16.76-0.08l0.09,0.09c0,5.9,0,11.81,0,17.71
	l-0.08,0.08C151.77,35.81,146.19,35.79,140.6,35.78z"/>
<path class="st0" d="M157.44,35.75c0-5.9,0-11.81,0-17.71c5.54-0.01,11.09-0.02,16.63-0.04c0.01,4.65-0.08,9.3,0.08,13.94
	c0.1,2.88-0.99,4.02-3.89,3.91C165.99,35.68,161.71,35.77,157.44,35.75z"/>
<path class="st5" d="M357.08,354.95c4.61-6.18,9.75-11.87,15.65-16.85c3.66-1.83,7.15-1.66,10.95,0.06c4.2,1.9,8.69,1.27,13.11,0.12
	c6.24-1.63,9.44-0.09,12.44,5.79c3.85,7.54,3.63,15.68,1.98,23.47c-3.49,16.45-11.88,30.39-24.83,41.15
	c-7.13,5.92-15.62,9.19-25.2,8.83c-9.87-0.37-16.97-7.41-17.63-17.25c-0.85-12.57,4.17-23.58,8.75-34.75
	C353.77,361.95,356.17,358.79,357.08,354.95z"/>
<path class="st1" d="M408.34,409.51c1.1,2.59,3.34,2.39,5.55,2.27c0.05,5.58,0.1,11.17,0.15,16.75l-0.08,0.08
	c-3.34-0.01-6.69-0.04-10.03-0.04c-6.97,0-7.6,0.59-7.77,7.47c-0.04,1.67,0.04,3.35-0.01,5.02c-0.1,3.09,1.43,4.34,4.43,4.28
	c4.46-0.09,8.92-0.05,13.37-0.07c0,0,0.09,0.09,0.09,0.09c-0.04,5.58-0.09,11.17-0.13,16.75c-5.88,0-11.77,0.01-17.65,0.01
	c-0.03-4.05-0.15-8.1-0.06-12.15c0.05-2.58-0.97-3.65-3.57-3.6c-4.42,0.09-8.84,0-13.26-0.02c0.02-2.17,0.05-4.35,0.05-6.52
	c0.01-6.7,0-6.7-6.73-6.8C386.93,428.77,398.71,420.76,408.34,409.51z"/>
<path class="st1" d="M331.65,432.93c-2.38,0.01-3.77,0.86-3.61,3.6c0.17,2.93,0.01,5.88,0,8.82c-5.54,0.01-11.09,0.02-16.63,0.04
	l-0.09-0.09c0-4.39-0.07-8.79,0.04-13.18c0.06-2.57-0.98-3.63-3.55-3.57c-4.76,0.11-9.52,0.06-14.28,0.08l-0.08-0.08
	c0.01-4.02,0.02-8.03,0.03-12.05c9.81,4.36,18.77,10.54,29.25,13.44C325.76,430.77,328.68,431.92,331.65,432.93z"/>
<path class="st3" d="M293.49,416.49c-0.01,4.02-0.02,8.03-0.03,12.05c-5.54-0.01-11.08-0.02-16.62-0.02l-0.03-0.01
	c0.01-5.89,0.01-11.78,0.02-17.66l0.04-0.04c2.52-0.02,5.05-0.04,7.57-0.06C287.64,412.37,290.75,414.15,293.49,416.49z"/>
<path class="st0" d="M265.66,402.14c1.09-0.08,2.17-0.16,3.26-0.24c0.37,2.53,2.16,2.14,3.88,1.89c1.32,0.84,2.63,1.69,3.95,2.53
	c0.04,1.49,0.08,2.99,0.12,4.48l-0.04,0.04c-5.6-0.04-11.2-0.08-16.8-0.12c-0.3-3.72-0.42-7.29,4.91-7.22
	C265.18,403.5,265.42,402.61,265.66,402.14z"/>
<path class="st1" d="M276.87,410.8c-0.04-1.49-0.08-2.99-0.12-4.48c2.99,0.73,5.34,2.58,7.69,4.43
	C281.92,410.76,279.4,410.78,276.87,410.8z"/>
<path class="st1" d="M344.94,435.15c-2.3-0.09-4.77,1.02-6.8-0.95C340.45,434.2,342.84,433.64,344.94,435.15z"/>
<path class="st1" d="M272.8,403.79c-1.72,0.25-3.51,0.65-3.88-1.89c0.66,0.01,1.32,0.02,1.98,0.03
	C271.54,402.55,272.17,403.17,272.8,403.79z"/>
<path class="st1" d="M122.92,86.09c-0.06-5.58-0.12-11.17-0.18-16.75c0,0,0.08-0.09,0.08-0.09c5.94,0.01,11.88,0.03,17.82,0.04
	c-0.01,2.92,0.31,5.88-0.1,8.74c-0.68,4.86,0.4,8.29,5.77,9.21c-1.42,5.44-2.45,10.94-2.45,16.59c-2.74-0.2-3.33,1.36-3.27,3.73
	c0.1,4.35,0.04,8.7,0.04,13.05l-0.09,0.09c-5.88,0.01-11.76,0.01-17.64,0.02l-0.09-0.09c0.02-5.6,0.04-11.2,0.06-16.8
	c4.43,0.01,8.87-0.03,13.3,0.06c2.95,0.06,4.58-1.09,4.46-4.2c-0.01-0.18,0-0.37,0.01-0.55c0.64-11.36,0.64-11.38-13.28-13.03
	C125.89,85.93,124.39,86.09,122.92,86.09z"/>
<path class="st1" d="M106.03,137.35c0-5.57,0-11.14-0.01-16.71c5.59,0,11.18,0,16.77,0l0.09,0.09c-0.05,5.55-0.09,11.1-0.14,16.65
	c-5.54,0.03-11.07,0.05-16.61,0.08C106.15,137.46,106.03,137.35,106.03,137.35z"/>
<path class="st1" d="M106.09,69.34c-0.02-5.59-0.05-11.17-0.07-16.76l0.1-0.1c5.54,0.02,11.09,0.03,16.63,0.05l0.08,0.08
	c0,5.55-0.01,11.1-0.01,16.65l-0.08,0.09C117.19,69.34,111.64,69.34,106.09,69.34z"/>
<path class="st1" d="M89.27,35.85c5.57-0.03,11.15-0.06,16.72-0.09l0.07,0.08c0.02,5.54,0.04,11.09,0.05,16.63l-0.1,0.1
	c-5.59-0.03-11.18-0.05-16.76-0.08C89.26,46.95,89.27,41.4,89.27,35.85z"/>
<path class="st1" d="M122.91,462.12c-0.05-5.59-0.11-11.18-0.16-16.78l0.09-0.07c1.97,1.29,4.26,1.65,6.33,0.94
	c3.78-1.29,7.62-0.68,11.43-0.94c0,0,0.09,0.09,0.09,0.09c-0.02,5.56-0.03,11.13-0.05,16.69l-0.09,0.1
	C134.66,462.14,128.78,462.13,122.91,462.12z"/>
<path class="st1" d="M106.07,428.55c3.8-0.06,7.59-0.11,11.39-0.17c1.98,0.32,3.86,0.86,5.35,2.32c-0.01,0.96,0.14,1.84,1.09,2.35
	l-0.01-0.01c-1.32,4-1.15,8.12-1.06,12.24l-0.09,0.07c-5.56,0-11.11,0-16.67,0C106.07,439.75,106.07,434.15,106.07,428.55z"/>
<path class="st5" d="M129.64,337.8c6.53,5.19,12.01,11.36,16.77,18.18c-0.1,0.69,0.23,1.07,0.89,1.21l-0.01-0.01
	c3.61,9.69,8.42,18.94,10.71,29.12c0.73,3.25,1.48,6.47,1.63,9.85c0.78,17.86-12.96,24.02-26.99,20.51
	c-15.55-3.89-25.22-14.76-32.74-28.15c-4.68-8.34-8.27-17.01-9.12-26.61c-0.72-8.16-0.03-15.97,6.27-22.2
	c2.14-2.12,4.2-3.09,7.42-1.91c5.75,2.12,11.76,2.33,17.28-0.67C124.81,335.49,127.06,337.28,129.64,337.8z"/>
<path class="st3" d="M208.72,428.55c-0.54-3.7,1.14-7.63-1.14-11.16c3.7-2.25,7.41-4.49,11.11-6.74c2.2,2.66,4.49-0.78,6.71,0.11
	c0.05,0.33,0.11,0.67,0.17,1c-0.06,5.59-0.12,11.19-0.17,16.78C219.84,428.55,214.28,428.55,208.72,428.55L208.72,428.55z"/>
<path class="st0" d="M174.11,446.43c-5.55-1.17-11.1,0.13-16.65-0.05c-0.05-0.34-0.09-0.68-0.13-1.02c0-3.4-0.01-6.8-0.01-10.2
	c4.46-0.72,8.92-1.44,13.38-2.15c3.19-0.11,4.72,1.32,4.54,4.62c-0.14,2.55-0.02,5.12-0.02,7.68
	C174.85,445.68,174.48,446.05,174.11,446.43z"/>
<path class="st0" d="M122.83,445.27c-0.09-4.12-0.26-8.24,1.06-12.24c1.95-0.04,3.91-0.09,5.86-0.13c1.84,0.07,3.63,0.39,5.3,1.19
	c1.61,2,3.75,1.04,5.72,1.01l0.04-0.08c-0.08,3.42-0.15,6.83-0.23,10.25c-3.81,0.26-7.64-0.35-11.43,0.94
	C127.1,446.92,124.8,446.56,122.83,445.27z"/>
<path class="st1" d="M140.59,445.27c0.08-3.42,0.15-6.83,0.23-10.25c5.5,0.04,11,0.09,16.5,0.13c0,3.4,0.01,6.8,0.01,10.2
	c-5.55,0-11.1,0-16.65,0L140.59,445.27z"/>
<path class="st0" d="M225.57,411.76c-0.06-0.33-0.12-0.67-0.17-1c0.36-1.54,0.71-3.08,1.07-4.63c1.94-1.4,3.89-2.79,5.83-4.19
	c2.61-0.18,5.23-0.35,7.64,1.01c3.63,1.98,3.61,5.3,3.22,8.75C237.29,410.69,231.43,411.93,225.57,411.76z"/>
<path class="st1" d="M226.47,406.13c-0.36,1.54-0.71,3.08-1.07,4.63c-2.22-0.88-4.52,2.55-6.71-0.11
	C220.97,408.6,223.55,407.07,226.47,406.13z"/>
<path class="st1" d="M129.75,432.9c-1.95,0.04-3.91,0.09-5.86,0.13l0.01,0.01c-0.01-0.69-0.01-1.39-0.02-2.08
	C126.05,430.98,127.95,431.79,129.75,432.9z"/>
<path class="st1" d="M140.78,435.1c-1.97,0.02-4.11,0.99-5.72-1.01C137.02,434.09,139.06,433.72,140.78,435.1z"/>
<path class="st0" d="M123.88,430.96c0.01,0.69,0.01,1.39,0.02,2.08c-0.95-0.51-1.1-1.39-1.09-2.35
	C123.17,430.78,123.52,430.87,123.88,430.96z"/>
<path class="st1" d="M414.01,155.2c-5.94,0.02-11.88,0.04-17.82,0.05c0,0-0.08-0.08-0.08-0.08c0.02-4.4-0.04-8.8,0.08-13.19
	c0.07-2.58-1-3.62-3.57-3.56c-4.39,0.11-8.79,0.05-13.19,0.06c0,0-0.08-0.08-0.08-0.08c0-5.91,0-11.81,0-17.72l0.08-0.08
	c5.58,0.01,11.15,0.02,16.73,0.02l0.09,0.09c-0.03,4.05,0.13,8.12-0.14,12.16c-0.28,4.23,1.86,5.6,5.61,5.58
	c4.05-0.02,8.11-0.04,12.16-0.06C413.92,144,413.96,149.6,414.01,155.2z"/>
<path class="st1" d="M396.23,103.8c5.9,0.01,11.8,0.02,17.69,0.04c0.01,5.61,0.02,11.21,0.03,16.82c-5.9,0.02-11.81,0.04-17.71,0.07
	c0,0-0.09-0.09-0.09-0.09c0-5.58,0-11.16-0.01-16.74L396.23,103.8z"/>
<path class="st1" d="M396.19,69.25c5.94,0.02,11.88,0.04,17.82,0.06c-0.04,5.59-0.08,11.19-0.11,16.78
	c-5.88,0.02-11.76,0.04-17.63,0.06c0,0-0.11-0.1-0.11-0.1c-0.01-5.57-0.03-11.14-0.04-16.71C396.11,69.33,396.19,69.25,396.19,69.25
	z"/>
<path class="st1" d="M396.26,86.14c-0.01,5.89-0.02,11.77-0.03,17.66l-0.09,0.08c-5.57,0.01-11.14,0.02-16.71,0.03l-0.08-0.08
	c0-5.91,0.01-11.83,0.01-17.74c5.59-0.02,11.19-0.04,16.78-0.05L396.26,86.14z"/>
<path class="st1" d="M344.85,35.85c0.5,5.55-1.14,11.24,1.11,16.68l-0.09,0.09c-2.78-0.02-5.57-0.11-8.35-0.05
	c-10.48,0.22-9.43-1.95-9.39,9.39c-5.63,0.25-11.24,0.68-16.79,1.75c-0.01-3.7-0.02-7.41-0.03-11.11c0,0,0.08-0.09,0.08-0.09
	c3.39-0.95,6.65-1.18,10.22-0.21c4.33,1.17,6.38-0.86,6.45-5.43c0.05-3.67,0-7.35,0-11.03l0.08-0.08
	C333.71,35.79,339.28,35.82,344.85,35.85z"/>
<path class="st1" d="M362.57,52.45c0.03-5.54,0.06-11.09,0.09-16.63c5.56-0.02,11.13-0.04,16.69-0.06l0.08,0.08
	c0.01,5.55,0.03,11.09,0.04,16.64l-0.09,0.09c-5.57-0.01-11.14-0.01-16.71-0.02L362.57,52.45z"/>
<path class="st1" d="M345.96,52.53c5.54-0.02,11.07-0.05,16.61-0.07c0,0,0.1,0.11,0.1,0.11c-0.03,5.6-0.07,11.2-0.1,16.81
	c-5.75,0.08-11.51-0.46-17.25,0.35c-0.8-0.22-1.54-0.52-1.89-1.35c4.05-4.75,2-10.44,2.44-15.75L345.96,52.53z"/>
<path class="st1" d="M243.19,35.76c0.05,5.59,0.09,11.17,0.14,16.76l-0.09,0.09c-5.93-0.01-11.86-0.02-17.79-0.04
	c-0.01-5.58-0.01-11.16-0.02-16.75l0.08-0.08C231.4,35.74,237.29,35.75,243.19,35.76z"/>
<path class="st1" d="M259.97,52.5c0.02-5.56,0.04-11.13,0.07-16.69c5.56-0.01,11.12-0.02,16.68-0.04l0.08,0.08
	c0,5.55,0.01,11.09,0.01,16.64c-5.59,0.03-11.17,0.06-16.76,0.09L259.97,52.5z"/>
<path class="st1" d="M243.32,52.52c5.55-0.01,11.1-0.01,16.64-0.02l0.08,0.09c-0.59,4.05-0.07,7.58,4.42,9.18
	c-7.43-0.11-14.86-0.23-22.29-0.34c1.69-2.78,0.95-5.85,1.05-8.82L243.32,52.52z"/>
<path class="st1" d="M396.23,35.73c5.9,0.02,11.81,0.03,17.71,0.05c0.02,5.59,0.05,11.18,0.07,16.77
	c-5.94,0.02-11.88,0.04-17.81,0.05l-0.08-0.08c0.01-5.57,0.02-11.14,0.03-16.71L396.23,35.73z"/>
<path class="st1" d="M406.36,188.72c-2.68-5.18-5.36-10.36-8.04-15.53c5.06-2.6,10.48-0.61,15.69-1.23
	c-0.03,5.59-0.06,11.18-0.08,16.77C411.4,188.72,408.88,188.72,406.36,188.72z"/>
<path class="st1" d="M90.49,208.82c-0.4,1.84-0.79,3.68-1.19,5.52c-2.51-2.26,0.87-4.47,0.06-6.71c0.3-0.01,0.61-0.03,0.91-0.05
	C90.34,207.99,90.41,208.4,90.49,208.82z"/>
<path class="st1" d="M105.23,172.14c-3.05,5.91-6.1,11.83-9.14,17.74c-1.72-3.48-4.65-0.24-6.81-1.23
	c-0.01-5.55-0.02-11.09-0.03-16.64C94.58,172.05,99.91,172.1,105.23,172.14z"/>
<path class="st1" d="M106.02,155.23c-5.59-0.02-11.18-0.05-16.76-0.07c0.02-5.56,0.04-11.13,0.06-16.69
	c5.58-0.27,11.25,0.77,16.72-1.12l0.12,0.12c-0.01,5.89-0.02,11.77-0.02,17.66L106.02,155.23z"/>
<path class="st3" d="M90.49,208.82c-0.08-0.41-0.15-0.83-0.23-1.24c0.16-0.86,0.33-1.72,1.18-2.21
	C91.57,206.63,91.7,207.91,90.49,208.82z"/>
<path class="st1" d="M396.19,52.6c0,5.55,0,11.1,0,16.65l-0.08,0.08c-5.55,0-11.1,0.01-16.65,0.01c-0.03-5.59-0.05-11.17-0.08-16.76
	l0.09-0.09c5.55,0.01,11.09,0.02,16.64,0.03L396.19,52.6z"/>
<path class="st1" d="M119.39,156.29c-4.42,4.9-8.83,9.79-13.25,14.69c-0.04-5.25-0.08-10.5-0.12-15.75l0.1-0.1
	C110.49,156.13,115.28,152.35,119.39,156.29z"/>
<path class="st1" d="M396.1,169.79c-4.52-5.21-9.98-9.6-13.49-15.68c4.55-0.3,8.91,1.81,13.5,1.06l0.08,0.08
	C396.72,160.1,396.31,164.94,396.1,169.79z"/>
<path class="st4" d="M242.18,61.43c7.43,0.11,14.86,0.23,22.29,0.34c2.5,1,5.14,0.78,7.75,0.87c7.08,1.87,14.15,3.75,21.23,5.62
	c4.28,4.05,7.77,1.53,11.21-1.35c0.61,0.01,1.1-0.17,1.31-0.82c0,0-0.09,0.08-0.09,0.08c0.81-0.4,1.63-0.79,2.44-1.19
	c1.11-0.18,2.29-0.19,3.01-1.29c5.55-1.07,11.16-1.5,16.79-1.75c5.56,1.04,10.72,3.04,15.3,6.41c0.36,0.83,1.1,1.13,1.89,1.35
	c4.52,5.33,8.41,11.06,11.15,17.52c1.82,4.98,1.88,10.25,2.46,15.43c-0.57,6.17-1.97,12.15-4.01,17.99
	c-3.52,6.94-8.19,12.95-14.33,17.78c-23.29-0.57-42.74,8.72-60.02,23.49c-4.45,3.81-8.69,7.87-13.03,11.81
	c-2.49-4.31-3.86-1.01-5.29,0.85c-0.86,1.12-1.68,2.02-3.19,1.65c-1.48-0.37-2.01-1.65-2.26-2.91c-0.46-2.23-0.32-4.42,1.16-6.37
	c1.12-1.48,2.22-2.99,3.16-4.58c2.45-4.18,1.05-7.38-3.75-7.94c-2.73-0.32-5.58-0.09-8.31,0.33c-7.58,1.17-8.59,3.55-4.22,9.87
	c1.83,2.64,3.65,5.14,3.14,8.62c-0.21,1.41-0.69,2.52-2.09,2.97c-1.22,0.39-2.25-0.11-2.79-1.22c-1.65-3.35-4.58-3.32-7.63-3.02
	c-1.78,0.33-2.64-1.03-3.72-2c-11.17-10.03-22.93-19.43-36.85-25.18c-10.36-4.28-21.3-7.43-32.87-6.34
	c-5.74-5.25-10.88-10.97-14.21-18.1c-1.7-5.41-3.12-10.89-3.94-16.51c0-5.65,1.03-11.15,2.45-16.59
	c3.47-6.38,6.47-13.08,12.21-17.91c0.31-0.14,0.5-0.38,0.57-0.71c4.81-3.57,10.27-5.61,16.08-6.8c6.01,0.62,12.12,0.62,17.93,2.63
	c0.38,0.12,0.77,0.24,1.15,0.36c1.11,0.62,2.21,1.24,3.32,1.86c0.35,0.14,0.7,0.27,1.05,0.41c2.69,1.82,4.85,5.76,8.86,2.18
	c0.47-0.21,0.94-0.42,1.41-0.62c7.17-2.67,14.66-4.2,22.05-6.05C234.73,62.61,238.49,62.32,242.18,61.43z M348.33,97.68
	c-0.05-9.65-2.78-16.93-10.78-21.44c-7.96-4.49-15.83-4.56-23.56,0.56c-5.55,3.69-5.97,7.92-0.62,11.89
	c5.24,3.89,8.11,9.04,9.61,15.1c0.88,3.57,1.38,7.25,1.9,10.9c0.95,6.65,4.63,8.81,10.46,5.58
	C344.51,115.2,348.17,106.91,348.33,97.68z M154.27,100.22c1.11,9.07,3.95,17.87,13.44,22.77c5.46,2.82,8.89,1.08,9.86-4.96
	c1.76-10.93,3.88-21.53,13.86-28.59c2.83-2,2.4-5.21,0.06-7.84c-1.75-1.97-3.83-3.47-6.34-4.38
	C169.57,71.53,154.14,82.67,154.27,100.22z M221.05,142.29c-0.03,3.62,3.44,7.02,7.17,7.02c3.44,0,7.05-3.68,7.12-7.24
	c0.06-3.68-3.35-6.91-7.22-6.83C224.19,135.31,221.08,138.41,221.05,142.29z M267.79,142.44c0.05,3.98,2.98,6.82,7.09,6.86
	c3.29,0.03,6.92-3.42,6.99-6.64c0.08-3.7-3.24-7.34-6.76-7.44C270.84,135.11,267.74,138.18,267.79,142.44z"/>
<path class="st1" d="M340.6,138.43c6.13-4.83,10.81-10.85,14.33-17.78c2.24-0.77,6.28,1.91,6.51-2.59c0.23-4.74,1.9-9.34,1.19-14.13
	l0.08-0.08c5.55,0,11.09-0.01,16.64-0.01l0.08,0.08c0,5.56-0.01,11.13-0.01,16.69l-0.08,0.08c-17.73-0.33-17.73-0.33-16.68,14.2
	c0.04,0.55,0.03,1.11,0.1,1.66c0.13,1.09,0.78,1.76,1.85,1.39c4.98-1.7,9.82,0.39,14.73,0.47l0.08,0.08c0,4.55,0,9.1,0,13.65
	c-4.85-2.56-9.66-5.18-14.54-7.67C357.26,140.6,349.14,138.66,340.6,138.43z"/>
<path class="st5" d="M235.45,171.97c3.06-0.29,5.99-0.33,7.63,3.02c0.54,1.1,1.57,1.61,2.79,1.22c1.4-0.45,1.89-1.56,2.09-2.97
	c0.51-3.47-1.31-5.98-3.14-8.62c-4.37-6.31-3.36-8.69,4.22-9.87c2.73-0.42,5.59-0.65,8.31-0.33c4.8,0.56,6.21,3.76,3.75,7.94
	c-0.94,1.6-2.04,3.1-3.16,4.58c-1.48,1.95-1.62,4.13-1.16,6.37c0.26,1.26,0.78,2.55,2.26,2.91c1.51,0.37,2.33-0.53,3.19-1.65
	c1.43-1.86,2.8-5.17,5.29-0.85c-3.29,3.5-6.58,7-9.87,10.49c-3.87-1.49-7.63-1.11-11.32,0.64
	C242.37,180.88,237.68,177.46,235.45,171.97z"/>
<path class="st3" d="M119.39,156.29c-4.11-3.94-8.89-0.16-13.26-1.17c0.01-5.89,0.02-11.77,0.02-17.66
	c5.54-0.03,11.07-0.05,16.61-0.08c0.03,0.34,0.09,0.68,0.16,1.01c-0.05,4.84-0.09,9.69-0.14,14.53
	C122.06,154.46,120.95,155.6,119.39,156.29z"/>
<path class="st3" d="M379.42,152.14c0-4.55,0-9.1,0-13.65c4.4-0.01,8.8,0.05,13.19-0.06c2.57-0.07,3.64,0.97,3.57,3.56
	c-0.12,4.39-0.06,8.79-0.08,13.19c-4.59,0.75-8.95-1.36-13.5-1.06C381.11,154.16,380.1,153.42,379.42,152.14z"/>
<path class="st1" d="M147.81,120.35c3.34,7.13,8.47,12.85,14.21,18.1c-2.29,0.02-4.59,0.05-6.88,0.07
	c-4.83-0.38-9.66-0.76-14.49-1.14c-0.04-5.55-0.08-11.11-0.12-16.66l0.09-0.09C143.02,120.53,145.41,120.44,147.81,120.35z"/>
<path class="st1" d="M122.78,152.93c0.05-4.84,0.09-9.69,0.14-14.53c5.86,0,11.73,0.01,17.59,0.01c0.02,1.48,0.03,2.95,0.05,4.43
	C134.64,146.2,128.71,149.56,122.78,152.93z"/>
<path class="st1" d="M243.16,411.7c0.4-3.46,0.41-6.77-3.22-8.75c8.64,1.73,17.2,1.17,25.72-0.81c-0.24,0.47-0.49,1.36-0.72,1.36
	c-5.33-0.07-5.21,3.51-4.91,7.22l-0.12,0.12c-5.47,1.63-11.09,0.73-16.64,0.99L243.16,411.7z"/>
<path class="st6" d="M246.37,184.87c3.69-1.75,7.45-2.14,11.32-0.64c-1.66,1.3-1.98,3.45-3.12,5.03c-1.49,2.05-3.37,4.02-5.25,0.23
	C248.5,187.83,246.59,186.89,246.37,184.87z"/>
<path class="st3" d="M140.56,142.83c-0.02-1.48-0.03-2.95-0.05-4.43c0.07-0.34,0.12-0.68,0.14-1.03c4.83,0.38,9.66,0.76,14.49,1.14
	C150.46,140.57,145.51,141.71,140.56,142.83z"/>
<path class="st6" d="M147.3,357.2c-0.66-0.14-0.99-0.52-0.89-1.21C147.03,356.16,147.35,356.54,147.3,357.2z"/>
<path class="st0" d="M413.95,445.27c-4.46,0.02-8.92-0.02-13.37,0.07c-3,0.06-4.53-1.19-4.43-4.28c0.06-1.67-0.03-3.34,0.01-5.02
	c0.18-6.88,0.8-7.47,7.77-7.47c3.34,0,6.69,0.03,10.03,0.04C413.96,434.16,413.95,439.71,413.95,445.27z"/>
<path class="st1" d="M225.57,411.76c5.86,0.17,11.72-1.07,17.59-0.06l0.11,0.13c0,4.39,0.07,8.78-0.04,13.17
	c-0.06,2.56,0.94,3.65,3.54,3.58c4.39-0.12,8.78-0.06,13.17-0.08c0,0,0.1,0.1,0.1,0.1c0,5.57-0.01,11.13-0.01,16.7l-0.1,0.1
	c-4.22-0.02-8.45-0.02-12.67-0.06c-2.75-0.03-4.03,1.3-4,4.04c0.04,4.22,0.02,8.45,0.02,12.68l-0.11,0.12
	c-5.88,0-11.76-0.01-17.64-0.01l-0.09-0.1c-0.01-5.57-0.03-11.14-0.04-16.71l0.09-0.09c4.42,0.02,8.87,0.35,13.25-0.01
	c6.37-0.53,3.11-5.68,3.19-8.58c0.07-2.69,2.89-7.65-3.2-8.02c-4.4-0.27-8.84-0.02-13.26-0.01l-0.08-0.08
	C225.46,422.95,225.51,417.35,225.57,411.76z"/>
<path class="st2" d="M208.72,445.34c-4.43-0.01-8.93,0.44-13.29-0.14c-6.71-0.89-2.74-6.38-3.27-9.69
	c-0.37-2.34-2.38-6.87,3.25-6.94c4.43-0.05,8.87-0.03,13.3-0.03l0,0C208.72,434.15,208.72,439.74,208.72,445.34L208.72,445.34z"/>
<path class="st3" d="M140.68,445.36c5.55,0,11.1,0,16.65,0c0.04,0.34,0.09,0.68,0.13,1.02c-0.03,4.04-0.15,8.08-0.07,12.12
	c0.05,2.56-0.93,3.67-3.54,3.6c-4.4-0.11-8.81-0.04-13.22-0.05C140.65,456.49,140.66,450.92,140.68,445.36z"/>
<path class="st3" d="M225.4,445.34c0.01,5.57,0.03,11.14,0.04,16.71c-5.58,0-11.16,0-16.74-0.01c0.01-5.57,0.02-11.14,0.02-16.71
	l0-0.01C214.28,445.34,219.84,445.34,225.4,445.34z"/>
<path class="st3" d="M174.11,446.43c0.37-0.38,0.74-0.75,1.12-1.13c3.9,0.01,7.81,0.13,11.71-0.01c2.81-0.1,4.25,0.86,3.95,3.83
	c-0.07,0.74,0.01,1.49-0.01,2.23c-0.31,12.55,2.23,10.43-10.94,10.77c-3.08,0.08-4.44-0.59-5.03-4.09
	C174.23,454.14,174.3,450.3,174.11,446.43z"/>
<path class="st0" d="M293.54,428.62c4.76-0.02,9.52,0.04,14.28-0.08c2.58-0.06,3.62,1,3.55,3.57c-0.11,4.39-0.04,8.79-0.04,13.18
	c-5.93-0.01-11.86-0.02-17.79-0.02C293.54,439.72,293.54,434.17,293.54,428.62z"/>
<path class="st3" d="M293.5,462.06c-4.07,0.01-8.13,0.04-12.2,0.01c-1.1-0.01-2.81,0.22-3.19-0.36c-2.75-4.15-1.04-8.86-1.18-13.33
	c-0.1-3.08,2.59-3.05,4.88-3.04c3.88,0.01,7.76,0.02,11.64,0.03C293.47,450.92,293.48,456.49,293.5,462.06z"/>
<path class="st0" d="M260.04,445.3c0-5.57,0.01-11.13,0.01-16.7c5.59-0.03,11.18-0.06,16.77-0.1l0.03,0.01
	c-0.03,4.22-0.19,8.45-0.03,12.66c0.12,3.06-0.96,4.33-4.11,4.19C268.49,445.18,264.26,445.3,260.04,445.3z"/>
<path class="st3" d="M243.28,462.05c0-4.23,0.02-8.45-0.02-12.68c-0.03-2.74,1.25-4.07,4-4.04c4.22,0.04,8.45,0.04,12.67,0.06
	c0.03,4.39-0.02,8.78,0.11,13.17c0.07,2.6-1.04,3.59-3.59,3.53C252.06,461.99,247.67,462.06,243.28,462.05z"/>
<path class="st1" d="M293.58,35.73c5.9,0.01,11.81,0.02,17.71,0.03l0.07,0.07c0.01,5.55,0.02,11.11,0.04,16.66l-0.08,0.09
	c-5.93,0-11.86,0-17.79-0.01c-0.01-5.59-0.02-11.17-0.03-16.76L293.58,35.73z"/>
<path class="st3" d="M140.6,35.78c5.58,0.02,11.17,0.04,16.75,0.06c0,5.57,0,11.14,0,16.71l0,0c-5.57,0-11.13,0-16.7,0l-0.01-0.01
	c-0.02-5.58-0.04-11.16-0.06-16.74L140.6,35.78z"/>
<path class="st3" d="M225.43,35.82c0.01,5.58,0.01,11.16,0.02,16.75l0,0c-5.57-0.01-11.15-0.03-16.72-0.04l0,0
	c0-5.56,0-11.12,0-16.69C214.29,35.84,219.86,35.83,225.43,35.82z"/>
<path class="st3" d="M190.87,44.28c-0.13,9.19,1.26,8.21-8.34,8.24c-7.01,0.02-7.4-0.39-7.34-7.7c0.09-10.25-1.32-8.95,8.67-9.01
	C192.07,35.77,190.77,35.34,190.87,44.28z"/>
<path class="st0" d="M208.89,68.63c-0.47,0.21-0.94,0.42-1.41,0.62c-3.24,0.45-5.46-3.29-8.86-2.18c-0.35-0.14-0.7-0.27-1.05-0.41
	c-0.29-2.07-1.85-1.89-3.32-1.86c-0.38-0.12-0.77-0.24-1.15-0.36c-0.63-1.53-1.4-3.02-1.87-4.6c-1.23-4.12,1.02-7.22,5.26-7.28
	c4.08-0.06,8.15-0.03,12.23-0.04l0,0C208.78,57.9,208.84,63.26,208.89,68.63z"/>
<path class="st0" d="M175.18,61.82c-5.82,1.19-11.27,3.22-16.08,6.8c-2.01-1.15-1.7-3.11-1.72-4.94c-0.03-3.71-0.02-7.43-0.02-11.14
	c0,0,0,0,0,0c3.83,0,7.65-0.01,11.48,0.01c6.18,0.03,6.35,0.22,6.38,6.54C175.21,60,175.19,60.91,175.18,61.82z"/>
<path class="st1" d="M140.59,35.79c0.02,5.58,0.04,11.16,0.06,16.74c-5.94,0.03-11.88,0.05-17.82,0.08l-0.08-0.08
	c0.01-5.57,0.02-11.15,0.03-16.72l0.09-0.1C128.78,35.74,134.69,35.76,140.59,35.79z"/>
<path class="st3" d="M396.11,52.52c-5.55-0.01-11.09-0.02-16.64-0.03c-0.01-5.55-0.03-11.09-0.04-16.64
	c5.57-0.01,11.14-0.02,16.71-0.03C396.13,41.39,396.12,46.95,396.11,52.52z"/>
<path class="st3" d="M122.79,35.81c-0.01,5.57-0.02,11.15-0.03,16.72c-5.54-0.02-11.09-0.03-16.63-0.05
	c-0.02-5.54-0.04-11.09-0.05-16.63C111.64,35.83,117.21,35.82,122.79,35.81z"/>
<path class="st3" d="M293.5,35.82c0.01,5.59,0.02,11.17,0.03,16.76c0,0-0.01,0.01-0.01,0.01c-5.57-0.03-11.14-0.05-16.7-0.08
	c0,0-0.01-0.01-0.01-0.01c0-5.55-0.01-11.09-0.01-16.64C282.36,35.84,287.93,35.83,293.5,35.82z"/>
<path class="st3" d="M311.4,52.5c-0.01-5.55-0.02-11.11-0.04-16.66c5.57,0,11.14,0,16.7,0c0,3.68,0.05,7.35,0,11.03
	c-0.06,4.57-2.11,6.6-6.45,5.43C318.05,51.32,314.79,51.55,311.4,52.5z"/>
<path class="st1" d="M276.81,428.5c-5.59,0.03-11.18,0.06-16.77,0.1l-0.1-0.1c-0.01-5.89-0.02-11.78-0.03-17.67l0.12-0.12
	c5.6,0.04,11.2,0.08,16.8,0.12C276.83,416.73,276.82,422.61,276.81,428.5z"/>
<path class="st0" d="M140.65,137.38c-0.02,0.35-0.07,0.69-0.14,1.03c-5.86,0-11.73-0.01-17.59-0.01c-0.08-0.33-0.13-0.67-0.16-1.01
	c0.05-5.55,0.09-11.1,0.14-16.65c5.88-0.01,11.76-0.01,17.64-0.02C140.58,126.27,140.61,131.82,140.65,137.38z"/>
<path class="st0" d="M122.83,52.61c5.94-0.03,11.88-0.05,17.82-0.08l0.01,0.01c-0.01,5.59-0.01,11.18-0.02,16.76l0,0
	c-5.94-0.01-11.88-0.03-17.82-0.04C122.82,63.71,122.83,58.16,122.83,52.61z"/>
<path class="st3" d="M158.52,69.33c-5.74,4.83-8.74,11.53-12.21,17.91c-5.37-0.92-6.45-4.35-5.77-9.21c0.4-2.86,0.09-5.82,0.1-8.74
	l0,0C146.6,69.31,152.56,69.32,158.52,69.33z"/>
<path class="st3" d="M147.81,120.35c-2.39,0.09-4.78,0.18-7.18,0.27c0-4.35,0.07-8.7-0.04-13.05c-0.06-2.38,0.53-3.93,3.27-3.73
	C144.68,109.46,146.1,114.94,147.81,120.35z"/>
<path class="st1" d="M225.4,445.34c-5.56,0-11.12-0.01-16.68-0.01c0-5.6,0-11.19,0-16.79c5.56,0,11.12,0,16.68-0.01l0.08,0.08
	c0,5.54,0.01,11.08,0.01,16.63L225.4,445.34z"/>
<path class="st0" d="M379.34,138.4c-4.91-0.08-9.75-2.17-14.73-0.47c-1.07,0.37-1.72-0.3-1.85-1.39c-0.07-0.55-0.06-1.1-0.1-1.66
	c-1.05-14.53-1.05-14.53,16.68-14.2C379.34,126.59,379.34,132.5,379.34,138.4z"/>
<path class="st3" d="M379.43,120.6c0-5.56,0.01-11.13,0.01-16.69c5.57-0.01,11.14-0.02,16.71-0.03c0,5.58,0,11.16,0.01,16.74
	C390.58,120.62,385,120.61,379.43,120.6z"/>
<path class="st3" d="M379.46,69.34c5.55,0,11.1-0.01,16.65-0.01c0.01,5.57,0.03,11.14,0.04,16.71c-5.59,0.02-11.19,0.04-16.78,0.05
	l-0.02-0.02C379.38,80.49,379.42,74.92,379.46,69.34L379.46,69.34z"/>
<path class="st0" d="M379.36,103.83c-5.55,0-11.09,0.01-16.64,0.01c-0.21-2.94-0.14-5.83-0.82-8.8c-1.2-5.22,1.27-8.05,6.47-7.85
	c3.75,0.14,7.33-0.69,10.99-1.12l0.02,0.02C379.37,92,379.36,97.92,379.36,103.83z"/>
<path class="st0" d="M293.52,52.58c5.93,0,11.86,0,17.79,0.01c0.01,3.7,0.02,7.41,0.03,11.11c-0.72,1.09-1.91,1.1-3.01,1.29
	c-1.09-0.16-2.07-0.11-2.44,1.19l0.09-0.08c-0.44,0.27-0.87,0.55-1.31,0.82c-3.45,2.88-6.93,5.4-11.21,1.35
	C293.47,63.04,293.49,57.81,293.52,52.58C293.52,52.58,293.52,52.58,293.52,52.58z"/>
<path class="st0" d="M343.44,68.36c-4.59-3.37-9.74-5.37-15.3-6.41c-0.04-11.34-1.09-9.17,9.39-9.39c2.78-0.06,5.57,0.03,8.35,0.05
	C345.44,57.92,347.49,63.61,343.44,68.36z"/>
<path class="st0" d="M379.38,52.58c0.03,5.59,0.05,11.17,0.08,16.76l-0.01,0c-5.61,0.01-11.23,0.02-16.85,0.03
	c0,0-0.03-0.01-0.03-0.01c0.03-5.6,0.07-11.2,0.1-16.81C368.25,52.57,373.81,52.57,379.38,52.58z"/>
<path class="st3" d="M356.48,87.23c-2.74-6.46-6.63-12.19-11.15-17.52c5.73-0.81,11.5-0.26,17.25-0.35l0.03,0.01
	c0.02,3.7-0.25,7.44,0.12,11.1C363.22,85.35,361.11,87.34,356.48,87.23z"/>
<path class="st0" d="M242.18,61.43c-3.69,0.89-7.45,1.18-11.24,1.15c-4.5,0.67-6.19-1.31-5.54-5.71c0.21-1.4,0.04-2.86,0.04-4.3
	c0,0,0,0,0,0c5.93,0.01,11.86,0.02,17.79,0.04C243.13,55.57,243.87,58.65,242.18,61.43z"/>
<path class="st0" d="M272.22,62.64c-2.61-0.1-5.25,0.13-7.75-0.87c-4.49-1.61-5.01-5.13-4.42-9.18c5.59-0.03,11.17-0.06,16.76-0.09
	l0.01,0.01c-0.01,1.82-0.21,3.65,0,5.44C277.22,61.53,275.74,63.02,272.22,62.64z"/>
<path class="st5" d="M348.33,97.68c-0.16,9.23-3.82,17.52-12.99,22.6c-5.83,3.23-9.5,1.07-10.46-5.58c-0.52-3.65-1.02-7.33-1.9-10.9
	c-1.5-6.06-4.36-11.21-9.61-15.1c-5.35-3.97-4.94-8.21,0.62-11.89c7.73-5.13,15.6-5.05,23.56-0.56
	C345.55,80.75,348.28,88.03,348.33,97.68z"/>
<path class="st5" d="M154.27,100.22c-0.13-17.55,15.31-28.69,30.89-23.01c2.51,0.92,4.59,2.41,6.34,4.38
	c2.33,2.63,2.76,5.84-0.06,7.84c-9.98,7.06-12.1,17.66-13.86,28.59c-0.97,6.05-4.4,7.78-9.86,4.96
	C158.22,118.09,155.38,109.29,154.27,100.22z"/>
<path class="st1" d="M356.48,87.23c4.63,0.11,6.74-1.88,6.24-6.75c-0.37-3.67-0.1-7.4-0.12-11.1c5.62-0.01,11.23-0.02,16.85-0.03
	c-0.04,5.58-0.07,11.15-0.11,16.73c-3.65,0.44-7.24,1.26-10.99,1.12c-5.2-0.2-7.67,2.63-6.47,7.85c0.68,2.97,0.62,5.86,0.82,8.8
	l-0.08,0.08c-1.23-0.42-2.46-0.84-3.69-1.26C358.36,97.48,358.3,92.21,356.48,87.23z"/>
<path class="st1" d="M158.52,69.33c-5.96-0.01-11.92-0.02-17.88-0.03c0.01-5.59,0.01-11.18,0.02-16.76c5.57,0,11.13,0,16.7,0
	c0.01,3.71,0,7.43,0.02,11.14c0.01,1.83-0.29,3.79,1.72,4.94C159.02,68.95,158.83,69.19,158.52,69.33z"/>
<path class="st1" d="M225.44,52.57c0,1.43,0.17,2.89-0.04,4.3c-0.65,4.4,1.04,6.38,5.54,5.71c-7.4,1.85-14.88,3.39-22.05,6.05
	c-0.06-5.37-0.11-10.74-0.17-16.1C214.29,52.54,219.87,52.56,225.44,52.57z"/>
<path class="st1" d="M272.22,62.64c3.52,0.38,5.01-1.11,4.59-4.69c-0.21-1.79-0.01-3.63,0-5.44c5.57,0.03,11.14,0.05,16.7,0.08
	c-0.02,5.23-0.04,10.45-0.07,15.68C286.37,66.39,279.3,64.52,272.22,62.64z"/>
<path class="st5" d="M221.05,142.29c0.04-3.87,3.14-6.98,7.06-7.05c3.88-0.07,7.29,3.15,7.22,6.83c-0.06,3.56-3.68,7.24-7.12,7.24
	C224.49,149.31,221.01,145.91,221.05,142.29z"/>
<path class="st5" d="M267.79,142.44c-0.05-4.26,3.05-7.33,7.31-7.22c3.53,0.09,6.84,3.73,6.76,7.44c-0.07,3.21-3.7,6.67-6.99,6.64
	C270.77,149.26,267.84,146.42,267.79,142.44z"/>
<path class="st3" d="M358.94,102.66c1.23,0.42,2.46,0.84,3.69,1.26c0.7,4.79-0.96,9.39-1.19,14.13c-0.22,4.5-4.26,1.82-6.51,2.59
	C356.97,114.81,358.37,108.82,358.94,102.66z"/>
<path class="st1" d="M198.62,67.08c3.4-1.11,5.62,2.63,8.86,2.18C203.47,72.84,201.3,68.9,198.62,67.08z"/>
<path class="st1" d="M194.25,64.82c1.47-0.03,3.03-0.21,3.32,1.86C196.47,66.06,195.36,65.44,194.25,64.82z"/>
<path class="st1" d="M305.88,66.18c0.37-1.3,1.36-1.35,2.44-1.19C307.51,65.38,306.7,65.78,305.88,66.18z"/>
<path class="st1" d="M304.66,66.92c0.44-0.27,0.87-0.55,1.31-0.82C305.77,66.75,305.27,66.93,304.66,66.92z"/>
<path class="st3" d="M259.91,410.84c0.01,5.89,0.02,11.78,0.03,17.67c-4.39,0.02-8.78-0.04-13.17,0.08
	c-2.59,0.07-3.6-1.02-3.54-3.58c0.11-4.39,0.03-8.78,0.04-13.17C248.82,411.56,254.44,412.46,259.91,410.84z"/>
<path class="st0" d="M225.49,445.25c0-5.54-0.01-11.08-0.01-16.63c4.42-0.02,8.85-0.26,13.26,0.01c6.09,0.37,3.27,5.33,3.2,8.02
	c-0.08,2.91,3.18,8.05-3.19,8.58C234.36,445.6,229.91,445.27,225.49,445.25z"/>
</svg>
