<?xml version="1.0" encoding="utf-8"?>
<!-- Generator: Adobe Illustrator 26.2.1, SVG Export Plug-In . SVG Version: 6.00 Build 0)  -->
<svg version="1.1" id="Layer_1" xmlns="http://www.w3.org/2000/svg" xmlns:xlink="http://www.w3.org/1999/xlink" x="0px" y="0px"
	 viewBox="0 0 500 500" style="enable-background:new 0 0 500 500;" xml:space="preserve">
<style type="text/css">
	.st0{fill:#F7B6C6;}
	.st1{fill:#FBD6DF;}
	.st2{fill:#FEFEFE;}
</style>
<g>
	<path class="st0" d="M498.38,329.12c0,10.35,0,20.7,0,31.04c-3.7,0.72-7.49,1.69-11.2,0.89c-3.93-0.85-7.83-1.02-11.76-0.85
		c-3.88,0.18-5.11-1.52-5.07-5.23c0.04-3.25,0.82-6.68-1.06-10.73c-2.1,6.24-6.22,10.2-9.19,14.91c-1.92,0.16-3.61,1.06-5.11,2.09
		c-2.38,1.63-4.78,2.76-7.65,3.52c-3.25,0.86-5.98-0.98-8.99-0.52c-3.09-2.65-6.12-3.13-8.73,0.55c-1.77,2.5-2.81,5.51-3.09,8.42
		c-0.24,2.48,2.93,2.87,4.45,4.28c2.31,2.15,6.55,3.5,4.91,8.28c-1.44,4.17-1.3,4.22,3.5,4.38l0.02,0.02
		c-0.65,10.36,1.68,20.63,0.99,31c-0.35,0.35-0.7,0.69-1.05,1.04c-10.36,0.38-20.69-0.23-31.01-0.99l0,0c0-3.25,0.07-6.5-0.01-9.75
		c-0.13-5.4-4.75-8.36-8.95-5.05c-4.79,3.77-9.72,7.98-10.71,14.76c-1.24,3.53-2.3,6.91-1.38,10.92c0.53,2.31,2.5,7.08-3.64,6.44
		c-0.45-0.05-1.06,1.21-1.56,1.88c-0.94,1.26-1.98,2.37-3.65,2.61c-3.44,1.97-6.61,5.85-10.96,3.77c-4.28-2.05-9.01-1.46-13.24-3.36
		c-1.7-0.77-4.12-1.57-4.88,1.58c-1.58,0.11-1.99-1.5-3.08-2.11c-0.39-0.58-0.72-0.53-1.01,0.08c-0.67,0.12-1.34,0.24-2.01,0.36
		c-0.1-0.53-0.21-1.06-0.31-1.6c1.21-1.01,2.51-1.98,4.14-1.81c7.15,0.73,14.31,1.43,21.44,2.38c4.54,0.6,7.95-0.86,10.82-4.36
		c2.97-3.62,3.62-7.76,3.13-12.14c-0.71-6.44,1.03-12.27,4.07-17.81c2.14-3.9,5.24-6.85,9.45-8.34c2.2-0.78,5.79-0.28,6.42-2.2
		c0.74-2.26-2.36-4.24-3.5-6.5c-0.08-0.15-0.17-0.3-0.27-0.44c-5.42-7.44-8-7.68-15.21-2.11c-2.32,1.8-3.75,3.01-0.95,5.44
		c0.76,0.66,1.52,1.83,0.71,2.71c-1.26,1.37-2.24-0.11-2.89-0.91c-2.18-2.71-4.29-2.26-6.57-0.22c-0.77,0.69-1.54,1.51-2.47,1.84
		c-3.75,1.36-3.31,3.57-1.72,6.42c1.7,3.05,3.07,6.28,5.07,10.44c-4.83-1.57-5.14-5.43-7.24-7.69c-3.36-3.62-3.49-3.72-7.35-0.62
		c-10.71,8.61-21.55,17.05-33.35,24.13c-2.73,1.64-3.66,3.35-2.81,6.27c0.3,1.05,1.35,2.52-0.36,3.04c-1.43,0.43-1.9-1.2-2.41-2.23
		c-1.03-2.1-2.14-2.88-4.36-1.21c-5.81,4.36-12.23,7.69-19,10.28c-3.48,1.33-3.82,3.41-2.35,6.47c2.17,4.51,4.13,9.14,10.33,9.47
		c-1.2,2.43-2.68,2.33-4.51,1.87c-3.73-0.93-5.68-3.68-7.32-6.77c-1.12-2.12-1.6-4.93-3.29-6.29c-2.23-1.79-4.79,0.69-7.25,1.14
		c-1.56,0.29-2.5-0.07-1.16-1.79c7.77-3.3,16.29-5.04,22.84-10.9c-7.84,1.82-14.7,6.2-22.45,8.19c-0.92,0.24-1.69,1.09-2.52,1.65
		c-2.22,1.61-7.76-0.27-5.89,5.75c0.33,1.05-1.33,1.43-2.33,1.39c-2.45-0.09-4.75,0.59-7.11,1.01c-2.84,0.51-6.78-1.24-8.35,0.84
		c-1.35,1.8-0.14,5.49-0.16,8.35c-0.01,1.1,0.37,2.82-1.37,2.76c-1.41-0.05-1.56-1.6-1.62-2.84c-0.05-0.86,0.06-1.75-0.15-2.57
		c-1.21-4.75-0.85-6.56-7.04-8.04c-6.3-1.51-12.35-3.69-17.74-7.73c-3.17-2.38-6.93-4.56-11.37-4.09c-0.05-0.12-0.09-0.25-0.17-0.34
		c-0.05-0.06-0.18-0.04-0.28-0.06c0.14,0.14,0.28,0.28,0.43,0.42c0,2.23,0.13,4.48-0.04,6.7c-0.33,4.39-3.3,7.46-7.55,7.66
		c-1.73,0.08-4.57,0.88-4.74-1.63c-0.18-2.63,2.6-1.33,3.95-1.32c3.11,0.02,4.61-2.06,4.95-4.32c0.45-2.98,0.83-7.1-1.32-8.84
		c-2.7-2.19-6.59-3.68-10.58-2.62c-3.32,0.88-5.81,0.59-5.58-3.76c0.07-0.79,0.14-1.58,0.21-2.37c5.36,1.31,10.23,3.9,15.41,5.7
		c1.61,0.56,3.78,1.52,4.7-0.16c1.25-2.28-1.53-2.49-2.78-3.38c-0.97-0.69-1.97-1.41-3.07-1.8c-12.58-4.53-23.79-11.68-35.28-18.3
		c-1.84-1.06-3.69-1.8-5.85-1.47c-0.46-0.93-1.3-1.1-2.22-1.13c-0.01-0.88-0.13-1.76-0.91-2.29c-6.22-4.23-12.46-8.43-18.7-12.64
		c-3.12-2.1-6.21-4.27-9.41-6.25c-1.77-1.1-3.5-0.26-4.52,1.2c-1.19,1.69,0.7,2.34,1.68,3.12c9.49,7.57,19.22,14.79,29.79,20.81
		c1.13,0.69,1.55,2.44,3.31,2.18c0.72,0.51,1.1,1.18,1.01,2.08c-1.14,0.12-2.42-0.14-3.14,1.14c-0.71,3.46-3.15,6.09-4.49,9.25
		c-0.28,0.66-0.98,1.04-1.71,0.7c-0.72-0.34-0.78-0.97-0.51-1.72c0.82-2.26,1.39-4.64,2.42-6.81c1.38-2.9,0.52-4.69-2.03-6.33
		c-8.09-5.2-16.41-10.18-23.58-16.58c-5.22-4.66-10.03-6.26-15.98-1.9c-0.73,0.53-1.69,0.59-2.24-0.31c-0.45-0.73,0.2-1.34,0.7-1.75
		c2.1-1.71,4.24-3.36,6.43-5.07c-5.95-6.2-11.77-12.25-17.56-18.33c-1.42-1.49-2.95-2.46-5.02-1.52c-1.97,0.9-1.66,2.78-1.78,4.49
		c-0.16,2.08,0.69,3.65,2.18,5.01c1.32,1.21,2.11,2.68,2.03,4.56c-0.29,6.72,1.26,13.32,1.23,20.06c-0.03,7.25,2.64,9.44,9.53,12.11
		c4.39,1.71,9.19,1.4,13.75,1.77c4.9,0.4,7.47,3,9.59,6.65c1.63,2.8,2.56,6.05,4.44,8.64c6.21,8.54,15.6,11.32,25.38,12.86
		c2.82,0.44,5.68-0.65,7.93-2.97c3.27-3.39,6.95-2.98,9.93,0.75c4.31,5.38,4.79,11.57,3.66,17.99c-0.84,4.79-0.96,9.84,2.45,13.21
		c3.64,3.6,8.32,6.99,13.72,6.93c3.89-0.05,7.88-0.33,11.8-0.71c6.61-0.64,9.92-3.78,11.38-10.24c1.04-4.6,0.1-9.29,0.69-13.9
		c0.19-1.47,0.52-3.51,2.48-3.34c1.87,0.16,1.26,2.13,1.33,3.41c0.2,3.8-1.45,7.44-0.96,11.28c0.17,1.31-0.29,3.35,1.52,3.34
		c4.9-0.01,8.73,3.78,13.06,4.07c6.64,0.44,10,3.8,12.33,9.19c1.94,4.48,4.62,7.06,10.15,6.86c3.52-0.13,7.11,0.01,10.68-0.23
		c5.1-0.34,6.52-1.66,7.13-6.78c0.74-6.23,2.07-11.93,7.95-15.85c6.04-4.02,12.09-6.96,19.53-5.38c1.18,0.25,2.32,0.71,3.5,0.85
		c3.27,0.39,6.37,0.36,9.5-1.36c5.16-2.84,3.83-7.54,4.06-11.86c1.36,1.63,4.06-0.38,4.9,1.37c0.95,1.99-1.05,3.79-1.61,5.73
		c-0.05,0.16-0.06,0.33-0.1,0.5c-1.62,7.57-4.33,9.85-11.82,9.98c-6.52,0.11-6.47,0.11-6.97,6.38c-0.16,2.02-0.66,4.01-1.01,6.01
		c-0.04,0.32-0.09,0.64-0.13,0.96c-4.96,0.03-9.93,0.08-14.89,0.09c-1.82,0.01-3.15,0.18-3.63,2.55c-1.54,7.55-4.29,9.62-12.4,9.92
		c-10.34,1.11-20.68,2.3-30.91-0.89c-0.3-0.09-0.81,0.52-1.23,0.8c-1.14-3-2.24-6.02-3.44-9.01c-0.65-1.6-1.46-3.49-3.5-3.24
		c-6.53,0.79-13.6-2.65-19.61,2.57c-0.75,0.65-2.3,0.39-3.48,0.55c-2.41-0.13-4.65,1.28-7.1,0.8c-1.58-1.49-3.47-0.81-5.27-0.75
		c-2.86-0.12-5.7-0.66-8.51-0.9c-3.28-0.27-5.68-3.23-9.1-2.45c-8.92,0.76-17.74-1.01-26.63-0.95c-3.47,0.02-4.41-1.7-4.35-4.81
		c0.11-5.83,0.02-11.66,0.03-17.49c0-2.72-0.43-5.03-3.54-6.08c-1.38-0.47-2.48-1.76-3.7-2.68c-0.02-0.69-0.04-1.37-0.06-2.06
		c1.5-0.03,2.45,1.09,3.65,1.71c1.01,0.53,2.14,0.41,2.75-0.54c0.81-1.26-0.37-1.77-1.25-2.25c-2.26-1.24-4.51-2.53-7.26-1.94
		c-3.36-2.75-7.3-4.42-11.23-6.12c-4.9-2.12-6.11-4.84-4.08-9.7c0.33-0.79,0.05-1.32-0.19-1.91c-1.31-3.22-3.1-5.81-7.2-5.14
		c-4.9,0.53-10.04,0.07-14.58-0.8c-5.11-0.99-10.29-1.37-15.39-2.32l-0.01-0.01c0-8.72,0.02-17.44-0.03-26.16
		c-0.01-1.65,0.53-3.46-0.94-4.85c-0.27-1.16-0.39-2.38-0.85-3.47c-2.56-6.13-3.74-6.2-9.73-3.56c-4.84,2.13-10.06,3.56-14.96-0.8
		c-0.97-0.86-2.33-3.56-4.67-1.56c-1.86-3.98-4.69-7.01-8.64-9.03c-2.33-1.19-4.02-2.82-4.81-5.61c-1.3-4.56-3.51-5.94-8.13-5.99
		c-2.74-0.03-5.48-0.06-8.22-0.09c-0.04-10.67-0.08-21.34-0.12-32.01c0.23-2.16-0.64-3.64-1.99-5.47
		c-5.37-7.29-11.01-14.63-10.41-24.51c1.26-4.04,4.12-7.04,6.62-10.28c3.34-4.32-0.48-16.82-5.83-17.29
		c-5.54-0.49-10.18-2.85-15.17-4.56c-1.42-2.66-2.06-5.89-5.28-7.25c0.77-2.64,1.84-5.37,0.52-8.01c-1.37-2.74-1.78-5.54-1.51-8.48
		c0.29-3.17-1.01-4.89-4.18-5.19c0-10.35,0-20.7,0-31.04c2.08-0.01,4.16-0.03,6.25-0.04l0,0.01c-0.01,2.24-0.03,4.48-0.01,6.72
		c0.01,0.84-0.04,1.85,1.02,2.1c0.7,0.17,1.34-0.3,1.66-0.95c1.87-3.75,5.53-5.5,8.67-7.83c6.54-0.2,8.48-1.7,10.17-7.9
		c0.41-1.49,0.81-2.98,1.09-4.49c0.57-3.1,0.11-5.69-3.02-7.45c-3.23-1.82-5.69-4.43-6.17-8.38c-0.22-1.79-1.24-2.76-3-3
		c0.05-0.83-0.21-2.09,0.62-2.32c3.4-0.96,4.62-3.92,6.12-6.5c2.3-3.93,7.13-5.71,9.02-9.3c1.92-3.65,0.95-8.66,2.68-12.82
		c0.17-7.13,0.17-7.13-7.1-9.4c-7.34-2.29-10.18-8.55-7.12-15.65c0.67-1.55,1.74-2.95,1.74-4.75c0.31-1.67-0.39-3.68,0.75-5
		c3.47-4,4.69-9.36,8.83-13.09c3.6-3.23,6.47-7.51,5.09-13.04c10.29-0.23,20.61,0.47,30.87-0.98c0.84,2.68,2.12,1.93,2.89,0.13
		c0.79-1.85,0.86-3.99,1.55-5.9c3.38-9.32,9.19-17.62,19.45-15.86c0.73,0.85,1.46,0.84,2.18-0.02c1.71-0.04,3.41-0.08,5.12-0.12
		c3.1,2.4,4.11-0.92,5.71-2.23c1.25-1.03,2.98-2.17,2.25-4.24c-0.74-2.08-2.69-1.9-4.38-1.81c-2.67,0.15-3.66-0.98-3.62-3.64
		c0.11-7.57,0.09-15.14,0.01-22.71c-0.03-2.55,0.78-3.78,3.54-3.75c7.74,0.1,15.49,0.06,23.23,0.01c2.06-0.02,2.89,0.8,3.5,2.84
		c1.19,3.92,0.66,7.85,0.81,11.78c0.15,3.87,1.58,6.33,5.75,7.17c5.97,1.2,11.88,1.64,17.83,0.21c4.89-1.17,6.31-2.89,6.44-7.78
		c0.1-3.61,0.08-7.23,0-10.84c-0.04-2.03,0.6-3.18,2.8-3.49c1.68-0.23,3.28-0.9,5.04-0.88c7.69,0.09,15.38,0.09,23.07,0.12
		c0.52,5.41,0.38,10.86,0.82,16.3c0.48,5.95,0.78,11.23,6.49,14.52c-0.51,2.51,0.6,4.11,2.67,5.47c1.74,1.15,3.73,1.6,5.52,2.54
		c7.42,3.91,11.37,2.4,14.85-5.73c0.86-0.25,1.64-0.58,1.46-1.71c-1.39-8.86-0.22-17.79-0.67-26.67c-0.18-3.54,1.27-4.92,4.82-4.87
		c8.4,0.14,16.81,0.04,25.22,0.03c0.32,0.02,0.64,0.07,0.96,0.12c0.02,4.08-0.4,8.21,0.17,12.21c0.94,6.59-0.61,14.15,6.25,18.81
		c1.18,4.34,4.5,6.73,8.51,6.86c4.01,0.12,6.13-3.12,6.93-6.97c2.53-1.06,2.23-4.03,4-5.77c3-2.97,4.29-6.91,4.25-11.22
		c-0.03-3.27-0.01-6.54-0.01-9.81c0-1.7,0.34-3.28,2.45-3.15c8.09,0.54,16.06-1.57,24.15-1.06c3.11,0.2,4.66,1.62,4.48,4.93
		c-0.22,4.12-0.15,8.24,1.07,12.25c0.99,3.24,5.41,7.19,8.6,7.17c3.42-0.02,4.16-2.94,5.29-5.43c1.31-2.89,3.09-4.45,6.87-4.7
		c8.79-0.59,8.88-1,9.13-9.67c0.09-3.3,1.3-4.67,4.61-4.6c6.19,0.12,12.39,0.01,18.59,0.04c6.27,0.03,7.49,0.99,7.79,7.46
		c0.13,2.88,1.25,3.93,3.82,4.3c5.32,0.77,9.79,3.99,15.05,5.14c4.09,0.9,5.68,4.33,4.64,8.43c-0.47,1.87-0.62,3.71-0.68,5.6
		c-2.93,3.77-2.67,4.63,0.95,6.96c2.05,1.32,4.12,1.5,6.36,1.51c6.29,3.85,12.35,3.68,17.5-1.26c4.07-3.9,8.37-4.68,13.45-2.91
		c1.74,1,3.39,2.21,5.22,2.97c7.45,3.09,9.46,5.91,9.4,13.69c-0.03,3.4-0.07,6.8-0.11,10.2c-2.19,6.37,2.34,15.56,8.62,17.48
		c6.53,2,6.98,1.67,6.99-5.1c0.01-4.12,0-8.25,0-12.37c0.31-0.03,0.62-0.08,0.92-0.12c9.34,0.03,18.69,0.06,28.03,0.1
		c0,10.69,0,21.39,0,32.08c-0.69,0-1.37-0.02-2.06-0.01c-5.82,0.09-5.79,0.2-3.91,5.86c1.91,5.74,2.51,11.67,1.38,17.67
		c-0.98,5.21-0.99,5.28,4.59,5.46c0,14.83,0,29.66,0,44.5c-0.95,0.01-1.61-0.41-2.09-1.23c-2.03-3.46-4.96-5.98-7.98-8.59
		c-2.79-2.41-6.23-4.09-8.19-7.66c-3.87-7.03-3.71-14.55-3.28-22.06c0.25-4.39,4.04-7.09,8.74-6.51c2.08,0.25,2.94-0.8,3.79-1.91
		c1.27-1.66,1.51-3.74,1.77-5.83c0.87-6.98-2.82-12.93-4.21-19.4c-0.73-3.41-2.66-6.3-4.79-9.03c-3.43-4.41-5.04-4.75-9.95-2.05
		c-4.62,2.54-9.36,3.83-14.06,0.38c-2.61-1.92-5.44-3.88-7.26-6.46c-2.92-4.13-5.83-8.34-2.62-14.17c1.34-2.44,1.71-5.84,2.38-8.83
		c0.56-2.48,0.53-5.17-0.83-7.55c-4.76-8.38-15.89-9.79-22.8-2.92c-2.67,2.65-5.73,3.89-9.66,3.99c-3.97,0.09-7.28-1.95-11.02-2.32
		c-0.37-0.29-0.73-0.58-1.1-0.87l-0.09-0.08c-0.14-0.53-0.46-0.83-1.03-0.84c-1.95-0.15-3.01-2.32-5.05-2.27
		c-0.28-2.42-2.22-2.74-4.05-3.19c0.01-0.66,0.02-1.32,0.03-1.97c0.12-0.12,0.35-0.27,0.33-0.34c-0.09-0.27-0.26-0.51-0.4-0.76
		c0-1.37-0.01-2.73-0.01-4.1c0.29-0.38,0.59-0.76,0.88-1.14c0.97-1.52,1.22-3.23,1.34-4.98c2.5-1.85,2.43-2.9-0.28-4.15
		c-0.31-0.04-0.61-0.08-0.92-0.13c-0.66-1.35-1.69-2.07-3.24-1.89c-1.92-0.08-3.66-0.86-5.48-1.31c-5.66-1.4-10.84-4.49-16.72-4.93
		c-5.3-0.39-5.66,0.18-4.79,5.28c1.05,6.12-1.57,8.5-7.55,6.59c-3.57-1.14-7.36-2.18-10.42-4.22c-5.02-3.35-8.55-1.74-11.96,2.15
		c-0.23,0.26-0.5,0.48-0.75,0.71c-7.06,6.61-12.06,6.53-19.12-0.32c-0.72-0.7-1.14-1.81-2.34-1.83c-4.6-0.07-9.29-0.71-13.77-0.01
		c-6.5,1.02-12.87,2.99-15.7,10.05c-2.96,7.37-9.05,11.58-16.96,11.44c-3.45-0.06-6.58-0.86-6.77-5.28
		c-0.06-1.51-1.22-2.39-2.06-3.48c-5.8-7.58-13.62-7.64-21.96-6.05c-5.62,1.07-7.72,5.77-10.68,9.72c-2.67,3.56-4.56,9.2-10.25,7.95
		c-8.04-1.77-15.92-4.4-21.16-11.69c-3.34-4.64-8.22-7.7-12.53-11.34c-2.4-2.03-5.14-1.42-7.88-1.1c-7.71,0.91-14.17,4.98-21,8.13
		c-7.15-2.91-14.37-5.06-22.07-2.03c-0.63-0.07-1.26-0.13-1.89-0.2c-2.2-2.18-3.6-0.25-5.13,0.99l-0.02,0.01
		c-0.36,0.32-0.72,0.64-1.07,0.96c-1.99,1.12-3.48,2.81-4.87,4.55c-1.82,2.27-3.47,4.67-5.26,6.96c-3.77,4.84-7.03,5.95-12.02,4.17
		c-6.94-2.48-16.41,1.05-18.89,8.03c-2.08,5.88-5.18,11.19-7.58,16.87c-4.97,11.76-14.42,14.2-24.52,6.35
		c-3.73-2.9-9.02-0.99-10.32,3.64c-0.27,0.96-0.76,2.07-1.5,2.64c-3.92,2.98-5.86,7.56-9.18,11.01c-0.86,0.46-1.02,1.24-0.96,2.12
		c-1.01,2.63-1.24,5.35-0.99,8.14c-0.13,5.65,0.79,6.84,6.35,7.23c2.69,0.19,5.36,0.17,7.91,1.18c0.03,0.33,0.06,0.65,0.09,0.98
		c0.32,1.87-1.03,4.3,1.82,5.3c0.03,1.66,0.05,3.33,0.08,4.99c-2.31,1.07-1.54,3.54-2.31,5.33c-1.23-0.82,0.01-2.47-1.28-3.25
		c-0.99,2.73-0.86,5.76-1.8,8.34c-1.06,2.9-1.28,5.5-0.52,8.34c-2.56,2.8-5.98,4.47-8.88,6.81c-2.96,2.39-3.88,6.94-1.52,8.93
		c4.13,3.46,7.97,7.48,13.44,8.96c-0.42,0.43-0.83,0.87-1.25,1.3c-1.8,0.23-4.58-1.36-4.88,1.87c-0.32,3.36-0.61,6.71-1.05,10.07
		c-0.31,2.35,1.25,3.88,3.49,4.26c2.33,0.39,3.35-0.98,3.6-3.23c0.11-0.97,0.66-1.9,1.01-2.84c2.45-3.8,2.65-8.15,3.02-12.46
		c-0.13-0.49-0.5-1.07-0.35-1.47c2.68-7.56,2.65-15.76,5.47-23.28c1.74-0.92,3.26-2,3.14-4.28c0.38-1.69,0.76-3.39,1.14-5.08
		c0.3-0.37,0.61-0.74,0.91-1.12c0.07-0.65,0.13-1.3,0.2-1.95c1.33-0.71,2.14-1.7,1.75-3.32c1.12-2.7,2.24-5.4,3.35-8.1
		c1.04-0.17,2-0.46,1.82-1.8c-0.14-1.05-1.01-1.16-1.85-1.26l0,0c0.05-0.97,0.33-1.82,1.22-2.35c0.61,0.04,1.22,0.08,1.82,0.11
		c0.56-0.07,0.9-0.39,1.04-0.93c0,0,0.05-0.06,0.05-0.06c0.32-0.33,0.65-0.66,0.97-0.99l0.05-0.05c0.55-0.15,0.86-0.49,0.89-1.06
		c2.65-6.97,8.63-11.5,12.76-17.38c1.79-2.01,6.16-1.11,6.01-5.32c10.1-9.52,20.33-18.88,33.07-24.88c1.98-0.15,3.77-0.58,4.32-2.88
		c0.98-0.08,1.96-0.17,2.94-0.25c0.36-0.31,0.72-0.62,1.09-0.93c0.67-0.05,1.33-0.09,2-0.14c0.57-0.05,0.93-0.37,1.11-0.9
		c1.33-1.61,3.08-2.23,5.12-2.14c1.52,0.13,2.98,0.16,3.26-1.87c0.65-0.07,1.3-0.14,1.94-0.21c1.49,0.16,2.9,0.16,3.29-1.75
		c1.97-0.15,3.94-0.3,5.92-0.45c1.37,0.29,2.1-0.33,2.36-1.63c2.67-0.12,5.35-0.24,8.02-0.36c1.97-0.06,3.75-0.63,5.32-1.85
		c2.55,0.02,5.03-0.43,7.54-0.81c2.45-0.37,5.08-2.26,7.38-0.81c3.2,2.01,6.49,1.51,9.83,1.49c1.09,0.01,2.18,0.01,3.27,0.02
		c7.89,3.82,17.09,3.98,24.63,8.6c3.48,2.14,4.88,1.44,5.38-2.36c0.22-1.63,0.79-3.33,2.85-2.69c1.71,0.53,1.43,2.44,0.92,3.56
		c-1.96,4.33-0.07,7.2,3.14,9.82c2.26,1.85,4.37,3.88,6.54,5.82c0.35,2.77,2.73,2.72,4.48,2.68c1.34-0.03,2.54-0.23,3.73,0.49
		c0.08,3.16,0.29,6.24,4.1,7.3c0.26,2.27,3.22,2.16,3.78,4.42c0.25,1.01,1.73,0.46,2.62-0.14c2.85-1.93,4.72-6.99,3.9-10.62
		c1.39-1.8,2.72-3.67,5.14-4.21c1.53,0.11,3.06,0.21,3.05-2.02l0.1-0.08c2.32-0.34,3.57-1.83,4.24-3.95l0,0
		c2.05-0.15,3.21-1.48,4.12-3.13c2.13-0.29,3.84-1.42,5.42-2.77c11.23-9.58,24.56-14.74,38.63-18.28c7.9-1.99,15.99-1.89,24.07-1.77
		c2.43,0.04,4.45-0.05,4.42-3.4c-0.02-1.85-1-5.19,1.69-5.07c2.38,0.1,1.18,3.38,1.26,5.27c0.09,2.16-0.07,3.89,2.99,4.3
		c8.85,1.17,17.41,3.52,25.7,6.91c3.74,1.53,7.74,2.42,11.62,3.61c0.4,1.79,1.97,2.99,3.29,2.48c2.36-0.91,3.27,1.45,5.03,1.53
		l0.01,0.01c0.12,1.37,0.83,2.03,2.23,1.87c0.31,0.02,0.63,0.06,0.94,0.11c0.62,1.41,1.65,2.13,3.23,1.92
		c0.3,0.05,0.61,0.1,0.91,0.17c0.35,0.33,0.71,0.66,1.06,0.99c0.71,1.12,1.88,1.11,3,1.19c0.37,0.29,0.75,0.58,1.12,0.87l0.06,0.01
		c-0.22,2.11,0.63,3.2,2.86,3.14c1.53-0.05,3.05,0.06,4.58,0.09c-0.24,2.76,2.25,3.65,3.68,5.23c1.13,1.25,3.21,1.06,4.19,2.8
		c3.56,6.35,9.35,10.91,13.61,16.7c0.11,1.29,0.58,2.4,2.07,1.79c1.1-0.45,0.54-1.25-0.18-1.79c-0.02-1.04-0.05-2.07-0.07-3.11
		c0.78,0.35,1.56,0.7,2.34,1.04c0.34,2.06,1.24,4.02,1.08,6.17c0.29,0.39,0.57,0.77,0.86,1.16c1.79,6.35,5.83,11.47,9.35,16.85
		c4.98,7.62,5.02,7.5,13.37,3.44c2.1-1.02,4.03-3.24,7.9-1.82c-4.04,2.66-7.2,5.38-10.85,6.96c-3.54,1.53-3.27,3.28-1.91,5.98
		c2.47,4.92,4.51,10.01,6.08,15.31c3.17,10.66,3.78,21.59,4.09,32.6c0.08,2.9,0.67,5.78,1.01,8.68c0.21,1.71,1.17,1.9,2.55,1.3
		c1.1-0.48,2.26-0.84,3.28-1.45c1.24-0.73,2.81-1.65,3.71-0.38c1.2,1.71-0.95,2.09-1.93,2.81c-1.38,1.02-2.72,2.22-4.28,2.86
		c-2.55,1.05-3.47,2.74-3.73,5.45c-0.44,4.6-1.22,9.18-2.11,13.72c-1.27,6.49-0.25,8.08,6.27,8.7c1.71,0.16,3.44,0.06,5.17,0.01
		c1.34-0.04,2.4-0.36,1.93-2.15c-1.46-5.5-1.3-11.23-2.18-16.81c-0.71-4.5,1.34-7.47,5.84-7.88c2.74-0.25,5.51-0.07,8.27-0.08
		c0,13.11,0,26.21,0,39.32c-1.63,0.09-2.43-0.96-3.18-2.2c-3.24-5.39-7.52-8.6-14.28-7.13c-1.98,0.43-4.08-0.04-6.07-0.78
		c-1.97-0.73-3.34,0.15-3.97,2.1c-2.92,8.95-5.58,17.97-7.64,27.16c-0.6,2.66,0,4.46,3.32,5.04c4.17,0.73,8.57,0.33,12.48,2.58
		c1.37,0.79,2.38-0.92,3.57-1.36c2-0.75,3.7-3.43,6.01-2.13c4.31,2.42,6.97-0.01,9.76-2.58c0,10.69,0,21.39,0,32.08
		c-3.65,1.1-7.34,1.5-11.08,0.59c-1.66-0.4-3.48-1.27-4.82,0.14c-1.45,1.51-0.11,3.17,0.48,4.73c1.75,4.6,0.51,7.89-3.87,10.08
		c-2.88,1.44-5.81,2.79-8.71,4.18c-4.95,1.64-6.83,5.43-7.16,10.29c-0.21,0.42-0.62,1.18-0.59,1.2c3.37,1.96,5.25,5.18,6.73,8.83
		c1.49-1.55,1-2.98,1.05-4.28c0.2-5.52,0.36-5.73,5.91-5.75C483.67,329.1,491.03,329.12,498.38,329.12z M111.34,92.16
		c-1.3,0.08-2.03,0.72-2.08,2.06c-0.94,0.11-2.08-0.31-2.58,0.92c-0.07,0.17,0.22,0.69,0.4,0.72c1.25,0.2,1.71-0.75,2.2-1.63
		C110.58,94.16,111.29,93.49,111.34,92.16c0.34-0.27,1.35,0.45,1.06-0.74C112.05,91.66,111.69,91.91,111.34,92.16z M92.7,107.66
		c-0.67,0.08-1.4,0.13-1.53,0.98c-0.03,0.17,0.4,0.6,0.57,0.57c0.85-0.13,0.89-0.86,0.99-1.53c0.34-0.35,0.69-0.69,1.03-1.04
		c2.42-0.33,3.83-1.68,4.16-4.12c3.72-0.1,5.51-2.42,6.55-5.62c-2.82,1.13-5.27,2.69-6.6,5.57c-2.41,0.36-3.82,1.7-4.12,4.16
		C93.39,106.98,93.04,107.32,92.7,107.66z M417.79,350.9l-0.04,0.08c-1.49,0.47-2.11,1.54-2.07,3.05c-0.13,1.06-0.68,1.89-1.33,2.73
		c-5.67,7.33-11.13,14.85-18.51,20.63c-2.73,2.14-3.35,3.92,0.02,6.18c3.9,2.62,6.95,6.31,8.94,10.44c2.02,4.2,5.02,6.62,9.02,8.58
		c2.12,1.04,3.52,1.02,4.97-0.63c4.44-5.03,8.75-10.14,11.51-16.38c1.04-2.36,0.77-3.78-1.83-4.81c-4.2-1.66-5.62-5.08-5.74-9.45
		c-0.12-4.47,3.13-7.03,5.15-10.31c3.51-1.52,3.73-2.53,1.12-4.96c-0.12-0.33-0.23-0.67-0.35-1c1.54,0.28,3.08,0.57,4.62,0.85
		c0,0,0.01,0.06,0.01,0.06c0.35,0.32,0.7,0.63,1.05,0.95c2.56,0.12,3.53,3.13,6.05,3.33c0.18,1.35,0.89,2.01,2.3,1.75
		c1.27,0,2.54,0.01,3.81,0.01c1.63,0.31,2.61-0.48,3.21-1.9c0.99-0.4,1.97-0.8,2.96-1.19c1.63-0.3,2.18-1.42,2.23-2.93
		c1.81-2.71,3.72-5.36,5.42-8.13c2.32-3.79,2.29-7.45,0.1-9.34c-4.07-3.51-4.35-4.96-1.89-9.53c0.57-1.06,1-2.19,1.54-3.26
		c1.57-3.11,1.08-5.19-2.66-6.04c-2.91-0.66-5.02-2.6-6.95-4.85c1.44-1.67,2.67-0.53,3.79,0.01c5.22,2.51,10.15,3.25,14.36-1.91
		c0.93-1.14,2.36-1.29,3.73-1.54c2.77-0.5,4.17-2.36,4.31-5.04c0.12-2.4,0.24-4.87-0.18-7.21c-1.25-6.86-1.68-13.67,0.66-20.34
		c0.91-2.61-0.27-3.25-2.34-4c-2.87-1.04-5.91,0.03-8.68-0.9c-3.29-1.11-4.91-0.28-6.22,3.07c-2.74,6.99-5.42,14.11-8.82,20.74
		c-5.29,10.33-10.88,20.55-17.28,30.31c-3.37,5.14-7.35,9.91-9.98,15.53c-2.79,1.44-2.86,2.84,0.06,4.2l0,0.01
		c-0.34,0.74-0.69,1.48-1.03,2.22c-1.34,0.01-2.67,0.02-4.01,0.03C418.26,350.06,417.92,350.36,417.79,350.9z M54.31,293.99
		c-0.32-0.35-0.63-0.71-0.95-1.06c-0.06-0.3-0.11-0.6-0.16-0.9c0.17-1.38-0.49-2.1-1.83-2.27c-0.58-3.14-1.87-4.71-5.2-2.67
		c-1.08,0.66-2.52,1.27-3.58-0.19c-0.05-0.97,0.65-1.2,1.22-1.55c5.36-3.32,5.4-3.33,3.43-9.05c-2.96-8.63-5.11-17.44-6.47-26.47
		c-1.13-7.48-1.72-7.96-9.16-9.64c-0.5-0.11-1.02-0.12-1.53-0.22c-0.77-0.14-1.26-0.66-1.25-1.4c0.01-0.74,0.56-1.24,1.32-1.31
		c0.85-0.09,1.72-0.1,2.57-0.13c5.09-0.19,5.93-0.86,6.06-5.94c0.17-6.71-0.04-13.44,0.19-20.15c0.11-3.27-1.19-4.23-4.25-4.07
		c-1.85,0.1-3.29,0.73-4.7,1.8c-2.09,1.59-4.36,2.36-7.11,2.48c-4.93,0.21-9.89,4.55-10.78,9.48c-2.05,11.42-2.17,22.86,0.72,34.22
		c2.58,10.14,6.27,12.77,16.48,11.64c5.35-0.59,7.85,1.34,9.56,6.36c1.59,4.66,0.73,9.39-1.41,12.92
		c-3.46,5.7-2.55,11.54-2.79,17.42c-0.2,5.07,2.24,9.34,4.85,13.38c1.94,3.01,6.58,3.33,7.7,0.48c1.78-4.54,5.06-5.05,9.03-4.88
		c1.18,0.17,2.38,0.29,3.54,0.54c1.25,0.27,2.72,1.5,3.57-0.29c0.68-1.42,0.44-3-0.91-4.2c-0.88-0.78-1.47-1.93-2.83-2.02
		c-0.08-0.63-0.15-1.26-0.23-1.89c0.14-1.36-0.51-2.09-1.84-2.25c-0.09-0.62-0.18-1.24-0.28-1.86c-0.15-2.49-1.15-4.58-2.98-6.26
		C54.34,294.04,54.31,293.99,54.31,293.99z M67.7,318.83c-0.08-1.38,0.77-3.14-1.12-3.85c-1.22-0.46-1.71,0.55-1.87,1.63
		c0,0-0.04,0.04-0.04,0.04c-1.36,0.02-2.71,0.05-4.07,0.07c-0.87-0.91-0.92-3.03-3.06-2.06c-2.32,0.54-3.7,2.33-5.18,3.96
		c-3.24,3.58-5.12,8.71-11.19,9.4c4.1,1.47,7.97,0.98,11.79,1.09c5.25,0.15,6.6,1.48,6.66,6.82c0.02,1.89,0.02,3.78,0.02,5.67
		c-3.65,2.29-5.78,4.96-2.43,9.15c0.37,0.47,0.17,1.35,0.36,2.01c1.97,6.5,5.44,12.21,9.49,17.57c2.28,3.02,6.31,3.76,8.08,8.18
		c1.64,4.1,9.43,3.37,12.59-0.19c-1.6-1.67-4.44,0.63-6.06-1.94c3.6-2.22,7.38-3.01,11.36-2.71c4.52,0.34,7.18-2.85,9.06-5.79
		c1.32-2.07-1.73-4.32-3.33-6.23c-0.88-1.05-1.65-2.19-2.48-3.28c-2.93-3.8-3.61-3.89-7.46-1.05c-3.53,2.61-4.73,2.87-8.1,1.72
		c0.92-1.49,2.63-1.49,3.91-2.23c2.43-1.41,5.18-3.55,4.48-6.32c-1.19-4.7-4.53-8.37-8.01-11.8c-2.27-2.24-4.45-0.77-6.72-0.33
		c-0.99,0.19-2.33,0.41-2.79-0.66c-0.68-1.56,0.82-2.07,1.89-2.49c2.36-0.93,3.04-2.58,2.45-4.92c-0.03-0.58-0.34-0.93-0.89-1.09
		c-0.09-0.29-0.16-0.59-0.19-0.9c-0.41-1.59-0.84-3.16-2.92-3.25c-0.05-0.32-0.09-0.64-0.1-0.96c-0.34-2.53-1.29-4.57-4.09-5.14
		L67.7,318.83z M388.72,410.91c5.02-1.76,7.2-7.54,12.86-8.39c-6.29-1.42-10.61,1.58-12.92,8.34c-0.25,0.36-0.5,0.73-0.73,1.1
		c0,0.01,0.24,0.16,0.36,0.25C388.43,411.77,388.57,411.34,388.72,410.91z M251.13,482.17c-0.25-0.45-0.47-0.51-0.55-0.14
		c-0.02,0.08,0.23,0.22,0.35,0.33c1.33,2.94,2.62,5.9,4.02,8.8c1,2.09,2.51,3.39,5.82,2.84
		C257.53,489.52,257.12,483.71,251.13,482.17z M304.87,469.88c-10.37,3.07-14.29,8.73-12.3,22.09c4.34-7.23,5.78-16.14,12.26-22.13
		c0.08-0.11,0.15-0.22,0.23-0.32C305,469.64,304.94,469.76,304.87,469.88z M341.04,411.86c-7.86,2.64-14.88,7.07-22.22,10.77
		c-12.25,6.18-24.73,11.72-37.65,16.32c-4.2,1.49-8.3,3.25-12.46,4.84c-1.19,0.45-2.54,0.88-1.75,2.44c0.57,1.12,1.79,0.82,2.7,0.2
		c1.01-0.69,2.1-1.06,3.26-1.44c11.91-3.9,23.5-8.58,35.03-13.51c6.78-2.9,12.87-6.97,19.54-10.02c4.96-2.27,10.34-4.56,13.64-9.49
		c0.49-0.21,0.56-0.4,0.19-0.48C341.26,411.45,341.14,411.72,341.04,411.86z M456.99,252.56l-0.01-0.01
		c0.09,1.72,0.18,3.44,0.27,5.15c7.68-14.16,11.66-29.14,12.06-44.91c0.36-13.78-1.63-27.18-5.79-40.51
		c-4.46-14.29-9.16-28.14-17.86-40.6c-7.19-10.28-13.86-20.87-23.36-29.24c-7.2-6.34-14.73-12.14-23.23-16.83
		c-7.25-4-14.88-7.21-22.36-10.49c-6.91-3.03-12.75-8.88-20.97-8.88c-7.34,0-14.63-1.42-22.03,0c-12.62,2.42-25.45,3.91-37.59,8.41
		c-3.2,1.19-5.99,3.48-9.43,4.04c-2.91,0.48-5.01,2.05-7.01,4.02c-7.98,7.86-15.51,16.08-21.7,25.48
		c-3.56,5.41-5.16,5.65-10.37,2.38c-1.27-0.8-2.3-2.08-4.16-1.27c-1.15,0.5-1.42-0.27-1.25-1.36c0.85-5.52-2.87-8.63-6.71-11.03
		c-7.32-4.57-15.5-7.47-23.6-10.34c-19.74-6.99-40.19-9.19-60.98-7.72c-6.22,0.44-12.36,1.62-18.08,5.15
		c-5.22,3.23-10.56,6.36-15.78,9.59c-9.95,6.14-19.6,13.16-27.21,21.9c-11.3,12.98-21.75,26.7-30.04,42.03
		c-8.79,16.26-13.29,33.33-13.72,51.7c-0.33,14.31,0.63,28.49,3.19,42.55c0.37,2,0.69,4.65,2.05,5.72
		c5.05,4.01,3.64,10.33,6.1,15.18c2.19,4.31,1.97,9.27,3.92,13.71c3.57,8.12,6.86,16.19,11.95,23.7
		c5.32,7.86,9.93,16.17,15.96,23.65c7.08,8.78,14.14,17.53,22.33,25.32c5.59,5.32,10.78,11.04,17.17,15.51
		c10.82,7.58,21.4,15.5,32.23,23.07c6.2,4.33,12.42,8.75,19.1,12.22c12.16,6.31,25.04,11.24,36.35,19.2
		c0.83,0.58,1.84,0.95,2.81,1.26c8.19,2.61,16.26,5.51,24.24,8.74c5.38,2.17,10.82,4.63,16.92,3.94c5.04-0.57,9.49-3.05,14.08-4.81
		c15.86-6.11,31.44-12.93,46.81-20.2c6.97-3.3,14-6.58,20.53-10.62c9.2-5.68,18.07-11.92,26.89-18.18
		c8.4-5.97,15.95-12.89,22.75-20.71c5.48-6.31,9.73-13.52,15.8-19.46c4.58-4.47,8.65-9.7,12.22-15.2
		c5.43-8.35,10.45-16.93,15.25-25.63c7.05-12.77,14.18-25.5,17.16-40.07C452.99,262.8,454.77,257.57,456.99,252.56z M211.77,82.57
		c-18.12-9.29-36.71-14.79-56.96-6.97C174.26,74.24,193.2,76.96,211.77,82.57z M109.76,368.59c-1.38,0.3-1.61,1.2-0.67,2.16
		c6.14,6.23,12.31,12.43,18.53,18.56c1.55,1.53,3.39,0.88,4.55-0.48c1.39-1.63-0.52-2.26-1.47-3.07
		c-6.27-5.28-12.88-10.15-18.64-16.03C111.45,369.11,110.76,368.63,109.76,368.59z M478.69,152.1c0.18,1.12-0.29,2.43,1.13,2.7
		c0.98,0.19,1.67-0.63,1.81-1.47c0.39-2.4,2.68-3.54,3.51-5.62c0.31-0.77,0.94-1.55,0.12-2.33c-0.7-0.66-1.64-0.63-2.43-0.32
		C479.53,146.34,479.46,149.5,478.69,152.1z M238.54,449.84c5.11,2.9,10.38,5.3,17.55,4.11
		C249.71,452.02,244.62,449.15,238.54,449.84z M182.79,452.23c0.7-0.27,2.73,0.39,2.47-1.2c-0.3-1.88-1.42-3.86-4-3.89
		c-1.63-0.02-2.54,0.62-2.61,2.36C178.55,452.37,180.52,452.25,182.79,452.23z M255.28,450.65c3.48,1.35,6.88,4.2,11.46,0.04
		C262.44,449.85,258.86,450.24,255.28,450.65z M37.01,100.59c0.38-0.86-0.13-1.08-0.6-1.03c-0.41,0.04-0.95,0.3-1.14,0.63
		c-0.29,0.52,0.12,0.97,0.66,0.92C36.34,101.08,36.73,100.73,37.01,100.59z"/>
	<path class="st1" d="M99,390.18c1.47,1.39,0.93,3.2,0.94,4.85c0.05,8.72,0.03,17.44,0.03,26.16c-8.43,0.01-16.86,0.14-25.28-0.01
		c-3.45-0.06-5.19,1.53-5.65,4.64c-1.07,7.31-0.31,14.58,0.55,21.86c0.42,3.53,2.45,4.58,5.6,4.56c6.36-0.02,12.73,0.07,19.09-0.03
		c4.95-0.08,5.65-0.84,5.68-5.74c0.04-8.43,0.01-16.85,0.02-25.28c5.1,0.95,10.27,1.33,15.39,2.32c4.54,0.88,9.67,1.34,14.58,0.8
		c0.2,9.28-0.42,18.6,1.18,27.82l-0.16,0.16c-7.54-0.01-15.09-0.09-22.63,0c-2.53,0.03-5.56-1.08-7.46,0.67
		c-1.88,1.73,0.09,4.48,0.2,6.77c0.36,7.56-1.61,14.98-1.1,22.52l-0.13,0.14c-10.31-0.01-20.63-0.63-30.89,1
		c0.24-0.64,0.55-1.27,0.72-1.93c2.2-8.66-0.37-17.36,0.14-26.05c0.16-2.77-2.07-3.16-4.32-3.16c-7.23,0.02-14.46,0.14-21.68-0.05
		c-3.94-0.11-5.06,1.63-4.98,5.29C39,465.74,38.9,474,38.9,482.26c0,0-0.16,0.14-0.16,0.14c-10.3,0.05-20.63-0.82-30.88,0.93
		c1.1-4.53,0.86-9.15,1.08-13.76c0.18-3.83-1.28-7.39-1.17-11.2c0.18-6.06,0.01-6.07-6.15-6.11c0-10,0-20.01,0-30.01
		c2.05-0.01,4.11-0.02,6.16-0.04c-1.38,8.03-0.98,16.02-0.06,24.08c0.59,5.2,0.76,5.86,6.14,5.92c6.72,0.07,13.45-0.1,20.17,0.06
		c3.57,0.08,4.95-1.31,4.87-4.87c-0.15-7.07-0.18-14.14,0.01-21.21c0.11-3.9-1.53-5.11-5.25-5.04c-8.27,0.17-16.55,0.03-24.83,0.02
		c0.6-10.34-0.71-20.62-1.09-30.93l0.13-0.14c8.73,0.02,17.46-0.06,26.19,0.09c3.54,0.06,4.9-1.31,4.84-4.85
		c-0.15-8.38-0.07-16.77-0.08-25.16l0.14-0.14c2.74,0.03,5.48,0.06,8.22,0.09c4.62,0.05,6.83,1.43,8.13,5.99
		c0.79,2.78,2.48,4.42,4.81,5.61c3.95,2.02,6.78,5.04,8.64,9.03c0.06,3.11,0.11,6.21,0.17,9.32c-8.42,0.02-16.85,0.06-25.27,0.06
		c-2.38,0-4.72,0.14-4.74,3.3c-0.07,8.25-0.05,16.5,0.01,24.75c0.01,1.79,1.14,2.73,2.94,2.98c7.84,1.05,15.71,1.28,23.6,1.04
		c2.36-0.07,3.9-1.32,4.33-3.64c1.71-9.19,0.15-18.34-0.53-27.49c-0.02-0.33-0.23-0.65-0.34-0.97
		C78.97,390.14,88.98,390.16,99,390.18z"/>
	<path class="st1" d="M261.52,51.91c-6.86-4.66-5.32-12.22-6.25-18.81c-0.57-4-0.15-8.14-0.17-12.21c8.55-0.04,17.1-0.2,25.65-0.05
		c3.3,0.06,4.63-0.92,4.49-4.36c-0.22-5.46-0.05-10.94-0.05-16.41c10,0,20.01,0,30.01,0c-0.62,5.85,1.46,11.55,1.03,17.39
		c-0.21,2.9,1.5,3.36,3.89,3.34c7.38-0.06,14.77-0.14,22.15,0.04c3.26,0.08,4.14-1.29,4.05-4.29c-0.16-5.49-0.06-10.99-0.07-16.48
		c10.35,0,20.7,0,31.05,0c0.01,4.81-0.11,9.63,0.05,14.44c0.19,5.71,0.82,6.25,6.31,6.27c6.71,0.02,13.42-0.17,20.12,0.07
		c3.71,0.14,4.78-1.29,4.63-4.79c-0.23-5.32-0.06-10.66-0.06-15.99c10,0,20.01,0,30.01,0c-0.6,5.85,1.05,11.57,0.99,17.38
		c-0.03,2.89,1.51,3.37,3.91,3.35c7.72-0.06,15.45-0.14,23.16,0.04c3.28,0.07,4.12-1.32,4.04-4.3c-0.15-5.49-0.03-10.98-0.02-16.47
		c8.62,0,17.25,0.07,25.87-0.06c1.8-0.03,2.17,0.33,2.13,2.13c-0.14,6.55-0.06,13.11-0.06,19.66c-7.93,0-15.87,0.09-23.8-0.07
		c-3.13-0.06-4.27,1.02-4.21,4.18c0.17,8.62,0.08,17.24,0.09,25.86c0,0-0.17,0.17-0.17,0.17c-10.26-0.01-20.51-0.01-30.77-0.02
		c0,0-0.16-0.15-0.16-0.15c0.36-2.01,1.06-3.92,1.1-6.04c0.11-7.04-1.71-13.97-1.11-21.03c0.23-2.7-1.66-2.95-3.74-2.94
		c-7.74,0.03-15.48,0.12-23.22-0.04c-3.22-0.07-4.16,1.2-4.1,4.25c0.15,8.6,0.07,17.19,0.08,25.79l-0.14,0.14
		c-2.4-0.07-4.8-0.13-7.2-0.2c0.07-1.88,0.21-3.72,0.68-5.6c1.04-4.1-0.55-7.53-4.64-8.43c-5.26-1.15-9.74-4.37-15.05-5.14
		c-2.58-0.37-3.69-1.42-3.82-4.3c-0.3-6.47-1.52-7.43-7.79-7.46c-6.2-0.03-12.39,0.08-18.59-0.04c-3.31-0.06-4.52,1.3-4.61,4.6
		c-0.24,8.67-0.33,9.08-9.13,9.67c-3.78,0.26-5.56,1.81-6.87,4.7c-1.13,2.49-1.87,5.41-5.29,5.43c-3.19,0.02-7.61-3.93-8.6-7.17
		c-1.22-4.01-1.29-8.13-1.07-12.25c0.18-3.31-1.37-4.73-4.48-4.93c-8.09-0.51-16.06,1.59-24.15,1.06c-2.11-0.14-2.45,1.45-2.45,3.15
		c0.01,3.27-0.02,6.54,0.01,9.81c0.04,4.3-1.24,8.24-4.25,11.22c-1.76,1.74-1.47,4.72-4,5.77
		C271.81,51.84,266.67,51.87,261.52,51.91z"/>
	<path class="st1" d="M192.95,20.88c-7.69-0.03-15.38-0.04-23.07-0.12c-1.77-0.02-3.36,0.65-5.04,0.88c-2.2,0.31-2.84,1.46-2.8,3.49
		c0.07,3.61,0.09,7.23,0,10.84c-0.13,4.88-1.56,6.61-6.44,7.78c-5.95,1.42-11.85,0.99-17.83-0.21c-4.18-0.84-5.61-3.3-5.75-7.17
		c-0.15-3.93,0.38-7.86-0.81-11.78c-0.62-2.03-1.44-2.85-3.5-2.84c-7.74,0.06-15.49,0.1-23.23-0.01c-2.76-0.04-3.57,1.19-3.54,3.75
		c0.09,7.57,0.1,15.14-0.01,22.71c-0.04,2.66,0.96,3.78,3.62,3.64c1.69-0.09,3.65-0.27,4.38,1.81c0.73,2.07-0.99,3.21-2.25,4.24
		c-1.6,1.31-2.61,4.63-5.71,2.23c-0.01-1.55-0.04-3.09-0.04-4.64c0-2.25-1-3.68-3.36-3.62c-9.24,0.27-18.52-0.98-27.7,0.88
		c-0.24-9.08,0.77-18.17-0.81-27.24c-0.49-2.83-1.3-3.83-4.1-3.78c-7.05,0.13-14.11,0.19-21.15-0.01c-3.95-0.11-5.05,1.65-4.98,5.29
		c0.17,8.25,0.07,16.51,0.09,24.76c0,0-0.15,0.15-0.15,0.15c-5-0.03-10-0.18-15-0.07c-5.31,0.12-10.69-0.81-15.89,1.03l-0.13-0.13
		c1.41-4.48,1.2-9.11,1.1-13.71c-0.09-3.74-1.23-7.35-1.08-11.17c0.24-6.04,0.05-6.05-6.14-6.08c0-5.52,0-11.04,0-16.56
		c0-5.17,0-5.17,5.17-5.17c0.56,5.79,1.42,11.55,1.03,17.4c-0.16,2.43,1.01,3.35,3.38,3.33c8.07-0.06,16.14-0.02,24.22-0.01
		c1.87,0,2.69-0.16,2.97-2.75c0.65-6.01,0.21-11.99,0.48-17.97c9.66,0,19.32,0,28.98,0c0.79,5.93,0.91,11.92,1.96,17.83
		c0.39,2.19,1.31,2.9,3.36,2.89c7.74-0.04,15.49-0.08,23.23,0.02c2.72,0.04,3.63-1.11,3.58-3.71c-0.11-5.68-0.04-11.36-0.05-17.03
		c10,0,20.01,0,30.01,0c0.95,5.23,1.12,10.51,1.07,15.81c-0.03,3.23,1.3,5.03,4.96,4.95c7.36-0.17,14.74-0.17,22.1,0
		c3.3,0.08,4.09-1.37,4.01-4.32c-0.15-5.48-0.04-10.96-0.05-16.45c10,0,20.01,0,30.01,0c-0.34,6.93,0.32,13.81,1.04,20.69
		C193.1,20.75,192.95,20.88,192.95,20.88z"/>
	<path class="st2" d="M406.3,66.24c3.74,0.37,7.05,2.41,11.02,2.32c3.93-0.09,7-1.34,9.66-3.99c6.91-6.87,18.04-5.46,22.8,2.92
		c1.36,2.39,1.38,5.07,0.83,7.55c-0.67,2.99-1.04,6.39-2.38,8.83c-3.21,5.83-0.29,10.05,2.62,14.17c1.82,2.58,4.65,4.54,7.26,6.46
		c4.7,3.44,9.44,2.16,14.06-0.38c4.91-2.7,6.53-2.37,9.95,2.05c2.13,2.74,4.06,5.62,4.79,9.03c1.39,6.46,5.07,12.41,4.21,19.4
		c-0.26,2.09-0.5,4.17-1.77,5.83c-0.85,1.11-1.71,2.16-3.79,1.91c-4.7-0.57-8.48,2.12-8.74,6.51c-0.43,7.51-0.6,15.03,3.28,22.06
		c1.97,3.57,5.41,5.25,8.19,7.66c3.02,2.62,5.95,5.14,7.98,8.59c0.48,0.82,1.14,1.24,2.09,1.23c0,6.21,0,12.42,0,18.63
		c-2.76,0.01-5.53-0.17-8.27,0.08c-4.5,0.41-6.54,3.38-5.84,7.88c0.88,5.58,0.72,11.3,2.18,16.81c0.48,1.79-0.59,2.11-1.93,2.15
		c-1.72,0.05-3.46,0.15-5.17-0.01c-6.52-0.62-7.54-2.21-6.27-8.7c0.89-4.54,1.67-9.12,2.11-13.72c0.26-2.7,1.17-4.39,3.73-5.45
		c1.56-0.64,2.9-1.84,4.28-2.86c0.98-0.72,3.13-1.11,1.93-2.81c-0.89-1.27-2.46-0.35-3.71,0.38c-1.02,0.6-2.18,0.97-3.28,1.45
		c-1.38,0.6-2.35,0.4-2.55-1.3c-0.35-2.89-0.93-5.78-1.01-8.68c-0.31-11-0.91-21.93-4.09-32.6c-1.58-5.31-3.62-10.39-6.08-15.31
		c-1.36-2.71-1.62-4.45,1.91-5.98c3.65-1.58,6.81-4.3,10.85-6.96c-3.87-1.43-5.8,0.79-7.9,1.82c-8.36,4.05-8.39,4.18-13.37-3.44
		c-3.52-5.38-7.56-10.5-9.35-16.85c-0.29-0.39-0.57-0.77-0.86-1.16c0.17-2.15-0.74-4.11-1.08-6.17c0.02-2.36-0.21-4.74,0.76-7
		c0.29-0.66,0.08-1.4-0.59-1.73c-0.71-0.35-1.36,0.12-1.73,0.68c-1.42,2.19-2.54,4.45-0.79,7.01c0.02,1.04,0.05,2.07,0.07,3.11
		c-0.63,0-1.26,0-1.89,0c-4.26-5.8-10.04-10.36-13.61-16.7c-0.98-1.74-3.05-1.55-4.19-2.8c-1.43-1.58-3.92-2.47-3.68-5.23
		c4.43-0.57,6.58-4.52,9.91-6.73c0.53-0.35,1.03-1.05,0.68-1.78c-0.47-0.98-1.35-0.76-2.2-0.55c-2.79,0.68-4.69,2.7-6.74,4.47
		c-2.79,2.41-5.65,3.64-9.09,1.36l-0.06-0.01c-0.37-0.29-0.75-0.58-1.12-0.87c-1.13-0.08-2.29-0.07-3-1.19
		c-0.35-0.33-0.71-0.66-1.06-0.99c-0.3-0.06-0.6-0.12-0.91-0.17c-0.35-1.86-1.76-1.94-3.23-1.92c-0.31-0.05-0.62-0.08-0.94-0.11
		c-0.21-1.26-0.94-1.9-2.23-1.87l-0.01-0.01c-0.25-3.45-1.55-6.9,0.05-10.34c2.05-0.06,3.1,2.11,5.05,2.27
		c0.34,0.28,0.69,0.56,1.03,0.84c0,0,0.09,0.08,0.09,0.08C405.57,65.66,405.94,65.95,406.3,66.24z"/>
	<path class="st1" d="M154.81,452.26c1.23,0.92,2.32,2.21,3.7,2.68c3.11,1.06,3.54,3.36,3.54,6.08c-0.01,5.83,0.08,11.66-0.03,17.49
		c-0.06,3.11,0.88,4.83,4.35,4.81c8.88-0.06,17.71,1.72,26.63,0.95c-1.47,5.12-0.81,10.38-0.95,15.58c-10,0-20.01,0-30.01,0
		c0.03-4.42-0.49-8.8-0.88-13.19c-0.24-2.73-1.4-3.46-3.91-3.42c-6.7,0.1-13.41-0.01-20.11,0.05c-4.42,0.04-5.88,1.35-6.11,5.74
		c-0.19,3.6-0.04,7.22-0.04,10.82c-10,0-20.01,0-30.01,0c-0.46-5.82,0.93-11.77-1.13-17.49l0.13-0.14c1.35,0.18,2.7,0.51,4.05,0.51
		c7.78-0.02,15.4,2.5,23.37,0.85c3.84-0.8,4.6-2.32,4.69-5.73c0.23-8.56-1.8-17-1.12-25.57l0.16-0.16
		C139.02,452.18,146.91,452.22,154.81,452.26z"/>
	<path class="st1" d="M254.14,20.76c-8.41,0-16.81,0.1-25.22-0.03c-3.55-0.06-5,1.33-4.82,4.87c0.44,8.88-0.73,17.81,0.67,26.67
		c0.18,1.13-0.6,1.46-1.46,1.71c-0.63-2.59-2.72-2.13-4.55-2.15c-6.16-0.06-12.32-0.09-18.49-0.13c-5.71-3.29-6.01-8.57-6.49-14.52
		c-0.44-5.44-0.3-10.88-0.82-16.3c0,0,0.14-0.13,0.14-0.13c8.71,0.01,17.43-0.05,26.14,0.07c2.83,0.04,4.01-0.93,3.93-3.84
		c-0.15-5.63-0.06-11.28-0.07-16.91c10.35,0,20.7,0,31.05,0C254.15,6.96,254.14,13.86,254.14,20.76z"/>
	<path class="st1" d="M437.32,499.87c-9.66,0-19.32,0-28.98,0c0-3.78,0.01-7.57-0.01-11.35c-0.04-5.51-0.65-6.17-6.27-6.19
		c-8.23-0.02-16.48-0.42-24.65,1.1l-0.15-0.15c1.34-4.83,1.32-9.8,1.02-14.72c-0.33-5.42-1.33-10.81-1.01-16.27l0.16-0.14
		c10.27,0.01,20.54,0.02,30.81,0.03l0.14,0.14c-0.02,8.6,0.03,17.21-0.08,25.81c-0.03,2.62,0.5,4.05,3.57,4.32
		c8.82,0.79,17.57,3.05,26.48,0.87l0.16,0.17C438.61,488.98,436.72,494.33,437.32,499.87z"/>
	<path class="st1" d="M316.22,483.28c0.35-2,0.85-3.99,1.01-6.01c0.5-6.27,0.45-6.27,6.97-6.38c7.49-0.12,10.2-2.41,11.82-9.98
		c0.04-0.17,0.05-0.34,0.1-0.5c0.56-1.93,2.56-3.74,1.61-5.73c-0.84-1.74-3.54,0.26-4.9-1.37c0.03-4.56-0.73-9.48,5.07-11.49
		l0.17,0.17c0.38,0.8-0.98,3.74,1.83,1.55c0.95-0.74,1.77-1.6,3.03-1.77c0.1,0.53,0.21,1.06,0.31,1.6c-0.1,0.32-0.14,0.68-0.3,0.96
		c-1.28,2.25-4.78,4.16-3.29,6.8c1.39,2.46,4.92,0.82,7.5,1.01l0.16,0.16c-0.01,8.73,0.07,17.47-0.07,26.2
		c-0.05,3.01,1.26,4.84,4.07,4.7c8.66-0.45,17.3,2.77,25.95,0.09l0.15,0.15c0.43,5.48-1.79,10.95-0.12,16.44c-10,0-20.01,0-30.01,0
		c-0.01-3.95,0.04-7.89-0.04-11.84c-0.09-4.37-1.24-5.74-5.42-5.67C333.28,482.48,324.7,481.52,316.22,483.28z M335.96,448.99
		c-0.61,0.35-0.89,0.91-0.9,1.59c-0.01,0.5,0.13,1.05,0.79,0.78c0.65-0.26,0.88-0.9,0.9-1.57
		C336.77,449.29,336.66,448.82,335.96,448.99z"/>
	<path class="st2" d="M498.38,267.04c-2.79,2.57-5.46,5-9.76,2.58c-2.32-1.3-4.01,1.38-6.01,2.13c-1.19,0.44-2.2,2.15-3.57,1.36
		c-3.91-2.25-8.32-1.85-12.48-2.58c-3.32-0.58-3.91-2.37-3.32-5.04c2.06-9.19,4.72-18.21,7.64-27.16c0.64-1.95,2-2.84,3.97-2.1
		c1.99,0.74,4.08,1.21,6.07,0.78c6.76-1.47,11.04,1.74,14.28,7.13c0.75,1.24,1.55,2.28,3.18,2.2
		C498.38,253.24,498.38,260.14,498.38,267.04z"/>
	<path class="st1" d="M460.1,359.17c2.98-4.71,7.1-8.67,9.19-14.91c1.88,4.05,1.1,7.47,1.06,10.73c-0.04,3.71,1.19,5.4,5.07,5.23
		c3.93-0.18,7.84,0,11.76,0.85c3.71,0.8,7.49-0.17,11.2-0.89c0,10,0,20.01,0,30.01c-9.29,0.02-18.59,0.04-27.88,0.06l-0.16-0.16
		c0.02-8.07,0.08-16.15,0.06-24.22c-0.01-5.31-0.31-5.54-5.45-5.72C463.3,360.08,461.47,360.7,460.1,359.17z"/>
	<path class="st0" d="M470.5,390.24c9.29-0.02,18.59-0.04,27.88-0.06c0,10.69,0,21.39,0,32.08c-9.36,0.66-18.64-0.95-27.98-0.99
		c0,0,0,0,0,0C470.43,410.92,470.47,400.58,470.5,390.24z"/>
	<path class="st0" d="M498.38,452.27c0,10.69,0,21.39,0,32.08c-9.34,0.42-18.59-1.75-27.94-1.03l0,0
		c0.02-10.33,0.03-20.66,0.05-30.99C479.79,452.3,489.09,452.28,498.38,452.27z"/>
	<path class="st0" d="M470.47,51.77c-0.01-8.62,0.07-17.25-0.09-25.86c-0.06-3.16,1.08-4.24,4.21-4.18
		c7.93,0.16,15.86,0.06,23.8,0.07c0,10.35,0,20.7,0,31.04C489.04,53.47,479.78,51.98,470.47,51.77z"/>
	<path class="st1" d="M470.47,51.77c9.31,0.21,18.57,1.7,27.91,1.06c0,10,0,20.01,0,30.01c-9.34-0.03-18.69-0.06-28.03-0.1
		c-0.02-10.27-0.04-20.54-0.06-30.8L470.47,51.77z"/>
	<path class="st1" d="M498.38,452.27c-9.3,0.02-18.59,0.03-27.89,0.05c0,0-0.17-0.17-0.17-0.17c0.03-10.3,0.05-20.59,0.08-30.89
		c9.34,0.05,18.62,1.65,27.98,0.99C498.38,432.26,498.38,442.26,498.38,452.27z"/>
	<path class="st1" d="M498.38,329.12c-7.36,0-14.71-0.03-22.07,0c-5.55,0.02-5.7,0.23-5.91,5.75c-0.05,1.3,0.45,2.73-1.05,4.28
		c-1.48-3.66-3.36-6.87-6.73-8.83c-0.03-0.02,0.39-0.78,0.59-1.2c7.2-0.07,7.2-0.07,7.18-7.27c0-1.01-0.01-2.01-0.01-3.02
		c2.91-1.39,5.83-2.74,8.71-4.18c4.37-2.19,5.62-5.49,3.87-10.08c-0.59-1.56-1.93-3.22-0.48-4.73c1.34-1.4,3.16-0.54,4.82-0.14
		c3.74,0.91,7.43,0.51,11.08-0.59C498.38,309.12,498.38,319.12,498.38,329.12z"/>
	<path class="st2" d="M470.44,0.06c-0.01,5.49-0.13,10.98,0.02,16.47c0.08,2.99-0.76,4.38-4.04,4.3c-7.72-0.18-15.44-0.1-23.16-0.04
		c-2.39,0.02-3.94-0.46-3.91-3.35c0.06-5.81-1.59-11.53-0.99-17.38C449.05,0.06,459.75,0.06,470.44,0.06z"/>
	<path class="st2" d="M38.89,0.06c-0.27,5.98,0.17,11.96-0.48,17.97c-0.28,2.6-1.1,2.75-2.97,2.75c-8.07-0.01-16.14-0.05-24.22,0.01
		c-2.37,0.02-3.54-0.9-3.38-3.33c0.39-5.84-0.47-11.61-1.03-17.4C17.5,0.06,28.2,0.06,38.89,0.06z"/>
	<path class="st2" d="M162.04,0.06c0,5.48-0.1,10.97,0.05,16.45c0.08,2.95-0.71,4.4-4.01,4.32c-7.36-0.18-14.74-0.18-22.1,0
		c-3.65,0.09-4.99-1.72-4.96-4.95c0.05-5.3-0.11-10.58-1.07-15.81C140.66,0.06,151.35,0.06,162.04,0.06z"/>
	<path class="st2" d="M99.95,0.06c0.01,5.68-0.05,11.36,0.05,17.03c0.05,2.59-0.86,3.74-3.58,3.71c-7.74-0.1-15.49-0.06-23.23-0.02
		c-2.05,0.01-2.97-0.7-3.36-2.89c-1.06-5.91-1.17-11.91-1.96-17.83C78.56,0.06,89.26,0.06,99.95,0.06z"/>
	<path class="st2" d="M254.14,20.76c0-6.9,0.01-13.8,0.01-20.7c10.35,0,20.7,0,31.05,0c0,5.47-0.17,10.95,0.05,16.41
		c0.14,3.43-1.19,4.42-4.49,4.36c-8.55-0.15-17.1,0.02-25.65,0.05C254.78,20.83,254.46,20.78,254.14,20.76z"/>
	<path class="st2" d="M408.35,0.06c0,5.33-0.17,10.67,0.06,15.99c0.15,3.51-0.92,4.93-4.63,4.79c-6.7-0.25-13.41-0.06-20.12-0.07
		c-5.49-0.02-6.13-0.56-6.31-6.27c-0.16-4.81-0.04-9.63-0.05-14.44C387.65,0.06,398,0.06,408.35,0.06z"/>
	<path class="st2" d="M223.1,0.06c0.01,5.64-0.08,11.28,0.07,16.91c0.08,2.91-1.1,3.88-3.93,3.84c-8.71-0.12-17.43-0.06-26.14-0.07
		c-0.72-6.88-1.38-13.76-1.04-20.69C202.4,0.06,212.75,0.06,223.1,0.06z"/>
	<path class="st2" d="M346.25,0.06c0.01,5.49-0.09,10.99,0.07,16.48c0.09,3-0.79,4.37-4.05,4.29c-7.38-0.18-14.76-0.1-22.15-0.04
		c-2.39,0.02-4.1-0.44-3.89-3.34c0.43-5.84-1.65-11.54-1.03-17.39C325.56,0.06,335.9,0.06,346.25,0.06z"/>
	<path class="st2" d="M437.32,499.87c-0.6-5.53,1.29-10.89,1.19-16.38c9.26-2.29,18.67-0.72,28.01-1.18
		c1.43-0.07,2.67,0.46,3.92,1.01l0,0c0,5.52,0,11.04,0,16.56C459.4,499.87,448.36,499.87,437.32,499.87z"/>
	<path class="st2" d="M99.85,482.38c2.06,5.72,0.67,11.66,1.13,17.49c-11.04,0-22.08,0-33.12,0c-0.2-5.22,0.24-10.4,0.99-15.56
		c0.04-0.31,0.08-0.62,0.11-0.92C79.22,481.75,89.54,482.37,99.85,482.38z"/>
	<path class="st2" d="M7.87,483.34c10.25-1.75,20.58-0.88,30.88-0.93c0.05,5.82,0.09,11.64,0.14,17.46c-10.69,0-21.39,0-32.08,0
		C6.39,494.31,7.39,488.84,7.87,483.34L7.87,483.34z"/>
	<path class="st2" d="M316.22,483.28c8.48-1.76,17.07-0.79,25.61-0.92c4.18-0.06,5.32,1.31,5.42,5.67
		c0.09,3.94,0.03,7.89,0.04,11.84c-10.69,0-21.39,0-32.08,0c0.08-5.22-0.25-10.47,0.87-15.63
		C316.13,483.92,316.17,483.6,316.22,483.28z"/>
	<path class="st2" d="M377.3,499.87c-1.68-5.49,0.55-10.96,0.12-16.44c8.16-1.53,16.42-1.13,24.65-1.1
		c5.63,0.02,6.23,0.68,6.27,6.19c0.03,3.78,0.01,7.57,0.01,11.35C398,499.87,387.65,499.87,377.3,499.87z"/>
	<path class="st2" d="M131,499.87c0-3.61-0.15-7.23,0.04-10.82c0.23-4.39,1.69-5.7,6.11-5.74c6.7-0.06,13.41,0.06,20.11-0.05
		c2.51-0.04,3.67,0.69,3.91,3.42c0.39,4.39,0.9,8.77,0.88,13.19C151.69,499.87,141.35,499.87,131,499.87z"/>
	<path class="st1" d="M38.89,499.87c-0.05-5.82-0.09-11.64-0.14-17.46l0.16-0.14c9.92,1.57,19.9,2.4,29.95,2.05
		c-0.75,5.16-1.19,10.34-0.99,15.56C58.21,499.87,48.55,499.87,38.89,499.87z"/>
	<path class="st1" d="M470.44,499.87c0-5.52,0-11.04,0-16.56c9.35-0.72,18.6,1.45,27.94,1.03c0,4.48-0.12,8.97,0.06,13.45
		c0.07,1.81-0.33,2.15-2.13,2.13C487.69,499.8,479.07,499.87,470.44,499.87z"/>
	<path class="st1" d="M222.99,487.58c1.18-0.16,2.73,0.1,3.48-0.55c6.01-5.22,13.08-1.79,19.61-2.57c2.05-0.25,2.86,1.64,3.5,3.24
		c1.2,2.98,2.3,6,3.44,9.01c0.03,1.05,0.06,2.11,0.09,3.16c-10,0-20.01,0-30.01,0C223.06,495.77,223.03,491.68,222.99,487.58z"/>
	<path class="st2" d="M222.99,487.58c0.04,4.1,0.08,8.19,0.11,12.29c-10.35,0-20.7,0-31.05,0c0.13-5.21-0.53-10.46,0.95-15.58
		c3.43-0.78,5.83,2.18,9.1,2.45c2.81,0.23,5.65,0.78,8.51,0.9c1.6,1.39,3.48,0.76,5.27,0.75
		C218.34,488.86,220.58,487.45,222.99,487.58z"/>
	<path class="st1" d="M316.08,484.23c-1.13,5.16-0.79,10.41-0.87,15.63c-10,0-20.01,0-30.01,0c-0.01-1.02-0.02-2.05-0.03-3.07
		c8.11-0.3,10.86-2.37,12.4-9.92c0.48-2.36,1.81-2.54,3.63-2.55C306.15,484.31,311.12,484.27,316.08,484.23z"/>
	<path class="st0" d="M7.76,390.26c0.38,10.31,1.7,20.58,1.09,30.93c-0.35,0.34-0.71,0.69-1.06,1.03c-2.05,0.01-4.11,0.02-6.16,0.04
		c0-10.69,0-21.39,0-32.08C3.68,390.21,5.72,390.24,7.76,390.26z"/>
	<path class="st0" d="M1.63,175.97c0-11.04,0-22.08,0-33.11c1.87,1.21,4.01,1.04,6.09,1.15c-0.5,10.34,2.71,20.66,0.22,31.02
		c-0.06,0.3-0.11,0.6-0.17,0.9C5.72,175.94,3.68,175.96,1.63,175.97z"/>
	<path class="st0" d="M1.63,452.27c6.16,0.04,6.33,0.05,6.15,6.11c-0.11,3.81,1.35,7.37,1.17,11.2c-0.22,4.6,0.02,9.23-1.08,13.76
		l0,0c-2.19-0.38-4.16,0.64-6.24,1.01C1.63,473.65,1.63,462.96,1.63,452.27z"/>
	<path class="st0" d="M1.63,299.12c0-10.69,0-21.39,0-32.08c1.76-0.05,3.52-0.09,5.29-0.14c0.3,0.06,0.61,0.11,0.91,0.16
		c-0.74,10.39,2.51,20.75,0.15,31.15c-0.05,0.3-0.11,0.59-0.18,0.88C5.74,299.1,3.69,299.11,1.63,299.12z"/>
	<path class="st0" d="M1.63,21.79c6.19,0.03,6.38,0.03,6.14,6.08c-0.15,3.82,0.99,7.43,1.08,11.17c0.11,4.6,0.31,9.22-1.1,13.71
		c-2.04,0.38-4.08,0.75-6.12,1.13C1.63,43.17,1.63,32.48,1.63,21.79z"/>
	<path class="st0" d="M1.63,113.89c0-10.35,0-20.7,0-31.04c2.05,0.02,4.11,0.03,6.16,0.05c-0.57,10.33,2.82,20.65,0.03,30.98
		C5.76,113.87,3.7,113.88,1.63,113.89z"/>
	<path class="st0" d="M1.63,360.17c0-10.35,0-20.7,0-31.04c2.05,0.02,4.09,0.04,6.14,0.07c-0.59,10.31,2.75,20.61,0,30.92
		C5.73,360.13,3.68,360.15,1.63,360.17z"/>
	<path class="st1" d="M7.78,329.19c-2.05-0.02-4.09-0.04-6.14-0.07c0-10,0-20.01,0-30.01c2.05-0.01,4.11-0.02,6.16-0.03
		c-1.78,10-0.07,19.98,0.12,29.97L7.78,329.19z"/>
	<path class="st1" d="M1.63,360.17c2.05-0.02,4.1-0.04,6.15-0.06l0.15,0.15c-2.21,9.95-0.45,19.91-0.04,29.87l-0.13,0.14
		c-2.04-0.03-4.08-0.06-6.13-0.09C1.63,380.17,1.63,370.17,1.63,360.17z"/>
	<path class="st1" d="M7.8,82.89c-2.05-0.02-4.11-0.03-6.16-0.05c0-9.66,0-19.32,0-28.97c2.04-0.38,4.08-0.75,6.12-1.13l0.13,0.13
		c-1.99,9.96-0.15,19.91,0.06,29.86L7.8,82.89z"/>
	<path class="st1" d="M1.63,175.97c2.04-0.02,4.09-0.04,6.13-0.05c-0.94,5.57-0.9,11.18-1,16.8c-0.08,4.47,1.65,8.74,1.11,13.22
		c-2.08,0.01-4.16,0.03-6.25,0.04C1.63,195.98,1.63,185.98,1.63,175.97z"/>
	<path class="st1" d="M1.63,113.89c2.06-0.01,4.13-0.01,6.19-0.02l0.17,0.17c-0.97,2.4-1.16,4.9-1.2,7.48
		c-0.14,7.48,0.21,14.93,1.07,22.35l-0.14,0.13c-2.08-0.11-4.21,0.06-6.09-1.15C1.63,133.2,1.63,123.54,1.63,113.89z"/>
	<path class="st1" d="M498.38,143.89c-5.59-0.18-5.58-0.24-4.59-5.46c1.13-5.99,0.53-11.93-1.38-17.67
		c-1.88-5.66-1.91-5.77,3.91-5.86c0.69-0.01,1.37,0.01,2.06,0.01C498.38,124.58,498.38,134.24,498.38,143.89z"/>
	<path class="st1" d="M6.92,266.9c-1.76,0.05-3.52,0.09-5.29,0.14c0-10,0-20.01,0-30.01c3.17,0.3,4.47,2.02,4.18,5.19
		c-0.26,2.93,0.14,5.74,1.51,8.48c1.32,2.63,0.24,5.37-0.52,8.01C6.85,261.43,6.88,264.17,6.92,266.9z"/>
	<path class="st1" d="M1.63,484.34c2.07-0.36,4.04-1.38,6.24-1.01c-0.48,5.5-1.48,10.97-1.06,16.53c-0.86,0-1.75-0.13-2.58,0.03
		c-2.23,0.42-2.78-0.38-2.66-2.62C1.8,492.98,1.63,488.66,1.63,484.34z"/>
	<path class="st2" d="M285.16,496.79c0.01,1.02,0.02,2.05,0.03,3.07c-10.69,0-21.39,0-32.08,0c-0.03-1.05-0.06-2.11-0.09-3.16
		c0.41-0.28,0.93-0.9,1.23-0.8C264.48,499.09,274.82,497.9,285.16,496.79z"/>
	<path class="st2" d="M53.37,152.16c-0.38,1.69-0.76,3.39-1.14,5.08c-1,0.21-1.98,0.48-2.99,0.61c-4.58,0.58-6.17-0.8-6.22-5.32
		c-0.04-2.9-0.09-5.79-0.14-8.69c-0.03-1.66-0.05-3.33-0.08-4.99c0.32-2.09,0.55-4.14-1.82-5.3c-0.02-0.33-0.05-0.65-0.09-0.98
		c-0.75-3.09-3.37-3.9-5.81-3.64c-4.19,0.44-6.74-1.21-8.46-4.77c-0.25-2.78-0.02-5.51,0.99-8.14c0.77-0.5,0.95-1.27,0.96-2.12
		c3.32-3.45,5.26-8.03,9.18-11.01c0.75-0.57,1.23-1.68,1.5-2.64c1.29-4.63,6.59-6.54,10.32-3.64c10.1,7.86,19.55,5.41,24.52-6.35
		c2.4-5.67,5.5-10.98,7.58-16.87c2.47-6.98,11.95-10.5,18.89-8.03c4.99,1.78,8.25,0.67,12.02-4.17c1.79-2.29,3.44-4.69,5.26-6.96
		c1.39-1.74,2.88-3.42,4.87-4.55c0.36-0.32,0.72-0.64,1.07-0.96l0.02-0.01c1.73-0.21,3.65,0.54,5.13-0.99
		c0.63,0.07,1.26,0.13,1.89,0.2c4.94,4.17,10.82,5.18,16.95,4.52c1.68-0.18,4.32,0.15,5.12-2.49c6.83-3.15,13.29-7.23,21-8.13
		c2.74-0.32,5.48-0.93,7.88,1.1c4.3,3.64,9.19,6.7,12.53,11.34c5.24,7.28,13.12,9.92,21.16,11.69c5.69,1.25,7.58-4.38,10.25-7.95
		c2.96-3.95,5.06-8.65,10.68-9.72c8.34-1.58,16.16-1.53,21.96,6.05c0.83,1.09,1.99,1.97,2.06,3.48c0.19,4.42,3.31,5.22,6.77,5.28
		c7.91,0.15,14-4.07,16.96-11.44c2.83-7.06,9.21-9.03,15.7-10.05c4.48-0.7,9.17-0.06,13.77,0.01c1.2,0.02,1.62,1.13,2.34,1.83
		c7.06,6.85,12.06,6.92,19.12,0.32c0.25-0.24,0.52-0.46,0.75-0.71c3.42-3.89,6.94-5.49,11.96-2.15c3.06,2.04,6.84,3.08,10.42,4.22
		c5.98,1.91,8.6-0.47,7.55-6.59c-0.87-5.1-0.51-5.67,4.79-5.28c5.88,0.43,11.06,3.53,16.72,4.93c1.82,0.45,3.56,1.23,5.48,1.31
		c0.33,1.91,1.74,1.97,3.24,1.89c0.31,0.05,0.61,0.09,0.92,0.13c0.09,1.38,0.19,2.77,0.28,4.15c-0.12,1.75-0.37,3.46-1.34,4.98
		c-0.29,0.38-0.59,0.76-0.88,1.14c0,1.37,0.01,2.73,0.01,4.1c0.03,0.37,0.05,0.74,0.08,1.11c-0.01,0.66-0.02,1.32-0.03,1.97
		c-1.26,1.82-1.26,3.91-1.1,5.97c0.19,2.41-0.86,3.53-3.22,3.54c-3.88-1.18-7.88-2.08-11.62-3.61c-8.3-3.38-16.86-5.73-25.7-6.91
		c-3.05-0.41-2.9-2.14-2.99-4.3c-0.08-1.89,1.12-5.16-1.26-5.27c-2.69-0.12-1.71,3.22-1.69,5.07c0.03,3.35-2,3.44-4.42,3.4
		c-8.07-0.12-16.17-0.22-24.07,1.77c-14.07,3.54-27.41,8.7-38.63,18.28c-1.59,1.35-3.29,2.48-5.42,2.77
		c-1.34-1.45-1.77-3.32-2.02-5.15c-0.28-2.02-1.74-3.3-2.65-4.92c-0.53-0.94-1.5-1.51-2.62-0.98c-1.15,0.55-1.15,1.73-0.81,2.68
		c0.56,1.61,1.3,3.17,2.09,4.68c1.13,2.15,2.18,4.29,1.88,6.82l0,0c-2.4,0.25-3.74,1.65-4.24,3.95l-0.1,0.08
		c-1.47-0.01-2.76,0.24-3.05,2.02c-2.42,0.54-3.75,2.41-5.14,4.21c-1.96,0.33-2.98,2.03-4.4,3.11c-1.83,1.39-3.17,3.52-5.89,3.23
		c-3.81-1.06-4.02-4.15-4.1-7.3c0-2.06-0.1-4.13,0.01-6.18c0.23-4.26-0.72-8.59,0.68-12.78c1.03-3.09,2.41-3.35,4.57-0.99
		c1.34,1.46,1.4,3.87,3.55,4.88c0.55-4.92-2.46-9.97-6.05-10.39c-3.12-0.37-4.89,2.38-6.06,8.02c-0.75,3.58-1,7.14-0.82,10.72
		c0.16,3.17-1.4,3.89-4.09,3.54c-2.18-1.95-4.28-3.98-6.54-5.82c-3.21-2.63-5.1-5.5-3.14-9.82c0.51-1.12,0.79-3.04-0.92-3.56
		c-2.06-0.64-2.63,1.06-2.85,2.69c-0.51,3.8-1.9,4.49-5.38,2.36c-7.54-4.63-16.74-4.79-24.63-8.6c-0.05-3.28-1.11-6.34-2.04-9.42
		c-0.26-0.85-0.64-1.68-1.65-1.63c-1.33,0.07-1.38,1.16-1.59,2.19c-0.66,3.27,1.53,5.85,2.01,8.84c-3.35,0.02-6.63,0.53-9.83-1.49
		c-2.3-1.45-4.93,0.44-7.38,0.81c-2.51,0.38-4.99,0.83-7.54,0.81c0.37-3.14-0.58-6.13-1.02-9.18c-0.2-1.42-0.47-3.01-2.3-2.77
		c-1.7,0.22-1.83,1.83-1.82,3.25c0.01,1.2-0.2,2.55,0.25,3.58c1.1,2.48,0.48,4.7-0.44,6.97c-2.67,0.12-5.35,0.24-8.02,0.36
		c-1.31-0.21-2.04,0.42-2.36,1.63c-1.97,0.15-3.94,0.3-5.92,0.45c-1.57-0.3-2.55,0.49-3.29,1.75c-0.65,0.07-1.3,0.14-1.94,0.21
		c-1.53-0.14-2.94-0.1-3.26,1.87c-2.04-0.09-3.79,0.53-5.12,2.14c-0.37,0.3-0.74,0.6-1.11,0.9c-0.67,0.05-1.33,0.09-2,0.14
		c-0.36,0.31-0.72,0.62-1.09,0.93c-0.98,0.08-1.96,0.17-2.94,0.25c-2.93-0.86-4.16-3.88-6.7-5.25c-1.04-0.56-2.03-1.6-3.13-0.46
		c-1.1,1.13-0.1,2.12,0.55,3.12c1.36,2.1,4.26,2.79,4.97,5.48c-12.75,6-22.97,15.36-33.07,24.88c-2.29,0.98-4.42,2.14-6.68-0.48
		c-0.86-1-2.76-1.13-3.88-2.28c-1.16-1.19-2.69-1.97-3.98-0.4c-1.56,1.88,0.86,2.35,1.44,3.53c1.52,3.08,5.89,1.7,7.09,4.95
		c-4.13,5.88-10.11,10.41-12.76,17.38c-0.3,0.35-0.59,0.71-0.89,1.06c0,0-0.05,0.05-0.05,0.05c-0.32,0.33-0.65,0.66-0.97,0.99
		c0,0-0.05,0.06-0.05,0.06c-0.35,0.31-0.69,0.62-1.04,0.93c-0.61-0.04-1.22-0.08-1.82-0.11c-4.02-5.85-9.67-10.59-12.02-17.6
		c-0.04-0.13-0.6-0.09-0.91-0.12c-1.34,6.8,4.4,16.64,11.71,20.07l0,0c0.01,1.02,0.02,2.04,0.03,3.06c-1.12,2.7-2.24,5.4-3.35,8.1
		c-1.76,0.49-1.89,1.83-1.75,3.32c-0.07,0.65-0.13,1.3-0.2,1.95C53.98,151.42,53.68,151.79,53.37,152.16z"/>
	<path class="st2" d="M337.89,441.82c-5.81,2.02-5.04,6.93-5.07,11.49c-0.22,4.33,1.1,9.03-4.06,11.86
		c-3.13,1.72-6.23,1.75-9.5,1.36c-1.18-0.14-2.33-0.6-3.5-0.85c-7.44-1.57-13.49,1.36-19.53,5.38c-5.88,3.91-7.21,9.61-7.95,15.85
		c-0.61,5.13-2.03,6.44-7.13,6.78c-3.57,0.24-7.16,0.1-10.68,0.23c-5.54,0.2-8.21-2.38-10.15-6.86c-2.34-5.39-5.7-8.76-12.33-9.19
		c-4.34-0.28-8.16-4.08-13.06-4.07c-1.81,0-1.35-2.03-1.52-3.34c-0.49-3.83,1.16-7.48,0.96-11.28c-0.07-1.28,0.54-3.25-1.33-3.41
		c-1.96-0.17-2.3,1.87-2.48,3.34c-0.59,4.61,0.35,9.3-0.69,13.9c-1.46,6.47-4.78,9.6-11.38,10.24c-3.92,0.38-7.92,0.67-11.8,0.71
		c-5.4,0.06-10.08-3.33-13.72-6.93c-3.42-3.38-3.29-8.42-2.45-13.21c1.13-6.43,0.64-12.61-3.66-17.99
		c-2.98-3.73-6.66-4.14-9.93-0.75c-2.24,2.32-5.1,3.42-7.93,2.97c-9.78-1.54-19.17-4.32-25.38-12.86c-1.88-2.59-2.81-5.84-4.44-8.64
		c-2.12-3.65-4.69-6.25-9.59-6.65c-4.56-0.37-9.35-0.07-13.75-1.77c-6.88-2.67-9.56-4.87-9.53-12.11
		c0.03-6.74-1.52-13.34-1.23-20.06c0.08-1.88-0.71-3.35-2.03-4.56c-1.48-1.36-2.33-2.92-2.18-5.01c0.13-1.71-0.18-3.59,1.78-4.49
		c2.07-0.95,3.6,0.03,5.02,1.52c5.79,6.08,11.61,12.12,17.56,18.33c-2.18,1.72-4.33,3.36-6.43,5.07c-0.51,0.41-1.15,1.02-0.7,1.75
		c0.55,0.9,1.51,0.84,2.24,0.31c5.95-4.36,10.76-2.76,15.98,1.9c7.17,6.4,15.49,11.38,23.58,16.58c2.55,1.64,3.41,3.43,2.03,6.33
		c-1.03,2.16-1.6,4.54-2.42,6.81c-0.27,0.75-0.21,1.38,0.51,1.72c0.73,0.34,1.43-0.04,1.71-0.7c1.34-3.16,3.78-5.79,4.49-9.25
		c1.01,0.01,2.02,0.01,3.03,0.02c0.32,0.03,0.64,0.09,0.96,0.15c0.8,2.35,2.94,3.26,4.89,4.15c6.92,3.18,13.93,6.18,20.9,9.25
		c-0.23,4.36,2.26,4.65,5.58,3.76c3.99-1.06,7.88,0.44,10.58,2.62c2.15,1.74,1.76,5.86,1.32,8.84c-0.34,2.26-1.84,4.34-4.95,4.32
		c-1.35-0.01-4.13-1.31-3.95,1.32c0.17,2.51,3.01,1.71,4.74,1.63c4.25-0.21,7.22-3.27,7.55-7.66c0.16-2.22,0.03-4.47,0.04-6.7
		l0.02-0.02c4.44-0.47,8.19,1.71,11.37,4.09c5.39,4.04,11.44,6.23,17.74,7.73c6.19,1.48,5.83,3.29,7.04,8.04
		c0.21,0.82,0.11,1.71,0.15,2.57c0.07,1.24,0.21,2.79,1.62,2.84c1.74,0.07,1.36-1.66,1.37-2.76c0.03-2.86-1.19-6.54,0.16-8.35
		c1.56-2.08,5.5-0.33,8.35-0.84c2.36-0.42,4.66-1.1,7.11-1.01c0.99,0.03,2.65-0.34,2.33-1.39c-1.88-6.02,3.66-4.14,5.89-5.75
		c0.85,0.07,1.64,0.25,2.13,1.06c-1.33,1.71-0.4,2.07,1.16,1.79c2.46-0.45,5.02-2.93,7.25-1.14c1.69,1.36,2.17,4.18,3.29,6.29
		c1.64,3.1,3.59,5.84,7.32,6.77c1.82,0.46,3.3,0.56,4.51-1.87c-6.19-0.33-8.16-4.96-10.33-9.47c-1.47-3.06-1.14-5.14,2.35-6.47
		c6.77-2.59,13.19-5.92,19-10.28c2.22-1.67,3.33-0.89,4.36,1.21c0.51,1.03,0.98,2.66,2.41,2.23c1.71-0.51,0.67-1.99,0.36-3.04
		c-0.85-2.92,0.09-4.63,2.81-6.27c11.8-7.08,22.65-15.52,33.35-24.13c3.86-3.1,3.99-3,7.35,0.62c2.1,2.27,2.41,6.12,7.24,7.69
		c-2-4.16-3.37-7.39-5.07-10.44c-1.59-2.85-2.04-5.06,1.72-6.42c0.93-0.34,1.7-1.16,2.47-1.84c2.28-2.04,4.4-2.49,6.57,0.22
		c0.65,0.81,1.62,2.28,2.89,0.91c0.81-0.88,0.06-2.05-0.71-2.71c-2.8-2.43-1.37-3.64,0.95-5.44c7.21-5.57,9.79-5.33,15.21,2.11
		c0.1,0.14,0.19,0.29,0.27,0.44c1.15,2.26,4.24,4.24,3.5,6.5c-0.63,1.92-4.22,1.42-6.42,2.2c-4.21,1.5-7.31,4.44-9.45,8.34
		c-3.04,5.54-4.78,11.37-4.07,17.81c0.48,4.38-0.16,8.52-3.13,12.14c-2.87,3.49-6.28,4.96-10.82,4.36
		c-7.13-0.95-14.29-1.65-21.44-2.38c-1.63-0.17-2.94,0.8-4.14,1.81c-1.26,0.17-2.08,1.04-3.03,1.77c-2.82,2.19-1.45-0.74-1.83-1.55
		c0.12-0.18,0.24-0.35,0.36-0.53C338.25,441.58,338.07,441.7,337.89,441.82z"/>
	<path class="st2" d="M56.3,312.27c-3.97-0.17-7.24,0.33-9.03,4.88c-1.12,2.85-5.76,2.53-7.7-0.48c-2.61-4.04-5.05-8.32-4.85-13.38
		c0.23-5.88-0.67-11.71,2.79-17.42c2.14-3.53,3-8.26,1.41-12.92c-1.71-5.03-4.21-6.96-9.56-6.36c-10.21,1.13-13.91-1.5-16.48-11.64
		c-2.89-11.36-2.77-22.79-0.72-34.22c0.89-4.93,5.85-9.27,10.78-9.48c2.76-0.12,5.02-0.89,7.11-2.48c1.4-1.07,2.85-1.69,4.7-1.8
		c3.06-0.17,4.36,0.79,4.25,4.07c-0.23,6.71-0.02,13.43-0.19,20.15c-0.13,5.08-0.97,5.75-6.06,5.94c-0.86,0.03-1.72,0.04-2.57,0.13
		c-0.76,0.08-1.3,0.57-1.32,1.31c-0.01,0.74,0.48,1.26,1.25,1.4c0.51,0.09,1.03,0.1,1.53,0.22c7.44,1.68,8.03,2.15,9.16,9.64
		c1.36,9.03,3.51,17.84,6.47,26.47c1.97,5.72,1.93,5.74-3.43,9.05c-0.57,0.35-1.27,0.58-1.22,1.55c1.06,1.46,2.49,0.85,3.58,0.19
		c3.34-2.04,4.63-0.48,5.2,2.67c-0.07,1.3,0.55,2.04,1.83,2.27c0.04,0.3,0.1,0.6,0.16,0.9c0.32,0.35,0.63,0.71,0.95,1.06
		c0,0,0.02,0.05,0.02,0.05c0.13,2.5-0.04,5.14,2.98,6.26c0.09,0.62,0.18,1.24,0.28,1.86c-0.09,1.33,0.57,2.04,1.84,2.25
		c0.08,0.63,0.15,1.26,0.23,1.89c0.22,1.95,1.47,4.37-2.2,4.49C57.05,310.82,56.68,311.76,56.3,312.27z"/>
	<path class="st2" d="M423.8,343.56c2.63-5.62,6.61-10.39,9.98-15.53c6.4-9.76,11.99-19.98,17.28-30.31
		c3.4-6.64,6.08-13.75,8.82-20.74c1.31-3.35,2.92-4.18,6.22-3.07c2.76,0.93,5.81-0.14,8.68,0.9c2.07,0.75,3.25,1.4,2.34,4
		c-2.34,6.67-1.92,13.48-0.66,20.34c0.43,2.34,0.3,4.81,0.18,7.21c-0.13,2.68-1.53,4.54-4.31,5.04c-1.37,0.25-2.8,0.4-3.73,1.54
		c-4.21,5.15-9.14,4.42-14.36,1.91c-1.13-0.54-2.36-1.68-3.79-0.01c1.93,2.25,4.04,4.19,6.95,4.85c3.74,0.85,4.23,2.94,2.66,6.04
		c-0.54,1.07-0.97,2.2-1.54,3.26c-2.45,4.57-2.17,6.02,1.89,9.53c2.18,1.88,2.22,5.55-0.1,9.34c-1.7,2.78-3.61,5.43-5.42,8.13
		c-1.91,0.09-2.05,1.52-2.23,2.93c-0.99,0.4-1.97,0.8-2.96,1.19c-1.44,0-2.83,0.11-3.21,1.9c-1.27,0-2.54-0.01-3.81-0.01
		c-0.28-1.22-1-1.88-2.3-1.75c-2.52-0.2-3.49-3.2-6.05-3.33c-0.35-0.32-0.7-0.63-1.05-0.95l-0.01-0.06c-2.7-3.22-5.22-6.65-9.4-8.16
		l0-0.01C423.84,346.36,423.82,344.96,423.8,343.56z"/>
	<path class="st1" d="M470.44,483.31c-1.25-0.55-2.49-1.08-3.92-1.01c-9.33,0.46-18.75-1.11-28.01,1.18l-0.16-0.17
		c1.81-4.16,2.7-8.59,1.94-13c-0.76-4.42-1.04-8.82-0.86-13.25c0.15-3.54-1.32-4.9-4.85-4.84c-8.73,0.15-17.46,0.08-26.2,0.09
		c0,0-0.14-0.14-0.14-0.14c0.03-10.31,0.06-20.62,0.09-30.94c10.32,0.75,20.65,1.37,31.01,0.99c-1.92,7.81-0.68,15.76-0.94,23.64
		c-0.19,5.7,0.51,6.34,6.08,6.37c8.61,0.05,17.22-0.04,25.83-0.08l0.17,0.17C470.47,462.65,470.46,472.98,470.44,483.31z"/>
	<path class="st2" d="M75.95,330.28c0.59,2.34-0.09,3.99-2.45,4.92c-1.06,0.42-2.56,0.93-1.89,2.49c0.46,1.07,1.8,0.85,2.79,0.66
		c2.27-0.44,4.45-1.9,6.72,0.33c3.48,3.43,6.83,7.1,8.01,11.8c0.7,2.77-2.04,4.91-4.48,6.32c-1.28,0.74-2.98,0.74-3.91,2.23
		c3.37,1.15,4.56,0.89,8.1-1.72c3.85-2.84,4.53-2.75,7.46,1.05c0.84,1.09,1.6,2.23,2.48,3.28c1.6,1.91,4.64,4.17,3.33,6.23
		c-1.88,2.94-4.54,6.13-9.06,5.79c-3.98-0.3-7.76,0.49-11.36,2.71c1.62,2.57,4.46,0.27,6.06,1.94c-3.16,3.56-10.95,4.29-12.59,0.18
		c-1.77-4.42-5.8-5.16-8.08-8.18c-4.05-5.36-7.52-11.07-9.49-17.57c-0.2-0.65,0.01-1.54-0.36-2.01c-3.35-4.19-1.22-6.86,2.43-9.15
		c8.8-3.77,9.11-9.84,7.68-16.68c-0.6-2.86-2.62-5.25-2.66-8.28l0.04-0.04c1,0.74,1.99,1.48,2.99,2.22l0.06,0.12
		c0.01,2.79,1.38,4.5,4.09,5.14c0.01,0.32,0.04,0.64,0.1,0.96c0.08,1.89,1.17,2.87,2.92,3.25c0.03,0.31,0.09,0.6,0.19,0.9
		C75.36,329.56,75.65,329.92,75.95,330.28z"/>
	<path class="st2" d="M428.64,355.07c0.12,0.33,0.23,0.67,0.35,1c0.34,1.81-0.74,3.31-1.12,4.96c-2.02,3.28-5.28,5.83-5.15,10.31
		c0.12,4.37,1.54,7.79,5.74,9.45c2.61,1.03,2.88,2.46,1.83,4.81c-2.76,6.23-7.07,11.35-11.51,16.38c-1.45,1.64-2.85,1.67-4.97,0.63
		c-4-1.96-7-4.38-9.02-8.58c-1.98-4.13-5.04-7.82-8.94-10.44c-3.37-2.26-2.75-4.05-0.02-6.18c7.39-5.78,12.84-13.3,18.51-20.63
		c0.65-0.84,1.2-1.67,1.33-2.73c1.88-0.21,2.04-1.59,2.07-3.05l0.04-0.08c0.34-0.3,0.69-0.59,1.03-0.89
		c1.34-0.01,2.67-0.02,4.01-0.03C424.46,352.02,425.89,354.3,428.64,355.07z"/>
	<path class="st2" d="M470.32,452.15c-8.61,0.03-17.22,0.12-25.83,0.08c-5.57-0.03-6.27-0.66-6.08-6.37
		c0.26-7.88-0.98-15.83,0.94-23.64c0.35-0.35,0.7-0.69,1.05-1.04c10,0.03,20,0.05,30,0.08c0,0,0,0,0,0
		C470.38,431.56,470.35,441.85,470.32,452.15z"/>
	<path class="st1" d="M7.78,360.11c2.74-10.31-0.59-20.61,0-30.92l0.14-0.14c8.51,0.02,17.01,0.02,25.52,0.07
		c1.89,0.01,3.74-0.05,5.43-1.05c0.04,10.67,0.08,21.34,0.12,32.01c0,0-0.14,0.14-0.14,0.14c-10.3,0.01-20.61,0.03-30.91,0.04
		C7.93,360.26,7.78,360.11,7.78,360.11z"/>
	<path class="st1" d="M470.4,421.26c-10-0.03-20-0.05-30-0.08c0.69-10.36-1.65-20.63-0.99-31c0.47,0.2,0.97,0.63,1.4,0.57
		c9.82-1.28,19.7-0.17,29.53-0.68c0,0,0.16,0.16,0.16,0.16C470.47,400.58,470.43,410.92,470.4,421.26z"/>
	<path class="st2" d="M470.34,390.08c-9.84,0.51-19.71-0.6-29.53,0.68c-0.44,0.06-0.94-0.37-1.4-0.57l-0.02-0.02
		c-1.09-1.86-1.03-3.9-1.02-5.96c0.02-6.65-0.01-13.3-0.02-19.95c3-0.47,5.74,1.38,8.99,0.52c2.87-0.76,5.28-1.89,7.65-3.52
		c1.5-1.03,3.19-1.93,5.11-2.09c1.37,1.53,3.2,0.91,4.85,0.97c5.14,0.18,5.44,0.42,5.45,5.72
		C470.42,373.93,470.37,382,470.34,390.08z"/>
	<path class="st1" d="M69.8,81.89c-10.25,1.45-20.58,0.75-30.87,0.98c0,0-0.16-0.16-0.16-0.16c0-10.27,0.01-20.53,0.01-30.8
		l0.15-0.15c9.98,1.36,20.01,1.06,30.04,1.13c-1.3,4.35-0.83,8.83-1.12,13.27C67.5,71.57,70.06,76.54,69.8,81.89z"/>
	<path class="st2" d="M408.34,421.23c-0.03,10.31-0.06,20.62-0.09,30.94c-10.27-0.01-20.54-0.02-30.81-0.03
		c-0.71-3.15,1.12-6.01,0.99-9.09c1.67-0.24,2.71-1.35,3.65-2.61c0.5-0.67,1.11-1.93,1.56-1.88c6.14,0.64,4.17-4.13,3.64-6.44
		c-0.92-4.01,0.14-7.39,1.38-10.92C395.22,421.21,401.78,421.22,408.34,421.23L408.34,421.23z"/>
	<path class="st2" d="M38.86,328.07c-1.68,1-3.53,1.06-5.43,1.05c-8.51-0.05-17.01-0.05-25.52-0.07c-0.19-9.99-1.9-19.97-0.12-29.97
		c0.07-0.29,0.13-0.59,0.18-0.88c6.16-0.04,12.32-0.08,18.48-0.12c-0.6,9.89,5.04,17.22,10.41,24.51
		C38.22,324.43,39.09,325.91,38.86,328.07z"/>
	<path class="st1" d="M7.83,113.87c2.79-10.33-0.6-20.65-0.03-30.98l0.15-0.15c10.27-0.01,20.54-0.01,30.81-0.02l0.16,0.16
		c1.37,5.54-1.5,9.81-5.09,13.04c-4.14,3.72-5.36,9.09-8.83,13.09c-1.15,1.32-0.44,3.33-0.75,5c-5.42-1.74-10.84-0.46-16.26,0.03
		L7.83,113.87z"/>
	<path class="st1" d="M26.46,298.09c-6.16,0.04-12.32,0.08-18.48,0.12c2.36-10.39-0.88-20.76-0.15-31.15
		c1.47-0.17,3.12,0.38,4.25-1.1c4.99,1.71,9.63,4.07,15.17,4.56c5.34,0.47,9.17,12.97,5.83,17.29
		C30.58,291.05,27.73,294.05,26.46,298.09z"/>
	<path class="st1" d="M7.94,175.02c2.49-10.36-0.72-20.67-0.22-31.02c0,0,0.14-0.13,0.14-0.13c2.9,0.01,5.83,0.3,8.68-0.03
		c6.74-0.78,13.47,2.07,20.19-0.04c-1.72,4.16-0.76,9.17-2.68,12.82c-1.89,3.59-6.72,5.37-9.02,9.3c-1.51,2.58-2.73,5.54-6.12,6.5
		c-0.84,0.24-0.57,1.49-0.62,2.32C14.84,174.85,11.39,174.93,7.94,175.02z"/>
	<path class="st2" d="M470.3,51.94c0.02,10.27,0.04,20.54,0.06,30.8c-0.31,0.05-0.61,0.09-0.92,0.12c-5.2,0-10.41-0.01-15.61-0.01
		c0.04-3.4,0.08-6.8,0.11-10.2c0.06-7.78-1.95-10.6-9.4-13.69c-1.84-0.76-3.49-1.97-5.22-2.97c0.08-1.36,0.15-2.72,0.23-4.08
		C449.78,51.93,460.04,51.94,470.3,51.94z"/>
	<path class="st2" d="M36.73,143.81c-6.72,2.11-13.44-0.75-20.19,0.04c-2.86,0.33-5.79,0.04-8.68,0.03
		c-0.86-7.43-1.21-14.87-1.07-22.36c0.05-2.58,0.23-5.08,1.2-7.48c5.42-0.49,10.83-1.77,16.26-0.03c0,1.8-1.08,3.2-1.74,4.75
		c-3.05,7.1-0.21,13.36,7.12,15.65C36.9,136.69,36.9,136.69,36.73,143.81z"/>
	<path class="st2" d="M7.94,175.02c3.45-0.09,6.9-0.18,10.35-0.27c1.75,0.25,2.78,1.22,3,3c0.48,3.95,2.94,6.56,6.17,8.38
		c3.13,1.77,3.6,4.35,3.02,7.45c-0.28,1.51-0.68,3.01-1.09,4.49c-1.69,6.2-3.63,7.69-10.17,7.9c-3.78-0.01-7.56-0.03-11.34-0.04
		l0-0.01c0.54-4.48-1.19-8.75-1.11-13.22c0.1-5.62,0.06-11.24,1-16.8C7.83,175.62,7.88,175.32,7.94,175.02z"/>
	<path class="st2" d="M69.8,81.89c0.27-5.35-2.3-10.33-1.95-15.73c0.28-4.43-0.18-8.92,1.12-13.27c0.31-0.04,0.61-0.09,0.92-0.14
		c9.18-1.86,18.47-0.62,27.7-0.88c2.36-0.07,3.36,1.36,3.36,3.62c0,1.55,0.03,3.09,0.04,4.64c-1.71,0.04-3.41,0.08-5.12,0.12
		c-0.73,0.01-1.45,0.01-2.18,0.02c-10.26-1.75-16.07,6.54-19.45,15.86c-0.69,1.9-0.76,4.05-1.55,5.9
		C71.92,83.82,70.64,84.58,69.8,81.89z"/>
	<path class="st2" d="M40.01,187.3c-5.48-1.48-9.31-5.5-13.44-8.96c-2.37-1.98-1.45-6.53,1.52-8.93c2.9-2.34,6.32-4.01,8.88-6.81
		c3.27-2.66,6.7-3.86,10.6-1.2c0.36,0.25,1.01,0.09,1.52,0.12c-2.82,7.52-2.79,15.72-5.47,23.28c-0.14,0.4,0.22,0.98,0.35,1.47
		C43.01,188,41.52,187.67,40.01,187.3z"/>
	<path class="st2" d="M154.81,452.26c-7.89-0.04-15.78-0.09-23.68-0.13c-1.61-9.22-0.99-18.54-1.18-27.82
		c4.1-0.66,5.88,1.93,7.2,5.14c0.24,0.59,0.52,1.12,0.19,1.91c-2.02,4.85-0.81,7.58,4.08,9.7c3.92,1.7,7.87,3.37,11.23,6.12
		c0.09,1.44,0.08,2.94,2.1,3.02C154.77,450.89,154.79,451.58,154.81,452.26z"/>
	<path class="st2" d="M169.31,414.08c2.16-0.33,4.01,0.41,5.85,1.47c11.49,6.62,22.7,13.78,35.28,18.3c1.1,0.4,2.11,1.11,3.07,1.8
		c1.25,0.89,4.02,1.1,2.78,3.38c-0.92,1.68-3.09,0.72-4.7,0.16c-5.17-1.8-10.05-4.39-15.41-5.7c-4.74-3.13-10.14-4.9-15.15-7.49
		c-2.97-1.54-5.45-4.45-9.34-3.81c-0.62-0.73-1.34-1.23-2.37-1.02l0.01-0.03c0.09-0.9-0.29-1.58-1.01-2.08
		C168.01,417.28,169.2,415.79,169.31,414.08z"/>
	<path class="st1" d="M64.68,316.65c0.04,3.03,2.06,5.42,2.66,8.28c1.43,6.84,1.12,12.91-7.68,16.68c-0.01-1.89,0-3.78-0.02-5.67
		c-0.07-5.34-1.42-6.67-6.66-6.82c-3.82-0.11-7.69,0.38-11.79-1.09c6.08-0.7,7.95-5.82,11.19-9.4c1.47-1.63,2.85-3.42,5.18-3.96
		c3.34,6.87,4.62,14.13,4.12,21.72c-0.07,0.12-0.14,0.25-0.22,0.37c0.07-0.13,0.13-0.26,0.2-0.39c4.14-1.95,5.05-3.54,3.63-7.91
		c-1.3-3.99-3.09-7.82-4.67-11.72C61.96,316.7,63.32,316.67,64.68,316.65z"/>
	<path class="st1" d="M453.81,82.86c5.2,0,10.41,0.01,15.61,0.01c0,4.12,0.01,8.25,0,12.37c-0.01,6.77-0.46,7.1-6.99,5.1
		C456.16,98.42,451.63,89.23,453.81,82.86z"/>
	<path class="st1" d="M408.34,421.23c-6.56-0.01-13.12-0.02-19.67-0.04c0.98-6.78,5.92-10.98,10.71-14.76
		c4.2-3.31,8.82-0.35,8.95,5.05C408.4,414.73,408.34,417.98,408.34,421.23z"/>
	<path class="st2" d="M165.02,416.89c-10.57-6.02-20.31-13.24-29.79-20.81c-0.98-0.78-2.86-1.43-1.68-3.12
		c1.02-1.46,2.75-2.3,4.52-1.2c3.2,1.99,6.28,4.15,9.41,6.25c6.24,4.2,12.47,8.41,18.7,12.64c0.78,0.53,0.9,1.41,0.91,2.29
		C165.34,413.7,165.06,415.23,165.02,416.89z"/>
	<path class="st1" d="M341.13,411.95c-3.31,4.92-8.68,7.22-13.64,9.49c-6.67,3.05-12.76,7.11-19.54,10.02
		c-11.53,4.94-23.12,9.61-35.03,13.51c-1.16,0.38-2.25,0.75-3.26,1.44c-0.91,0.63-2.14,0.93-2.7-0.2c-0.79-1.56,0.56-1.98,1.75-2.44
		c4.16-1.58,8.27-3.34,12.46-4.84c12.92-4.6,25.4-10.14,37.65-16.32c7.34-3.7,14.35-8.14,22.22-10.77L341.13,411.95z"/>
	<path class="st1" d="M378.43,443.05c0.12,3.08-1.71,5.95-0.99,9.09l-0.16,0.14c-9.99,0-19.98,0-29.97,0.01l-0.16-0.16
		c-0.36-2.71,0.91-4.91,2.2-7.11c0.76-3.15,3.18-2.35,4.88-1.58c4.23,1.91,8.96,1.31,13.24,3.36
		C371.82,448.9,374.99,445.02,378.43,443.05z"/>
	<path class="st2" d="M99,390.18c-10.01-0.02-20.03-0.04-30.04-0.05l0-0.02c-0.06-3.11-0.11-6.21-0.17-9.32
		c2.34-2,3.7,0.7,4.67,1.56c4.91,4.36,10.13,2.93,14.96,0.8c6-2.64,7.17-2.57,9.73,3.56C98.6,387.8,98.72,389.02,99,390.18z"/>
	<path class="st1" d="M439.53,51.92c-0.08,1.36-0.15,2.72-0.23,4.08c-5.08-1.76-9.37-0.99-13.45,2.91
		c-5.16,4.94-11.21,5.11-17.5,1.26c-0.04-2.76-0.07-5.51-0.11-8.27l0.14-0.14c10.33,0.33,20.66,2.5,30.99,0.01L439.53,51.92z"/>
	<path class="st1" d="M438.35,364.26c0.01,6.65,0.03,13.3,0.02,19.95c0,2.05-0.07,4.1,1.02,5.96c-4.8-0.16-4.94-0.21-3.5-4.38
		c1.64-4.77-2.6-6.12-4.91-8.28c-1.52-1.42-4.69-1.81-4.45-4.28c0.28-2.91,1.32-5.92,3.09-8.42
		C432.23,361.13,435.26,361.61,438.35,364.26z"/>
	<path class="st1" d="M211.77,82.57c-18.58-5.61-37.51-8.33-56.96-6.97C175.07,67.78,193.66,73.29,211.77,82.57z"/>
	<path class="st2" d="M200.27,51.69c6.16,0.04,12.32,0.07,18.49,0.13c1.83,0.02,3.92-0.45,4.55,2.15
		c-3.48,8.13-7.42,9.64-14.85,5.73c-1.79-0.94-3.78-1.4-5.52-2.54C200.87,55.8,199.76,54.2,200.27,51.69z"/>
	<path class="st1" d="M235.6,88.98c2.69,0.35,4.24-0.38,4.09-3.54c-0.18-3.58,0.08-7.13,0.82-10.72c1.17-5.64,2.94-8.39,6.06-8.02
		c3.59,0.42,6.6,5.47,6.05,10.39c-2.15-1.01-2.21-3.43-3.55-4.88c-2.16-2.36-3.54-2.1-4.57,0.99c-1.4,4.19-0.45,8.52-0.68,12.78
		c-0.11,2.05-0.01,4.12-0.01,6.18c-1.18-0.72-2.39-0.52-3.73-0.49C238.33,91.7,235.94,91.74,235.6,88.98z"/>
	<path class="st2" d="M40.95,198.73c-0.35,0.95-0.9,1.87-1.01,2.84c-0.25,2.24-1.27,3.62-3.6,3.23c-2.25-0.38-3.8-1.92-3.49-4.26
		c0.44-3.35,0.74-6.71,1.05-10.07c0.3-3.23,3.08-1.64,4.88-1.87C41.8,191.48,40.78,195.23,40.95,198.73z"/>
	<path class="st1" d="M109.76,368.59c1,0.04,1.7,0.52,2.3,1.15c5.76,5.87,12.37,10.75,18.64,16.03c0.95,0.8,2.86,1.43,1.47,3.07
		c-1.16,1.36-3,2.01-4.55,0.48c-6.23-6.14-12.4-12.34-18.53-18.56C108.15,369.79,108.38,368.89,109.76,368.59z"/>
	<path class="st1" d="M49.08,161.52c-0.51-0.03-1.16,0.13-1.52-0.12c-3.9-2.66-7.32-1.46-10.6,1.2c-0.76-2.84-0.54-5.44,0.52-8.34
		c0.94-2.58,0.81-5.6,1.8-8.34c1.29,0.78,0.05,2.42,1.28,3.25c0.77-1.79,0.01-4.26,2.31-5.33c0.05,2.9,0.1,5.79,0.14,8.69
		c0.06,4.52,1.65,5.9,6.22,5.32c1.01-0.13,1.99-0.4,2.99-0.61C52.35,159.52,50.82,160.6,49.08,161.52z"/>
	<path class="st2" d="M304.84,469.84c-6.48,5.99-7.92,14.9-12.26,22.13c-1.99-13.36,1.93-19.02,12.3-22.09L304.84,469.84z"/>
	<path class="st1" d="M152.88,49.97c-0.8,2.63-3.43,2.31-5.12,2.49c-6.13,0.66-12.01-0.35-16.95-4.52
		C138.51,44.91,145.73,47.06,152.88,49.97z"/>
	<path class="st1" d="M59.55,134.62c-7.31-3.44-13.05-13.27-11.71-20.07c0.32,0.04,0.87,0,0.91,0.12c2.35,7,8,11.74,12.02,17.6
		C59.87,132.79,59.6,133.65,59.55,134.62z"/>
	<path class="st1" d="M171.7,422.2c3.88-0.65,6.36,2.27,9.34,3.81c5.01,2.59,10.42,4.36,15.15,7.49c-0.07,0.79-0.14,1.58-0.21,2.37
		c-6.97-3.07-13.98-6.07-20.9-9.25c-1.94-0.89-4.08-1.81-4.89-4.15C170.69,422.37,171.2,422.29,171.7,422.2z"/>
	<path class="st2" d="M261.52,51.91c5.14-0.04,10.29-0.08,15.43-0.11c-0.8,3.85-2.91,7.09-6.93,6.97
		C266.02,58.65,262.71,56.25,261.52,51.91z"/>
	<path class="st2" d="M408.24,51.91c0.04,2.76,0.07,5.51,0.11,8.27c-2.23-0.01-4.3-0.19-6.36-1.51c-3.62-2.33-3.88-3.19-0.95-6.96
		C403.44,51.77,405.84,51.84,408.24,51.91z"/>
	<path class="st2" d="M60.61,316.72c1.58,3.9,3.37,7.73,4.67,11.72c1.42,4.37,0.52,5.96-3.63,7.91l0.02,0.02
		c0.5-7.6-0.78-14.85-4.12-21.72C59.68,313.69,59.74,315.81,60.61,316.72z"/>
	<path class="st2" d="M349.36,445.03c-1.29,2.2-2.56,4.4-2.2,7.11c-2.58-0.2-6.12,1.45-7.5-1.01c-1.49-2.64,2.01-4.55,3.29-6.8
		c0.16-0.28,0.2-0.64,0.3-0.96c0.67-0.12,1.34-0.24,2.01-0.36c0.34,0,0.68-0.03,1.01-0.08
		C347.36,443.53,347.77,445.14,349.36,445.03z"/>
	<path class="st1" d="M390.66,68.51c2.36-0.01,3.41-1.14,3.22-3.54c-0.16-2.06-0.16-4.15,1.1-5.97c1.83,0.45,3.77,0.77,4.05,3.19
		c-1.59,3.44-0.3,6.89-0.05,10.34c-1.77-0.09-2.67-2.44-5.03-1.53C392.63,71.5,391.06,70.3,390.66,68.51z"/>
	<path class="st1" d="M411.55,79.67c3.44,2.28,6.31,1.05,9.09-1.36c2.04-1.76,3.95-3.79,6.74-4.47c0.85-0.21,1.73-0.43,2.2,0.55
		c0.35,0.73-0.15,1.43-0.68,1.78c-3.32,2.21-5.48,6.16-9.91,6.73c-1.53-0.04-3.06-0.14-4.58-0.09
		C412.18,82.87,411.33,81.78,411.55,79.67z"/>
	<path class="st1" d="M247.9,99.45c2.73,0.29,4.06-1.84,5.89-3.23c1.42-1.08,2.44-2.78,4.4-3.11c0.82,3.62-1.05,8.68-3.9,10.62
		c-0.89,0.6-2.37,1.16-2.62,0.14C251.13,101.61,248.16,101.72,247.9,99.45z"/>
	<path class="st1" d="M78.35,111.9c-1.2-3.25-5.57-1.87-7.09-4.95c-0.58-1.17-3-1.65-1.44-3.53c1.3-1.57,2.82-0.79,3.98,0.4
		c1.13,1.15,3.02,1.28,3.88,2.28c2.26,2.62,4.38,1.46,6.68,0.48C84.51,110.78,80.15,109.89,78.35,111.9z"/>
	<path class="st1" d="M158.79,68.17c0.92-2.27,1.55-4.49,0.44-6.97c-0.46-1.03-0.24-2.37-0.25-3.58c-0.01-1.42,0.12-3.03,1.82-3.25
		c1.83-0.24,2.1,1.35,2.3,2.77c0.43,3.05,1.38,6.04,1.02,9.18C162.54,67.54,160.75,68.11,158.79,68.17z"/>
	<path class="st1" d="M282.15,450.21c-0.48-0.81-1.28-0.99-2.13-1.06c0.84-0.57,1.6-1.42,2.52-1.65c7.75-1.99,14.61-6.37,22.45-8.19
		C298.44,445.16,289.91,446.9,282.15,450.21z"/>
	<path class="st1" d="M270.72,82.85c0.29-2.53-0.75-4.67-1.88-6.82c-0.8-1.51-1.53-3.07-2.09-4.68c-0.33-0.95-0.33-2.13,0.81-2.68
		c1.11-0.53,2.09,0.03,2.62,0.98c0.91,1.62,2.37,2.9,2.65,4.92c0.25,1.84,0.68,3.7,2.02,5.15C273.93,81.38,272.77,82.7,270.72,82.85
		z"/>
	<path class="st2" d="M470.39,318.83c0,1.01,0.01,2.01,0.01,3.02c0.03,7.2,0.03,7.2-7.18,7.27
		C463.56,324.26,465.43,320.48,470.39,318.83z"/>
	<path class="st1" d="M7.89,205.95c3.78,0.01,7.56,0.03,11.34,0.04c-3.14,2.33-6.8,4.08-8.67,7.83c-0.32,0.65-0.96,1.12-1.66,0.95
		c-1.06-0.25-1.01-1.26-1.02-2.1C7.85,210.43,7.88,208.19,7.89,205.95z"/>
	<path class="st1" d="M251.13,482.17c5.99,1.54,6.39,7.35,9.64,11.84c-3.31,0.55-4.82-0.75-5.82-2.84c-1.39-2.91-2.68-5.87-4.02-8.8
		L251.13,482.17z"/>
	<path class="st1" d="M117.43,81.7c-0.71-2.68-3.61-3.37-4.97-5.48c-0.65-1-1.65-1.99-0.55-3.12c1.11-1.13,2.09-0.1,3.13,0.46
		c2.55,1.37,3.78,4.39,6.7,5.25C121.21,81.12,119.41,81.55,117.43,81.7z"/>
	<path class="st1" d="M188.85,66.19c-0.48-2.99-2.68-5.57-2.01-8.84c0.21-1.03,0.26-2.12,1.59-2.19c1.02-0.05,1.4,0.78,1.65,1.63
		c0.93,3.09,1.99,6.15,2.04,9.42C191.04,66.2,189.95,66.19,188.85,66.19z"/>
	<path class="st1" d="M478.69,152.1c0.77-2.6,0.85-5.76,4.14-7.03c0.79-0.3,1.73-0.34,2.43,0.32c0.82,0.78,0.19,1.56-0.12,2.33
		c-0.83,2.08-3.12,3.22-3.51,5.62c-0.14,0.83-0.83,1.65-1.81,1.47C478.39,154.52,478.87,153.22,478.69,152.1z"/>
	<path class="st1" d="M238.54,449.84c6.08-0.69,11.17,2.18,17.55,4.11C248.92,455.14,243.65,452.74,238.54,449.84z"/>
	<path class="st1" d="M388.66,410.85c2.31-6.76,6.63-9.76,12.92-8.34c-5.66,0.85-7.85,6.63-12.86,8.39L388.66,410.85z"/>
	<path class="st1" d="M26.62,124.16c1.71,3.55,4.27,5.21,8.46,4.77c2.44-0.26,5.05,0.55,5.81,3.64c-2.55-1.01-5.22-0.99-7.91-1.18
		C27.42,131,26.49,129.8,26.62,124.16z"/>
	<path class="st1" d="M428.64,355.07c-2.75-0.77-4.17-3.05-5.81-5.09c0.34-0.74,0.69-1.48,1.03-2.22c4.18,1.51,6.7,4.94,9.4,8.16
		C431.72,355.64,430.18,355.36,428.64,355.07z"/>
	<path class="st1" d="M182.79,452.23c-2.28,0.02-4.24,0.14-4.14-2.73c0.07-1.74,0.98-2.38,2.61-2.36c2.57,0.03,3.69,2.01,4,3.89
		C185.52,452.62,183.49,451.96,182.79,452.23z"/>
	<path class="st2" d="M12.08,265.95c-1.13,1.48-2.78,0.94-4.25,1.1c-0.31-0.05-0.61-0.1-0.91-0.16c-0.04-2.73-0.08-5.46-0.11-8.19
		C10.02,260.06,10.66,263.29,12.08,265.95z"/>
	<path class="st1" d="M40.95,198.73c-0.17-3.5,0.85-7.25-2.18-10.13c0.42-0.43,0.83-0.87,1.25-1.3c1.5,0.37,3,0.7,3.95-1.03
		C43.6,190.58,43.4,194.93,40.95,198.73z"/>
	<path class="st1" d="M56.3,312.27c0.39-0.51,0.76-1.46,1.16-1.47c3.68-0.12,2.43-2.54,2.2-4.49c1.37,0.09,1.95,1.24,2.83,2.02
		c1.35,1.2,1.59,2.77,0.91,4.2c-0.85,1.79-2.31,0.56-3.57,0.29C58.67,312.56,57.48,312.45,56.3,312.27z"/>
	<path class="st1" d="M154.75,450.21c-2.03-0.09-2.02-1.59-2.1-3.02c2.75-0.58,5,0.7,7.26,1.94c0.87,0.48,2.06,0.99,1.25,2.25
		c-0.61,0.95-1.74,1.07-2.75,0.54C157.2,451.3,156.25,450.18,154.75,450.21z"/>
	<path class="st1" d="M255.28,450.65c3.58-0.42,7.16-0.8,11.46,0.04C262.16,454.85,258.76,452,255.28,450.65z"/>
	<path class="st1" d="M442.28,104.52c-1.75-2.56-0.63-4.82,0.79-7.01c0.36-0.56,1.01-1.03,1.73-0.68c0.67,0.33,0.87,1.06,0.59,1.73
		c-0.98,2.27-0.74,4.64-0.76,7C443.84,105.22,443.06,104.87,442.28,104.52z"/>
	<path class="st1" d="M97.86,102.48c1.32-2.89,3.77-4.45,6.6-5.57c-1.05,3.19-2.83,5.52-6.55,5.62L97.86,102.48z"/>
	<path class="st1" d="M165.02,416.89c0.04-1.65,0.31-3.19,2.07-3.94c0.92,0.03,1.76,0.2,2.22,1.13c-0.11,1.7-1.31,3.2-0.98,4.99
		C166.58,419.33,166.15,417.58,165.02,416.89z"/>
	<path class="st1" d="M71.85,324.09c-2.71-0.65-4.07-2.36-4.09-5.14C70.56,319.52,71.51,321.56,71.85,324.09z"/>
	<path class="st1" d="M57.32,300.3c-3.02-1.12-2.85-3.76-2.98-6.26C56.17,295.73,57.17,297.81,57.32,300.3z"/>
	<path class="st1" d="M93.73,106.64c0.3-2.45,1.71-3.8,4.12-4.16l0.04,0.04c-0.33,2.44-1.74,3.79-4.16,4.12L93.73,106.64z"/>
	<path class="st1" d="M40.97,133.54c2.37,1.16,2.14,3.22,1.82,5.3C39.95,137.85,41.29,135.41,40.97,133.54z"/>
	<path class="st1" d="M266.48,86.8c0.5-2.29,1.83-3.7,4.24-3.95C270.05,84.97,268.8,86.46,266.48,86.8z"/>
	<path class="st1" d="M67.7,318.83c-1-0.74-1.99-1.48-2.99-2.22c0.16-1.08,0.64-2.09,1.87-1.63
		C68.47,315.68,67.62,317.45,67.7,318.83z"/>
	<path class="st1" d="M427.87,361.03c0.38-1.65,1.45-3.14,1.12-4.96C431.61,358.5,431.38,359.51,427.87,361.03z"/>
	<path class="st1" d="M423.8,343.56c0.02,1.4,0.04,2.8,0.06,4.2C420.93,346.4,421,345,423.8,343.56z"/>
	<path class="st1" d="M397.15,45.7c-0.09-1.38-0.19-2.77-0.28-4.15C399.58,42.8,399.66,43.85,397.15,45.7z"/>
	<path class="st1" d="M128.93,47.74c-1.48,1.53-3.4,0.78-5.13,0.99C125.33,47.49,126.73,45.56,128.93,47.74z"/>
	<path class="st1" d="M440.47,107.64c0.63,0,1.26,0,1.89,0c0.73,0.54,1.29,1.34,0.18,1.79
		C441.05,110.04,440.57,108.92,440.47,107.64z"/>
	<path class="st1" d="M263.34,88.9c0.28-1.78,1.58-2.03,3.05-2.02C266.4,89.12,264.87,89.01,263.34,88.9z"/>
	<path class="st1" d="M134.01,74.45c0.31-1.97,1.73-2.01,3.26-1.87C136.98,74.61,135.52,74.58,134.01,74.45z"/>
	<path class="st1" d="M74.87,328.29c-1.75-0.38-2.85-1.36-2.92-3.25C74.03,325.13,74.46,326.71,74.87,328.29z"/>
	<path class="st1" d="M59.58,137.68c-0.01-1.02-0.02-2.04-0.03-3.06c0.84,0.1,1.71,0.21,1.85,1.26
		C61.58,137.22,60.62,137.51,59.58,137.68z"/>
	<path class="st1" d="M215.89,488.38c-1.79,0.01-3.68,0.64-5.27-0.75C212.42,487.57,214.31,486.89,215.89,488.38z"/>
	<path class="st2" d="M37.01,100.59c-0.28,0.14-0.66,0.49-1.08,0.53c-0.54,0.05-0.95-0.4-0.66-0.92c0.19-0.33,0.73-0.59,1.14-0.63
		C36.87,99.51,37.38,99.73,37.01,100.59z"/>
	<path class="st1" d="M395.95,41.41c-1.49,0.08-2.9,0.01-3.24-1.89C394.26,39.34,395.29,40.06,395.95,41.41z"/>
	<path class="st1" d="M109.27,94.23c-0.49,0.88-0.94,1.83-2.2,1.63c-0.18-0.03-0.47-0.55-0.4-0.72c0.5-1.23,1.64-0.81,2.58-0.92
		L109.27,94.23z"/>
	<path class="st1" d="M417.75,350.98c-0.04,1.46-0.19,2.84-2.07,3.05C415.63,352.52,416.25,351.46,417.75,350.98z"/>
	<path class="st1" d="M54.48,149.1c-0.14-1.49-0.01-2.83,1.75-3.32C56.62,147.4,55.81,148.39,54.48,149.1z"/>
	<path class="st1" d="M139.2,72.37c0.73-1.26,1.72-2.05,3.29-1.75C142.1,72.53,140.69,72.53,139.2,72.37z"/>
	<path class="st1" d="M446.48,362.02c0.38-1.79,1.77-1.9,3.21-1.9C449.09,361.54,448.11,362.33,446.48,362.02z"/>
	<path class="st1" d="M402.17,74.52c1.47-0.02,2.88,0.06,3.23,1.92C403.82,76.64,402.79,75.93,402.17,74.52z"/>
	<path class="st1" d="M452.65,358.93c0.17-1.41,0.32-2.84,2.23-2.93C454.84,357.5,454.28,358.62,452.65,358.93z"/>
	<path class="st1" d="M92.72,107.69c-0.1,0.67-0.13,1.4-0.99,1.53c-0.17,0.02-0.59-0.4-0.57-0.57c0.13-0.85,0.86-0.9,1.53-0.98
		L92.72,107.69z"/>
	<path class="st1" d="M59.44,304.42c-1.27-0.22-1.94-0.92-1.84-2.25C58.92,302.33,59.57,303.06,59.44,304.42z"/>
	<path class="st1" d="M53.2,292.02c-1.27-0.22-1.89-0.96-1.83-2.27C52.72,289.92,53.37,290.64,53.2,292.02z"/>
	<path class="st1" d="M148.41,70.17c0.32-1.21,1.05-1.84,2.36-1.63C150.51,69.84,149.77,70.46,148.41,70.17z"/>
	<path class="st1" d="M109.26,94.22c0.05-1.33,0.78-1.98,2.08-2.06l-0.01-0.01c-0.04,1.34-0.74,2.01-2.06,2.08L109.26,94.22z"/>
	<path class="st1" d="M440.37,360.26c1.31-0.12,2.02,0.53,2.3,1.75C441.26,362.27,440.55,361.61,440.37,360.26z"/>
	<path class="st1" d="M399,72.54c1.29-0.02,2.02,0.61,2.23,1.87C399.83,74.57,399.12,73.91,399,72.54z"/>
	<path class="st1" d="M169.23,422.31c-1.01-0.01-2.02-0.01-3.03-0.02c0.72-1.28,2-1.02,3.14-1.14l-0.01,0.03
		C169.3,421.56,169.26,421.93,169.23,422.31z"/>
	<path class="st1" d="M388.72,410.91c-0.14,0.43-0.28,0.87-0.43,1.3c-0.13-0.09-0.37-0.24-0.36-0.25c0.23-0.38,0.48-0.74,0.73-1.1
		C388.66,410.85,388.72,410.91,388.72,410.91z"/>
	<path class="st1" d="M93.69,60.26c0.73-0.01,1.45-0.01,2.18-0.02C95.14,61.11,94.42,61.11,93.69,60.26z"/>
	<path class="st1" d="M111.34,92.16c0.35-0.25,0.71-0.5,1.06-0.74C112.69,92.61,111.68,91.89,111.34,92.16
		C111.33,92.15,111.34,92.16,111.34,92.16z"/>
	<path class="st1" d="M28.57,113.9c0,0.85-0.18,1.62-0.96,2.12C27.55,115.14,27.71,114.37,28.57,113.9z"/>
	<path class="st1" d="M75.95,330.28c-0.3-0.36-0.59-0.73-0.89-1.09C75.6,329.35,75.92,329.7,75.95,330.28z"/>
	<path class="st1" d="M406.31,76.6c0.35,0.33,0.71,0.66,1.06,0.99C407.02,77.26,406.66,76.93,406.31,76.6z"/>
	<path class="st1" d="M127.78,77.49c0.37-0.3,0.74-0.6,1.11-0.9C128.7,77.12,128.35,77.44,127.78,77.49z"/>
	<path class="st1" d="M418.82,350.01c-0.34,0.3-0.69,0.59-1.03,0.89C417.92,350.36,418.26,350.06,418.82,350.01z"/>
	<path class="st1" d="M64.71,130.34c0.3-0.35,0.59-0.71,0.89-1.06C65.57,129.86,65.26,130.2,64.71,130.34z"/>
	<path class="st1" d="M346.27,442.92c-0.34,0.05-0.67,0.08-1.01,0.08C345.55,442.38,345.89,442.34,346.27,442.92z"/>
	<path class="st1" d="M124.69,78.57c0.36-0.31,0.72-0.62,1.09-0.93C125.41,77.95,125.05,78.26,124.69,78.57z"/>
	<path class="st1" d="M410.37,78.78c0.37,0.29,0.75,0.58,1.12,0.87C411.12,79.37,410.75,79.08,410.37,78.78z"/>
	<path class="st2" d="M304.87,469.88c0.06-0.12,0.13-0.24,0.19-0.36c-0.08,0.11-0.15,0.22-0.23,0.32L304.87,469.88z"/>
	<path class="st1" d="M63.69,131.39c0.32-0.33,0.65-0.66,0.97-0.99C64.34,130.72,64.01,131.06,63.69,131.39z"/>
	<path class="st1" d="M250.94,482.36c-0.12-0.11-0.37-0.25-0.35-0.33c0.07-0.37,0.29-0.32,0.55,0.14L250.94,482.36z"/>
	<path class="st1" d="M406.3,66.24c-0.37-0.29-0.73-0.58-1.1-0.87C405.57,65.66,405.94,65.95,406.3,66.24z"/>
	<path class="st1" d="M405.12,65.3c-0.34-0.28-0.69-0.56-1.03-0.84C404.65,64.46,404.98,64.77,405.12,65.3z"/>
	<path class="st1" d="M62.6,132.38c0.35-0.31,0.69-0.62,1.04-0.93C63.5,131.98,63.16,132.3,62.6,132.38z"/>
	<path class="st1" d="M341.04,411.86c0.1-0.14,0.22-0.4,0.29-0.39c0.37,0.08,0.3,0.27-0.19,0.48L341.04,411.86z"/>
	<path class="st1" d="M395.01,57.02c-0.03-0.37-0.05-0.74-0.08-1.11c0.14,0.25,0.31,0.49,0.4,0.76
		C395.36,56.75,395.13,56.9,395.01,57.02z"/>
	<path class="st1" d="M53.37,152.16c0.3-0.37,0.61-0.74,0.91-1.12C53.98,151.42,53.68,151.79,53.37,152.16z"/>
	<path class="st1" d="M54.31,293.99c-0.32-0.35-0.63-0.71-0.95-1.06C53.68,293.28,53.99,293.63,54.31,293.99z"/>
	<path class="st1" d="M433.27,355.98c0.35,0.32,0.7,0.63,1.05,0.95C433.97,356.61,433.62,356.29,433.27,355.98z"/>
	<path class="st1" d="M394.93,51.82c0.29-0.38,0.59-0.76,0.88-1.14C395.51,51.05,395.22,51.43,394.93,51.82z"/>
	<path class="st1" d="M123.77,48.74c-0.36,0.32-0.72,0.64-1.07,0.96C123.06,49.38,123.42,49.06,123.77,48.74z"/>
	<path class="st1" d="M93.74,106.65c-0.34,0.35-0.69,0.69-1.03,1.04l-0.02-0.02c0.35-0.34,0.69-0.68,1.04-1.03L93.74,106.65z"/>
	<path class="st1" d="M445.69,111.74c0.29,0.39,0.57,0.77,0.86,1.16C446.26,112.51,445.98,112.13,445.69,111.74z"/>
	<path class="st2" d="M216.88,444c-0.14-0.14-0.28-0.28-0.43-0.42c0.09,0.02,0.22,0,0.28,0.06c0.08,0.09,0.12,0.23,0.17,0.34
		L216.88,444z"/>
	<path class="st0" d="M68.96,390.12c0.12,0.32,0.32,0.64,0.34,0.97c0.67,9.15,2.23,18.3,0.53,27.49c-0.43,2.32-1.97,3.57-4.33,3.64
		c-7.89,0.24-15.76,0.02-23.6-1.04c-1.8-0.24-2.92-1.18-2.94-2.98c-0.06-8.25-0.08-16.5-0.01-24.75c0.02-3.16,2.37-3.29,4.74-3.3
		c8.42,0,16.85-0.04,25.27-0.06C68.96,390.11,68.96,390.12,68.96,390.12z"/>
	<path class="st0" d="M68.86,484.31c-10.05,0.35-20.03-0.48-29.95-2.05c-0.01-8.26,0.1-16.52-0.07-24.77
		c-0.07-3.65,1.04-5.39,4.98-5.29c7.22,0.19,14.45,0.07,21.68,0.05c2.26-0.01,4.49,0.39,4.32,3.16c-0.51,8.69,2.06,17.38-0.14,26.05
		c-0.17,0.66-0.48,1.29-0.72,1.93C68.93,483.69,68.9,484,68.86,484.31z"/>
	<path class="st2" d="M7.8,422.22c0.35-0.34,0.71-0.69,1.06-1.03c8.28,0.01,16.56,0.15,24.83-0.02c3.72-0.07,5.35,1.13,5.25,5.04
		c-0.2,7.06-0.17,14.14-0.01,21.21c0.08,3.56-1.3,4.96-4.87,4.87c-6.72-0.16-13.45,0.01-20.17-0.06c-5.38-0.06-5.54-0.73-6.14-5.92
		C6.82,438.24,6.42,430.25,7.8,422.22z"/>
	<path class="st0" d="M130.97,452.29c-0.68,8.56,1.35,17.01,1.12,25.57c-0.09,3.41-0.85,4.93-4.69,5.73
		c-7.97,1.66-15.58-0.87-23.37-0.85c-1.35,0-2.7-0.33-4.05-0.51c-0.51-7.54,1.46-14.95,1.1-22.52c-0.11-2.29-2.09-5.04-0.2-6.77
		c1.9-1.74,4.93-0.64,7.46-0.67C115.88,452.2,123.43,452.28,130.97,452.29z"/>
	<path class="st2" d="M99.98,421.2c0,8.43,0.02,16.85-0.02,25.28c-0.02,4.9-0.72,5.66-5.68,5.74c-6.36,0.1-12.73,0.01-19.09,0.03
		c-3.15,0.01-5.18-1.03-5.6-4.56c-0.86-7.28-1.63-14.55-0.55-21.86c0.46-3.11,2.2-4.71,5.65-4.64
		C83.12,421.33,91.55,421.2,99.98,421.2L99.98,421.2z"/>
	<path class="st2" d="M7.93,360.26c10.3-0.01,20.61-0.03,30.91-0.04c0.01,8.39-0.07,16.77,0.08,25.16c0.06,3.53-1.3,4.91-4.84,4.85
		c-8.73-0.15-17.46-0.08-26.19-0.09C7.48,380.17,5.72,370.21,7.93,360.26z"/>
	<path class="st0" d="M439.37,51.78c-10.33,2.48-20.66,0.32-30.99-0.01c-0.01-8.6,0.07-17.2-0.08-25.79
		c-0.05-3.05,0.88-4.33,4.1-4.25c7.74,0.17,15.48,0.07,23.22,0.04c2.08-0.01,3.97,0.24,3.74,2.94c-0.6,7.06,1.22,13.99,1.11,21.03
		C440.44,47.85,439.74,49.76,439.37,51.78z"/>
	<path class="st2" d="M38.76,82.72c-10.27,0.01-20.54,0.01-30.81,0.02c-0.21-9.95-2.06-19.9-0.06-29.86
		c5.2-1.83,10.58-0.9,15.89-1.03c5-0.12,10,0.03,15,0.07C38.77,62.18,38.77,72.45,38.76,82.72z"/>
	<path class="st0" d="M69.88,52.75c-0.3,0.06-0.61,0.1-0.92,0.14c-10.02-0.07-20.06,0.23-30.04-1.13C38.91,43.51,39,35.25,38.84,27
		c-0.07-3.64,1.03-5.4,4.98-5.29c7.05,0.2,14.1,0.14,21.15,0.01c2.81-0.05,3.61,0.95,4.1,3.78C70.65,34.58,69.64,43.67,69.88,52.75z
		"/>
	<path class="st0" d="M408.39,452.31c8.73-0.02,17.47,0.06,26.2-0.09c3.53-0.06,4.99,1.3,4.85,4.84c-0.18,4.43,0.1,8.82,0.86,13.25
		c0.76,4.41-0.13,8.84-1.94,13c-8.91,2.19-17.66-0.08-26.48-0.87c-3.07-0.27-3.6-1.7-3.57-4.32
		C408.42,469.52,408.38,460.91,408.39,452.31z"/>
	<path class="st0" d="M347.31,452.29c9.99,0,19.98,0,29.97-0.01c-0.32,5.47,0.67,10.85,1.01,16.27c0.3,4.92,0.32,9.88-1.02,14.72
		c-8.65,2.68-17.29-0.55-25.95-0.09c-2.82,0.15-4.12-1.68-4.07-4.7C347.38,469.76,347.31,461.02,347.31,452.29z"/>
	<path class="st2" d="M335.96,448.99c0.7-0.17,0.81,0.3,0.8,0.8c-0.02,0.67-0.25,1.31-0.9,1.57c-0.66,0.26-0.8-0.28-0.79-0.78
		C335.07,449.9,335.35,449.34,335.96,448.99z"/>
	<path class="st0" d="M456.99,252.56c0.12-1.43,0.23-2.86,0.43-5.25c1.81,2.78,0.76,4.03-0.44,5.24L456.99,252.56z"/>
	<path class="st0" d="M169.23,422.31c0.03-0.38,0.07-0.75,0.1-1.13c1.03-0.21,1.75,0.29,2.37,1.02c-0.5,0.09-1.01,0.17-1.51,0.26
		C169.87,422.39,169.55,422.34,169.23,422.31z"/>
	<path class="st1" d="M337.89,441.82c0.18-0.12,0.35-0.24,0.53-0.36c-0.12,0.18-0.24,0.35-0.36,0.53L337.89,441.82z"/>
	<path class="st2" d="M61.65,336.36c-0.07,0.13-0.13,0.26-0.2,0.39c0.07-0.12,0.14-0.25,0.22-0.37
		C61.67,336.38,61.65,336.36,61.65,336.36z"/>
</g>
</svg>
