<?xml version="1.0" encoding="utf-8"?>
<!-- Generator: Adobe Illustrator 26.2.1, SVG Export Plug-In . SVG Version: 6.00 Build 0)  -->
<svg version="1.1" id="Layer_1" xmlns="http://www.w3.org/2000/svg" xmlns:xlink="http://www.w3.org/1999/xlink" x="0px" y="0px"
	 viewBox="0 0 500 500" style="enable-background:new 0 0 500 500;" xml:space="preserve">
<path d="M434.21-0.17c-3.75,74.43-11.54,151.63-19.41,225.87c0,0-2.27,21.84-2.27,21.84c-39.15-20.07-79.15-39.63-118.09-59.96
	c-28.47-14.86-68.69-35.76-96.55-50.8c0,0,31.77-23.79,31.77-23.79c8.52,37.64,21.17,89.88,29.1,127.03
	c9,42.5,18.62,84.86,27.1,127.48l8.08,40.56c-20.13-8.92-62.02-27.72-82.33-36.74c-45.52-20.2-90.64-41.25-135.65-62.59
	c0,0,20.31-14.05,20.31-14.05s-0.85,51.25-0.85,51.25c-1.12,51.34-2.89,102.57-6.36,153.9c-9.51-66.81-16.2-136.74-22.09-204.09
	c0,0-1.98-22.06-1.98-22.06s22.29,8.01,22.29,8.01c61.48,22.3,125.14,46.8,186.12,70.92c0,0-28.8,24.1-28.8,24.1
	c-10.45-42.18-19.77-84.61-29.71-126.9c-12.3-53.87-25.96-120.12-37.83-174.32c76.81,42.05,155.05,88.79,229.85,134.1
	c0,0-23.03,11.28-23.03,11.28C398.93,147.73,415.17,71.93,434.21-0.17L434.21-0.17z"/>
</svg>
