<svg aria-hidden="true" style="position: absolute; width: 0; height: 0; overflow: hidden;" version="1.1" xmlns="http://www.w3.org/2000/svg" xmlns:xlink="http://www.w3.org/1999/xlink">
<defs>
<symbol id="icon-battery" viewBox="0 0 32 32">
<path d="M14.159 24.274c-3.677 0-7.354 0.004-11.030-0.002-2.015-0.003-3.121-1.127-3.124-3.173-0.006-3.432-0.008-6.863 0.001-10.294 0.005-1.948 1.11-3.074 3.036-3.076 7.537-0.008 15.075-0.008 22.611 0 1.92 0.002 3.027 1.133 3.031 3.080 0.009 3.492 0.010 6.986-0.001 10.479-0.006 1.804-1.164 2.979-2.943 2.984-3.86 0.011-7.72 0.003-11.581 0.003zM14.208 9.932c-3.181 0-6.362 0-9.543 0-0.367 0-0.735-0.020-1.101 0.004-0.677 0.045-1.343 0.694-1.347 1.383-0.017 3.12 0.009 6.24-0.024 9.359-0.005 0.522 0.249 0.872 0.613 0.99 0.482 0.156 0.906 0.429 1.49 0.426 6.729-0.044 13.459-0.020 20.188-0.034 1.315-0.003 1.983-0.694 1.991-2.023 0.016-2.814-0.006-5.628 0.013-8.442 0.004-0.665-0.161-1.037-0.848-1.346-0.524-0.236-0.995-0.315-1.522-0.316-3.304-0.003-6.607-0.002-9.911-0.002z"></path>
<path d="M29.882 13.242c2.111 0.012 2.111 0.012 2.115 1.947 0.001 0.729 0.009 1.459-0.002 2.188-0.018 1.204-0.147 1.336-1.309 1.381-0.241 0.009-0.483 0.001-0.804 0.001 0-1.848 0-3.682 0-5.517z"></path>
<path d="M24.243 12.2c0 2.555 0 5.048 0 7.601-6.564 0-13.098 0-19.764 0-0.141-2.469-0.019-5.006-0.075-7.601 6.608 0 13.142 0 19.839 0z"></path>
</symbol>
<symbol id="icon-bell" viewBox="0 0 32 32">
<path d="M13.148 3.444c0.115-0.996 0.225-1.942 0.344-2.97 1.635-0.694 3.231-0.504 4.74-0.2 0.749 0.996 0.281 2.048 0.691 3.132 1.589 0.782 3.251 1.731 4.515 3.248 1.34 1.607 2.224 3.357 2.205 5.505-0.022 2.466 0.105 4.938-0.024 7.396-0.096 1.818 0.373 3.229 1.799 4.397 0.87 0.712 1.792 1.537 1.144 2.904-1.956 0.512-22.129 0.608-25.010 0.11-0.735-1.14-0.137-2.046 0.733-2.685 1.858-1.363 2.257-3.168 2.108-5.329-0.134-1.928 0.038-3.876-0.040-5.811-0.179-4.438 2.125-7.265 5.828-9.229 0.302-0.161 0.616-0.3 0.967-0.469z"></path>
<path d="M19.192 28.831c-0.629 2.468-1.358 3.143-3.126 3.169-1.738 0.025-2.516-0.632-3.295-3.024 2.099-0.657 4.157-0.429 6.422-0.145z"></path>
</symbol>
<symbol id="icon-pixel-paw" viewBox="0 0 32 32">
<path d="M18.938 4.992c0.706 0.017 1.012-0.253 1.042-0.918 0.032-0.707-0.238-1.041-0.876-1.084-0.8-0.054-1.126 0.236-1.126 1.001 0.001 0.697 0.276 0.984 0.96 1z"></path>
<path d="M11.974 3.921c-0.027 0.707 0.243 1.032 0.89 1.071 0.708 0.043 1.062-0.227 1.112-0.848 0.063-0.783-0.239-1.142-0.973-1.154-0.702-0.011-1.004 0.262-1.029 0.931z"></path>
<path d="M8.971 3.977c-0.005 0.704 0.264 0.993 0.945 1.014 0.81 0.025 1.087-0.256 1.056-1.071-0.026-0.669-0.327-0.942-1.028-0.931-0.687 0.012-0.967 0.296-0.973 0.988z"></path>
<path d="M20.981 6.91c-0.032 0.707 0.238 1.041 0.876 1.084 0.711 0.047 1.072-0.22 1.126-0.835 0.069-0.786-0.23-1.151-0.959-1.167-0.707-0.016-1.012 0.253-1.043 0.918z"></path>
<path d="M19.062 5.992c-0.707-0.032-1.041 0.238-1.084 0.876-0.047 0.711 0.22 1.071 0.835 1.126 0.786 0.069 1.15-0.23 1.167-0.959 0.016-0.707-0.253-1.012-0.918-1.043z"></path>
<path d="M13.016 5.992c-0.707-0.017-1.012 0.253-1.043 0.917-0.033 0.707 0.237 1.042 0.876 1.085 0.799 0.054 1.126-0.237 1.126-1-0.001-0.698-0.275-0.986-0.959-1.002z"></path>
<path d="M10.014 5.992c-0.707-0.017-1.012 0.253-1.043 0.917-0.033 0.707 0.237 1.042 0.876 1.085 0.799 0.054 1.126-0.237 1.126-1-0.001-0.698-0.276-0.986-0.959-1.002z"></path>
<path d="M28.015 10.996c0.687-0.011 0.968-0.295 0.973-0.987 0.006-0.77-0.315-1.062-1.112-1.014-0.646 0.039-0.916 0.364-0.89 1.071 0.026 0.669 0.328 0.942 1.029 0.931z"></path>
<path d="M20.981 10.024c0.011 0.687 0.295 0.968 0.987 0.973 0.77 0.006 1.062-0.315 1.014-1.112-0.039-0.646-0.364-0.916-1.071-0.89-0.668 0.026-0.941 0.328-0.931 1.029z"></path>
<path d="M17.979 9.955c-0.017 0.706 0.253 1.012 0.918 1.042 0.707 0.032 1.041-0.238 1.084-0.876 0.054-0.8-0.236-1.126-1.001-1.126-0.698 0.001-0.985 0.276-1 0.96z"></path>
<path d="M11.974 9.913c-0.032 0.707 0.238 1.041 0.876 1.084 0.711 0.047 1.071-0.22 1.126-0.835 0.069-0.786-0.23-1.15-0.959-1.167-0.707-0.016-1.012 0.253-1.043 0.918z"></path>
<path d="M9.93 10.996c0.706 0.017 1.012-0.253 1.043-0.918 0.032-0.707-0.238-1.041-0.876-1.084-0.799-0.054-1.126 0.237-1.126 1.001 0 0.698 0.276 0.985 0.959 1.001z"></path>
<path d="M2.966 9.996c0 0.698 0.275 0.985 0.959 1.001 0.796 0.019 1.080-0.276 1.043-1.084-0.030-0.665-0.336-0.934-1.043-0.918-0.684 0.017-0.96 0.303-0.959 1.001z"></path>
<path d="M27.946 13.999c0.706 0.017 1.012-0.253 1.043-0.918 0.032-0.707-0.238-1.041-0.876-1.084-0.799-0.054-1.126 0.237-1.126 1.001 0 0.698 0.275 0.985 0.959 1.001z"></path>
<path d="M3.898 13.999c0.707 0.027 1.032-0.243 1.071-0.89 0.043-0.708-0.227-1.062-0.848-1.112-0.783-0.063-1.142 0.239-1.154 0.973-0.012 0.701 0.262 1.004 0.931 1.029z"></path>
<path d="M29.988 9.913c-0.032 0.707 0.238 1.041 0.876 1.084 0.711 0.047 1.071-0.22 1.126-0.835 0.069-0.786-0.23-1.15-0.959-1.167-0.707-0.016-1.012 0.253-1.043 0.918z"></path>
<path d="M30.948 13.999c0.706 0.017 1.012-0.253 1.043-0.918 0.032-0.707-0.238-1.041-0.876-1.084-0.799-0.054-1.126 0.237-1.126 1.001 0 0.698 0.275 0.985 0.959 1.001z"></path>
<path d="M29.988 15.959c-0.017 0.707 0.253 1.012 0.917 1.043 0.707 0.033 1.042-0.237 1.085-0.876 0.054-0.799-0.237-1.126-1-1.126-0.698 0.001-0.986 0.275-1.002 0.959z"></path>
<path d="M26.986 16.029c0.011 0.687 0.295 0.968 0.987 0.973 0.77 0.006 1.062-0.315 1.014-1.112-0.039-0.646-0.364-0.916-1.071-0.89-0.669 0.026-0.941 0.328-0.931 1.029z"></path>
<path d="M19.062 15c-0.707-0.032-1.041 0.238-1.084 0.876-0.047 0.711 0.22 1.071 0.835 1.126 0.786 0.069 1.15-0.23 1.167-0.959 0.016-0.707-0.253-1.012-0.918-1.043z"></path>
<path d="M14.976 15.932c-0.027 0.707 0.243 1.032 0.89 1.071 0.708 0.043 1.062-0.227 1.112-0.848 0.063-0.783-0.239-1.142-0.973-1.154-0.701-0.012-1.004 0.262-1.029 0.931z"></path>
<path d="M11.974 15.917c-0.032 0.707 0.238 1.041 0.876 1.084 0.711 0.047 1.072-0.22 1.126-0.835 0.069-0.786-0.23-1.151-0.959-1.167-0.707-0.016-1.012 0.253-1.043 0.918z"></path>
<path d="M3.981 15c-0.704-0.005-0.993 0.264-1.014 0.945-0.025 0.81 0.256 1.087 1.071 1.056 0.669-0.026 0.942-0.327 0.931-1.028-0.012-0.688-0.296-0.968-0.988-0.973z"></path>
<path d="M22.065 2.99c-0.707-0.032-1.041 0.238-1.084 0.876-0.047 0.711 0.22 1.071 0.835 1.126 0.786 0.069 1.15-0.23 1.167-0.959 0.015-0.707-0.254-1.012-0.918-1.043z"></path>
<path d="M21.981 20.004c0.698 0 0.985-0.275 1.001-0.959 0.019-0.796-0.276-1.080-1.084-1.043-0.665 0.030-0.934 0.336-0.918 1.042 0.016 0.684 0.303 0.959 1 0.959z"></path>
<path d="M19.021 18.003c-0.707-0.017-1.012 0.253-1.043 0.917-0.033 0.707 0.238 1.041 0.876 1.084 0.799 0.054 1.126-0.237 1.126-1.001 0-0.697-0.275-0.984-0.959-1z"></path>
<path d="M14.976 18.934c-0.027 0.707 0.243 1.032 0.89 1.071 0.708 0.043 1.062-0.227 1.112-0.848 0.063-0.783-0.239-1.142-0.973-1.154-0.701-0.011-1.004 0.262-1.029 0.931z"></path>
<path d="M12.905 20.004c0.707 0.027 1.032-0.243 1.071-0.89 0.043-0.708-0.227-1.062-0.848-1.112-0.783-0.063-1.142 0.239-1.154 0.973-0.011 0.701 0.262 1.004 0.931 1.029z"></path>
<path d="M10.055 18.003c-0.707-0.032-1.041 0.238-1.084 0.876-0.047 0.711 0.22 1.071 0.835 1.126 0.786 0.069 1.15-0.23 1.167-0.959 0.015-0.707-0.253-1.012-0.918-1.043z"></path>
<path d="M23.983 21.923c-0.032 0.707 0.238 1.041 0.876 1.084 0.711 0.047 1.071-0.22 1.126-0.835 0.069-0.786-0.23-1.15-0.959-1.167-0.706-0.016-1.012 0.253-1.043 0.918z"></path>
<path d="M20.981 21.964c-0.017 0.707 0.253 1.012 0.917 1.043 0.707 0.033 1.042-0.237 1.085-0.876 0.054-0.799-0.237-1.126-1-1.126-0.698 0-0.986 0.275-1.002 0.959z"></path>
<path d="M19.021 21.005c-0.707-0.017-1.012 0.253-1.043 0.917-0.033 0.707 0.238 1.041 0.876 1.084 0.799 0.054 1.126-0.237 1.126-1.001 0-0.697-0.275-0.984-0.959-1z"></path>
<path d="M16.019 21.005c-0.707-0.017-1.012 0.253-1.043 0.917-0.033 0.707 0.237 1.042 0.876 1.085 0.799 0.054 1.126-0.237 1.126-1-0.001-0.698-0.276-0.985-0.959-1.002z"></path>
<path d="M12.933 23.007c0.706 0.017 1.012-0.253 1.042-0.918 0.032-0.707-0.238-1.041-0.876-1.084-0.8-0.054-1.126 0.236-1.126 1.001 0.001 0.697 0.276 0.984 0.96 1z"></path>
<path d="M9.972 23.007c0.698 0 0.985-0.275 1.001-0.959 0.019-0.796-0.276-1.080-1.084-1.043-0.665 0.030-0.934 0.336-0.918 1.043 0.016 0.684 0.303 0.959 1.001 0.959z"></path>
<path d="M5.969 21.992c-0.005 0.704 0.264 0.993 0.945 1.014 0.81 0.025 1.087-0.256 1.056-1.071-0.026-0.669-0.327-0.942-1.028-0.931-0.687 0.011-0.968 0.295-0.973 0.988z"></path>
<path d="M23.983 24.967c-0.017 0.706 0.253 1.012 0.918 1.043 0.707 0.032 1.041-0.238 1.084-0.876 0.054-0.799-0.237-1.126-1.001-1.126-0.698 0-0.985 0.275-1.001 0.959z"></path>
<path d="M22.065 24.008c-0.707-0.032-1.041 0.238-1.084 0.876-0.047 0.711 0.22 1.071 0.835 1.126 0.786 0.069 1.15-0.23 1.167-0.959 0.015-0.707-0.254-1.012-0.918-1.043z"></path>
<path d="M19.007 26.009c0.687-0.011 0.968-0.295 0.973-0.987 0.006-0.77-0.315-1.062-1.112-1.014-0.646 0.039-0.916 0.364-0.89 1.071 0.026 0.669 0.328 0.942 1.029 0.931z"></path>
<path d="M14.976 24.939c-0.027 0.707 0.243 1.032 0.89 1.071 0.708 0.043 1.062-0.227 1.112-0.848 0.063-0.783-0.239-1.142-0.973-1.154-0.701-0.011-1.004 0.262-1.029 0.931z"></path>
<path d="M11.974 24.967c-0.017 0.706 0.253 1.012 0.918 1.042 0.707 0.032 1.041-0.238 1.084-0.876 0.054-0.8-0.236-1.126-1.001-1.126-0.698 0.001-0.984 0.276-1 0.96z"></path>
<path d="M8.971 25.036c0.011 0.687 0.295 0.968 0.987 0.973 0.77 0.006 1.062-0.315 1.014-1.112-0.039-0.646-0.364-0.916-1.071-0.89-0.668 0.026-0.941 0.328-0.931 1.029z"></path>
<path d="M6.969 26.009c0.698 0 0.985-0.275 1.001-0.959 0.019-0.796-0.276-1.080-1.084-1.043-0.665 0.030-0.934 0.336-0.918 1.042 0.016 0.684 0.303 0.96 1 0.959z"></path>
<path d="M21.94 29.012c0.706 0.017 1.012-0.253 1.042-0.918 0.032-0.707-0.238-1.041-0.876-1.084-0.8-0.054-1.126 0.236-1.126 1.001 0.001 0.697 0.276 0.984 0.96 1z"></path>
<path d="M17.979 27.941c-0.027 0.707 0.243 1.032 0.89 1.071 0.708 0.043 1.062-0.227 1.112-0.848 0.063-0.783-0.239-1.142-0.973-1.154-0.702-0.011-1.004 0.262-1.029 0.931z"></path>
<path d="M14.976 27.969c-0.017 0.707 0.253 1.012 0.917 1.043 0.707 0.033 1.041-0.238 1.084-0.876 0.054-0.799-0.237-1.126-1.001-1.126-0.697-0.001-0.984 0.275-1 0.959z"></path>
<path d="M12.933 29.012c0.706 0.017 1.012-0.253 1.043-0.918 0.032-0.707-0.238-1.041-0.876-1.084-0.799-0.054-1.126 0.237-1.126 1.001 0 0.698 0.275 0.985 0.959 1.001z"></path>
<path d="M9.986 27.010c-0.704-0.005-0.993 0.264-1.014 0.945-0.025 0.81 0.256 1.087 1.071 1.056 0.669-0.026 0.942-0.327 0.931-1.028-0.012-0.687-0.296-0.967-0.988-0.973z"></path>
<path d="M0.003 9.921c-0.032 0.707 0.238 1.041 0.876 1.084 0.711 0.047 1.071-0.22 1.126-0.835 0.069-0.786-0.23-1.15-0.959-1.167-0.707-0.016-1.012 0.253-1.043 0.918z"></path>
<path d="M0.962 14.008c0.706 0.017 1.012-0.253 1.043-0.918 0.032-0.707-0.238-1.041-0.876-1.084-0.799-0.054-1.126 0.237-1.126 1.001 0 0.698 0.275 0.985 0.959 1.001z"></path>
<path d="M0.003 15.967c-0.017 0.707 0.253 1.012 0.917 1.043 0.707 0.033 1.042-0.237 1.085-0.876 0.054-0.799-0.237-1.126-1-1.126-0.698 0.001-0.986 0.275-1.002 0.959z"></path>
</symbol>
<symbol id="icon-volume" viewBox="0 0 32 32">
<path d="M17.958 15.998c0.002 3.598 0.027 7.197-0.013 10.795-0.012 1.119 0.394 2.551-0.938 3.13-1.482 0.645-2.247-0.756-3.133-1.584-1.207-1.128-2.39-2.288-3.515-3.498-1.88-2.023-3.694-3.901-6.92-3.478-1.692 0.221-3.023-1.013-3.256-2.738-0.232-1.714-0.262-3.516 0-5.22 0.31-2.014 1.866-2.994 3.827-2.814 2.295 0.211 3.859-0.76 5.318-2.364 1.633-1.797 3.415-3.459 5.151-5.162 0.694-0.68 1.434-1.491 2.523-1.004 1.091 0.488 0.942 1.601 0.946 2.559 0.017 3.793 0.008 7.585 0.010 11.378z"></path>
<path d="M31.993 15.985c0.109 3.457-1.092 6.468-3.194 9.137-0.865 1.098-1.968 2.155-3.441 1.099-1.496-1.072-0.803-2.307 0.035-3.526 3.486-5.073 3.504-8.327 0.061-13.299-0.841-1.214-1.548-2.446-0.124-3.555 1.446-1.126 2.572-0.074 3.442 1.019 2.117 2.658 3.32 5.67 3.222 9.126z"></path>
<path d="M24.95 15.919c0.086 1.896-0.46 3.513-1.713 4.864-0.812 0.875-1.784 1.261-2.841 0.491-0.893-0.651-1.179-1.629-0.543-2.569 1.24-1.832 1.268-3.553-0.005-5.384-0.648-0.932-0.372-1.916 0.508-2.58 1.045-0.79 2.026-0.419 2.844 0.451 1.261 1.34 1.837 2.947 1.75 4.727z"></path>
</symbol>
<symbol id="icon-wifi" viewBox="0 0 32 32">
<path d="M3.716 12.632c-0.874-0.86-1.699-1.659-2.508-2.476-0.422-0.426-0.815-0.883-1.209-1.313 6.556-8.015 22.070-9.642 30.982-0.119-1.091 1.4-2.447 2.573-3.79 3.905-7.764-6.337-15.51-6.36-23.476 0.003z"></path>
<path d="M32 22.051c-0.011 4.303-3.452 7.636-7.76 7.756-4.025 0.112-7.887-3.692-7.825-7.925 0.056-3.848 3.651-7.798 7.901-7.661 4.287 0.138 7.695 3.507 7.684 7.83zM28.613 19.957c-0.376-0.702-0.635-1.1-1.295-1.058-1.594 0.981-2.556 2.796-4.219 3.753-0.883-0.454-1.279-1.441-2.203-1.599-0.541 0.225-0.894 0.516-0.883 1.214 0.914 1.060 1.811 2.258 3.32 3.002 1.813-1.733 3.594-3.429 5.28-5.311z"></path>
<path d="M22.938 12.324c-2.38 0.463-4.415 1.453-5.965 3.261-2.919-0.25-5.487 0.471-7.652 2.492-1.557-1.171-2.705-2.571-3.983-3.818 4.373-5.41 13.916-5.565 17.601-1.935z"></path>
<path d="M14.362 23.044c-1.46-0.973-2.391-2.223-3.667-3.386 1.258-1.49 2.733-2.084 4.682-2.062-0.514 1.855-0.944 3.531-1.014 5.448z"></path>
</symbol>
</defs>
</svg>
