<?xml version="1.0" encoding="utf-8"?>
<!-- Generator: Adobe Illustrator 26.2.1, SVG Export Plug-In . SVG Version: 6.00 Build 0)  -->
<svg version="1.1" xmlns="http://www.w3.org/2000/svg" xmlns:xlink="http://www.w3.org/1999/xlink" x="0px" y="0px"
	 viewBox="0 0 800 500" style="enable-background:new 0 0 800 500;" xml:space="preserve">
<style type="text/css">
	.st0{fill:#020202;}
	.st1{fill:#FF7BAC;}
	.st2{fill:#D65778;}
	.st3{fill:#707070;}
	.st4{fill:#FEFEFE;}
</style>
<g id="tail">
	<path class="st0" d="M616.42,258.3c-5.89-4.25-15.16-7.54-16.73-13.03c-1.62-5.68,8.14-10.28,12.32-15.87
		c15.95-21.37,24.98-45.21,26.51-71.91c0.97-16.81,1.54-33.67,5.34-50.19c6.65-28.85,24.73-47.14,52.95-54.3
		c27.41-6.96,52.07-0.37,71.82,20.49c9.19,9.7,14.63,21.46,13.09,35.33c-1.24,11.2-7.95,18.82-17.85,20.99
		c-10.76,2.36-18.21-1.1-24.77-11.5c-0.42-0.66-0.83-1.32-1.23-1.99c-7.9-13.13-17.86-18.84-28.76-16.48
		c-12.41,2.7-23.94,15.26-25.42,28.42c-0.84,7.45-0.78,15.01-1.17,22.51c-2.24,43.24-16.13,82.09-43.21,116.15
		c-3.48,4.37-5.82,4.53-9.81,1.13c-4.14-3.52-8.78-6.46-13.2-9.65C616.37,258.38,616.39,258.34,616.42,258.3z"/>
</g>
<g id="button">
	<g>
		<path class="st1" d="M135.93,455.25c-25.31,0-45.89-20.59-45.89-45.89V261.84c0-25.31,20.59-45.89,45.89-45.89h528.14
			c25.31,0,45.89,20.59,45.89,45.89v147.51c0,25.31-20.59,45.89-45.89,45.89H135.93z"/>
		<path class="st2" d="M664.07,223.45c21.17,0,38.39,17.22,38.39,38.39v147.52c0,21.17-17.22,38.39-38.39,38.39H135.93
			c-21.17,0-38.39-17.22-38.39-38.39V261.84c0-21.17,17.22-38.39,38.39-38.39H664.07 M664.07,208.45H135.93
			c-29.49,0-53.39,23.91-53.39,53.39v147.52c0,29.49,23.91,53.39,53.39,53.39h528.14c29.49,0,53.39-23.91,53.39-53.39V261.84
			C717.46,232.35,693.56,208.45,664.07,208.45L664.07,208.45z"/>
	</g>
</g>
<g id="paws">
	<g>
		<path class="st0" d="M517.46,212.6c-1.08-2.61,0.75-4.63,2.23-7.15c16.89-28.75,50.2-28.29,69.25-20.26
			c12.47,5.26,21.41,21.75,18.85,33.46c-2.87,13.14-13.04,18.96-25.51,14.1c-2.79-1.09-3.8-0.66-5.72,1.3
			c-8.75,8.89-16.3,9.3-25.89,1.78c-1.52-1.2-2.25-2.61-5.1-1.41c-15.1,6.36-26.99-1.53-28.11-18.23
			C517.4,215.15,517.46,214.11,517.46,212.6z"/>
		<path class="st0" d="M237.72,180.69c14.47,0.15,29.79,5.6,40.18,21.72c5.23,8.11,5.89,19.18,0.27,27.02
			c-5.62,7.84-12.5,9.5-23.99,5.03c-2.32-0.9-3.02-0.15-4.5,0.96c-10.73,8.04-17.33,7.69-26.44-1.52c-1.57-1.58-2.31-2.53-5.01-1.48
			c-9.91,3.87-15.97,2.44-21.61-4.23c-5.88-6.96-6.22-17.05-2.11-25.53C202.65,185.88,216.83,180.67,237.72,180.69z"/>
	</g>
</g>
<g id="head">
	<g>
		<path class="st0" d="M524.18,91.98c-2.7-15.24-6.04-30.43-12.9-44.65c-5.93-12.28-8.17-12.56-20.24-5
			c-19.67,12.32-35.84,27.97-51.58,43.98c-2.86,2.91-5.37,3.99-9.69,3.13c-20.55-4.08-41.21-3.86-61.77-0.1
			c-4.3,0.78-6.82,0-9.75-2.99c-14.37-14.66-29.11-29.01-46.67-40.77c-17.88-11.97-21.32-11.24-27.88,7.99
			c-14.18,41.56-18.91,83.95-12.1,127.11c1.6,10.14,3.98,20.18,7.9,29.53c35.07,0.3,70.45-0.02,105.84-0.36
			c-1.2-2.48,0.09-4.06,2.78-5.14c3.51-1.41,7.26-1.67,11.06-1.56c0.5-0.01,1.01-0.05,1.5,0c4.33,0.44,10.55-0.51,11.13,4.51
			c0.08,0.7,0.03,1.34-0.11,1.95c35.49-0.31,70.94-0.5,106.07,0.06c2.52-5.84,4.51-11.93,6.02-18.23
			C531.75,158.32,530.05,125.14,524.18,91.98z M354.98,205.17c-7.89,2.66-15.97,4-24.52,2.3c-15.73-3.14-26.13-13.36-25.55-25.56
			c0.7-14.53,13.1-27.81,27.52-29.46c14.7-1.68,28.27,6.95,32.94,20.92c1.54,4.61,1.98,9.34,2.08,12.48
			C368.2,197.32,365.24,201.7,354.98,205.17z M454.47,208.25c-0.05,0-1.06-0.05-2.06-0.18c-16.79-2.05-24.99-7.57-25.38-17.09
			c-0.82-19.64,9.38-34.94,25.46-38.2c13.71-2.77,28.5,4.87,34.46,17.83C496.08,190.47,480.6,208.97,454.47,208.25z"/>
		<path class="st3" d="M411.83,207.35c-0.58-5.6-6.8-4.53-11.13-5.03c-0.5-0.06-1-0.01-1.5,0c-3.8-0.12-7.55,0.17-11.06,1.75
			c-2.7,1.21-3.98,2.97-2.78,5.73c8.79-0.09,17.58-0.19,26.36-0.27C411.85,208.85,411.91,208.13,411.83,207.35z"/>
		<path class="st4" d="M330.46,207.13c8.55,1.9,16.62,0.41,24.52-2.56c10.26-3.86,13.22-8.75,12.47-21.55
			c-0.1-3.5-0.54-8.78-2.08-13.92c-4.67-15.58-18.24-25.21-32.94-23.33c-14.42,1.84-26.82,16.65-27.52,32.86
			C304.33,192.23,314.74,203.64,330.46,207.13z M328.51,170.07c1.74-6.55,4.75-11.73,12.37-12.24c6.87-0.46,12.96,3.84,15.38,11.02
			c0.88,2.6,1.22,5.37,1.49,6.59c0.17,11.51-5.12,20.02-12.12,21.1c-7.26,1.11-14.93-6-17.24-16
			C327.59,177.04,327.58,173.58,328.51,170.07z"/>
		<path class="st4" d="M452.4,207.82c1,0.14,2.01,0.19,2.06,0.2c26.13,0.81,41.62-19.83,32.47-41.97
			c-5.97-14.44-20.75-22.97-34.46-19.88c-16.08,3.63-26.28,20.69-25.46,42.6C427.42,199.38,435.61,205.53,452.4,207.82z
			 M444.21,162.01c5.58-5.62,14.46-5.65,19.64-0.23c8.64,9.04,4.57,29.03-7.02,33.89c-6.03,2.53-10.8,0.38-14.36-4.83
			c-2.8-4.09-3.79-8.72-3.95-12.78C438.8,171.55,440.07,166.19,444.21,162.01z"/>
	</g>
</g>
<g id="left-pupil">
	<path class="st0" d="M357.76,175.44c0.17,11.51-5.12,20.02-12.12,21.1c-7.26,1.11-14.93-6-17.24-16
		c-0.81-3.49-0.82-6.95,0.12-10.47c1.74-6.55,4.75-11.73,12.37-12.24c6.87-0.46,12.96,3.84,15.38,11.02
		C357.15,171.45,357.49,174.22,357.76,175.44z"/>
</g>
<g id="right-pupil">
	<path class="st0" d="M438.52,178.06c0.28-6.51,1.55-11.87,5.69-16.04c5.58-5.62,14.46-5.65,19.64-0.24
		c8.64,9.04,4.57,29.03-7.02,33.89c-6.03,2.53-10.8,0.38-14.36-4.83C439.67,186.75,438.68,182.12,438.52,178.06z"/>
</g>
</svg>
