<?xml version="1.0" encoding="utf-8"?>
<!-- Generator: Adobe Illustrator 26.2.1, SVG Export Plug-In . SVG Version: 6.00 Build 0)  -->
<svg version="1.1" id="Layer_1" xmlns="http://www.w3.org/2000/svg" xmlns:xlink="http://www.w3.org/1999/xlink" x="0px" y="0px"
	 viewBox="0 0 500 500" style="enable-background:new 0 0 500 500;" xml:space="preserve">
<style type="text/css">
	.st0{fill:#E7B35D;}
	.st1{fill:#D59C3F;}
</style>
<g id="_x36_xOk5m_00000065053157712236753240000007324771635056404354_">
	<g>
		<g>
			<path class="st0" d="M9.49,303.69c0.16-2.32-0.27-4.35,0.49-5.73c3.6-6.53,0.89-10.5-4.22-14.93
				c-6.92-6.01-7.94-20.23-1.22-27.18c7.01-7.27,9.97-15.87,13.07-24.89c17.5-50.87,54.06-81.93,103.76-99.22
				c17.41-6.06,35.39-9.41,53.66-11.46c10.26-1.15,18.59-6.02,25.37-13.75c9.65-10.99,21.17-19.17,35.02-24.28
				c9.54-3.52,18.28-2.25,27.07,1.93c22.23,10.58,41.33,25.82,60.6,40.76c17.28,13.4,30.2,30.83,43.17,48.16
				c3.01,4.02,5.8,8.21,8.64,12.35c6.65,9.69,16.57,11.68,25.9,4.6c15.6-11.85,32.86-19.79,52.17-23.07
				c13.4-2.28,26.88-2.59,40.36-0.71c4.52,0.63,7.54,5.91,6.46,10.81c-0.57,2.56-1.72,4.84-3.32,6.97
				c-19.4,25.87-31.69,54.76-35.58,86.89c-3.87,31.95,0.36,62.53,17.87,90.35c1.47,2.33,3.28,4.45,4.95,6.66
				c2.94,3.91,3.85,7.98,1.52,12.61c-2.26,4.5-6.14,5.19-10.51,5.02c-30.7-1.19-60.15-6.69-86.35-24.19
				c-9.51-6.35-14.02-5.38-21.66,3.03c-21.69,23.88-47.72,41.48-77.6,53.44c-10.66,4.27-20.14,1.4-26.85-7.79
				c-5.51-7.55-11.21-14.86-18.39-21.02c-6.74-5.79-14.18-7.72-22.69-6.1c-18.62,3.55-37.43,5.33-56.33,4.73
				c-38.9-1.22-75.83-9.54-108.46-32.11c-9.16-6.34-17.58-13.52-23.95-22.8c-2.73-3.97-6.24-6.81-10.48-9.01
				C13.62,319.45,9.82,312.32,9.49,303.69z M200.21,193.79c0.44-19.15-16.11-29.95-30.38-30.78c-2.6-0.15-4.58,1.1-4.79,3.71
				c-0.26,3.27,2.03,4.08,4.94,4.71c15.96,3.46,26.88,13.66,18.89,31.1c-3.83,8.37-3.37,11,3.35,17.41
				c3.79,3.62,7.17,7.27,8.53,12.58c1.82,7.11,0.99,9.4-5.33,13.12c-5.38,3.17-10.14,7.18-14.68,11.44c-2.13,2-2.96,4.56-0.57,6.81
				c2.3,2.17,4.73,1.41,6.86-0.69c6.32-6.23,13.83-10.52,21.63-14.75c11.74-6.37,24.33-9.55,37.06-12.6
				c5.79-1.39,8.97,0.21,10.26,5.6c1.43,5.99,3.23,12.36-0.38,18.18c-4.54,7.32-2.51,13.26,2.21,19.68
				c6.65,9.03,4.91,20.81-3.34,28.5c-4.08,3.8-5.22,8.37-3.58,13.7c0.86,2.81,1.76,5.62,2.35,8.49c0.93,4.52-1.87,9.69-7.61,9.15
				c-5.31-0.5-10.67-0.53-16.01-1.16c-17.06-2.01-32.42-8.23-46.05-18.52c-3.09-2.33-6.12-3.77-8.54-0.66
				c-2.53,3.26,0.56,5.65,3.16,7.53c7.13,5.17,14.5,9.99,22.69,13.29c3.19,1.28,2.82,2.97,1.65,5.21c-2.38,4.56-5.62,8.2-10.55,10.2
				c-3.14,1.27-4.22,3.83-2.44,6.71c1.75,2.85,4.46,2.92,7.21,1.08c6.14-4.13,11.14-9.41,14.51-15.95c1.23-2.39,2.56-2.98,4.8-2.64
				c8.17,1.25,16.35,2.45,24.49,3.84c14.07,2.4,23.92-7.21,20.37-20.35c-2-7.4-1.64-13.58,4.7-19.69
				c6.42-6.19,5.81-22.66,1.27-30.33c-2.45-4.14-7.39-8.13-3.84-13.89c3.33-5.4,3.45-11.33,2.68-17.08
				c-1.1-8.23-3-16.29-12.35-19.77c-7.07-2.63-7.91-6.76-3.43-13.08c4.12-5.81,5.98-12.09,4.84-19.41
				c-1.74-11.14-9.5-16.81-18.39-21.6c-2.63-1.41-6.11-2.4-7.65,1c-1.36,3.01-0.09,5.3,3.66,7.11c13.7,6.61,15.8,11.95,12.74,24.28
				c-0.79,3.16-3.31,5.2-5.01,7.73c-2.36,3.52-3.22,6.89-1.16,10.67c1.71,3.14,0.75,4.85-2.57,5.58
				c-7.59,1.67-14.96,4.02-22.05,7.25c-1.98,0.9-4.19,0.53-4.45-1.92c-1.01-9.37-6.23-16.2-12.88-22.22
				c-2.1-1.9-1.91-3.68-0.76-5.98C198.56,201.72,199.92,196.74,200.21,193.79z M302.32,198.35c0-4.09-3.2-13.33-5.78-16.68
				c-2.78-3.61-6.21-6.55-10.15-8.72c-2.09-1.14-5-1.58-6.47,1.04c-1.35,2.4-0.54,4.62,2.14,6.03c1.51,0.8,2.86,1.95,4.16,3.07
				c8.78,7.54,11.13,19.72,1.88,27.81c-4.49,3.93-4.87,8.89-0.29,14.01c8.58,9.6,11.61,19.68,4.33,31.58
				c-3.15,5.15-1.6,9.48,3.08,13.59c2.14,1.87,4.09,3.78,5.23,6.83c4.16,11.18,2.01,20.07-7.55,27.51
				c-5.29,4.12-5.28,10.53-1.41,16.07c2.01,2.87,4.44,6.12,3,9.97c-1.83,4.91-4.62,9.26-9.13,12.3c-1.71,1.15-3.26,2.55-4.78,3.95
				c-1.34,1.24-1.5,2.76-0.18,4.12c1.26,1.3,2.25,3.18,4.72,1.95c13.53-6.71,24.44-20.79,13.94-37.07
				c-1.84-2.85-1.58-4.25,0.68-5.89c14.56-10.52,14.58-33.35,2.05-45.81c-1.41-1.4-1.7-2.73-0.84-4.64
				c5.98-13.32,4.63-26.03-4.33-37.45c-2.8-3.57-1.87-5.67,0.44-8.3C300.91,209.25,302.66,204.17,302.32,198.35z M91.07,175.5
				c-20.8-0.08-31.33,14.17-32.23,31.21c-0.86,16.27,14.71,31.99,30.96,31.04c18.64-1.09,30.66-12.48,31.39-32.29
				C121.72,191.35,106.21,174.15,91.07,175.5z M164.72,278.98c1.55-11.73-1.58-23.81-4.48-35.56c-3.25-13.12-7.87-26.05-14.93-37.88
				c-1.62-2.72-2.92-4.94-6.25-3.47c-3.74,1.65-2.98,5.21-1.59,7.56c5.04,8.51,8.34,17.69,11.63,26.92
				c7.22,20.22,9.57,41.06,5.96,62.15c-3.36,19.65-10.09,38.23-22.24,54.43c-1.64,2.19-3.06,4.54-0.4,6.75
				c2.62,2.18,4.8,0.52,6.74-1.46c4.77-4.89,8.4-10.77,11.12-16.79C159.13,322.01,165.96,301.75,164.72,278.98z M216.98,125.39
				c-2.9,0.29-5.88-0.58-6.21,3.05c-0.28,3.09,0.88,4.65,4.41,5.64c8.09,2.28,16.27,4.28,24.32,6.79
				c15.97,4.98,31.49,11.1,46.65,17.94c15.97,7.21,31.62,15.23,46.22,25.13c4.27,2.89,8.59,5.73,12.8,8.72
				c2.46,1.75,5.45,2.66,7.44-0.06c2.03-2.79,0.2-5.04-2.46-6.76c-8.23-5.33-16.2-11.02-24.7-15.97
				c-11.31-6.59-22.74-12.85-34.61-18.39c-19.87-9.27-40.54-16.38-61.42-22.93C225.17,127.22,220.77,126.34,216.98,125.39z
				 M348.16,229.12c0-2.62,0.07-4.53-0.01-6.43c-0.36-8.23-7.93-18.12-15.13-19.79c-2.07-0.48-4.5-0.96-5.35,1.58
				c-0.86,2.56-0.42,4.95,2.54,6.5c10.68,5.62,13.43,20.24,5.82,30.16c-4.93,6.41-4.81,9.25,0.75,15.1c2.5,2.63,4.91,5.2,6.24,8.75
				c2.95,7.84-1.72,13.2-5.73,18.81c-3.61,5.05-3.4,7.59,1.2,11.89c5.13,4.8,6.89,13.19,3.23,18.84c-2.32,3.57-6.26,5.77-9.82,8.19
				c-1.88,1.28-4.78,2.38-3,5.56c1.68,2.99,4.85,3.29,7.29,1.88c13.42-7.72,22.89-23.26,10.59-38.25c-1.98-2.42-1.91-3.99-0.2-6.29
				c2.05-2.75,3.69-5.8,4.7-9.11c3.17-10.45-0.2-18.96-7.94-26.09c-1.23-1.14-3.12-1.77-1.1-3.95
				C346.95,241.39,348.91,235.32,348.16,229.12z M397.24,239.06c0.8-3.38-0.68-8.04-2.5-12.18c-3.15-7.15-8.96-12.21-15.99-15.6
				c-2.4-1.16-4.9-0.43-6.19,2.17c-1.33,2.68,0.39,4.11,2.55,5.33c1.5,0.85,2.83,1.98,4.27,2.93c11.26,7.44,12.39,22.69,4.41,33.13
				c-5.36,7.01-5.71,9.49-1.01,17.03c2.44,3.92,4.78,7.87,5.02,12.79c0.43,8.75-2.21,15.94-9.55,21.06c-2.54,1.77-2.6,4-1.16,6.29
				c1.25,1.98,3.4,2.83,5.36,1.27c5.53-4.42,10.89-9.11,12.61-16.45c2.37-10.06,2.25-19.76-4.43-28.47
				c-1.74-2.27-2.81-4.61-0.4-7.45C395.2,255.08,397.04,248.07,397.24,239.06z M260.93,380.6c6.34-1.59,12.68-3.13,18.98-4.85
				c12.83-3.5,25.33-7.7,37.62-12.74c7.58-3.11,14.03-7.96,20.96-12.08c2.64-1.57,4.52-4.35,1.87-7.36
				c-2.3-2.62-4.96-1.83-7.16,0.51c-2.78,2.95-6.48,4.25-9.95,6.13c-16.52,8.93-34.15,14.65-52.25,19.18
				c-3.85,0.96-7.71,1.91-11.46,3.16c-2.12,0.71-3.49,2.45-2.82,4.88C257.26,379.42,258.73,380.58,260.93,380.6z M134.65,300.29
				c0-1.9,0.09-3.81-0.02-5.71c-0.18-3.19-0.43-6.68-4.78-6.55c-4.28,0.13-4.58,3.62-4.49,6.81c0.11,3.77,1.27,7.63,0.75,11.27
				c-2.08,14.52-7.25,27.51-19.98,36.28c-1.88,1.3-3.41,3.3-2.08,5.74c1.4,2.57,3.65,2.59,6.28,1.58c1.68-0.64,2.99-1.55,4.33-2.67
				C129.23,334.83,134.41,318.62,134.65,300.29z M181.57,292.1c1.66,0.22,3.07-0.48,4.47-1.18c8.19-4.08,16.53-7.65,25.52-9.8
				c7.01-1.68,13.94-3.66,21.1-4.65c2.56-0.35,4.21-1.89,3.93-4.56c-0.24-2.35-1.91-3.6-4.3-3.7c-1.38-0.06-2.79-0.13-4.16,0.06
				c-12.88,1.77-24.97,6.4-37.17,10.56c-4.02,1.37-7.68,3.86-11.38,6.04c-1.82,1.07-2.25,2.76-1.46,4.94
				C178.79,291.61,179.79,292.3,181.57,292.1z M74.01,291.08c2.78,0.37,4.85-0.37,5.37-3.44c0.51-3-1.7-3.92-3.85-4.66
				c-1.78-0.61-3.67-0.88-5.52-1.28c-8.89-1.91-17.9-0.87-26.86-0.99c-6.62-0.09-12.91,1.96-19.15,3.86
				c-2.83,0.86-5.77,2.48-4.37,6.32c1.33,3.64,4.96,2.82,7.15,1.97c9.02-3.49,18.35-3.87,27.79-3.88
				C61.14,288.97,67.54,290.43,74.01,291.08z M35.11,246.27c-2.55,0.19-4.62-0.17-6.67,0.55c-2.5,0.88-5.35,1.58-5.04,4.93
				c0.34,3.6,3.16,3.91,6.17,3.96c4.81,0.07,9.58-0.28,14.42,0.97c7.5,1.95,13.86,5.81,20.04,10.17c2.6,1.83,5.68,4.12,8.3,1.19
				c2.74-3.07,0.03-5.8-2.43-7.83C59.66,251.76,47.86,247.19,35.11,246.27z M448.07,195.31c-0.03,0-1.45,0.01-2.76,0.4
				c-11.83,3.54-22.62,9.34-33.21,15.55c-2.44,1.43-3.42,3.85-2.07,6.22c1.62,2.85,4.52,2.16,6.88,0.94c5.05-2.6,9.79-5.91,15-8.1
				c5.81-2.44,11.14-6.54,17.74-6.64c3.79-0.06,5.18-2.49,5.22-5.15C454.92,195.5,451.99,195.18,448.07,195.31z M227.62,315.04
				c0.87,0,1.74-0.09,2.6,0.02c3.3,0.4,6.15-0.26,6.22-4.17c0.07-3.84-3.19-4.02-5.95-4.17c-10.55-0.56-20.89-2.33-30.98-5.38
				c-2.97-0.9-5.3-0.93-6.29,2.22c-1.01,3.24,0.88,5.34,3.9,6.19C207.1,312.59,217.28,314.29,227.62,315.04z M438.91,361.84
				c3.35,0.18,5.51-0.76,5.95-3.67c0.36-2.41-1.12-4.14-3.4-4.47c-11.13-1.6-20.96-6.7-30.89-11.41c-2.89-1.37-5.01-1.64-6.62,1.09
				c-1.59,2.69,0.07,4.6,2.38,5.94c6.58,3.83,13.49,6.92,20.65,9.52C431.06,360.33,435.27,361.14,438.91,361.84z M43.26,325.41
				c1.92-0.51,4.27-1.05,6.57-1.75c9.28-2.84,18.06-6.59,24.92-13.8c2.1-2.21,2.42-4.63,0.33-6.9c-2.37-2.58-4.59-1.42-6.62,0.71
				c-2.5,2.63-5.24,4.85-8.48,6.67c-5.93,3.33-12.22,5.35-18.82,6.58c-2.85,0.53-3.72,2.33-3.22,4.89
				C38.45,324.4,40.25,325.5,43.26,325.41z M437.03,304.61c2.62,0.24,5.24-0.39,5.71-3.58c0.48-3.26-1.9-4.21-4.73-4.92
				c-7.67-1.94-15.26-4.2-22.55-7.32c-2.97-1.27-5.39-0.49-6.53,2.09c-1.3,2.94,0.01,5.39,3.26,6.44c5.53,1.77,11.05,3.6,16.62,5.24
				C431.44,303.34,433.94,304.7,437.03,304.61z M434.74,231.71c-4.71-0.74-10.47,0.84-16.31,1.07c-3.14,0.12-4.73,1.83-4.65,4.98
				c0.09,3.19,2.35,3.33,4.75,3.34c8.97,0.05,17.86-1.72,26.85-1.09c3.14,0.22,4.5-2.04,4.55-4.54c0.05-2.64-2.09-3.75-4.65-3.76
				C442.17,231.7,439.05,231.71,434.74,231.71z M259.65,99.98c-0.19-3.7-2.65-4.14-5.46-3.38c-9.42,2.53-17.13,7.85-23.78,14.87
				c-1.89,1.99-2.99,3.95-0.81,6.3c2.12,2.28,4.1,1.59,6.32-0.22c6.52-5.29,12.72-11.09,21.19-13.37
				C258.84,103.71,259.74,102,259.65,99.98z M434.59,333.97c2.35-0.6,5.67-0.44,5.92-3.71c0.24-3.08-1.81-4.64-5.28-4.93
				c-5.69-0.48-10.87-2.99-16.07-5.28c-2.77-1.21-5.21-3.41-8.61-2.99c-1.81,0.23-3.52,0.32-3.96,2.51c-0.4,2.01-0.11,4.03,1.8,5.01
				C416.66,328.8,425.24,332.21,434.59,333.97z M436.45,274.41c1.9,0,3.81-0.03,5.71,0.01c2.74,0.05,3.68-1.78,3.75-3.99
				c0.07-2.19-0.7-4.35-3.42-4.26c-8.65,0.27-17.16-0.89-25.7-2.06c-2.2-0.3-4.6,0.14-5.09,3.15c-0.49,2.99,0.93,4.54,3.74,5.13
				C422.37,273.81,429.42,273.95,436.45,274.41z M281.19,109.68c-8.5,1.86-16.08,7.28-22.92,13.86c-1.56,1.5-0.82,3.62,0.84,5
				c1.97,1.64,4.46,1.92,6.08,0.06c5.12-5.87,12.12-8.37,18.99-11.03c3.03-1.17,2.59-3.23,2.46-5.39
				C286.46,109.22,284.08,110.09,281.19,109.68z M310.66,126.82c0.15-3.01-2.75-5.15-5.9-3.96c-5.98,2.27-11.19,5.86-16.34,9.56
				c-2.85,2.04-3.86,4.72-1.59,7.49c2.2,2.7,4.7,1.01,6.73-0.7c3.97-3.35,8.06-6.33,13.19-7.82
				C308.53,130.88,310.67,129.75,310.66,126.82z M291.69,399.05c-0.93-5.26-1.25-10.35-4.19-14.6c-1.35-1.95-3.24-3.14-5.76-2.3
				c-2.93,0.98-2.84,3.59-2.08,5.59c1.87,4.88,3.04,9.78,3.04,15.05c0,2.56,1.98,3.87,4.6,3.88c2.69,0.01,3.52-1.55,3.63-3.99
				C291.01,401.33,291.49,400,291.69,399.05z M315.16,152.63c4.35-2.02,9.95-4.46,15.38-7.25c1.48-0.76,1.17-2.83,0.72-4.31
				c-0.57-1.86-2.34-2.56-4.03-2.83c-3.57-0.56-15.09,5.71-16.82,8.97C308.72,150.4,310.01,152.51,315.16,152.63z M314.74,388.9
				c0.71-3.41-0.59-6.73-1.2-10.06c-0.37-2.01-1.51-4.58-4.32-4.3c-2.89,0.29-3.96,2.48-3.77,5.22c0.32,4.61,0.62,9.22,1.16,13.8
				c0.27,2.29,1.84,3.73,4.26,3.63c2.16-0.09,3.49-1.5,3.82-3.55C314.93,392.12,314.74,390.55,314.74,388.9z M336.54,166.12
				c2.92,0.49,5.27-1.9,8.22-2.29c2.24-0.3,3.69-2.12,3.23-4.55c-0.48-2.58-2.38-3.91-4.94-3.48c-2.88,0.49-5.73,1.26-8.5,2.2
				c-2.45,0.83-3.4,2.84-3.01,5.38C332,166.25,334.21,166.14,336.54,166.12z M336.66,373.68c0.39-2.16-0.72-4.43-1.34-6.72
				c-0.67-2.46-2.91-3.6-5.34-2.79c-2.14,0.71-3.87,2.08-2.89,5.02c0.64,1.93,0.83,4.02,1.03,6.06c0.27,2.78,1.23,4.73,4.46,4.3
				C335.81,379.14,336.79,376.97,336.66,373.68z"/>
			<path class="st1" d="M200.21,193.79c-0.29,2.96-1.65,7.94-3.98,12.6c-1.15,2.3-1.34,4.08,0.76,5.98
				c6.65,6.01,11.87,12.85,12.88,22.22c0.26,2.45,2.47,2.83,4.45,1.92c7.09-3.23,14.46-5.58,22.05-7.25
				c3.31-0.73,4.28-2.45,2.57-5.58c-2.06-3.77-1.2-7.15,1.16-10.67c1.7-2.54,4.23-4.57,5.01-7.73c3.07-12.32,0.96-17.67-12.74-24.28
				c-3.74-1.81-5.02-4.1-3.66-7.11c1.54-3.41,5.02-2.42,7.65-1c8.89,4.79,16.66,10.47,18.39,21.6c1.14,7.33-0.72,13.6-4.84,19.41
				c-4.47,6.32-3.63,10.45,3.43,13.08c9.35,3.48,11.25,11.54,12.35,19.77c0.77,5.76,0.65,11.68-2.68,17.08
				c-3.55,5.76,1.39,9.75,3.84,13.89c4.54,7.67,5.14,24.14-1.27,30.33c-6.34,6.11-6.69,12.28-4.7,19.69
				c3.54,13.14-6.3,22.76-20.37,20.35c-8.14-1.39-16.32-2.59-24.49-3.84c-2.24-0.34-3.57,0.25-4.8,2.64
				c-3.37,6.54-8.37,11.82-14.51,15.95c-2.74,1.85-5.45,1.78-7.21-1.08c-1.77-2.88-0.69-5.44,2.44-6.71
				c4.93-1.99,8.17-5.63,10.55-10.2c1.17-2.25,1.54-3.93-1.65-5.21c-8.19-3.29-15.56-8.12-22.69-13.29
				c-2.6-1.88-5.69-4.28-3.16-7.53c2.42-3.11,5.45-1.67,8.54,0.66c13.64,10.29,29,16.51,46.05,18.52c5.34,0.63,10.7,0.65,16.01,1.16
				c5.74,0.54,8.55-4.63,7.61-9.15c-0.59-2.87-1.49-5.68-2.35-8.49c-1.64-5.33-0.5-9.9,3.58-13.7c8.26-7.69,9.99-19.47,3.34-28.5
				c-4.73-6.42-6.76-12.36-2.21-19.68c3.61-5.82,1.81-12.19,0.38-18.18c-1.29-5.4-4.47-6.99-10.26-5.6
				c-12.72,3.05-25.32,6.23-37.06,12.6c-7.8,4.23-15.31,8.53-21.63,14.75c-2.14,2.1-4.57,2.86-6.86,0.69
				c-2.38-2.25-1.55-4.82,0.57-6.81c4.54-4.26,9.3-8.27,14.68-11.44c6.31-3.72,7.15-6.01,5.33-13.12
				c-1.36-5.31-4.74-8.96-8.53-12.58c-6.72-6.41-7.18-9.04-3.35-17.41c7.99-17.44-2.93-27.64-18.89-31.1
				c-2.91-0.63-5.2-1.44-4.94-4.71c0.21-2.61,2.19-3.87,4.79-3.71C184.11,163.84,200.65,174.64,200.21,193.79z"/>
			<path class="st1" d="M302.32,198.35c0.34,5.81-1.41,10.9-5.26,15.29c-2.31,2.63-3.24,4.73-0.44,8.3
				c8.96,11.42,10.31,24.13,4.33,37.45c-0.85,1.9-0.56,3.24,0.84,4.64c12.53,12.47,12.51,35.29-2.05,45.81
				c-2.26,1.64-2.52,3.03-0.68,5.89c10.5,16.27-0.41,30.35-13.94,37.07c-2.48,1.23-3.46-0.66-4.72-1.95
				c-1.32-1.36-1.17-2.88,0.18-4.12c1.52-1.4,3.07-2.8,4.78-3.95c4.51-3.04,7.3-7.39,9.13-12.3c1.44-3.85-0.99-7.1-3-9.97
				c-3.87-5.54-3.88-11.95,1.41-16.07c9.56-7.43,11.71-16.33,7.55-27.51c-1.14-3.05-3.09-4.96-5.23-6.83
				c-4.68-4.11-6.23-8.44-3.08-13.59c7.28-11.9,4.25-21.98-4.33-31.58c-4.58-5.12-4.2-10.07,0.29-14.01
				c9.25-8.1,6.89-20.27-1.88-27.81c-1.31-1.12-2.65-2.27-4.16-3.07c-2.68-1.41-3.5-3.63-2.14-6.03c1.47-2.62,4.39-2.19,6.47-1.04
				c3.94,2.16,7.37,5.11,10.15,8.72C299.12,185.02,302.32,194.26,302.32,198.35z"/>
			<path class="st1" d="M91.07,175.5c15.14-1.35,30.64,15.86,30.12,29.96c-0.73,19.81-12.76,31.21-31.39,32.29
				c-16.25,0.95-31.82-14.77-30.96-31.04C59.75,189.67,70.27,175.42,91.07,175.5z M89.64,228.62c14.53,1.33,23.04-12.51,23.08-22.11
				c0.05-11.65-10.98-22.72-21.98-22.69c-15.35,0.05-23.26,11.61-23.53,23.18C66.98,217.21,76.38,229.8,89.64,228.62z"/>
			<path class="st1" d="M164.72,278.98c1.24,22.77-5.59,43.03-14.45,62.64c-2.72,6.02-6.34,11.9-11.12,16.79
				c-1.94,1.99-4.12,3.65-6.74,1.46c-2.66-2.21-1.24-4.57,0.4-6.75c12.16-16.2,18.88-34.78,22.24-54.43
				c3.61-21.09,1.26-41.93-5.96-62.15c-3.29-9.23-6.6-18.41-11.63-26.92c-1.39-2.35-2.15-5.92,1.59-7.56
				c3.33-1.47,4.63,0.76,6.25,3.47c7.06,11.84,11.68,24.76,14.93,37.88C163.14,255.18,166.26,267.25,164.72,278.98z"/>
			<path class="st1" d="M216.98,125.39c3.79,0.95,8.2,1.82,12.45,3.16c20.88,6.55,41.55,13.66,61.42,22.93
				c11.86,5.53,23.3,11.8,34.61,18.39c8.5,4.96,16.47,10.64,24.7,15.97c2.66,1.72,4.49,3.98,2.46,6.76
				c-1.98,2.72-4.98,1.8-7.44,0.06c-4.21-2.99-8.53-5.83-12.8-8.72c-14.6-9.9-30.25-17.93-46.22-25.13
				c-15.16-6.84-30.68-12.96-46.65-17.94c-8.05-2.51-16.23-4.51-24.32-6.79c-3.53-1-4.69-2.55-4.41-5.64
				C211.1,124.82,214.08,125.68,216.98,125.39z"/>
			<path class="st1" d="M348.16,229.12c0.75,6.2-1.21,12.28-5.92,17.35c-2.03,2.18-0.14,2.81,1.1,3.95
				c7.74,7.13,11.12,15.64,7.94,26.09c-1,3.31-2.65,6.36-4.7,9.11c-1.71,2.3-1.79,3.87,0.2,6.29c12.3,14.99,2.83,30.53-10.59,38.25
				c-2.44,1.4-5.6,1.11-7.29-1.88c-1.79-3.18,1.12-4.28,3-5.56c3.55-2.42,7.5-4.62,9.82-8.19c3.66-5.65,1.9-14.04-3.23-18.84
				c-4.6-4.3-4.81-6.85-1.2-11.89c4.01-5.6,8.68-10.96,5.73-18.81c-1.34-3.55-3.74-6.12-6.24-8.75c-5.56-5.85-5.68-8.68-0.75-15.1
				c7.62-9.92,4.87-24.54-5.82-30.16c-2.96-1.56-3.4-3.94-2.54-6.5c0.85-2.55,3.28-2.06,5.35-1.58
				c7.21,1.67,14.77,11.56,15.13,19.79C348.23,224.58,348.16,226.49,348.16,229.12z"/>
			<path class="st1" d="M397.24,239.06c-0.2,9.01-2.04,16.02-7.01,21.84c-2.42,2.84-1.34,5.18,0.4,7.45
				c6.68,8.71,6.81,18.4,4.43,28.47c-1.73,7.33-7.08,12.02-12.61,16.45c-1.96,1.57-4.11,0.72-5.36-1.27
				c-1.44-2.29-1.38-4.53,1.16-6.29c7.35-5.11,9.98-12.31,9.55-21.06c-0.24-4.93-2.57-8.87-5.02-12.79
				c-4.69-7.54-4.35-10.02,1.01-17.03c7.98-10.44,6.84-25.69-4.41-33.13c-1.44-0.95-2.77-2.09-4.27-2.93
				c-2.16-1.22-3.88-2.65-2.55-5.33c1.29-2.59,3.79-3.33,6.19-2.17c7.03,3.39,12.84,8.45,15.99,15.6
				C396.56,231.03,398.04,235.68,397.24,239.06z"/>
			<path class="st1" d="M260.93,380.6c-2.2-0.02-3.67-1.17-4.22-3.17c-0.67-2.43,0.7-4.17,2.82-4.88c3.76-1.25,7.62-2.2,11.46-3.16
				c18.1-4.52,35.73-10.25,52.25-19.18c3.47-1.87,7.17-3.17,9.95-6.13c2.21-2.34,4.86-3.13,7.16-0.51c2.65,3.02,0.77,5.79-1.87,7.36
				c-6.92,4.12-13.38,8.96-20.96,12.08c-12.29,5.04-24.79,9.25-37.62,12.74C273.6,377.47,267.26,379,260.93,380.6z"/>
			<path class="st1" d="M134.65,300.29c-0.24,18.33-5.43,34.54-19.99,46.76c-1.34,1.12-2.65,2.03-4.33,2.67
				c-2.63,1.01-4.88,0.99-6.28-1.58c-1.33-2.44,0.2-4.45,2.08-5.74c12.73-8.78,17.89-21.76,19.98-36.28
				c0.52-3.64-0.65-7.5-0.75-11.27c-0.09-3.19,0.21-6.68,4.49-6.81c4.35-0.14,4.61,3.35,4.78,6.55
				C134.74,296.48,134.65,298.39,134.65,300.29z"/>
			<path class="st1" d="M181.57,292.1c-1.78,0.2-2.78-0.48-3.44-2.3c-0.79-2.18-0.36-3.87,1.46-4.94c3.71-2.18,7.36-4.66,11.38-6.04
				c12.19-4.16,24.29-8.79,37.17-10.56c1.36-0.19,2.77-0.11,4.16-0.06c2.38,0.1,4.05,1.35,4.3,3.7c0.28,2.67-1.37,4.2-3.93,4.56
				c-7.16,0.99-14.09,2.98-21.1,4.65c-8.99,2.15-17.33,5.72-25.52,9.8C184.64,291.61,183.23,292.31,181.57,292.1z"/>
			<path class="st1" d="M74.01,291.08c-6.47-0.65-12.87-2.11-19.43-2.1c-9.45,0.02-18.77,0.39-27.79,3.88
				c-2.19,0.85-5.81,1.68-7.15-1.97c-1.41-3.84,1.54-5.46,4.37-6.32c6.24-1.9,12.53-3.95,19.15-3.86
				c8.96,0.12,17.97-0.92,26.86,0.99c1.85,0.4,3.74,0.67,5.52,1.28c2.15,0.74,4.36,1.66,3.85,4.66
				C78.85,290.71,76.79,291.45,74.01,291.08z"/>
			<path class="st1" d="M35.11,246.27c12.75,0.92,24.55,5.49,34.8,13.93c2.47,2.03,5.17,4.77,2.43,7.83
				c-2.62,2.93-5.7,0.65-8.3-1.19c-6.18-4.36-12.54-8.22-20.04-10.17c-4.84-1.26-9.61-0.9-14.42-0.97
				c-3.01-0.05-5.84-0.36-6.17-3.96c-0.31-3.35,2.54-4.05,5.04-4.93C30.49,246.1,32.56,246.45,35.11,246.27z"/>
			<path class="st1" d="M448.07,195.31c3.92-0.14,6.85,0.18,6.81,3.23c-0.04,2.66-1.43,5.09-5.22,5.15
				c-6.59,0.1-11.92,4.2-17.74,6.64c-5.21,2.19-9.95,5.5-15,8.1c-2.36,1.22-5.27,1.9-6.88-0.94c-1.35-2.37-0.37-4.79,2.07-6.22
				c10.58-6.21,21.37-12.01,33.21-15.55C446.62,195.32,448.04,195.32,448.07,195.31z"/>
			<path class="st1" d="M227.62,315.04c-10.34-0.75-20.52-2.46-30.49-5.28c-3.02-0.85-4.91-2.95-3.9-6.19
				c0.98-3.15,3.31-3.12,6.29-2.22c10.09,3.05,20.43,4.82,30.98,5.38c2.76,0.15,6.03,0.32,5.95,4.17c-0.07,3.9-2.92,4.56-6.22,4.17
				C229.36,314.96,228.48,315.04,227.62,315.04z"/>
			<path class="st1" d="M438.91,361.84c-3.64-0.7-7.85-1.51-11.93-2.99c-7.16-2.59-14.07-5.68-20.65-9.52
				c-2.31-1.35-3.97-3.25-2.38-5.94c1.61-2.74,3.73-2.46,6.62-1.09c9.94,4.71,19.77,9.81,30.89,11.41c2.28,0.33,3.77,2.05,3.4,4.47
				C444.42,361.08,442.26,362.03,438.91,361.84z"/>
			<path class="st1" d="M43.26,325.41c-3.01,0.09-4.81-1.01-5.32-3.6c-0.5-2.56,0.37-4.36,3.22-4.89c6.6-1.23,12.89-3.25,18.82-6.58
				c3.24-1.82,5.98-4.03,8.48-6.67c2.03-2.14,4.24-3.29,6.62-0.71c2.09,2.27,1.77,4.7-0.33,6.9c-6.86,7.21-15.64,10.97-24.92,13.8
				C47.53,324.36,45.18,324.9,43.26,325.41z"/>
			<path class="st1" d="M437.03,304.61c-3.09,0.09-5.59-1.27-8.21-2.04c-5.57-1.64-11.09-3.47-16.62-5.24
				c-3.25-1.04-4.56-3.5-3.26-6.44c1.14-2.58,3.56-3.37,6.53-2.09c7.28,3.12,14.88,5.37,22.55,7.32c2.82,0.71,5.21,1.66,4.73,4.92
				C442.27,304.22,439.65,304.85,437.03,304.61z"/>
			<path class="st1" d="M434.74,231.71c4.31,0,7.42-0.01,10.54,0c2.56,0.01,4.7,1.12,4.65,3.76c-0.05,2.5-1.4,4.76-4.55,4.54
				c-8.99-0.63-17.89,1.14-26.85,1.09c-2.4-0.01-4.66-0.15-4.75-3.34c-0.08-3.15,1.5-4.86,4.65-4.98
				C424.27,232.56,430.04,230.97,434.74,231.71z"/>
			<path class="st1" d="M259.65,99.98c0.09,2.02-0.81,3.73-2.55,4.2c-8.47,2.29-14.67,8.09-21.19,13.37
				c-2.23,1.81-4.2,2.49-6.32,0.22c-2.18-2.35-1.08-4.31,0.81-6.3c6.66-7.02,14.36-12.34,23.78-14.87
				C257,95.84,259.46,96.28,259.65,99.98z"/>
			<path class="st1" d="M434.59,333.97c-9.36-1.76-17.93-5.16-26.2-9.39c-1.92-0.98-2.2-3-1.8-5.01c0.43-2.19,2.15-2.28,3.96-2.51
				c3.41-0.43,5.85,1.77,8.61,2.99c5.2,2.28,10.38,4.8,16.07,5.28c3.47,0.29,5.52,1.85,5.28,4.93
				C440.26,333.53,436.95,333.37,434.59,333.97z"/>
			<path class="st1" d="M436.45,274.41c-7.02-0.46-14.08-0.59-21-2.03c-2.81-0.58-4.23-2.13-3.74-5.13
				c0.49-3.01,2.88-3.46,5.09-3.15c8.53,1.17,17.04,2.33,25.7,2.06c2.72-0.08,3.48,2.08,3.42,4.26c-0.07,2.22-1.01,4.04-3.75,3.99
				C440.25,274.38,438.35,274.41,436.45,274.41z"/>
			<path class="st1" d="M281.19,109.68c2.89,0.41,5.28-0.46,5.46,2.51c0.13,2.16,0.58,4.22-2.46,5.39
				c-6.87,2.66-13.87,5.15-18.99,11.03c-1.62,1.86-4.12,1.58-6.08-0.06c-1.66-1.38-2.4-3.5-0.84-5
				C265.1,116.96,272.68,111.54,281.19,109.68z"/>
			<path class="st1" d="M310.66,126.82c0.02,2.94-2.12,4.07-3.9,4.58c-5.13,1.48-9.22,4.47-13.19,7.82c-2.03,1.72-4.53,3.4-6.73,0.7
				c-2.27-2.78-1.26-5.45,1.59-7.49c5.15-3.7,10.36-7.29,16.34-9.56C307.9,121.67,310.81,123.81,310.66,126.82z"/>
			<path class="st1" d="M291.69,399.05c-0.21,0.96-0.69,2.28-0.75,3.63c-0.11,2.43-0.95,4-3.63,3.99c-2.62-0.01-4.6-1.31-4.6-3.88
				c0-5.27-1.17-10.16-3.04-15.05c-0.76-1.99-0.85-4.61,2.08-5.59c2.52-0.84,4.41,0.35,5.76,2.3
				C290.45,388.7,290.76,393.79,291.69,399.05z"/>
			<path class="st1" d="M315.16,152.63c-5.15-0.12-6.44-2.23-4.75-5.42c1.73-3.27,13.25-9.54,16.82-8.97
				c1.69,0.27,3.45,0.97,4.03,2.83c0.46,1.48,0.76,3.55-0.72,4.31C325.11,148.16,319.51,150.61,315.16,152.63z"/>
			<path class="st1" d="M314.74,388.9c0,1.64,0.19,3.22-0.05,4.73c-0.33,2.06-1.66,3.46-3.82,3.55c-2.42,0.1-3.99-1.34-4.26-3.63
				c-0.55-4.58-0.84-9.2-1.16-13.8c-0.19-2.74,0.88-4.93,3.77-5.22c2.81-0.28,3.94,2.29,4.32,4.3
				C314.15,382.17,315.45,385.49,314.74,388.9z"/>
			<path class="st1" d="M336.54,166.12c-2.34,0.02-4.55,0.13-4.99-2.73c-0.39-2.54,0.56-4.55,3.01-5.38c2.77-0.94,5.62-1.72,8.5-2.2
				c2.56-0.43,4.46,0.91,4.94,3.48c0.45,2.42-0.99,4.25-3.23,4.55C341.81,164.22,339.47,166.6,336.54,166.12z"/>
			<path class="st1" d="M336.66,373.68c0.13,3.29-0.86,5.46-4.08,5.88c-3.23,0.43-4.19-1.52-4.46-4.3c-0.2-2.04-0.39-4.14-1.03-6.06
				c-0.98-2.94,0.75-4.31,2.89-5.02c2.43-0.81,4.68,0.33,5.34,2.79C335.94,369.25,337.06,371.52,336.66,373.68z"/>
			<path class="st0" d="M89.64,228.62c-13.26,1.18-22.66-11.41-22.43-21.61c0.26-11.57,8.18-23.14,23.53-23.18
				c11-0.03,22.03,11.04,21.98,22.69C112.68,216.11,104.17,229.95,89.64,228.62z M106.56,207c-0.39-9.64-5.78-15.89-14.89-16.79
				c-10.04-1-17.99,6.44-18.41,16.06c-0.36,8.17,8.11,17.45,16.18,16.87C100.01,222.37,105.14,218.18,106.56,207z"/>
			<path class="st1" d="M106.56,207c-1.41,11.18-6.55,15.37-17.12,16.14c-8.06,0.59-16.53-8.7-16.18-16.87
				c0.42-9.62,8.37-17.06,18.41-16.06C100.78,191.12,106.16,197.37,106.56,207z M90.45,214.04c4.29,0.06,7.65-3.01,7.76-7.11
				c0.11-4.26-3.81-8.4-8.07-8.52c-4.21-0.12-8.62,4.04-8.53,8.04C81.71,210.83,85.37,213.97,90.45,214.04z"/>
			<path class="st0" d="M90.45,214.04c-5.09-0.07-8.75-3.21-8.84-7.59c-0.09-4,4.32-8.15,8.53-8.04c4.26,0.12,8.18,4.26,8.07,8.52
				C98.1,211.03,94.75,214.1,90.45,214.04z"/>
		</g>
	</g>
</g>
</svg>
